<svg width="40" height="40" viewBox="0 0 40 40" fill="none" xmlns="http://www.w3.org/2000/svg">
<g clip-path="url(#clip0_647_1125)">
<path d="M19.8366 0H20.1632C20.3024 0.106122 20.4554 0.198366 20.5783 0.320407C21.9513 1.68775 23.3205 3.05918 24.6856 4.43469C24.8738 4.62531 25.0591 4.69592 25.324 4.6951C28.4116 4.68612 31.4992 4.68612 34.5868 4.6951C34.7541 4.69804 34.918 4.7428 35.0636 4.8253C35.2783 4.94775 35.313 5.17674 35.3126 5.41388C35.3101 8.55592 35.3085 11.6978 35.3077 14.8396C35.3045 14.9061 35.3159 14.9725 35.341 15.0341C35.3662 15.0957 35.4045 15.1511 35.4534 15.1963C36.8607 16.5966 38.2645 18.0005 39.6648 19.4082C39.7918 19.5359 39.8889 19.6939 39.9999 19.8371V20.1637C39.8938 20.3029 39.8016 20.4555 39.6791 20.5784C38.2742 21.9912 36.8658 23.4001 35.4538 24.8053C35.4049 24.8503 35.3666 24.9056 35.3414 24.9671C35.3162 25.0286 35.3048 25.0948 35.3081 25.1612C35.3119 28.2829 35.3127 31.4045 35.3105 34.5261C35.3105 35.1016 35.1011 35.3114 34.5256 35.3114C31.404 35.3114 28.2824 35.3131 25.1607 35.3163C25.0522 35.3163 24.9134 35.3571 24.8395 35.4318C23.4342 36.8249 22.0383 38.2269 20.6354 39.6225C20.4934 39.7641 20.3211 39.8755 20.1628 40.0004H19.8362C19.6877 39.8849 19.5256 39.7833 19.393 39.6514C17.9951 38.2607 16.6009 36.8664 15.2101 35.4686C15.1606 35.4149 15.1 35.3726 15.0324 35.3448C14.9649 35.3171 14.8921 35.3044 14.8191 35.3078C11.704 35.3121 8.58916 35.3133 5.4746 35.3114C4.89909 35.3114 4.68849 35.1012 4.68849 34.5265C4.68849 31.3973 4.68685 28.2688 4.68358 25.1412C4.67929 25.0241 4.6336 24.9123 4.55462 24.8257C3.2285 23.4882 1.89257 22.1604 0.56522 20.8257C0.361139 20.6216 0.187267 20.3861 -0.000488281 20.1649V19.8384C0.115022 19.6898 0.215829 19.5273 0.347666 19.3947C1.73869 17.9971 3.13324 16.6033 4.53134 15.2131C4.58512 15.1633 4.62739 15.1023 4.65516 15.0345C4.68294 14.9667 4.69556 14.8936 4.69215 14.8204C4.6878 11.7056 4.68671 8.59089 4.68889 5.47633C4.68889 4.90082 4.89869 4.69102 5.4742 4.69102C8.59556 4.69102 11.7171 4.69184 14.8387 4.69347C14.9762 4.69347 15.0807 4.66449 15.182 4.56286C16.5724 3.16531 17.9664 1.77089 19.364 0.379594C19.5064 0.236329 19.6787 0.125306 19.8366 0ZM34.055 5.95347H5.95013V34.0461H34.055V5.95347ZM16.8905 35.3176L19.9771 38.3996L23.0726 35.3176H16.8905ZM23.0795 4.67878L20.0256 1.61102L16.944 4.67878H23.0795ZM4.67583 16.9127L1.58645 19.9963L4.67583 23.0914V16.9127ZM35.3224 23.0939L38.4007 20.0143L35.3224 16.9257V23.0939Z" fill="#328278"/>
<path d="M34.0551 5.95349V34.0461H5.9502V5.95349H34.0551ZM32.189 20.0143C32.1596 13.2012 26.6902 7.77798 19.8808 7.81023C13.1979 7.84206 7.79019 13.3523 7.81019 20.1086C7.8306 26.7935 13.3579 32.2188 20.1175 32.1902C26.7465 32.158 32.2183 26.64 32.1898 20.0143H32.189Z" fill="#8CC8C4"/>
<path d="M16.8914 35.3175H23.0754L19.9799 38.3995L16.8914 35.3175Z" fill="#8CC8C4"/>
<path d="M23.0796 4.67872H16.9441L20.0257 1.61096L23.0796 4.67872Z" fill="#8CC8C4"/>
<path d="M4.67581 16.9126V23.0914L1.58643 19.9963L4.67581 16.9126Z" fill="#8CC8C4"/>
<path d="M35.3225 23.0938V16.9257L38.4009 20.0142L35.3225 23.0938Z" fill="#8CC8C4"/>
<path d="M32.1898 20.0143C32.2184 26.64 26.7465 32.158 20.118 32.1882C13.3584 32.2188 7.83224 26.7935 7.8106 20.1065C7.7902 13.3518 13.1984 7.84122 19.8816 7.80897C26.691 7.77795 32.1604 13.2012 32.1898 20.0143ZM30.9371 19.9988C30.9441 13.98 26.0306 9.06775 19.9984 9.06326C13.9861 9.05877 9.0751 13.9612 9.06286 19.9812C9.05061 26.0131 13.9641 30.9347 20.0016 30.9371C26.0245 30.94 30.9302 26.0331 30.9371 19.9988Z" fill="#328278"/>
<path d="M30.9371 19.9988C30.9302 26.0331 26.0245 30.94 20.002 30.9376C13.9641 30.9351 9.0506 26.0135 9.06326 19.9817C9.0755 13.9621 13.9865 9.05923 19.9988 9.06372C26.0306 9.06658 30.9441 13.98 30.9371 19.9988ZM20.5759 25.9923C20.771 26.1294 20.9432 26.2625 21.1277 26.3776C21.4669 26.5898 21.8306 26.7425 22.2408 26.7192C22.8788 26.6829 23.2649 26.2956 23.5253 25.7556C23.8412 25.1025 23.9461 24.3952 24.0012 23.6805C24.1175 22.1805 23.9906 20.6911 23.7971 19.2049C23.7445 18.7968 23.4482 18.5519 23.0726 18.6041C22.7147 18.6539 22.5049 18.9694 22.5567 19.3731C22.7404 20.8127 22.8404 22.2564 22.7302 23.7078C22.6914 24.2164 22.6445 24.7282 22.4318 25.2005C22.3037 25.4862 22.1628 25.5486 21.9061 25.376C21.6005 25.1626 21.3112 24.9267 21.0408 24.6703C20.9544 24.5805 20.903 24.4628 20.8959 24.3384C20.82 22.6535 20.7563 20.9682 20.6828 19.2833C20.6784 19.1481 20.645 19.0155 20.5849 18.8943C20.4551 18.6494 20.1547 18.5433 19.88 18.6201C19.6053 18.6968 19.4216 18.938 19.431 19.2511C19.4583 20.0735 19.4959 20.896 19.5286 21.718C19.5669 22.6829 19.6069 23.6478 19.6404 24.6131C19.6588 25.1392 19.4608 25.5711 19.0281 25.8784C18.5596 26.2147 18.2139 26.1498 17.8894 25.6743C17.8198 25.582 17.7618 25.4816 17.7167 25.3752C17.5714 24.98 17.4086 24.5886 17.3053 24.1825C16.9734 22.8764 16.8588 21.5441 16.8343 20.2009C16.8269 19.7898 16.5673 19.5274 16.1951 19.5327C15.8298 19.538 15.5759 19.8184 15.5861 20.2266C15.5989 20.7297 15.6207 21.2331 15.6514 21.7368C15.6592 21.8592 15.6241 21.9111 15.5118 21.9617C15.0788 22.1572 14.6384 22.3433 14.2277 22.5792C13.6873 22.889 13.2481 23.3139 13.0073 23.9062C12.6298 24.8323 12.9506 25.8756 13.7669 26.3813C14.5832 26.887 15.58 26.7078 16.2628 25.9266C16.329 25.8502 16.3935 25.7727 16.4698 25.6817C16.8824 26.5184 17.3575 27.2972 18.3996 27.3298C19.3881 27.3633 20.069 26.8098 20.5759 25.9923ZM27.1473 22.4772C27.0906 20.0556 26.5926 17.3821 25.8939 14.74C25.7894 14.3454 25.4669 14.147 25.1143 14.2421C24.7616 14.3372 24.5861 14.6788 24.6914 15.0833C25.2559 17.2507 25.7004 19.4405 25.8559 21.6784C25.9551 23.107 25.9783 24.5331 25.4269 25.9005C25.3045 26.2086 25.4751 26.549 25.7771 26.676C25.9198 26.7361 26.0799 26.7404 26.2256 26.688C26.3713 26.6356 26.4919 26.5303 26.5637 26.3931C26.6312 26.2597 26.6878 26.121 26.733 25.9784C27.0783 24.9441 27.1469 23.876 27.1457 22.4772H27.1473ZM20.8269 17.7731C21.2796 17.7703 21.6335 17.5829 21.9061 17.2372C22.2086 16.8535 22.3518 16.4009 22.4453 15.9311C22.5204 15.5527 22.311 15.2421 21.949 15.1686C21.6126 15.1005 21.3106 15.32 21.2163 15.6866C21.1664 15.8976 21.0997 16.1042 21.0167 16.3045C20.9069 16.5556 20.8257 16.5666 20.6004 16.4074C20.5783 16.3919 20.5596 16.3735 20.5363 16.3568C20.1837 16.0862 19.8102 16.1527 19.5567 16.52C19.4608 16.6588 19.3494 16.7878 19.2432 16.92C19.1371 17.0523 19.0339 17.0319 18.9534 16.8996C18.8477 16.7266 18.7494 16.5478 18.6575 16.369C18.4943 16.0592 18.16 15.9266 17.8482 16.0556C17.5363 16.1845 17.3632 16.5376 17.511 16.8478C17.6743 17.187 17.8543 17.5335 18.1 17.8127C18.6351 18.4196 19.3947 18.4507 19.9996 17.9131C20.1926 17.7413 20.3563 17.6274 20.6118 17.7498C20.6739 17.78 20.7579 17.7666 20.8253 17.7731H20.8269ZM18.8845 13.9298L18.9396 13.9478C18.9367 14.3045 19.0257 14.6335 19.2465 14.918C19.3391 15.0372 19.4719 15.1186 19.6201 15.1469C19.7684 15.1753 19.9218 15.1486 20.0518 15.0719C20.3196 14.9196 20.46 14.5703 20.3082 14.2996C20.1563 14.029 20.1971 13.7894 20.3082 13.5274C20.3745 13.38 20.3798 13.2123 20.323 13.061C20.2662 12.9097 20.1518 12.787 20.0049 12.7196C19.7 12.5743 19.3367 12.6747 19.1914 12.9947C19.0555 13.2915 18.9828 13.6168 18.8828 13.9298H18.8845Z" fill="#FFD966"/>
<path d="M20.5758 25.9923C20.0689 26.8086 19.3881 27.3633 18.4023 27.3327C17.3603 27.3 16.8852 26.5213 16.4726 25.6845C16.3962 25.7739 16.3317 25.8515 16.2656 25.9294C15.5828 26.7115 14.5901 26.8923 13.7697 26.3841C12.9493 25.8759 12.6325 24.8331 13.0101 23.909C13.2517 23.3155 13.6901 22.8919 14.2305 22.5821C14.6411 22.3462 15.0815 22.16 15.5146 21.9645C15.6268 21.9139 15.6619 21.8637 15.6542 21.7396C15.624 21.2376 15.6022 20.7342 15.5889 20.2294C15.5787 19.8213 15.8338 19.5404 16.1979 19.5355C16.5701 19.5302 16.8297 19.7927 16.837 20.2037C16.8615 21.547 16.9762 22.8804 17.3081 24.1853C17.4113 24.5915 17.5742 24.9829 17.7195 25.378C17.7644 25.4849 17.8222 25.586 17.8917 25.6788C18.2162 26.1531 18.5619 26.218 19.0305 25.8829C19.4615 25.5739 19.6595 25.1421 19.6428 24.6176C19.6093 23.6523 19.5693 22.6874 19.5309 21.7225C19.4983 20.9004 19.4607 20.078 19.4334 19.2555C19.4232 18.9425 19.6048 18.7021 19.8823 18.6245C20.1599 18.547 20.4575 18.6527 20.5872 18.8988C20.6474 19.02 20.6808 19.1526 20.6852 19.2878C20.7587 20.9727 20.8224 22.658 20.8983 24.3429C20.9054 24.4673 20.9568 24.585 21.0432 24.6747C21.3136 24.9312 21.6029 25.1671 21.9085 25.3804C22.1652 25.5531 22.306 25.4902 22.4342 25.2049C22.6468 24.7311 22.6938 24.2208 22.7326 23.7123C22.8428 22.2608 22.7428 20.8172 22.5591 19.3776C22.5072 18.9739 22.7171 18.6584 23.075 18.6086C23.4505 18.5568 23.7468 18.8021 23.7995 19.2094C23.9926 20.6955 24.1195 22.1849 24.0036 23.6849C23.9485 24.3996 23.8436 25.1057 23.5277 25.76C23.2672 26.3 22.8811 26.6874 22.2432 26.7237C21.833 26.747 21.4676 26.5943 21.1301 26.3821C20.9436 26.2625 20.7709 26.1278 20.5758 25.9923ZM15.8101 23.189C15.3264 23.3821 14.877 23.5772 14.517 23.9208C14.3846 24.0472 14.2743 24.1948 14.1905 24.3576C14.0105 24.7127 14.1203 25.111 14.4285 25.3147C14.7076 25.4988 15.0648 25.4457 15.306 25.1082C15.5472 24.7706 15.724 24.3821 15.9256 24.0139C15.9428 23.9773 15.9482 23.9362 15.9411 23.8964C15.9019 23.6715 15.8579 23.4457 15.8101 23.189Z" fill="#328278"/>
<path d="M27.1457 22.4771C27.1457 23.8759 27.0784 24.9449 26.7314 25.9771C26.6862 26.1197 26.6296 26.2584 26.5621 26.3918C26.4903 26.529 26.3697 26.6343 26.224 26.6867C26.0783 26.7391 25.9182 26.7348 25.7755 26.6747C25.4735 26.549 25.3012 26.2085 25.4253 25.8992C25.9763 24.5318 25.9535 23.1057 25.8543 21.6771C25.6988 19.4392 25.2543 17.2494 24.6898 15.082C24.5845 14.6775 24.7543 14.3375 25.1127 14.2408C25.471 14.1441 25.7878 14.3441 25.8922 14.7387C26.591 17.382 27.089 20.0555 27.1457 22.4771Z" fill="#328278"/>
<path d="M20.8253 17.773C20.758 17.7665 20.6739 17.78 20.6106 17.7494C20.353 17.6269 20.1894 17.7412 19.9984 17.9126C19.3935 18.4502 18.6339 18.4192 18.0988 17.8122C17.8539 17.533 17.6718 17.1865 17.5098 16.8473C17.362 16.5371 17.5388 16.1824 17.8469 16.0551C18.1551 15.9277 18.4947 16.0588 18.6563 16.3686C18.7498 16.5486 18.8465 16.7273 18.9522 16.8992C19.0339 17.0314 19.1371 17.0502 19.242 16.9196C19.3469 16.789 19.4596 16.6584 19.5555 16.5196C19.8106 16.1502 20.1841 16.0849 20.5351 16.3563C20.5567 16.373 20.5759 16.3914 20.5992 16.4069C20.8245 16.5661 20.9057 16.5551 21.0155 16.3041C21.0984 16.1037 21.1652 15.8971 21.2151 15.6861C21.3094 15.3188 21.6114 15.1 21.9478 15.1681C22.3098 15.2416 22.5192 15.5522 22.4441 15.9306C22.3506 16.4 22.2073 16.8526 21.9049 17.2367C21.6318 17.5828 21.2796 17.7702 20.8253 17.773Z" fill="#328278"/>
<path d="M18.8828 13.9298C18.9828 13.6167 19.0555 13.2914 19.1906 12.9947C19.3359 12.6747 19.6991 12.5743 20.004 12.7196C20.151 12.7869 20.2653 12.9096 20.3221 13.0609C20.379 13.2123 20.3736 13.3799 20.3073 13.5273C20.1955 13.7894 20.1534 14.0261 20.3073 14.2996C20.4612 14.573 20.3187 14.9196 20.051 15.0718C19.921 15.1485 19.7675 15.1752 19.6193 15.1468C19.4711 15.1185 19.3382 15.0371 19.2457 14.9179C19.0249 14.6322 18.9359 14.3057 18.9387 13.9477L18.8828 13.9298Z" fill="#328278"/>
<path d="M15.8102 23.189C15.8579 23.4441 15.902 23.6698 15.9412 23.8963C15.9483 23.9362 15.9429 23.9772 15.9257 24.0139C15.7241 24.3812 15.5485 24.769 15.3061 25.1081C15.0636 25.4473 14.7077 25.4988 14.4285 25.3147C14.1204 25.1106 14.0106 24.7126 14.1906 24.3575C14.2743 24.1948 14.3847 24.0472 14.5171 23.9208C14.8771 23.5788 15.3265 23.3837 15.8102 23.189Z" fill="#FFD966"/>
</g>
<defs>
<clipPath id="clip0_647_1125">
<rect width="40" height="40" fill="white"/>
</clipPath>
</defs>
</svg>
