<svg width="40" height="40" viewBox="0 0 40 40" fill="none" xmlns="http://www.w3.org/2000/svg">
<g clip-path="url(#clip0_647_1168)">
<path d="M19.8367 0H20.1632C20.3024 0.106122 20.4554 0.198366 20.5783 0.320407C21.9514 1.68775 23.3205 3.05918 24.6856 4.43469C24.8738 4.62531 25.0591 4.69592 25.324 4.6951C28.4119 4.68612 31.4995 4.68612 34.5869 4.6951C34.7542 4.69804 34.918 4.7428 35.0636 4.8253C35.2783 4.94775 35.313 5.17673 35.3126 5.41388C35.3101 8.55592 35.3085 11.6978 35.3077 14.8396C35.3044 14.906 35.3158 14.9724 35.341 15.0339C35.3662 15.0955 35.4045 15.1508 35.4534 15.1959C36.8607 16.5967 38.2645 18.0008 39.6648 19.4082C39.7918 19.5359 39.8889 19.6939 39.9999 19.8371V20.1637C39.8938 20.3029 39.8016 20.4555 39.6791 20.5784C38.2742 21.9912 36.8658 23.4001 35.4538 24.8053C35.4049 24.8503 35.3666 24.9056 35.3414 24.9671C35.3162 25.0286 35.3048 25.0948 35.3081 25.1612C35.3116 28.2829 35.3124 31.4045 35.3105 34.5261C35.3105 35.1016 35.1012 35.3114 34.5256 35.3114C31.404 35.3114 28.2824 35.3131 25.1607 35.3163C25.0522 35.3163 24.9134 35.3571 24.8395 35.4318C23.4342 36.8249 22.0383 38.2269 20.6354 39.6224C20.4934 39.7641 20.3211 39.8755 20.1628 40.0004H19.8362C19.6877 39.8849 19.5256 39.7833 19.393 39.6514C17.9952 38.2607 16.6009 36.8664 15.2101 35.4686C15.1607 35.4148 15.1 35.3725 15.0325 35.3447C14.9649 35.3169 14.8921 35.3043 14.8191 35.3078C11.704 35.3121 8.58918 35.3133 5.47462 35.3114C4.89911 35.3114 4.68849 35.1012 4.68849 34.5265C4.68849 31.3973 4.68687 28.2688 4.6836 25.1412C4.67931 25.0241 4.6336 24.9123 4.55462 24.8257C3.2285 23.4882 1.89257 22.1604 0.56522 20.8257C0.361139 20.6216 0.187267 20.3861 -0.000488281 20.1649V19.8384C0.115022 19.6898 0.215849 19.5273 0.347686 19.3947C1.73871 17.9971 3.13326 16.6033 4.53136 15.2131C4.58514 15.1633 4.62739 15.1023 4.65516 15.0345C4.68294 14.9667 4.69558 14.8936 4.69217 14.8204C4.68782 11.7056 4.68673 8.59089 4.68891 5.47633C4.68891 4.90082 4.89869 4.69102 5.4742 4.69102C8.59529 4.69102 11.7168 4.69184 14.8387 4.69347C14.9762 4.69347 15.0807 4.66449 15.182 4.56286C16.5727 3.16531 17.9667 1.77075 19.364 0.379185C19.5065 0.236328 19.6787 0.125306 19.8367 0ZM34.0558 5.95347H5.95013V34.0453H34.0558V5.95347ZM16.8914 35.3175L19.9779 38.3996L23.0734 35.3175H16.8914ZM23.0795 4.67878L20.0256 1.61102L16.944 4.67878H23.0795ZM4.67583 16.9127C3.64073 17.9461 2.60032 18.9841 1.58645 19.9959L4.67583 23.0914V16.9127ZM35.3224 23.0935L38.4007 20.0143L35.3224 16.9257V23.0935Z" fill="#328278"/>
<path d="M34.0559 5.95349V34.0453H5.9502V5.95349H34.0559ZM32.1898 20.0143C32.1608 13.2012 26.691 7.77798 19.8816 7.81023C13.1988 7.84247 7.7902 13.3531 7.81061 20.1078C7.83101 26.7927 13.3584 32.218 20.1179 32.1894C26.7461 32.158 32.2184 26.64 32.1898 20.0143Z" fill="#8CC8C4"/>
<path d="M16.8914 35.3175H23.0726L19.9771 38.3995L16.8914 35.3175Z" fill="#8CC8C4"/>
<path d="M23.0796 4.67872H16.9441L20.0257 1.61096L23.0796 4.67872Z" fill="#8CC8C4"/>
<path d="M4.67581 16.9126V23.0914L1.58643 19.9959C2.6003 18.984 3.64071 17.9461 4.67581 16.9126Z" fill="#8CC8C4"/>
<path d="M35.3225 23.0934V16.9257L38.4009 20.0142L35.3225 23.0934Z" fill="#8CC8C4"/>
<path d="M32.1898 20.0143C32.2184 26.64 26.7465 32.158 20.1179 32.1882C13.3584 32.2188 7.83224 26.7935 7.8106 20.1065C7.7902 13.3518 13.1983 7.84122 19.8816 7.80897C26.691 7.77795 32.1608 13.2012 32.1898 20.0143ZM30.9371 19.9988C30.9441 13.98 26.0306 9.06775 19.9984 9.06326C13.9861 9.05877 9.07508 13.9612 9.06284 19.9812C9.05059 26.0131 13.9641 30.9347 20.0016 30.9371C26.0245 30.94 30.9302 26.0331 30.9371 19.9988Z" fill="#328278"/>
<path d="M19.9983 9.06324C13.986 9.05875 9.07501 13.9612 9.06277 19.9812C9.05052 26.013 13.964 30.9343 20.0015 30.9371C26.024 30.94 30.9297 26.033 30.9366 19.9983C30.944 13.98 26.0305 9.06773 19.9983 9.06324ZM15.6795 24.4824C15.7611 24.3265 15.8428 24.1694 15.9244 24.0155C15.8416 24.1694 15.7616 24.3265 15.6795 24.4824Z" fill="#FFD966"/>
<path d="M12.9939 16.9734C12.9049 17.3363 12.8114 17.6755 12.7424 18.0191C12.7016 18.2195 12.6677 18.422 12.7314 18.6334C12.8306 18.9599 13.0326 19.162 13.3661 19.2326C13.7563 19.3142 14.1416 19.2689 14.529 19.2012C14.6318 19.1832 14.6661 19.1244 14.6624 19.0285C14.6351 18.3346 14.6155 17.6408 14.5808 16.9502C14.5535 16.4285 14.5065 15.9081 14.4661 15.3877C14.4461 15.1297 14.4253 14.8722 14.398 14.615C14.3845 14.4844 14.4359 14.4432 14.5649 14.4387C14.8947 14.4265 15.2241 14.4032 15.553 14.3779C15.6735 14.3685 15.7302 14.3922 15.7371 14.5326C15.7845 15.5053 15.8441 16.4771 15.8906 17.4497C15.8979 17.6044 15.9575 17.6628 16.102 17.6808C16.6326 17.7473 17.1559 17.6987 17.6804 17.6293C17.8102 17.6118 17.8486 17.555 17.8049 17.4281C17.7335 17.2204 17.6755 17.0077 17.6036 16.7995C17.569 16.7004 17.582 16.6469 17.6939 16.622C18.0588 16.5404 18.4216 16.4489 18.7873 16.3726C18.8281 16.364 18.9188 16.4175 18.9277 16.4542C19.1155 17.2657 19.1131 18.0681 18.7951 18.853C18.7416 18.9853 18.6522 19.0453 18.5155 19.0742C17.8358 19.2142 17.1429 19.2803 16.449 19.2714C16.317 19.2732 16.1854 19.2559 16.0583 19.2199C15.9175 19.1763 15.8837 19.2355 15.8649 19.3518C15.804 19.7384 15.6783 20.1119 15.493 20.4567C15.468 20.5082 15.4312 20.553 15.3855 20.5875C15.3398 20.622 15.2866 20.6451 15.2302 20.6551C14.5922 20.7914 13.9481 20.871 13.2963 20.8208C12.733 20.7771 12.1943 20.6436 11.7816 20.2195C11.3947 19.8224 11.3139 19.3183 11.3355 18.7959C11.3645 18.091 11.553 17.4187 11.8016 16.7616C11.8457 16.6457 11.8939 16.6057 12.0192 16.6497C12.3379 16.764 12.6645 16.8653 12.9939 16.9734Z" fill="#328278"/>
<path d="M27.1029 17.2502C26.4906 16.8013 25.8012 16.769 25.0951 16.7339C25.095 16.6536 25.1008 16.5734 25.1123 16.4939C25.1755 16.2082 25.2465 15.927 25.3118 15.6433C25.3526 15.4649 25.46 15.4025 25.642 15.3947C26.1163 15.3751 26.5241 15.5445 26.9122 15.7919C27.3906 16.0964 27.8706 16.3983 28.3522 16.6976C28.4585 16.7662 28.573 16.821 28.6931 16.8608C28.8037 16.8955 28.8241 16.9576 28.8155 17.0568C28.7747 17.509 28.6833 17.9494 28.4955 18.3629C28.4726 18.4131 28.3894 18.4739 28.3404 18.4686C27.7971 18.4098 27.2963 18.5711 26.7988 18.7523C26.6233 18.8164 26.4506 18.889 26.2747 18.9515C25.7069 19.1531 25.1359 19.278 24.5196 19.2641C24.0404 19.2543 23.678 19.1053 23.3767 18.7596C23.296 18.6622 23.2292 18.5539 23.1784 18.438C23.1245 18.3225 23.0608 18.3155 22.9437 18.3413C22.5033 18.4302 22.0604 18.5098 21.6155 18.5735C21.4812 18.5923 21.4453 18.6576 21.4114 18.7653C21.1363 19.6604 20.7717 20.5254 20.3233 21.3474C20.2494 21.4845 20.1767 21.5262 20.0445 21.4364C19.718 21.2135 19.3914 20.9923 19.0649 20.7698C18.9616 20.6996 18.971 20.6262 19.0306 20.5204C19.4184 19.8364 19.8147 19.1564 20.1735 18.4568C20.3576 18.0964 20.4735 17.7004 20.6077 17.3164C20.651 17.1939 20.7033 17.1392 20.8404 17.1462C21.6433 17.187 22.4176 17.0339 23.1755 16.7845C23.2914 16.7466 23.3543 16.7531 23.3984 16.8821C23.4413 16.995 23.4973 17.1026 23.5653 17.2025C23.8175 17.6 24.1849 17.729 24.6482 17.7184C25.4449 17.7 26.1992 17.4674 26.9669 17.3074C27.0138 17.2922 27.0593 17.2731 27.1029 17.2502Z" fill="#328278"/>
<path d="M12.9911 23.5894C12.4976 24.5849 12.4748 25.578 12.9797 26.5519C12.9734 26.5618 12.9666 26.5713 12.9593 26.5804C12.6711 26.7437 12.6654 26.7437 12.534 26.4413C12.1172 25.4809 12.0952 24.5229 12.5572 23.5674C12.6013 23.4755 12.6454 23.44 12.7434 23.4911C12.8119 23.527 12.8883 23.5494 12.9911 23.5894Z" fill="#328278"/>
<path d="M27.3783 23.4481C27.5466 23.7476 27.6653 24.0723 27.7298 24.4098C27.8726 25.1767 27.7298 25.9012 27.4032 26.5991C27.3624 26.6849 27.3187 26.7138 27.231 26.6673C27.1685 26.6342 27.102 26.6089 27.0159 26.5706C27.5285 25.5836 27.5057 24.5938 27.0159 23.591L27.3783 23.4481Z" fill="#328278"/>
<path d="M24.8062 25.6082V25.4416C24.8062 24.9678 24.8086 24.4939 24.8062 24.02C24.8062 23.9208 24.8368 23.8853 24.9347 23.8927C25.0299 23.8991 25.1253 23.8991 25.2204 23.8927C25.3086 23.8873 25.3376 23.9204 25.3368 24.0086C25.3331 24.3837 25.3368 24.7588 25.3339 25.1339C25.3339 25.2294 25.3486 25.28 25.4621 25.2743C25.6215 25.2654 25.7814 25.268 25.9404 25.282C25.9679 25.2885 25.9934 25.3015 26.0147 25.32C26.0361 25.3385 26.0526 25.3619 26.0629 25.3882C26.1037 25.5992 26.0629 25.6437 25.8462 25.6404C25.5229 25.6355 25.1996 25.6261 24.8763 25.6184C24.8528 25.6163 24.8293 25.6129 24.8062 25.6082Z" fill="#328278"/>
<path d="M17.6355 20.4522C17.749 20.3151 17.8576 20.1922 17.9567 20.0624C18.0265 19.971 18.1159 19.9253 18.2143 19.9783C18.4068 20.081 18.5841 20.2098 18.7412 20.3612C18.971 20.5824 18.782 20.6877 18.711 20.8249C18.6429 20.9539 18.5306 21.0596 18.4404 21.1771C18.3743 21.2637 18.3025 21.273 18.2135 21.2106C18.0249 21.0775 17.829 20.9543 17.6461 20.8139C17.5567 20.7449 17.5135 20.7539 17.4514 20.8428C17.3638 20.9692 17.2664 21.0885 17.16 21.1996C17.1369 21.2167 17.1099 21.2279 17.0814 21.232C17.0529 21.2361 17.0238 21.2331 16.9967 21.2232C16.7963 21.0983 16.6045 20.9596 16.411 20.8241C16.3155 20.7567 16.2886 20.6673 16.3531 20.5665C16.4625 20.3959 16.5718 20.2241 16.6931 20.0612C16.7939 19.9261 16.9306 19.9388 17.0628 20.0151C17.168 20.075 17.2693 20.1414 17.3661 20.2139C17.4563 20.2828 17.5376 20.3649 17.6355 20.4522Z" fill="#328278"/>
<path d="M13.9355 25.6636C13.9474 25.5542 13.9462 25.4697 13.9702 25.3934C13.9804 25.3612 14.0421 25.3301 14.0837 25.3248C14.3286 25.2934 14.3311 25.2959 14.3311 25.0477C14.3311 24.7081 14.3343 24.3685 14.329 24.0273C14.329 23.9252 14.3572 23.8824 14.4637 23.891C14.5617 23.8987 14.6612 23.8869 14.7592 23.8963C14.7894 23.8991 14.8408 23.9424 14.8408 23.9669C14.8376 24.4244 14.8409 24.8824 14.8147 25.3391C14.8033 25.5518 14.6539 25.6685 14.4396 25.6763C14.2756 25.6836 14.1115 25.6693 13.9355 25.6636Z" fill="#328278"/>
<path d="M23.5923 25.6372C23.4412 25.6372 23.2992 25.6429 23.1584 25.6319C23.1335 25.6319 23.0951 25.5605 23.0939 25.5213C23.0882 25.2682 23.091 25.0152 23.091 24.7621C23.091 24.509 23.0939 24.2641 23.091 24.0152C23.091 23.9225 23.12 23.8862 23.2135 23.8927C23.3087 23.8979 23.404 23.8979 23.4992 23.8927C23.5731 23.8899 23.6078 23.9143 23.6078 23.9935C23.6053 24.5241 23.6078 25.0548 23.6049 25.5825C23.6023 25.6011 23.5981 25.6194 23.5923 25.6372Z" fill="#328278"/>
<path d="M16.0454 24.7604C16.0454 24.5073 16.0478 24.2542 16.0454 24.0016C16.0454 23.92 16.0711 23.8861 16.1544 23.8914C16.2371 23.8979 16.3202 23.8979 16.4029 23.8914C16.5074 23.8808 16.547 23.9322 16.5535 24.0245C16.5556 24.0559 16.5601 24.0873 16.5601 24.1187C16.5601 24.5771 16.5601 25.0355 16.5621 25.4938C16.5621 25.5987 16.5319 25.6498 16.4205 25.6408C16.3455 25.6344 16.2702 25.6344 16.1952 25.6408C16.085 25.6502 16.0405 25.613 16.0442 25.4951C16.0523 25.2502 16.0454 25.0053 16.0454 24.7604Z" fill="#328278"/>
<path d="M23.2144 20.0731C23.1769 20.1643 23.1325 20.2526 23.0818 20.3372C22.9789 20.4858 22.863 20.6254 22.7515 20.7678C22.6928 20.8429 22.6189 20.8674 22.536 20.8086C22.3152 20.6564 22.092 20.5074 21.8809 20.3429C21.8381 20.3094 21.8087 20.1935 21.8336 20.1499C21.9481 19.9391 22.0812 19.739 22.2311 19.5519C22.2854 19.4874 22.4352 19.4543 22.5234 19.4772C22.7911 19.5474 22.9915 19.7327 23.165 19.9433C23.1875 19.9723 23.1924 20.0143 23.2144 20.0731Z" fill="#328278"/>
<path d="M26.7677 19.6689C26.8848 19.7294 27.0077 19.7779 27.1138 19.8506C27.6334 20.2061 27.6391 20.2906 27.3126 20.7269C26.9616 21.1955 27.0134 21.1608 26.5604 20.8706C26.4353 20.7905 26.3184 20.6984 26.2114 20.5955C26.1705 20.5547 26.1354 20.4538 26.1579 20.4159C26.2885 20.1959 26.4326 19.9828 26.5828 19.7755C26.6167 19.7281 26.6918 19.711 26.7677 19.6689Z" fill="#328278"/>
<path d="M21.1199 22.4552C21.1244 22.727 21.124 22.725 20.8963 22.767C20.5567 22.829 20.2167 22.8894 19.8787 22.9613C19.7616 22.9862 19.6995 22.956 19.6746 22.8421C19.6637 22.7939 19.6511 22.7462 19.6367 22.6988C19.5958 22.5605 19.6273 22.4641 19.7816 22.4262C20.1534 22.3343 20.5244 22.2384 20.8963 22.1454C21.0265 22.1127 21.095 22.1699 21.1077 22.2996C21.1134 22.3654 21.1179 22.4311 21.1199 22.4552Z" fill="#328278"/>
<path d="M27.5716 21.7429C27.576 22.0115 27.5683 22.0098 27.332 22.0494C27.0026 22.1041 26.6732 22.1649 26.3479 22.2396C26.2062 22.2719 26.1515 22.2331 26.1173 22.0992C26.0336 21.7768 26.0254 21.767 26.3487 21.6731C26.6719 21.5792 26.996 21.5098 27.3222 21.4356C27.5156 21.3923 27.5397 21.4147 27.5617 21.6102C27.5679 21.6645 27.5699 21.7196 27.5716 21.7429Z" fill="#328278"/>
<path d="M21.9706 25.5216C21.9298 25.3853 21.8996 25.2465 21.8629 25.1094C21.8513 25.061 21.8283 25.0162 21.7957 24.9786C21.763 24.9411 21.7218 24.912 21.6755 24.8939C21.6449 24.8812 21.6155 24.8649 21.5584 24.8372C21.6033 24.8248 21.6469 24.8082 21.6886 24.7874C21.7555 24.7425 21.8392 24.7057 21.8784 24.6404C22.0502 24.3576 21.8829 23.9616 21.5576 23.9274C21.218 23.8914 20.8727 23.909 20.5302 23.9037C20.4376 23.9037 20.4139 23.9506 20.4143 24.0392C20.418 24.5331 20.4143 25.027 20.4163 25.5208C20.4163 25.5518 20.4204 25.5829 20.4233 25.6294H20.9282C20.9326 25.6237 20.9358 25.6172 20.9376 25.6102C20.9376 25.4404 20.9376 25.2702 20.9441 25.1008C20.9441 25.06 20.967 25.0004 20.9963 24.987C21.1555 24.9131 21.2947 24.987 21.3372 25.1592C21.3698 25.2931 21.3959 25.4294 21.4347 25.5616C21.4449 25.5972 21.4898 25.6457 21.5213 25.6474C21.6438 25.6507 21.7664 25.6477 21.8886 25.6384C21.9592 25.6347 21.9931 25.6029 21.9706 25.5216ZM21.4127 24.4812C21.4074 24.6037 21.3453 24.6596 21.2266 24.6608C21.2227 24.6615 21.2189 24.6623 21.2151 24.6633C20.9559 24.7041 20.9417 24.6902 20.9417 24.4274C20.9417 24.1755 20.9959 24.1351 21.2421 24.2016C21.3776 24.2392 21.4184 24.3114 21.411 24.4812H21.4127Z" fill="#328278"/>
<path d="M18.9502 24.7445C18.9396 24.7445 18.9302 24.7331 18.9012 24.7155C18.9257 24.6967 18.9513 24.6794 18.9779 24.6637C19.1987 24.5559 19.26 24.4245 19.2069 24.1694C19.1767 24.0253 19.0367 23.9245 18.8334 23.9172C18.5175 23.9053 18.2016 23.9029 17.8853 23.8931C17.8036 23.8906 17.7743 23.9192 17.7747 24.0021C17.7771 24.5123 17.7771 25.0226 17.7747 25.5331C17.7747 25.6057 17.8016 25.6339 17.8702 25.6339C18.1902 25.6339 18.5106 25.6413 18.8302 25.6249C18.9449 25.6192 19.0893 25.5841 19.1628 25.5074C19.3669 25.2955 19.3583 24.7886 18.9502 24.7445ZM18.4538 24.1841C18.6534 24.1841 18.7281 24.2413 18.7289 24.3939C18.7289 24.5608 18.6551 24.6208 18.4432 24.6225C18.2987 24.6225 18.2889 24.609 18.2881 24.3919C18.2906 24.1935 18.2971 24.1841 18.4555 24.1841H18.4538ZM18.7457 25.2935C18.7283 25.3145 18.7049 25.3299 18.6787 25.3376C18.6409 25.3482 18.602 25.3544 18.5628 25.3564C18.2906 25.3747 18.2906 25.3743 18.2906 25.0984C18.2906 24.8364 18.2906 24.8368 18.5518 24.8535C18.6436 24.8592 18.7253 24.8841 18.7596 24.9796C18.7991 25.0841 18.822 25.1927 18.7461 25.2935H18.7457Z" fill="#328278"/>
<path d="M15.8482 13.3102C15.7971 13.0539 15.7563 12.7906 15.6596 12.551C15.5779 12.3469 15.3849 12.2433 15.1518 12.2498C14.6955 12.2474 14.4388 12.5625 14.4955 13.0535C14.5094 13.1759 14.5731 13.3441 14.5171 13.4118C14.4482 13.4959 14.2788 13.4976 14.1526 13.5343L14.1367 13.5384C13.7616 13.6274 13.7502 13.6494 13.8461 14.022C13.8722 14.1233 13.9135 14.1559 14.02 14.1216C14.4531 13.982 14.8918 13.8584 15.3216 13.7086C15.4788 13.6539 15.62 13.549 15.7608 13.4551C15.8073 13.4265 15.8584 13.3523 15.8482 13.3102ZM15.3416 13.1576C15.249 13.1918 15.1567 13.2278 15.0628 13.258C14.9037 13.3086 14.869 13.2812 14.8669 13.111C14.8649 12.9408 14.9567 12.8086 15.1033 12.7792C15.2257 12.7547 15.3722 12.8445 15.4151 12.9698C15.4453 13.0531 15.4371 13.1225 15.3433 13.1576H15.3416Z" fill="#328278"/>
<path d="M23.9829 14.3461C23.7548 14.0004 23.3576 13.9723 23.0948 14.2931C22.9896 14.4267 22.9108 14.579 22.8625 14.7421C22.718 15.2102 22.9948 15.5723 23.4813 15.5759C23.8107 15.5784 24.0405 15.4457 24.1119 15.1992C24.1559 15.0565 24.1672 14.9056 24.1449 14.7579C24.1225 14.6102 24.0672 14.4695 23.9829 14.3461ZM23.5066 15.0959C23.3413 15.0959 23.2189 14.9992 23.2209 14.8661C23.2229 14.7331 23.3584 14.5857 23.4911 14.5804C23.5657 14.5809 23.6374 14.6097 23.6915 14.661C23.7457 14.7123 23.7784 14.7823 23.7829 14.8567C23.7838 14.9996 23.674 15.0943 23.5066 15.0959Z" fill="#328278"/>
<path d="M18.5155 14.4429C18.2869 14.1624 17.9126 14.1547 17.6906 14.438C17.5731 14.5888 17.4876 14.762 17.4392 14.9469C17.322 15.4102 17.5987 15.74 18.0755 15.7404C18.3743 15.7404 18.6118 15.609 18.6849 15.3767C18.791 15.04 18.7404 14.7196 18.5155 14.4429ZM18.0881 15.2539C17.9249 15.2539 17.8061 15.1686 17.8024 15.042C17.7971 14.9053 17.9273 14.7482 18.0518 14.7416C18.2237 14.7322 18.3592 14.849 18.3641 15.0098C18.3673 15.1498 18.2514 15.2527 18.0881 15.2539Z" fill="#328278"/>
</g>
<defs>
<clipPath id="clip0_647_1168">
<rect width="40" height="40" fill="white"/>
</clipPath>
</defs>
</svg>
