<svg width="97" height="133" viewBox="0 0 97 133" fill="none" xmlns="http://www.w3.org/2000/svg">
<path d="M45.6556 124.747H40.2671V96.8916H45.6606V106.039C46.7822 105.5 47.7592 104.937 48.7961 104.543C50.79 103.81 52.7839 104.045 54.718 104.738C56.8764 105.495 58.0578 107.155 58.6609 109.279C58.8677 109.906 58.9901 110.558 59.0248 111.218C59.0547 115.704 59.0248 120.156 59.0248 124.707H53.6263C53.6263 124.283 53.5715 123.859 53.5665 123.436C53.5266 119.662 53.5665 115.884 53.4269 112.11C53.3372 109.877 52.086 108.82 49.8877 108.706C48.9445 108.613 48.0012 108.881 47.2482 109.457C46.4951 110.032 45.9883 110.872 45.8301 111.806C45.6935 112.712 45.6368 113.627 45.6606 114.543C45.6606 117.534 45.6606 120.485 45.6606 123.456L45.6556 124.747Z" fill="black"/>
<path d="M73.7148 104.588C75.7686 104.588 77.7027 104.558 79.6218 104.623C79.876 104.623 80.215 105.087 80.3446 105.406C81.8101 109.034 83.2457 112.678 84.6913 116.317C84.8209 116.651 84.9705 116.975 85.1898 117.514L88.42 108.705C88.8486 107.539 89.2574 106.363 89.7359 105.216C89.8031 105.067 89.9036 104.935 90.0297 104.83C90.1559 104.725 90.3044 104.651 90.4637 104.613C92.3579 104.563 94.2521 104.583 96.256 104.583C96.1015 105.037 96.0018 105.381 95.8672 105.715C92.348 114.318 88.8337 122.922 85.3244 131.526C85.254 131.823 85.0747 132.083 84.8219 132.255C84.569 132.427 84.261 132.497 83.9586 132.453C82.3285 132.388 80.6935 132.453 78.8791 132.453C79.876 130.095 80.7135 127.887 81.7204 125.743C81.9855 125.236 82.1214 124.67 82.1162 124.097C82.111 123.524 81.9648 122.961 81.6905 122.458C79.1383 116.945 76.6808 111.387 74.2133 105.844C74.0488 105.465 73.9142 105.091 73.7148 104.588Z" fill="black"/>
<path d="M34.6193 124.742H29.2407L29.136 123.117C28.7073 123.431 28.3833 123.695 28.0344 123.929C24.9288 126.003 20.1335 125.38 18.0648 123.371C16.7446 122.17 15.9511 120.497 15.8565 118.715C15.717 114.069 15.8117 109.413 15.8117 104.673H21.2551V105.829C21.2551 109.493 21.2551 113.162 21.2551 116.831C21.2551 118.366 21.7535 119.672 23.3038 120.285C24.9189 120.923 26.529 120.858 27.7901 119.552C28.4093 118.945 28.8136 118.152 28.9416 117.294C29.126 114.259 29.1161 111.218 29.1659 108.177C29.1659 107.016 29.1659 105.854 29.1659 104.638H34.5993L34.6193 124.742Z" fill="black"/>
<path d="M0 104.543H5.35366V106.906C6.51013 106.178 7.50708 105.356 8.6486 104.877C9.79011 104.399 11.0363 104.289 12.3423 103.99V109.398C11.5198 109.513 10.7273 109.583 9.94963 109.747C7.45724 110.281 5.76241 111.951 5.57299 114.453C5.35366 117.369 5.44338 120.31 5.39852 123.241C5.39852 123.71 5.39852 124.178 5.39852 124.707H0V104.543Z" fill="black"/>
<path d="M64.9419 104.568H70.2806V124.727H64.9419V104.568Z" fill="black"/>
<path d="M18.8774 102.031V98.3721H30.8958V102.031H18.8774Z" fill="black"/>
<path d="M67.5389 96.4031C67.934 96.3809 68.3296 96.4385 68.7019 96.5726C69.0743 96.7066 69.4158 96.9143 69.7061 97.1833C69.9964 97.4522 70.2296 97.7769 70.3917 98.1379C70.5537 98.4989 70.6414 98.8889 70.6494 99.2846C70.6575 99.6803 70.5857 100.073 70.4385 100.441C70.2912 100.808 70.0714 101.142 69.7923 101.423C69.5131 101.703 69.1803 101.924 68.8137 102.073C68.4471 102.223 68.0542 102.296 67.6585 102.29C67.2634 102.312 66.8679 102.255 66.4955 102.121C66.1232 101.987 65.7816 101.779 65.4913 101.51C65.201 101.241 64.9678 100.916 64.8058 100.555C64.6437 100.194 64.556 99.8042 64.548 99.4086C64.5399 99.0129 64.6117 98.6197 64.759 98.2524C64.9062 97.8851 65.126 97.5512 65.4052 97.2707C65.6843 96.9901 66.0171 96.7688 66.3837 96.6197C66.7503 96.4706 67.1432 96.397 67.5389 96.4031Z" fill="black"/>
<path d="M48.4299 81.56C70.792 81.56 88.9199 63.432 88.9199 41.07C88.9199 18.7079 70.792 0.579956 48.4299 0.579956C26.0679 0.579956 7.93994 18.7079 7.93994 41.07C7.93994 63.432 26.0679 81.56 48.4299 81.56Z" fill="#328278"/>
<mask id="mask0_775_5493" style="mask-type:luminance" maskUnits="userSpaceOnUse" x="7" y="0" width="82" height="82">
<path d="M48.4299 81.56C70.7919 81.56 88.9199 63.432 88.9199 41.07C88.9199 18.7079 70.7919 0.579956 48.4299 0.579956C26.0679 0.579956 7.93994 18.7079 7.93994 41.07C7.93994 63.432 26.0679 81.56 48.4299 81.56Z" fill="white"/>
</mask>
<g mask="url(#mask0_775_5493)">
<path d="M95.67 64.47C95.67 63.93 95.57 63.59 95.57 63.25C95.57 60.31 95.57 57.38 95.57 54.45C95.5553 53.9531 95.6581 53.4597 95.87 53.01C97.49 50.13 99.15 47.28 100.8 44.43C100.923 44.2948 101.06 44.174 101.21 44.07C102.08 45.57 102.82 47.07 103.8 48.45C104.11 48.87 104.38 49.31 104.64 49.74C104.9 48.21 105.11 46.66 105.22 45.09L102.83 40.92C103.63 39.53 104.4 38.19 105.17 36.92C105.03 35.3 104.8 33.71 104.51 32.13C103.43 34.05 102.32 35.98 101.17 37.99C100.83 37.45 100.57 37.09 100.35 36.7C98.91 34.2 97.47 31.7 96.04 29.19C95.7929 28.8149 95.6387 28.3865 95.59 27.94C95.59 24.5 95.59 21.07 95.59 17.35L100.95 20.35C100.243 18.73 99.46 17.1466 98.6 15.6L95.6 13.91V10.91C94.64 9.52331 93.6167 8.18998 92.53 6.90998V12.17C90.84 11.17 89.43 10.25 87.9 9.56998C84.4066 8.11584 81.6212 5.35199 80.14 1.86998C79.48 0.369981 78.53 -1.01002 77.72 -2.45002C77.7023 -2.60953 77.7023 -2.77051 77.72 -2.93002H82C80.53 -4.00002 79 -4.99002 77.45 -5.93002H75.74C75.46 -6.39002 75.18 -6.88002 74.9 -7.36002C73.3733 -8.16002 71.8033 -8.89669 70.19 -9.57002C70.86 -8.40002 71.54 -7.20002 72.29 -5.87002C68.52 -5.87002 65.08 -5.87002 61.65 -5.87002C61.3294 -5.88569 61.0172 -5.9783 60.74 -6.14002C57.87 -7.87002 55 -9.53002 52.15 -11.18C52.04 -11.24 51.97 -11.37 51.77 -11.58L55.26 -13.58C53.52 -13.79 51.77 -13.92 50 -13.96L48.63 -13.23L47.27 -14.02H46.7C45.1 -14.02 43.53 -13.84 41.97 -13.67L45.05 -11.88C45.2371 -11.7504 45.4112 -11.6031 45.57 -11.44C44.06 -10.57 42.65 -9.75002 41.22 -8.94002C39.51 -7.94002 37.88 -6.64002 36.04 -6.14002C34.2 -5.64002 32.12 -5.99002 30.15 -5.98002H25L27.36 -10.12C25.7866 -9.52669 24.2766 -8.87335 22.83 -8.16002L21.58 -6.01002H18.84C17.26 -5.07669 15.7333 -4.07669 14.26 -3.01002H19.7C19.47 -2.50002 19.34 -2.13002 19.15 -1.80002C17.67 0.779981 16.15 3.35998 14.68 5.92998C14.4948 6.29319 14.2236 6.6056 13.89 6.83998C10.89 8.56998 7.94998 10.26 4.76998 12.08V5.76998C3.64998 7.06998 2.59998 8.42998 1.60998 9.82998V13.9L-2.18002 16.1C-2.88002 17.4333 -3.52335 18.8166 -4.11002 20.25L-3.81002 20.41L1.67998 17.33V19.33C1.67998 21.99 1.67998 24.65 1.67998 27.33C1.71686 27.8748 1.62077 28.4205 1.39998 28.92C-0.260018 31.92 -1.97002 34.8 -3.76002 37.92C-4.03002 37.53 -4.26002 37.27 -4.42002 36.98C-5.42002 35.28 -6.42002 33.5733 -7.42002 31.86C-7.69002 33.47 -7.89002 35.11 -8.02002 36.77C-7.21002 38.16 -6.41002 39.56 -5.58002 40.99L-8.00002 45.18C-7.87002 46.83 -7.68002 48.47 -7.41002 50.07C-6.32335 48.19 -5.22668 46.31 -4.12002 44.43C-4.00959 44.2881 -3.88194 44.1604 -3.74002 44.05L-2.48002 46.19C-1.29002 48.25 -0.0800172 50.3 1.07998 52.38C1.40938 52.9229 1.60477 53.5365 1.64998 54.17C1.70998 57.28 1.64998 60.4 1.64998 63.52C1.64998 63.74 1.59998 63.96 1.53998 64.52L-3.80002 61.38L-4.11002 61.56C-3.53002 62.98 -2.88002 64.38 -2.18002 65.74L1.58998 67.91V72C2.58998 73.4 3.58998 74.75 4.71998 76V69.85C5.17998 70.05 5.50998 70.17 5.80998 70.34C8.35998 71.77 10.9 73.26 13.42 74.77C13.9007 75.0243 14.3125 75.3915 14.62 75.84C16.26 78.59 17.84 81.38 19.44 84.16C19.5027 84.3404 19.5561 84.524 19.6 84.71H14C15.5259 85.8423 17.1079 86.8969 18.74 87.87H21.61C22.04 88.61 22.48 89.36 22.91 90.12C24.38 90.83 25.91 91.49 27.43 92.12C26.66 90.76 25.88 89.37 25.02 87.86H27.86C30.2 87.86 32.54 87.86 34.86 87.86C35.6245 87.8761 36.3746 88.0714 37.05 88.43C39.63 89.83 42.16 91.33 44.7 92.8C44.96 92.96 45.21 93.14 45.6 93.4L43.6 94.58C43.01 94.91 42.4 95.22 41.8 95.58C43.59 95.77 45.41 95.88 47.25 95.91L48.63 95.11L50 95.77C51.75 95.71 53.49 95.58 55.2 95.37L52.27 93.67C52.0997 93.5422 51.9392 93.4018 51.79 93.25C52.73 92.69 53.58 92.16 54.44 91.66C56.34 90.56 58.23 89.42 60.16 88.39C60.8353 88.0257 61.5836 87.8173 62.35 87.78C65.55 87.72 68.76 87.78 72.35 87.78C71.62 89.05 70.95 90.24 70.28 91.41C71.88 90.7433 73.44 90.0166 74.96 89.23L75.78 87.83H77.5C79.13 86.83 80.7 85.83 82.22 84.76H77.8C77.8 84.56 77.72 84.44 77.75 84.38C79.43 81.44 81.11 78.49 82.82 75.56C82.9951 75.2931 83.2362 75.0761 83.52 74.93C86.33 73.29 89.15 71.68 91.98 70.06C92.1494 69.9974 92.3232 69.9472 92.5 69.91V75.24C93.6 73.95 94.64 72.61 95.61 71.24V67.94L98.87 66.07C99.71 64.55 100.473 62.9933 101.16 61.4L95.67 64.47ZM86.48 12.04L92.48 15.51V22.51L92.27 22.62L90.27 19.3L86.8 18.92L88.24 15.77L86.3 12.27L86.48 12.04ZM88.48 22.04C89.79 24.34 91.09 26.59 92.37 28.86C92.5029 29.1511 92.5613 29.4707 92.54 29.79C92.54 32.3 92.54 34.79 92.54 37.39L90.06 39.02L87.54 37.26V32.67H80.17L80.08 32.38L86.41 28.68C85.63 27.28 84.87 25.95 84.09 24.57L85.36 21.84L88.48 22.04ZM82.22 60.34L78.77 60.67L77.03 63.45C75.68 62.69 74.43 61.85 73.03 61.25C69.6916 59.8135 67.0468 57.1293 65.66 53.77C64.953 52.3351 64.1685 50.9397 63.31 49.59C63.31 49.52 63.31 49.41 63.31 49.18H68.07C69.94 49.18 71.91 48.85 73.67 49.32C75.43 49.79 76.97 51.04 78.6 51.96C79.83 52.66 81.05 53.38 82.4 54.16L80.85 57.09C81.3 58.17 81.73 59.16 82.25 60.33L82.22 60.34ZM43.22 71.03C42.8967 68.1842 43.6729 65.3224 45.39 63.03C46.53 61.37 47.39 59.56 48.51 57.71C48.7463 57.943 48.9606 58.1974 49.15 58.47C50.61 60.96 52.07 63.47 53.5 65.95C53.7312 66.2907 53.8786 66.6814 53.93 67.09C53.93 70.24 53.93 73.39 53.93 76.7L50.65 76.86C50.04 77.71 49.39 78.58 48.65 79.63L46.51 76.77H43.27V74.87C43.3388 73.5874 43.3321 72.3018 43.25 71.02L43.22 71.03ZM43.3 60.23V53.6L45.54 52.27L46.91 54.56L43.57 60.35L43.3 60.23ZM50.3 54.58L51.66 52.29L53.85 53.52V60.17L53.61 60.24C52.56 58.36 51.46 56.48 50.34 54.57L50.3 54.58ZM50.61 48.29L48.61 51.53C47.91 50.36 47.3 49.36 46.61 48.26L43.26 50.15V46.38L39.4 46.16L41.33 42.86L38 40.95L41.22 39.07L39.6 35.85L43.23 35.55V31.77L46.64 33.61L48.56 30.34L50.56 33.61L53.91 31.77V35.6H57.91L55.91 38.93L59.28 40.93L56.02 42.93L57.79 46.19L54 46.37V50.15L50.61 48.29ZM14.87 54.22C16.64 53.22 18.42 52.33 20.02 51.22C22.2277 49.6473 24.9343 48.936 27.63 49.22C29.72 49.39 31.84 49.22 34.23 49.22C32.41 52.39 30.76 55.29 29.08 58.22C28.8979 58.4819 28.654 58.6948 28.37 58.84C25.83 60.32 23.2866 61.7866 20.74 63.24C20.5609 63.3179 20.3773 63.3847 20.19 63.44L18.53 60.74L15.06 60.37L16.45 57.13C15.94 56.15 15.44 55.24 14.87 54.22ZM9.99998 40.93L12.65 38.86C12.71 37.92 12.77 36.93 12.84 36.01C13.01 35.89 13.08 35.8 13.15 35.8C16.21 35.8 19.27 35.66 22.33 35.8C23.3189 35.9619 24.2608 36.3372 25.09 36.9C27.18 38.05 29.22 39.27 31.28 40.47C31.4914 40.6297 31.6918 40.8034 31.88 40.99C30.02 42.09 28.26 42.99 26.67 44.1C24.2468 45.8573 21.2544 46.6455 18.28 46.31C16.51 46.15 14.72 46.31 12.79 46.31V43.08L9.99998 40.93ZM15 21.56L18.47 21.18C19.02 20.29 19.56 19.4 20.16 18.41L22.23 19.56C22.8405 19.9617 23.475 20.3257 24.13 20.65C25.8637 21.3619 27.4368 22.4148 28.756 23.746C30.0753 25.0773 31.1138 26.6599 31.81 28.4C32.4 29.73 33.22 30.96 33.93 32.24C33.93 32.3 33.93 32.41 33.93 32.64C32.3511 32.555 30.7688 32.555 29.19 32.64C25.4848 33.1175 21.74 32.123 18.76 29.87C17.5059 29.031 16.2037 28.2664 14.86 27.58L16.47 24.77L15 21.56ZM36 35.77L37.18 37.89L35 39.19L29.09 35.77H36ZM35.12 42.7L37.28 44.14L36 46.18H29.44L29.32 45.94L35.12 42.7ZM37.7 49.32H40.3V51.95L34.57 55.26L34.39 55.02L37.7 49.32ZM37.59 32.57C36.59 30.71 35.59 28.68 34.52 26.65L40.35 29.98V32.57H37.59ZM39.44 26.03C36.93 24.6 34.44 23.17 31.94 21.71C31.501 21.4698 31.127 21.1266 30.85 20.71C29.27 18.08 27.75 15.42 26.11 12.6L28.89 10.89C29.04 9.74998 29.18 8.65998 29.34 7.41998L32.42 8.76998L35.24 7.22998C35.5 7.59998 35.75 7.90998 35.95 8.22998C37.26 10.49 38.57 12.75 39.86 15.02C40.1202 15.3946 40.285 15.8272 40.34 16.28C40.34 19.57 40.34 22.86 40.34 26.28C40.0171 26.2051 39.6996 26.1083 39.39 25.99L39.44 26.03ZM31 60.91C31.1287 60.7199 31.2999 60.5625 31.5 60.45L40.23 55.39C40.3203 55.765 40.3838 56.146 40.42 56.53C40.42 59.37 40.42 62.22 40.42 65.06C40.4356 65.5162 40.3395 65.9694 40.14 66.38C38.67 68.98 37.14 71.55 35.67 74.13C35.5494 74.2909 35.4156 74.4414 35.27 74.58L32.51 73.09L29.34 74.44C29.18 73.2 29.05 72.12 28.91 71.02L26.13 69.31C27.73 66.45 29.33 63.68 31 60.91ZM53.57 15.77C52.1 18.41 50.57 21.01 49.04 23.63C48.8919 23.8329 48.7316 24.0266 48.56 24.21C46.82 21.21 45.18 18.33 43.56 15.47C43.4148 15.2377 43.3289 14.9733 43.31 14.7C43.31 11.54 43.31 8.38998 43.31 5.05998H46.57L48.64 2.20998L50.74 4.94998L53.92 5.08998C53.92 5.66998 54 6.15998 54 6.64998C54 9.12998 54 11.6 54 14.08C53.9961 14.6699 53.8485 15.25 53.57 15.77ZM53.87 21.67V28.28L51.74 29.6L50.34 27.3C51.46 25.39 52.56 23.51 53.65 21.62L53.87 21.67ZM46.93 27.28L45.61 29.6L43.35 28.23V21.63L43.6 21.53L46.93 27.28ZM82.36 27.56C81.99 27.8 81.67 28.05 81.36 28.25C79.1 29.56 76.84 30.86 74.56 32.15C74.1595 32.3625 73.7324 32.5206 73.29 32.62C73.0178 32.655 72.7422 32.655 72.47 32.62H63.22C63.3469 32.2573 63.4972 31.9032 63.67 31.56C65.09 29.1 66.51 26.63 67.97 24.19C68.2058 23.7452 68.5496 23.3669 68.97 23.09C71.61 21.52 74.28 20 77.14 18.35C77.71 19.35 78.22 20.18 78.8 21.14L82.28 21.54L80.83 24.77L82.36 27.56ZM59.67 49.29L63 55.01L62.79 55.2L57 51.93V49.29H59.67ZM59.67 32.56H57V29.94L62.68 26.63L62.91 26.84C61.84 28.77 60.74 30.67 59.65 32.56H59.67ZM61.42 46.15L60.14 44L62.31 42.77L68 45.97V46.15H61.42ZM60.19 37.85C60.59 37.13 60.97 36.42 61.38 35.67H68C67.9948 35.7432 67.9948 35.8167 68 35.89L62.37 39.2L60.19 37.85ZM70 14.7C69.572 15.3418 69.1845 16.0098 68.84 16.7C68.168 18.3253 67.1803 19.8011 65.9341 21.0422C64.688 22.2832 63.208 23.2647 61.58 23.93C60.09 24.6 58.72 25.52 57.13 26.42C57.07 25.92 56.98 25.59 56.98 25.26C56.98 22.42 56.98 19.58 56.98 16.74C56.9492 16.3306 57.0142 15.9198 57.17 15.54C58.72 12.8 60.32 10.07 61.99 7.17998L64.85 8.76998L68 7.37998C68.14 8.60998 68.27 9.67998 68.41 10.82L71.18 12.55L70 14.7ZM57 56.09C57.0225 55.8679 57.0592 55.6474 57.11 55.43C57.58 55.67 57.98 55.85 58.37 56.07C60.67 57.4 62.99 58.7 65.26 60.07C65.872 60.4506 66.3913 60.9631 66.78 61.57C68.3 64.07 69.78 66.63 71.27 69.3L68.49 71C68.34 72.16 68.21 73.23 68.06 74.45L64.9 73.05L62.13 74.57C61.8923 74.3068 61.6751 74.026 61.48 73.73C60.12 71.4 58.76 69.06 57.43 66.73C57.1824 66.2996 57.0417 65.816 57.02 65.32C56.93 62.23 57 59.16 57 56.09ZM75.33 46.24C74.8303 46.2349 74.3394 46.1079 73.9 45.87C72.5 45.09 71.13 44.25 69.76 43.43L65.6 40.95C66.6 40.3 67.48 39.69 68.39 39.14C69.69 38.37 71.04 37.69 72.3 36.86C73.803 35.949 75.5448 35.5101 77.3 35.6H83.19C83.59 35.6 83.99 35.66 84.51 35.71V38.83L87.57 40.92L84.57 42.92V46.04C84.2089 46.1364 83.8412 46.2066 83.47 46.25C80.69 46.28 78 46.28 75.28 46.24H75.33ZM80.66 8.76998C80.845 8.90553 80.9985 9.07951 81.11 9.27998C82.37 11.46 83.61 13.65 84.91 15.9L83.63 18.7L80.63 18.45C79.81 17.08 79.03 15.8 78.18 14.39L71.85 18L71.67 17.82L75.28 11.51L71.28 9.08998C71.19 8.08998 71.11 7.08998 71.02 6.08998L73.77 4.74998C76 6.00998 78.34 7.35998 80.66 8.76998ZM66.89 -2.91002H74.06L77.57 3.14998L77.39 3.32998L73.88 1.40998L70.69 2.76998C70.56 1.55998 70.44 0.489981 70.31 -0.670019L66.85 -2.73002C66.8585 -2.79099 66.8719 -2.85118 66.89 -2.91002ZM60.75 -2.78002C62.98 -1.52002 65.2 -0.23002 67.51 1.09998C67.59 2.09998 67.67 3.09998 67.76 4.14998L65 5.47998L60.87 3.17998L57.2 9.46998L56.88 9.37998V2.12998H52.26L50.44 -0.45002L52.25 -3.01002C54.83 -3.01002 57.39 -3.01002 59.95 -3.01002C60.2326 -3.00723 60.5091 -2.92773 60.75 -2.78002ZM48.63 -9.78002L54.73 -6.23002C54.7256 -6.15342 54.7256 -6.07662 54.73 -6.00002H50.81C50.02 -4.91002 49.37 -4.00002 48.65 -3.00002L46.65 -5.81002H42.55C42.5194 -5.90562 42.4826 -5.99915 42.44 -6.09002L48.63 -9.78002ZM36.63 -2.86002C36.8331 -2.9679 37.06 -3.02292 37.29 -3.02002H45.06L46.81 -0.460019L45.06 2.07998H40.43V9.44998L40.09 9.52998L36.4 3.16998L32.28 5.45998L29.49 4.16998C29.59 3.16998 29.68 2.16998 29.79 1.09998C32 -0.23002 34.33 -1.53002 36.63 -2.84002V-2.86002ZM23.24 -2.95002H30.24L30.36 -2.72002L27 -0.69002C26.87 0.43998 26.75 1.51998 26.61 2.75998L23.41 1.41998L19.93 3.33998L19.72 3.19998L23.24 -2.95002ZM16.24 9.18998C16.4096 8.92054 16.6432 8.69725 16.92 8.53998C19.09 7.25998 21.27 5.99998 23.57 4.66998L26.36 5.99998C26.26 7.06998 26.18 7.99998 26.08 8.99998L22 11.43L25.68 17.77L25.48 17.95L19.14 14.28L16.73 18.36L13.73 18.63C13.26 17.63 12.82 16.77 12.37 15.83C13.65 13.61 14.93 11.4 16.24 9.18998ZM4.72998 15.53C6.72998 14.39 8.81998 13.21 10.91 12.04C10.33 13.24 9.74998 14.45 9.10998 15.8L10.46 18.88L6.99998 19.29C6.31998 20.44 5.63998 21.6 4.94998 22.75L4.74998 22.66L4.72998 15.53ZM1.72998 43.04V46.89L1.42998 47.01L-2.07002 40.91C-0.880019 38.91 0.279981 36.91 1.42998 34.91L1.69998 34.98V38.77L4.59998 40.87L1.72998 43.04ZM4.72998 29.66C4.72165 29.3856 4.78362 29.1137 4.90998 28.87C6.19998 26.61 7.51998 24.35 8.84998 22.06L11.85 21.81C12.28 22.72 12.71 23.61 13.17 24.57C12.43 25.88 11.7 27.2 10.88 28.67L17.13 32.32C17.13 32.44 17.07 32.56 17.05 32.67H9.87998C9.75998 34.29 9.63998 35.79 9.52998 37.36L7.25998 39.04L4.66998 37.23C4.66998 34.69 4.67331 32.1666 4.67998 29.66H4.72998ZM10.9 69.84L4.78998 66.31V59.18H5.01998L7.01998 62.6L10.51 62.96C10.01 64.11 9.56998 65.09 9.09998 66.17L11.1 69.68L10.9 69.84ZM8.89998 59.84C7.54998 57.53 6.25998 55.32 4.98998 53.1C4.84384 52.815 4.76514 52.5002 4.75998 52.18C4.75998 49.6733 4.75998 47.15 4.75998 44.61L7.28998 42.75L9.60998 44.53C9.70998 46.08 9.80998 47.58 9.90998 49.19H17L17.12 49.52L10.86 53.19L13.13 57.28L11.87 60.03L8.89998 59.84ZM16.67 73.17C16.4483 73.0035 16.2728 72.7832 16.16 72.53C14.91 70.4 13.67 68.25 12.37 66C12.76 65.14 13.18 64.24 13.65 63.2L16.65 63.43L19.08 67.51L25.41 63.91L25.63 64.08C24.44 66.14 23.26 68.19 22 70.4L26 72.82C26.09 73.82 26.18 74.74 26.28 75.82L23.48 77.15C21.26 75.83 19 74.51 16.67 73.17ZM30.23 84.68H23.17L19.7 78.68L19.87 78.47L23.42 80.47L26.59 79.04C26.73 80.24 26.85 81.3 26.98 82.5L30.28 84.5L30.23 84.68ZM36.33 84.51C34.18 83.28 32 82.05 29.81 80.77C29.7 79.77 29.6 78.77 29.48 77.7L32.26 76.38L36.38 78.68L40.09 72.35L40.37 72.43V79.77H45.07L46.81 82.31L45.09 84.77C42.41 84.77 39.75 84.77 37.09 84.77C36.8193 84.746 36.5586 84.6568 36.33 84.51ZM48.65 91.63L42.45 88.06L42.57 87.77H46.57L48.57 84.96L50.74 87.77H54.67C54.67 87.87 54.76 87.97 54.8 88.07L48.65 91.63ZM60.65 84.63C60.4002 84.7464 60.125 84.798 59.85 84.78C57.33 84.78 54.85 84.78 52.17 84.78L50.43 82.3C51.01 81.46 51.56 80.68 52.17 79.81H56.82V72.47L57.18 72.35L60.84 78.67L65 76.38L67.74 77.64C67.67 78.64 67.6 79.64 67.52 80.75C65.23 82.06 63 83.36 60.69 84.64L60.65 84.63ZM74.03 84.71H67.03C67.0008 84.6381 66.9674 84.568 66.93 84.5L70.34 82.5C70.44 81.38 70.54 80.31 70.65 79.05L73.88 80.5L77.4 78.5L77.58 78.7C76.42 80.69 75.26 82.69 74.07 84.77L74.03 84.71ZM82.49 70.19C81.6195 72.2249 80.0172 73.8592 78 74.77C76.55 75.44 75.21 76.33 73.72 77.18L71 75.88C71.08 74.82 71.16 73.88 71.24 72.82L75.29 70.41L71.71 64.1L71.88 63.89L78.2 67.5L80.62 63.5L83.62 63.21C84.07 64.13 84.48 64.99 84.95 65.96C84.12 67.34 83.21 68.77 82.53 70.2L82.49 70.19ZM92.41 66.34L86.41 69.82L86.2 69.62C86.86 68.46 87.53 67.3 88.2 66.13L86.77 62.92L90.25 62.54C90.9 61.45 91.57 60.31 92.41 58.91V66.34ZM90 57.26C89.4472 58.0678 88.9398 58.9058 88.48 59.77L85.48 59.99L84.15 57.26L86.47 53.13L83.29 51.28L80.14 49.45C80.14 49.37 80.2 49.29 80.22 49.22H87.49V44.57L90 42.92L92.54 44.46C92.481 45.4591 92.481 46.4608 92.54 47.46C92.7851 49.1803 92.6868 50.9321 92.2509 52.6142C91.8149 54.2963 91.0499 55.8753 90 57.26ZM95.54 38.77V34.92L95.82 34.8C97 36.8 98.19 38.8 99.42 40.9C98.23 42.96 97.05 45 95.88 47.04L95.62 46.99V43.09L92.89 40.92L95.54 38.77Z" fill="white"/>
</g>
</svg>
