<svg width="19" height="21" viewBox="0 0 19 21" fill="none" xmlns="http://www.w3.org/2000/svg">
<g clip-path="url(#clip0_224_5138)">
<path d="M17.5391 18.1989C17.5391 18.8768 17.5474 19.4879 17.5391 20.0991C17.543 20.287 17.5049 20.4735 17.4273 20.6461C17.2861 20.9192 17.011 21.0017 16.6937 20.9973C15.7959 20.9912 14.8972 20.9973 13.9994 20.9973C10.102 20.9973 6.20493 20.9973 2.30815 20.9973C1.63138 20.9973 1.0509 20.798 0.586882 20.3256C0.396829 20.136 0.247647 19.9124 0.147888 19.6676C0.0481286 19.4227 -0.000238178 19.1615 0.00549718 18.8987C0.00549718 13.738 0.00549718 8.57786 0.00549718 3.41831C0.00549718 2.97927 -5.01773e-06 2.54024 0.00549718 2.10647C0.0256719 0.866631 0.939004 -0.000905819 2.24211 -0.000905819C7.50954 -0.00441811 12.7767 -0.00441811 18.0435 -0.000905819C18.757 -0.000905819 18.9991 0.230905 19 0.921071C19 5.52627 19 10.1324 19 14.7393C19 15.5989 19 16.4586 19 17.3191C19 17.9539 18.7487 18.1875 18.0903 18.1972C17.9234 18.2015 17.7583 18.1989 17.5391 18.1989ZM17.5162 1.42772H4.36324V16.7633H17.5162V1.42772ZM2.83634 1.42772C2.6942 1.41806 2.57686 1.40489 2.45856 1.40313C1.69009 1.39347 1.47089 1.59718 1.46997 2.31984V16.8546L2.83634 16.7589V1.42772ZM16.0416 18.2147C15.9022 18.2077 15.784 18.1963 15.6657 18.1963C11.2694 18.1963 6.87251 18.1963 2.47504 18.1963C2.35273 18.1915 2.23023 18.1939 2.10822 18.2033C1.93253 18.2197 1.76949 18.298 1.65083 18.4232C1.53217 18.5483 1.46638 18.7113 1.4663 18.8803C1.45887 19.0502 1.51822 19.2166 1.63265 19.3466C1.74707 19.4767 1.90828 19.5609 2.0844 19.5828C2.19008 19.5935 2.29641 19.5967 2.40259 19.5924C6.83063 19.5924 11.2584 19.5924 15.6858 19.5924C15.8014 19.5924 15.9178 19.5757 16.0407 19.5661L16.0416 18.2147Z" fill="#A0A3B1"/>
<path d="M16.4644 9.1144V12.2562C16.4644 13.0306 16.1224 13.6321 15.4557 14.0632C15.0974 14.2901 14.6756 14.4076 14.2461 14.4004C12.0407 14.4004 9.83518 14.4188 7.62971 14.4004C6.2936 14.3872 5.39675 13.4819 5.39216 12.1868C5.3836 10.1192 5.3836 8.05136 5.39216 5.9832C5.39858 4.68453 6.3257 3.80733 7.704 3.79416C8.98142 3.78187 10.2589 3.79416 11.5372 3.79416C12.4194 3.79416 13.3016 3.78362 14.1838 3.79416C15.2906 3.81084 16.1251 4.40881 16.3846 5.36328C16.4352 5.57581 16.4592 5.79334 16.4562 6.01129C16.4662 6.53814 16.4562 7.05972 16.4562 7.58393V9.11352L16.4644 9.1144ZM14.9972 9.1267C14.9972 8.10725 14.9972 7.08694 14.9972 6.06749C14.9972 5.45284 14.7505 5.20611 14.1214 5.20347C12.0067 5.19645 9.89235 5.19645 7.77828 5.20347C7.12169 5.20347 6.86767 5.45811 6.86676 6.08154C6.86309 8.09058 6.86309 10.1002 6.86676 12.1104C6.86676 12.7444 7.1162 12.9929 7.77188 12.9946C9.88656 12.9999 12.0009 12.9999 14.115 12.9946C14.7496 12.9946 14.9944 12.747 14.9972 12.1394C14.9972 11.1357 14.9944 10.1312 14.9944 9.1267H14.9972Z" fill="#A0A3B1"/>
<path d="M9.82142 11.7292C9.52063 11.7292 9.24736 11.7371 8.975 11.7292C8.4798 11.7125 8.21659 11.4658 8.19642 10.9987C8.18542 10.7352 8.19642 10.4718 8.19642 10.1074C7.99412 9.96148 7.8009 9.80433 7.61777 9.63678C7.26563 9.28555 7.27391 8.91148 7.62421 8.55762C7.8012 8.38201 7.99653 8.21429 8.19552 8.03078C8.19552 7.75945 8.1891 7.49866 8.19552 7.24051C8.2102 6.74177 8.4706 6.49239 8.98597 6.47834C9.24366 6.47131 9.50228 6.47834 9.87735 6.47834C10.03 6.29056 10.1928 6.11061 10.3652 5.93921C10.7366 5.59588 11.1227 5.58797 11.4932 5.93042C11.6679 6.1041 11.8323 6.28703 11.9856 6.47834C12.368 6.47834 12.6422 6.47044 12.9146 6.47834C13.3731 6.49502 13.6482 6.74176 13.6803 7.1808C13.6977 7.45651 13.6803 7.73311 13.6803 8.08522C13.8151 8.19322 13.9893 8.31351 14.1388 8.45664C14.6422 8.93607 14.6386 9.26184 14.1287 9.75444C13.9902 9.88878 13.8362 10.0091 13.6812 10.1417C13.6812 10.4253 13.6895 10.6861 13.6812 10.946C13.6601 11.4658 13.3942 11.7143 12.8504 11.7275C12.5927 11.7327 12.335 11.7275 12.0085 11.7275C11.848 11.9031 11.6793 12.1085 11.4803 12.2877C11.1208 12.6108 10.7467 12.6108 10.3863 12.2921C10.1873 12.1156 10.0085 11.9154 9.82142 11.7292ZM9.66094 7.89467C9.73981 8.40834 9.54353 8.79645 9.08318 9.12397C9.61415 9.39969 9.69028 9.83961 9.68019 10.3401C10.2304 10.2347 10.6091 10.4472 10.9402 10.8468C11.2602 10.3989 11.6912 10.2655 12.1745 10.3138C12.213 10.0503 12.2002 9.81854 12.2864 9.62712C12.3726 9.4357 12.5615 9.26183 12.7238 9.05812C12.2589 8.78592 12.1736 8.36708 12.2094 7.86394C11.6472 7.96843 11.2501 7.76121 10.9062 7.3371C10.622 7.82882 10.1818 7.90873 9.66094 7.89204V7.89467Z" fill="#A0A3B1"/>
</g>
<defs>
<clipPath id="clip0_224_5138">
<rect width="19" height="21" fill="white"/>
</clipPath>
</defs>
</svg>
