<svg width="42" height="42" viewBox="0 0 42 42" fill="none" xmlns="http://www.w3.org/2000/svg">
<rect width="41.5556" height="41.5556" rx="14" fill="#328278"/>
<g clip-path="url(#clip0_1640_354)">
<mask id="mask0_1640_354" style="mask-type:luminance" maskUnits="userSpaceOnUse" x="11" y="10" width="19" height="21">
<path d="M30 10H11V31H30V10Z" fill="white"/>
</mask>
<g mask="url(#mask0_1640_354)">
<path d="M28.5391 28.1989C28.5391 28.8768 28.5474 29.4879 28.5391 30.0991C28.543 30.287 28.5049 30.4735 28.4273 30.6461C28.2861 30.9192 28.011 31.0017 27.6937 30.9973C26.7959 30.9912 25.8972 30.9973 24.9994 30.9973C21.102 30.9973 17.2049 30.9973 13.3082 30.9973C12.6314 30.9973 12.0509 30.798 11.5869 30.3256C11.3968 30.136 11.2476 29.9124 11.1479 29.6676C11.0481 29.4227 10.9998 29.1615 11.0055 28.8987C11.0055 23.738 11.0055 18.5779 11.0055 13.4183C11.0055 12.9793 11 12.5402 11.0055 12.1065C11.0257 10.8666 11.939 9.99909 13.2421 9.99909C18.5095 9.99558 23.7767 9.99558 29.0435 9.99909C29.757 9.99909 29.9991 10.2309 30 10.9211C30 15.5263 30 20.1324 30 24.7393C30 25.5989 30 26.4586 30 27.3191C30 27.9539 29.7487 28.1875 29.0903 28.1972C28.9234 28.2015 28.7583 28.1989 28.5391 28.1989ZM28.5162 11.4277H15.3632V26.7633H28.5162V11.4277ZM13.8363 11.4277C13.6942 11.4181 13.5769 11.4049 13.4586 11.4031C12.6901 11.3935 12.4709 11.5972 12.47 12.3198V26.8546L13.8363 26.7589V11.4277ZM27.0416 28.2147C26.9022 28.2077 26.784 28.1963 26.6657 28.1963C22.2694 28.1963 17.8725 28.1963 13.475 28.1963C13.3527 28.1915 13.2302 28.1939 13.1082 28.2033C12.9325 28.2197 12.7695 28.298 12.6508 28.4232C12.5322 28.5483 12.4664 28.7113 12.4663 28.8803C12.4589 29.0502 12.5182 29.2166 12.6327 29.3466C12.7471 29.4767 12.9083 29.5609 13.0844 29.5828C13.1901 29.5935 13.2964 29.5967 13.4026 29.5924C17.8306 29.5924 22.2584 29.5924 26.6858 29.5924C26.8014 29.5924 26.9178 29.5757 27.0407 29.5661L27.0416 28.2147Z" fill="white"/>
<path d="M27.4644 19.1144V22.2562C27.4644 23.0306 27.1224 23.6321 26.4557 24.0632C26.0974 24.2901 25.6756 24.4076 25.2461 24.4004C23.0407 24.4004 20.8352 24.4188 18.6297 24.4004C17.2936 24.3872 16.3968 23.4819 16.3922 22.1868C16.3836 20.1192 16.3836 18.0514 16.3922 15.9832C16.3986 14.6845 17.3257 13.8073 18.704 13.7942C19.9814 13.7819 21.2589 13.7942 22.5372 13.7942C23.4194 13.7942 24.3016 13.7836 25.1838 13.7942C26.2906 13.8108 27.1251 14.4088 27.3846 15.3633C27.4352 15.5758 27.4592 15.7933 27.4562 16.0113C27.4662 16.5381 27.4562 17.0597 27.4562 17.5839V19.1135L27.4644 19.1144ZM25.9972 19.1267C25.9972 18.1072 25.9972 17.0869 25.9972 16.0675C25.9972 15.4528 25.7505 15.2061 25.1214 15.2035C23.0067 15.1964 20.8924 15.1964 18.7783 15.2035C18.1217 15.2035 17.8677 15.4581 17.8668 16.0815C17.8631 18.0906 17.8631 20.1002 17.8668 22.1104C17.8668 22.7444 18.1162 22.9929 18.7719 22.9946C20.8866 22.9999 23.0009 22.9999 25.115 22.9946C25.7496 22.9946 25.9944 22.747 25.9972 22.1394C25.9972 21.1357 25.9944 20.1312 25.9944 19.1267H25.9972Z" fill="white"/>
<path d="M20.8214 21.7292C20.5206 21.7292 20.2474 21.7371 19.975 21.7292C19.4798 21.7125 19.2166 21.4658 19.1964 20.9987C19.1854 20.7352 19.1964 20.4718 19.1964 20.1074C18.9941 19.9615 18.8009 19.8043 18.6178 19.6368C18.2656 19.2856 18.2739 18.9115 18.6242 18.5576C18.8012 18.382 18.9965 18.2143 19.1955 18.0308C19.1955 17.7595 19.1891 17.4987 19.1955 17.2405C19.2102 16.7418 19.4706 16.4924 19.986 16.4783C20.2437 16.4713 20.5023 16.4783 20.8773 16.4783C21.03 16.2906 21.1928 16.1106 21.3652 15.9392C21.7366 15.5959 22.1227 15.588 22.4932 15.9304C22.6679 16.1041 22.8323 16.287 22.9856 16.4783C23.368 16.4783 23.6422 16.4704 23.9146 16.4783C24.3731 16.495 24.6482 16.7418 24.6803 17.1808C24.6977 17.4565 24.6803 17.7331 24.6803 18.0852C24.8151 18.1932 24.9893 18.3135 25.1388 18.4566C25.6422 18.9361 25.6386 19.2618 25.1287 19.7544C24.9902 19.8888 24.8362 20.0091 24.6812 20.1417C24.6812 20.4253 24.6895 20.6861 24.6812 20.946C24.6601 21.4658 24.3942 21.7143 23.8504 21.7275C23.5927 21.7327 23.335 21.7275 23.0085 21.7275C22.848 21.9031 22.6793 22.1085 22.4803 22.2877C22.1208 22.6108 21.7467 22.6108 21.3863 22.2921C21.1873 22.1156 21.0085 21.9154 20.8214 21.7292ZM20.6609 17.8947C20.7398 18.4083 20.5435 18.7965 20.0832 19.124C20.6141 19.3997 20.6903 19.8396 20.6802 20.3401C21.2304 20.2347 21.6091 20.4472 21.9402 20.8468C22.2602 20.3989 22.6912 20.2655 23.1745 20.3138C23.213 20.0503 23.2002 19.8185 23.2864 19.6271C23.3726 19.4357 23.5615 19.2618 23.7238 19.0581C23.2589 18.7859 23.1736 18.3671 23.2094 17.8639C22.6472 17.9684 22.2501 17.7612 21.9062 17.3371C21.622 17.8288 21.1818 17.9087 20.6609 17.892V17.8947Z" fill="white"/>
</g>
</g>
<defs>
<clipPath id="clip0_1640_354">
<rect width="19" height="21" fill="white" transform="translate(11 10)"/>
</clipPath>
</defs>
</svg>
