<svg width="42" height="42" viewBox="0 0 42 42" fill="none" xmlns="http://www.w3.org/2000/svg">
<rect width="41.5556" height="41.5556" rx="14" fill="#328278"/>
<path d="M22.8125 28.8125H17.1875C17.0844 28.8125 17 28.8969 17 29V29.75C17 30.1648 17.3352 30.5 17.75 30.5H22.25C22.6648 30.5 23 30.1648 23 29.75V29C23 28.8969 22.9156 28.8125 22.8125 28.8125ZM20 9.5C15.7555 9.5 12.3125 12.943 12.3125 17.1875C12.3125 20.0328 13.8594 22.5172 16.1562 23.8461V26.5625C16.1562 26.9773 16.4914 27.3125 16.9062 27.3125H23.0938C23.5086 27.3125 23.8438 26.9773 23.8438 26.5625V23.8461C26.1406 22.5172 27.6875 20.0328 27.6875 17.1875C27.6875 12.943 24.2445 9.5 20 9.5ZM22.9977 22.3859L22.1562 22.8734V25.625H17.8438V22.8734L17.0023 22.3859C15.1578 21.3195 14 19.3555 14 17.1875C14 13.8734 16.6859 11.1875 20 11.1875C23.3141 11.1875 26 13.8734 26 17.1875C26 19.3555 24.8422 21.3195 22.9977 22.3859Z" fill="white"/>
</svg>
