<svg width="39" height="40" viewBox="0 0 39 40" fill="none" xmlns="http://www.w3.org/2000/svg">
<g clip-path="url(#clip0_661_1220)">
<path d="M37.6152 25.646C32.741 25.4178 28.4523 22.2683 28.4523 22.2683C28.3998 22.4652 28.3285 22.6893 28.2481 22.9274C28.2301 22.9109 28.2145 22.8928 28.1964 22.878C24.8272 19.7755 25.1282 13.5994 24.3761 12.4889C23.7503 11.5663 23.0441 10.0422 22.6833 8.88641C22.3224 7.73061 21.7245 3.16836 21.3636 1.9516C21.0027 0.734831 19.0212 -0.0560254 19.0212 1.64679V19.2895C19.0212 22.756 19.8029 29.5096 23.8348 30.1786C23.9045 30.1901 23.9726 30.1942 24.0415 30.2016C23.3542 30.9332 22.6554 31.4596 21.9984 31.6227C23.8938 34.4978 29.626 38.4216 31.8831 39.3335C31.8831 39.3335 33.8728 38.2074 36.052 34.3314C38.2311 30.4554 37.6152 25.646 37.6152 25.646Z" fill="#8CC8C4"/>
<path d="M19.0212 19.2886V1.64593C19.0212 -0.0568799 17.1504 0.733977 16.7895 1.95074C16.4287 3.16751 15.9431 7.7314 15.5822 8.88473C15.2214 10.0381 14.4988 11.5646 13.873 12.4872C13.1209 13.5977 13.3932 19.7738 10.0223 22.8763L10.0158 22.8821C9.94198 22.6621 9.87554 22.4537 9.82633 22.2683C9.82633 22.2683 5.53933 25.4169 0.664269 25.6459C0.664269 25.6459 0.0475044 30.4553 2.22258 34.3305C4.39766 38.2057 6.39231 39.3327 6.39231 39.3327C8.64858 38.4207 14.3807 34.4969 16.2761 31.6218C15.62 31.4571 14.9138 30.9265 14.2257 30.1892C14.2585 30.1843 14.2905 30.1835 14.3241 30.1777C18.3577 29.5088 19.0212 22.7552 19.0212 19.2886Z" fill="#8CC8C4"/>
<path d="M16.7928 1.95241C16.4327 3.16506 15.9505 7.72896 15.5888 8.88723C15.2271 10.0455 14.5152 11.5679 13.8886 12.4881C13.1357 13.5961 13.4219 19.7739 10.0494 22.8788C10.0403 22.8854 10.033 22.8961 10.0248 22.9035C9.94685 22.6761 9.87878 22.4586 9.82793 22.2675C8.62075 23.1032 7.32857 23.8077 5.97315 24.369C4.45339 25.0026 2.61048 25.5545 0.665047 25.6451C0.665047 25.6451 0.610905 26.6007 0.592041 27.3035C2.31439 27.1436 3.2707 26.9995 4.633 26.4294C4.633 26.4294 5.19236 29.4454 7.14681 31.799C9.29975 34.3915 11.2025 34.9393 13.1939 34.8471C13.1849 34.8429 9.87385 32.846 7.97599 30.5715C6.89091 29.2625 6.39226 27.4188 6.16426 26.0809C8.10805 25.1879 9.21855 24.3666 9.21855 24.3666C9.31697 24.7785 9.43835 25.183 9.57695 25.5858C9.77032 26.6388 10.1948 27.6353 10.8195 28.5029C10.6992 28.2444 10.6012 27.9759 10.5267 27.7005C11.775 29.882 13.7081 31.5494 16.2826 31.6169C14.32 31.1333 11.9956 27.4427 10.7006 24.5816C10.8066 24.3491 10.9617 24.1425 11.155 23.9761C14.5242 20.8753 14.2322 14.6975 14.9802 13.5903C15.6076 12.6652 16.3048 11.142 16.6673 9.98371C17.0298 8.82544 17.5391 4.26649 17.9033 3.04972C18.1255 2.3083 18.3577 1.71845 19.022 1.77282V1.64513C19.0212 -0.0585037 17.1545 0.734822 16.7928 1.95241Z" fill="#FFD966"/>
<path d="M19.0212 1.64677V19.2862C19.6856 15.4472 20.2014 2.10316 20.2014 2.10316C20.2014 1.59734 20.5804 1.24393 20.828 1.1253C19.738 0.21417 19.0212 0.739761 19.0212 1.64677Z" fill="#FFD966"/>
<path d="M37.6949 25.6443C35.7511 25.5537 33.9065 25.0018 32.3868 24.3683C31.0315 23.8065 29.7394 23.1021 28.532 22.2667C27.8554 24.8205 24.6534 30.9834 22.0781 31.6178C25.8722 31.5181 28.2777 27.9469 29.1422 24.3683C29.1422 24.3683 30.2527 25.1921 32.1965 26.0826C31.9685 27.4205 31.4706 29.2642 30.3856 30.5732C28.4869 32.8477 25.1759 34.8446 25.1669 34.8488C27.1582 34.9385 29.4063 34.3907 31.5592 31.8007C33.5129 29.447 33.7277 26.4311 33.7277 26.4311C35.09 27.0012 36.0455 27.1453 37.7679 27.3051C37.749 26.5967 37.6949 25.6443 37.6949 25.6443Z" fill="#FFD966"/>
<path d="M37.6463 24.9795C35.655 24.8855 33.7514 24.2718 32.2259 23.6029C32.1807 23.5839 32.1373 23.5642 32.093 23.5444C31.9142 23.462 31.7403 23.3846 31.573 23.3038L31.409 23.2215C31.2572 23.1465 31.1071 23.0723 30.9661 22.999C30.8652 22.9463 30.7717 22.8952 30.6766 22.8442C30.5543 22.7782 30.4362 22.714 30.3255 22.6514C30.1795 22.569 30.0368 22.4866 29.9105 22.4125L29.8359 22.3672C29.2175 21.9956 28.8517 21.732 28.8451 21.7271C28.7576 21.6633 28.656 21.6218 28.5489 21.6063C28.4419 21.5908 28.3327 21.6017 28.2308 21.6381C28.1723 21.6589 28.117 21.688 28.0668 21.7246C26.4068 19.6906 25.9048 16.6854 25.5694 14.6184C25.3684 13.3885 25.2364 12.5754 24.9215 12.1116C24.326 11.2318 23.6248 9.75879 23.291 8.68537C23.122 8.1433 22.8809 6.68351 22.6562 5.27068C22.4167 3.79359 22.1911 2.39889 22 1.76044C21.7179 0.804819 20.6992 -0.00169027 19.7757 -0.00169027C19.5126 -0.00304176 19.2543 0.0688149 19.0294 0.205911C18.8123 0.0694415 18.5613 -0.00253398 18.3052 -0.00169027C17.403 -0.00169027 16.4418 0.788343 16.1531 1.76044C15.9611 2.40548 15.7561 3.80677 15.5388 5.29128C15.3419 6.63161 15.1188 8.15072 14.9523 8.68537C14.6103 9.78103 13.914 11.254 13.335 12.1108C13.0192 12.5754 12.8872 13.3885 12.6879 14.6201C12.3541 16.6796 11.857 19.6684 10.1979 21.7155C10.1513 21.6839 10.1012 21.6579 10.0486 21.6381C9.9466 21.6014 9.83723 21.5903 9.73 21.6058C9.62278 21.6213 9.52096 21.6629 9.43345 21.7271C9.42607 21.732 9.05782 21.9981 8.43203 22.3738L8.37216 22.41C8.23438 22.4924 8.08265 22.5748 7.92189 22.6687C7.85546 22.7066 7.78574 22.7445 7.71439 22.7832C7.58398 22.8549 7.44866 22.9282 7.30431 23.0023C7.15996 23.0765 7.03283 23.1399 6.89422 23.2091C6.82861 23.2421 6.76382 23.2742 6.69575 23.3063C6.53582 23.3829 6.36769 23.4595 6.20365 23.5361L6.03962 23.607C4.51657 24.2743 2.61788 24.8847 0.631435 24.9778C0.544355 24.9819 0.458944 25.0032 0.380059 25.0405C0.301174 25.0778 0.230375 25.1303 0.171694 25.195C0.113013 25.2598 0.0675996 25.3355 0.0380568 25.4179C0.00851404 25.5003 -0.00458133 25.5877 -0.000488519 25.6752C0.00360429 25.7626 0.0247996 25.8484 0.0619049 25.9277C0.0990102 26.0069 0.151297 26.078 0.215766 26.137C0.345967 26.256 0.517902 26.3182 0.693768 26.3099C2.37675 26.2275 3.98182 25.8263 5.37938 25.3213C5.53357 26.6856 6.00844 29.2509 7.46588 31.0056C8.86016 32.6796 10.9376 34.174 12.0637 34.922C9.87061 36.671 7.3978 38.2123 6.14705 38.7181C6.06157 38.7471 5.9829 38.7933 5.91579 38.8538C5.84869 38.9144 5.79457 38.988 5.75677 39.0703C5.71896 39.1526 5.69826 39.2417 5.69591 39.3323C5.69357 39.4229 5.70965 39.513 5.74315 39.5971C5.77665 39.6812 5.82688 39.7576 5.89076 39.8216C5.95465 39.8856 6.03087 39.9358 6.11473 39.9692C6.19859 40.0025 6.28835 40.0184 6.37852 40.0158C6.46869 40.0131 6.55736 39.9921 6.63914 39.9538C8.13185 39.3508 11.1238 37.4585 13.5917 35.3784C13.6012 35.3737 13.6106 35.3684 13.6196 35.3627C14.0116 35.0332 14.3733 34.7037 14.7088 34.3923L14.7539 34.3495C14.9335 34.1798 15.1033 34.0133 15.2657 33.8494L15.4125 33.7003C15.5634 33.5446 15.7077 33.3905 15.8439 33.239L15.9464 33.1253C16.0834 32.9696 16.2097 32.818 16.3302 32.6681C16.3844 32.5997 16.436 32.5321 16.4877 32.4646C16.5746 32.3501 16.6517 32.238 16.7337 32.1276C16.7641 32.0832 16.8018 32.037 16.8305 31.9925C16.8898 31.9029 16.9268 31.8003 16.9381 31.6933C16.9495 31.5863 16.9351 31.4781 16.8959 31.3779C16.8568 31.2777 16.7942 31.1885 16.7134 31.1178C16.6326 31.0471 16.5361 30.997 16.4319 30.9718C16.4204 30.9718 16.4057 30.9636 16.3934 30.9603C16.2871 30.9299 16.1836 30.8902 16.0842 30.8417C16.0473 30.8244 16.0104 30.8063 15.9702 30.784C15.8771 30.7339 15.7868 30.6789 15.6995 30.6193C15.647 30.583 15.5929 30.5459 15.5355 30.5031C17.4506 29.6315 18.4938 27.4616 19.0532 25.1574C19.6412 27.4394 20.7206 29.6752 22.6923 30.5336C22.6537 30.5632 22.6151 30.5896 22.5774 30.616C22.4831 30.6802 22.3888 30.7404 22.2969 30.7906C22.26 30.8104 22.2256 30.8269 22.1911 30.8433C22.0891 30.8933 21.9829 30.9341 21.8737 30.9653L21.8401 30.9751C21.7363 31.0003 21.6401 31.05 21.5594 31.1203C21.4788 31.1905 21.4161 31.2792 21.3767 31.3788C21.3574 31.4298 21.3439 31.4829 21.3365 31.537C21.3146 31.6976 21.3516 31.8607 21.4407 31.9958C21.4743 32.0469 21.5169 32.0996 21.5522 32.1507C21.6227 32.252 21.6949 32.3534 21.7745 32.458C21.8302 32.5321 21.8885 32.6071 21.9484 32.6821C22.0517 32.8106 22.1611 32.9413 22.2764 33.0742C22.3379 33.1451 22.4011 33.2151 22.4659 33.2859C22.5848 33.4169 22.7119 33.5495 22.839 33.6846C22.9006 33.7481 22.9621 33.8107 23.0252 33.8741C23.1647 34.0142 23.3115 34.1575 23.464 34.3025L23.5772 34.4112C23.7773 34.598 23.9876 34.7886 24.2079 34.983L24.2571 35.025C24.3859 35.1378 24.5147 35.2507 24.6508 35.366C24.6582 35.3726 24.668 35.3743 24.6754 35.3809C27.1441 37.461 30.1377 39.3541 31.6304 39.9571C31.7122 39.9954 31.8009 40.0164 31.891 40.0191C31.9812 40.0217 32.071 40.0058 32.1548 39.9725C32.2387 39.9391 32.3149 39.8888 32.3788 39.8249C32.4427 39.7609 32.4929 39.6845 32.5264 39.6004C32.5599 39.5163 32.576 39.4262 32.5736 39.3356C32.5713 39.245 32.5506 39.1559 32.5128 39.0736C32.475 38.9913 32.4209 38.9177 32.3538 38.8571C32.2867 38.7966 32.208 38.7504 32.1225 38.7214C30.8726 38.2164 28.4006 36.6742 26.2058 34.9261C27.3319 34.1773 29.4135 32.6829 30.8037 31.0089C32.2619 29.2559 32.736 26.6897 32.891 25.3246C34.2853 25.8338 35.8928 26.2391 37.5758 26.3182C37.6629 26.3223 37.7499 26.3091 37.8319 26.2794C37.9139 26.2498 37.9893 26.2041 38.0538 26.1452C38.1183 26.0863 38.1705 26.0152 38.2077 25.9359C38.2448 25.8567 38.266 25.7709 38.27 25.6834C38.2741 25.5959 38.261 25.5085 38.2315 25.4261C38.202 25.3438 38.1565 25.268 38.0979 25.2033C38.0392 25.1385 37.9684 25.086 37.8895 25.0487C37.8106 25.0115 37.7252 24.9902 37.6381 24.9861L37.6463 24.9795ZM8.48698 30.1464C7.12058 28.5029 6.75725 25.8502 6.66457 24.7991C7.62808 24.3721 8.55997 23.8766 9.45314 23.3162C10.2421 25.5322 11.9604 28.7822 13.7131 30.6481C13.7445 30.675 13.7786 30.6988 13.8148 30.7189L13.8345 30.7395C13.8747 30.7815 13.9165 30.8219 13.9567 30.8631C14.0726 30.9795 14.1874 31.0894 14.3011 31.1926L14.3627 31.2478C14.6339 31.493 14.9284 31.711 15.2419 31.8986C14.597 32.6624 13.8916 33.3724 13.1324 34.0216C12.2105 33.4284 9.90833 31.8574 8.48698 30.1464ZM14.4742 29.4618C14.3659 29.3366 14.2568 29.2147 14.1461 29.0812C14.1018 29.0252 14.0576 28.9675 14.0133 28.9098C13.8596 28.7121 13.7068 28.5054 13.5548 28.2895C13.5212 28.2417 13.4875 28.1948 13.4539 28.1462C12.3771 26.563 11.485 24.8609 10.7949 23.0732C13.0381 20.7566 13.613 17.2134 13.9985 14.8351C14.1314 14.0113 14.2823 13.0837 14.4332 12.858C15.0893 11.8916 15.8373 10.3041 16.2195 9.08079C16.418 8.44564 16.6296 7.00562 16.8527 5.4824C17.0536 4.10994 17.2627 2.69134 17.4268 2.13856C17.5637 1.67641 18.055 1.32876 18.2986 1.31475C18.2986 1.31475 18.3552 1.39713 18.3552 1.64428V19.2837C18.3569 23.7668 17.3316 28.713 14.4742 29.4618ZM19.6896 19.2861V1.64675C19.6896 1.40455 19.7454 1.3337 19.7815 1.3337C20.062 1.3337 20.5967 1.68052 20.7337 2.1435C20.8977 2.7004 21.129 4.12065 21.3513 5.48652C21.5973 7.01304 21.8319 8.45223 22.0304 9.08574C22.4027 10.2852 23.1597 11.8735 23.829 12.8645C23.9791 13.0845 24.1308 14.0179 24.2637 14.8359C24.6533 17.225 25.2348 20.8028 27.482 23.0847C27.45 23.1671 27.4205 23.2495 27.3869 23.3384C27.3418 23.4521 27.2966 23.5666 27.2483 23.6844C27.1777 23.8492 27.1031 24.023 27.0252 24.1952C26.9719 24.3155 26.9202 24.4333 26.8611 24.5552C26.7742 24.7414 26.6807 24.9309 26.5864 25.1203C26.5298 25.234 26.4765 25.3461 26.4224 25.4597C26.3059 25.6863 26.1829 25.9128 26.0574 26.1386C26.0139 26.2209 25.9754 26.2976 25.9294 26.3766C25.7572 26.6823 25.5776 26.9854 25.3947 27.2828C25.3602 27.338 25.3233 27.3907 25.2889 27.4476C25.1396 27.6832 24.9887 27.9155 24.8353 28.1388C24.7705 28.2335 24.7041 28.3208 24.6385 28.4123C24.5188 28.577 24.399 28.7418 24.2784 28.9008L24.2333 28.9576C24.1677 29.04 24.1013 29.1224 24.0349 29.2048C23.9528 29.3053 23.8708 29.4 23.7888 29.4939C20.7632 28.8143 19.6896 23.6045 19.6896 19.2861ZM29.7973 30.1464C28.3776 31.8541 26.0738 33.4276 25.1495 34.0249C24.3905 33.3755 23.685 32.6655 23.04 31.9019C23.3566 31.7116 23.654 31.4909 23.9282 31.2429L23.9676 31.2066C24.089 31.0987 24.2136 30.9817 24.335 30.8573C24.3703 30.8219 24.4056 30.7873 24.44 30.7511C24.4745 30.7148 24.5048 30.6876 24.5384 30.6522C24.5721 30.6168 24.5983 30.5805 24.6287 30.5476C25.9663 29.0927 27.1917 26.9986 28.0406 25.1813C28.057 25.1467 28.0733 25.1129 28.0889 25.0783C28.2218 24.79 28.3445 24.5113 28.4572 24.2422C28.4777 24.1927 28.4974 24.1458 28.517 24.0972L28.5277 24.0716C28.5433 24.0321 28.5597 23.9934 28.5753 23.9547C28.6647 23.7322 28.7492 23.5147 28.8213 23.3129C29.7177 23.8737 30.6529 24.3693 31.6197 24.7958C31.5246 25.8478 31.1637 28.4971 29.7932 30.1464H29.7973Z" fill="#328278"/>
</g>
<defs>
<clipPath id="clip0_661_1220">
<rect width="38.2796" height="40" fill="white"/>
</clipPath>
</defs>
</svg>
