<svg width="37" height="36" viewBox="0 0 37 36" fill="none" xmlns="http://www.w3.org/2000/svg">
<g clip-path="url(#clip0_263_1316)">
<path d="M31.1111 12.6219V5.97656C31.1111 5.39409 30.6389 4.92188 30.0564 4.92188H23.4111L18.7771 0.307336C18.3655 -0.102445 17.7002 -0.102445 17.2887 0.307336L12.6548 4.92188H6.00952C5.42705 4.92188 4.95483 5.39409 4.95483 5.97656V12.6219L0.340295 17.2558C-0.0694863 17.6674 -0.0694863 18.3327 0.340295 18.7443L4.95483 23.3781V30.0234C4.95483 30.6059 5.42705 31.0781 6.00952 31.0781H12.6548L17.2887 35.6927C17.4945 35.8976 17.7637 36 18.033 36C18.3022 36 18.5714 35.8976 18.7771 35.6927L23.4111 31.0781H30.0564C30.6389 31.0781 31.1111 30.6059 31.1111 30.0234V23.3781L35.7256 18.7443C36.1354 18.3327 36.1354 17.6674 35.7256 17.2558L31.1111 12.6219ZM29.309 22.1983C29.1122 22.396 29.0017 22.6635 29.0017 22.9425V28.9688H22.9755C22.6966 28.9688 22.429 29.0793 22.2313 29.2761L18.033 33.4569L13.8347 29.2761C13.637 29.0793 13.3694 28.9688 13.0905 28.9688H7.06421V22.9425C7.06421 22.6636 6.95368 22.396 6.75687 22.1984L2.57609 18L6.75687 13.8017C6.95368 13.604 7.06421 13.3365 7.06421 13.0575V7.03125H13.0904C13.3693 7.03125 13.637 6.92072 13.8346 6.72391L18.033 2.54313L22.2313 6.72391C22.429 6.92072 22.6966 7.03125 22.9755 7.03125H29.0017V13.0575C29.0017 13.3364 29.1122 13.604 29.309 13.8016L33.4898 18L29.309 22.1983Z" fill="#328278"/>
<path d="M27.4783 14.1158V9.31641C27.4783 8.89573 27.1372 8.55469 26.7166 8.55469H21.9172L18.5704 5.22196C18.2732 4.92601 17.7927 4.92601 17.4954 5.22196L14.1488 8.55469H9.34937C8.92869 8.55469 8.58765 8.89573 8.58765 9.31641V14.1158L5.25492 17.4625C4.95897 17.7598 4.95897 18.2403 5.25492 18.5375L8.58765 21.8842V26.6836C8.58765 27.1043 8.92869 27.4453 9.34937 27.4453H14.1488L17.4954 30.778C17.6441 30.926 17.8385 31 18.033 31C18.2274 31 18.4218 30.926 18.5704 30.778L21.9172 27.4453H26.7166C27.1372 27.4453 27.4783 27.1043 27.4783 26.6836V21.8842L30.811 18.5375C31.1069 18.2403 31.1069 17.7598 30.811 17.4625L27.4783 14.1158Z" fill="white"/>
</g>
<path d="M15.3223 12.766H21.4823V14.166H16.7923V16.952C16.9883 16.6907 17.2776 16.4713 17.6603 16.294C18.0523 16.1167 18.5049 16.028 19.0183 16.028C19.5409 16.028 20.0216 16.1307 20.4603 16.336C20.9083 16.5413 21.2489 16.8167 21.4823 17.162C21.9489 17.834 22.1823 18.59 22.1823 19.43C22.1823 20.494 21.8789 21.3573 21.2723 22.02C20.6656 22.6733 19.8209 23 18.7383 23C17.6649 23 16.8203 22.748 16.2043 22.244C15.5883 21.74 15.2196 21.0727 15.0983 20.242H16.6523C16.7549 20.6807 16.9836 21.0307 17.3383 21.292C17.6929 21.544 18.1689 21.67 18.7663 21.67C19.3636 21.67 19.8256 21.4693 20.1523 21.068C20.4883 20.6667 20.6563 20.1347 20.6563 19.472C20.6563 18.8 20.4883 18.2867 20.1523 17.932C19.8163 17.568 19.3216 17.386 18.6683 17.386C18.2109 17.386 17.8236 17.5027 17.5063 17.736C17.1983 17.96 16.9743 18.268 16.8343 18.66H15.3223V12.766Z" fill="#328278"/>
<defs>
<clipPath id="clip0_263_1316">
<rect width="36" height="36" fill="white" transform="translate(0.032959)"/>
</clipPath>
</defs>
</svg>
