<svg width="37" height="36" viewBox="0 0 37 36" fill="none" xmlns="http://www.w3.org/2000/svg">
<g clip-path="url(#clip0_107_589)">
<path d="M31.111 12.6219V5.97656C31.111 5.39409 30.6388 4.92188 30.0563 4.92188H23.411L18.7771 0.307336C18.3655 -0.102445 17.7002 -0.102445 17.2886 0.307336L12.6548 4.92188H6.00946C5.42699 4.92188 4.95477 5.39409 4.95477 5.97656V12.6219L0.340234 17.2558C-0.0695473 17.6674 -0.0695473 18.3327 0.340234 18.7443L4.95477 23.3781V30.0234C4.95477 30.6059 5.42699 31.0781 6.00946 31.0781H12.6548L17.2886 35.6927C17.4944 35.8976 17.7637 36 18.0329 36C18.3021 36 18.5714 35.8976 18.7771 35.6927L23.411 31.0781H30.0563C30.6388 31.0781 31.111 30.6059 31.111 30.0234V23.3781L35.7256 18.7443C36.1353 18.3327 36.1353 17.6674 35.7256 17.2558L31.111 12.6219ZM29.309 22.1983C29.1122 22.396 29.0016 22.6635 29.0016 22.9425V28.9688H22.9754C22.6965 28.9688 22.4289 29.0793 22.2313 29.2761L18.0329 33.4569L13.8346 29.2761C13.6369 29.0793 13.3694 28.9688 13.0904 28.9688H7.06415V22.9425C7.06415 22.6636 6.95362 22.396 6.75681 22.1984L2.57603 18L6.75681 13.8017C6.95362 13.604 7.06415 13.3365 7.06415 13.0575V7.03125H13.0904C13.3693 7.03125 13.6369 6.92072 13.8345 6.72391L18.0329 2.54313L22.2313 6.72391C22.429 6.92072 22.6965 7.03125 22.9754 7.03125H29.0016V13.0575C29.0016 13.3364 29.1122 13.604 29.309 13.8016L33.4898 18L29.309 22.1983Z" fill="#328278"/>
<path d="M27.4782 14.1158V9.31641C27.4782 8.89573 27.1372 8.55469 26.7165 8.55469H21.9171L18.5704 5.22196C18.2731 4.92601 17.7926 4.92601 17.4954 5.22196L14.1487 8.55469H9.3493C8.92863 8.55469 8.58759 8.89573 8.58759 9.31641V14.1158L5.25486 17.4625C4.95891 17.7598 4.95891 18.2403 5.25486 18.5375L8.58759 21.8842V26.6836C8.58759 27.1043 8.92863 27.4453 9.3493 27.4453H14.1487L17.4954 30.778C17.644 30.926 17.8385 31 18.0329 31C18.2273 31 18.4218 30.926 18.5704 30.778L21.9171 27.4453H26.7165C27.1372 27.4453 27.4782 27.1043 27.4782 26.6836V21.8842L30.8109 18.5375C31.1069 18.2403 31.1069 17.7598 30.8109 17.4625L27.4782 14.1158Z" fill="white"/>
</g>
<path d="M19.2827 19.486V14.544L15.9787 19.486H19.2827ZM19.2127 23V20.872H14.1447V19.668L18.8487 12.92H20.7807V19.486H22.0827V20.872H20.7807V23H19.2127Z" fill="#328278"/>
<defs>
<clipPath id="clip0_107_589">
<rect width="36" height="36" fill="white" transform="translate(0.0328979)"/>
</clipPath>
</defs>
</svg>
