<svg width="42" height="42" viewBox="0 0 42 42" fill="none" xmlns="http://www.w3.org/2000/svg">
<rect width="41.5556" height="41.5556" rx="14" fill="#328278"/>
<path d="M8.82818 26.3797C9.44106 27.5738 9.50212 28.7915 9.01605 30.0486C8.7644 30.6993 8.51352 31.3505 8.26343 32.0024H9.55493C9.73575 31.5359 9.91696 31.07 10.0986 30.6048C10.7537 28.9284 10.6821 27.309 9.85024 25.7181C9.41934 24.8941 9.01428 24.0557 8.58339 23.2341C8.29749 22.6889 8.14955 22.1152 8.19593 21.4942C8.2605 20.6303 8.3245 19.7669 8.3926 18.9036C8.44133 18.3089 8.62973 17.7354 8.94149 17.2327C9.10704 16.9601 9.25144 16.6729 9.41758 16.4003C9.61717 16.0719 9.93712 15.9665 10.2488 16.1107C10.5394 16.2458 10.6715 16.5566 10.5899 16.9201C10.5676 17.0386 10.5379 17.1556 10.5013 17.2703C10.0774 18.4517 9.97293 19.6742 10.0398 20.9229C10.0663 21.4251 10.2488 21.6269 10.7349 21.6541C12.1702 21.7335 13.2592 22.4066 13.9824 23.6952C14.0065 23.7388 14.0271 23.7848 14.0529 23.8279C14.2501 24.1641 14.5724 24.2744 14.8748 24.1108C15.1771 23.9472 15.2816 23.5813 15.0978 23.2238C14.3758 21.8189 13.2662 20.9217 11.7652 20.5479C11.2433 20.4188 11.2697 20.4267 11.2368 19.8754C11.1828 19.0436 11.4834 18.2929 11.6895 17.5223C11.8491 16.9256 11.8937 16.3597 11.6037 15.7939C11.5667 15.7212 11.5826 15.5982 11.6131 15.514C12.1195 14.1193 12.6301 12.7259 13.1447 11.3337C13.2927 10.935 13.5897 10.7751 13.9232 10.8963C14.239 11.0108 14.3705 11.3603 14.2267 11.7541C13.6091 13.4505 12.9888 15.1444 12.3657 16.8359C12.3311 16.9298 12.2964 17.0243 12.2659 17.12C12.1485 17.4878 12.2853 17.8252 12.5964 17.9458C12.9076 18.0664 13.2422 17.924 13.3784 17.5629C13.6719 16.7953 13.9496 16.0217 14.2325 15.2498C14.7843 13.7441 15.3364 12.2386 15.8886 10.7333C16.0483 10.2977 16.3582 10.1275 16.6999 10.2777C17.0227 10.4195 17.1284 10.7309 16.9787 11.1453C16.6007 12.1916 16.2156 13.2354 15.834 14.2805C15.4066 15.4473 14.9763 16.6129 14.5554 17.7828C14.5026 17.9288 14.4562 18.0997 14.4791 18.2469C14.5237 18.5298 14.7063 18.7104 14.9939 18.7449C15.2927 18.7806 15.5164 18.6316 15.6397 18.296C16.0547 17.1776 16.4615 16.0544 16.8725 14.9378C17.2008 14.0436 17.5294 13.1498 17.8581 12.2564C18.0125 11.8396 18.2937 11.6796 18.6213 11.8135C18.9212 11.9347 19.0181 12.2497 18.8813 12.6562C18.8749 12.6756 18.8655 12.6932 18.859 12.7126L17.2857 17.26C17.1349 17.6962 16.984 18.1318 16.8367 18.5686C16.684 19.023 16.8108 19.3562 17.1789 19.481C17.5259 19.6021 17.8147 19.4204 17.9702 18.9715C18.418 17.6835 18.8643 16.3953 19.3093 15.1068C19.341 15.0154 19.3786 14.9251 19.422 14.8112C19.5696 14.9341 19.6885 15.0897 19.7698 15.2666C19.8511 15.4434 19.8928 15.6369 19.8916 15.8326C19.9034 17.1655 19.8963 18.4929 19.8963 19.8524C19.8218 19.8245 19.7642 19.8051 19.7073 19.7815C19.3997 19.6543 19.1015 19.7421 18.9383 20.0087C18.7686 20.2868 18.8209 20.6212 19.1056 20.8368C19.52 21.1501 19.7942 21.5445 19.8723 22.0728C19.8899 22.2022 19.8981 22.3328 19.8969 22.4635C19.8969 23.5419 19.9063 24.6203 19.8969 25.6987C19.8805 27.4035 19.2312 28.7969 17.9491 29.879C17.77 30.044 17.6384 30.2568 17.5687 30.4939C17.4149 30.9959 17.2619 31.4986 17.1096 32.0018H18.3683C18.4587 31.7056 18.5479 31.4099 18.6383 31.1143C18.7006 30.9282 18.8077 30.7614 18.9494 30.6296C19.5034 30.1181 19.9708 29.5149 20.3325 28.8448C20.3777 28.7594 20.4276 28.677 20.494 28.5607C20.5603 28.6746 20.6114 28.7564 20.656 28.8406C21.0145 29.5126 21.4801 30.1176 22.0332 30.6302C22.1758 30.7616 22.2835 30.9285 22.3461 31.1149C22.4373 31.4125 22.5277 31.71 22.6173 32.0073H23.8759C23.7233 31.504 23.5703 31.0012 23.4169 30.4987C23.347 30.2615 23.2154 30.0487 23.0364 29.8832C21.7449 28.7927 21.0955 27.3894 21.088 25.6732C21.0822 24.6155 21.088 23.5577 21.088 22.4993C21.0859 22.3575 21.094 22.2157 21.1121 22.0752C21.1884 21.5596 21.4497 21.1664 21.8559 20.8593C22.1582 20.6303 22.2211 20.2983 22.0473 20.0111C21.8812 19.736 21.5777 19.6549 21.2524 19.796C21.2049 19.8166 21.1538 19.8293 21.0886 19.8505C21.0886 18.4947 21.0816 17.1649 21.0927 15.8357C21.0916 15.6399 21.1329 15.4463 21.2135 15.269C21.2941 15.0918 21.4121 14.9354 21.5588 14.8112C21.5999 14.916 21.634 14.9929 21.6622 15.0772L22.9948 18.9121C23.0242 19.0077 23.0607 19.1009 23.104 19.1908C23.17 19.3215 23.2803 19.4226 23.4139 19.4749C23.5474 19.5272 23.695 19.527 23.8284 19.4743C23.9633 19.4258 24.0762 19.3277 24.1454 19.1987C24.2146 19.0697 24.2353 18.9189 24.2035 18.7752C24.1769 18.6577 24.1424 18.5423 24.1002 18.4299C23.4384 16.5162 22.7762 14.6026 22.1136 12.6889C21.9598 12.2437 22.0614 11.9165 22.3848 11.8038C22.7206 11.6875 22.9778 11.8577 23.148 12.3097C23.2772 12.6568 23.4034 13.0052 23.5313 13.3535C24.1184 14.9626 24.7072 16.572 25.2977 18.1815C25.3899 18.4353 25.5003 18.7037 25.7844 18.7231C25.9914 18.7294 26.1945 18.6637 26.3609 18.5365C26.5734 18.3668 26.557 18.0985 26.4625 17.8422C26.0457 16.7141 25.6308 15.5853 25.2179 14.4556C24.8111 13.3457 24.4013 12.2364 24.001 11.1235C23.8378 10.6709 24.0409 10.282 24.4495 10.2299C24.736 10.1935 24.9672 10.3746 25.1076 10.7563C25.7952 12.6284 26.4816 14.5006 27.1669 16.373C27.319 16.7868 27.4604 17.2042 27.6307 17.6114C27.6871 17.7592 27.798 17.8778 27.9391 17.9413C28.0802 18.0048 28.2399 18.0079 28.3833 17.95C28.6768 17.8416 28.8306 17.5157 28.7449 17.1843C28.722 17.0976 28.6862 17.0146 28.6533 16.9298C28.0271 15.2173 27.3998 13.5048 26.7712 11.7923C26.618 11.3719 26.7331 11.0241 27.0566 10.9005C27.3965 10.7709 27.6976 10.9369 27.8514 11.3543C28.3602 12.736 28.8666 14.1191 29.3707 15.5037C29.4018 15.5891 29.4241 15.7127 29.3877 15.7836C29.083 16.37 29.1359 16.9559 29.3143 17.569C29.5603 18.4135 29.8391 19.2562 29.7505 20.1662C29.7317 20.3637 29.7112 20.4534 29.4887 20.4958C27.8831 20.7987 26.6844 21.702 25.9077 23.1863C25.7069 23.568 25.7903 23.9272 26.102 24.1035C26.4137 24.2798 26.7478 24.1641 26.9544 23.7849C27.6894 22.4175 28.8159 21.7141 30.3258 21.6499C30.7039 21.6335 30.9328 21.4075 30.9393 21.0265C30.958 19.9008 31.0179 18.7709 30.6 17.6895C30.5031 17.4387 30.4549 17.1679 30.3939 16.9019C30.3111 16.5463 30.4567 16.2282 30.7502 16.101C31.0537 15.9696 31.369 16.0731 31.5615 16.3852C31.7283 16.6566 31.8727 16.9437 32.0376 17.217C32.3504 17.7189 32.5403 18.2916 32.5912 18.8861C32.6605 19.7589 32.7268 20.6321 32.7902 21.5057C32.8354 22.1164 32.6892 22.6798 32.4104 23.2178C31.9325 24.1411 31.4564 25.0656 31.0015 26.0004C30.4614 27.1073 30.2648 28.2874 30.5706 29.4894C30.7884 30.3461 31.1306 31.1688 31.433 32.0018H32.6452C32.6465 31.8714 32.6226 31.7421 32.5748 31.6214C32.3775 31.0961 32.1779 30.5714 31.9719 30.0498C31.4776 28.7963 31.5433 27.5762 32.1574 26.3815C32.6059 25.5103 33.0438 24.6336 33.49 23.7612C33.8146 23.1269 34.0277 22.4581 33.9907 21.7371C33.9373 20.7017 33.8569 19.6676 33.7706 18.6346C33.6708 17.4314 33.0556 16.4536 32.4122 15.5025C32.0353 14.9457 31.4359 14.7294 30.7819 14.83C30.5013 14.873 30.3951 14.813 30.3 14.5446C29.8577 13.2978 29.4034 12.0554 28.9369 10.8175C28.5993 9.92087 27.7475 9.44893 26.8652 9.67067C26.608 9.73488 26.3697 9.87968 26.102 9.99721C25.8601 9.47135 25.4099 9.19084 24.8915 9.00121H24.1283C23.4532 9.24355 22.9619 9.66763 22.7682 10.4068C22.7547 10.4595 22.642 10.5091 22.5709 10.517C21.1967 10.6673 20.5245 11.7596 20.9859 13.1003C21.0079 13.1775 21.0349 13.253 21.0669 13.3263C21.1561 13.5026 21.108 13.6104 20.9495 13.7189C20.791 13.8273 20.656 13.98 20.5039 14.1193C20.3214 13.9618 20.1282 13.8122 19.9574 13.6383C19.9081 13.5886 19.8958 13.4644 19.9145 13.3869C19.9832 13.0949 20.1153 12.8125 20.1447 12.5187C20.245 11.5051 19.6034 10.6915 18.623 10.5455C18.5056 10.5285 18.3912 10.52 18.2708 10.5067C18.1892 10.3086 18.1205 10.1002 18.0213 9.90876C17.7718 9.42772 17.3427 9.18175 16.8666 9H16.1034C15.5845 9.18963 15.1348 9.47013 14.8918 9.996C14.6235 9.87907 14.3852 9.73428 14.1286 9.66945C13.248 9.44711 12.3933 9.92087 12.0569 10.8163C11.592 12.0538 11.1378 13.296 10.6944 14.5428C10.5999 14.8094 10.4954 14.876 10.2124 14.8288C9.60602 14.727 9.0272 14.9112 8.66029 15.411C7.99458 16.3197 7.3958 17.2842 7.25138 18.4529C7.16567 19.1411 7.12928 19.836 7.07527 20.5279C7.04944 20.849 7.02888 21.1707 7.00834 21.4924C6.95997 22.2604 7.12276 23.0269 7.47797 23.7037C7.92472 24.5955 8.37204 25.4903 8.82818 26.3797Z" fill="white" stroke="white" stroke-width="0.5"/>
</svg>
