<svg width="29" height="25" viewBox="0 0 29 25" fill="none" xmlns="http://www.w3.org/2000/svg">
<path d="M2.82818 18.3797C3.44106 19.5738 3.50212 20.7915 3.01605 22.0486C2.7644 22.6993 2.51352 23.3505 2.26343 24.0024H3.55493C3.73575 23.5359 3.91696 23.07 4.09855 22.6048C4.7537 20.9284 4.68208 19.309 3.85024 17.7181C3.41934 16.8941 3.01428 16.0557 2.58339 15.2341C2.29749 14.6889 2.14955 14.1152 2.19593 13.4942C2.2605 12.6303 2.3245 11.7669 2.3926 10.9036C2.44133 10.3089 2.62973 9.73541 2.94149 9.23272C3.10704 8.96009 3.25144 8.67293 3.41758 8.4003C3.61717 8.07194 3.93712 7.96652 4.24884 8.11071C4.53943 8.24581 4.67152 8.5566 4.58992 8.92011C4.56757 9.03865 4.53795 9.15561 4.50126 9.27028C4.07741 10.4517 3.97293 11.6742 4.03985 12.9229C4.06627 13.4251 4.24883 13.6269 4.7349 13.6541C6.17023 13.7335 7.25919 14.4066 7.98243 15.6952C8.0065 15.7388 8.02706 15.7848 8.05289 15.8279C8.25013 16.1641 8.57242 16.2744 8.87475 16.1108C9.17708 15.9472 9.28156 15.5813 9.09782 15.2238C8.37575 13.8189 7.26623 12.9217 5.76516 12.5479C5.24327 12.4188 5.26969 12.4267 5.23682 11.8754C5.18281 11.0436 5.4834 10.2929 5.68945 9.52231C5.84913 8.92556 5.89372 8.35971 5.60372 7.79386C5.56674 7.72116 5.58259 7.59817 5.61312 7.51396C6.11955 6.11932 6.63007 4.7259 7.14471 3.33369C7.29265 2.93504 7.58971 2.77511 7.92315 2.89627C8.23898 3.01078 8.37048 3.36035 8.22665 3.75414C7.60908 5.45048 6.98878 7.14441 6.36573 8.8359C6.3311 8.92981 6.29645 9.02431 6.26592 9.12004C6.14851 9.48778 6.28529 9.82523 6.59642 9.94579C6.90756 10.0664 7.24219 9.92399 7.37839 9.56291C7.67191 8.79531 7.94957 8.02165 8.23253 7.24982C8.78435 5.74411 9.33637 4.2386 9.88858 2.7333C10.0483 2.2977 10.3582 2.12747 10.6999 2.27772C11.0227 2.41948 11.1284 2.73088 10.9787 3.14527C10.6007 4.19155 10.2156 5.23541 9.83398 6.28048C9.40661 7.44732 8.97631 8.61295 8.5554 9.78282C8.50257 9.92883 8.4562 10.0997 8.4791 10.2469C8.52371 10.5298 8.70626 10.7104 8.99391 10.7449C9.29272 10.7806 9.51638 10.6316 9.63966 10.296C10.0547 9.17759 10.4615 8.05437 10.8725 6.93781C11.2008 6.04359 11.5294 5.14978 11.8581 4.25637C12.0125 3.83956 12.2937 3.67962 12.6213 3.81351C12.9212 3.93468 13.0181 4.24971 12.8813 4.65623C12.8749 4.67561 12.8655 4.69318 12.859 4.71257L11.2857 9.25999C11.1349 9.69619 10.984 10.1318 10.8367 10.5686C10.684 11.023 10.8108 11.3562 11.1789 11.481C11.5259 11.6021 11.8147 11.4204 11.9702 10.9715C12.418 9.68347 12.8643 8.39525 13.3093 7.10684C13.341 7.01536 13.3786 6.92509 13.422 6.81119C13.5696 6.93409 13.6885 7.08974 13.7698 7.26658C13.8511 7.44342 13.8928 7.6369 13.8916 7.83263C13.9034 9.16547 13.8963 10.4929 13.8963 11.8524C13.8218 11.8245 13.7642 11.8051 13.7073 11.7815C13.3997 11.6543 13.1015 11.7421 12.9383 12.0087C12.7686 12.2868 12.8209 12.6212 13.1056 12.8368C13.52 13.1501 13.7942 13.5445 13.8723 14.0728C13.8899 14.2022 13.8981 14.3328 13.8969 14.4635C13.8969 15.5419 13.9063 16.6203 13.8969 17.6987C13.8805 19.4035 13.2312 20.7969 11.9491 21.879C11.77 22.044 11.6384 22.2568 11.5687 22.4939C11.4149 22.9959 11.2619 23.4986 11.1096 24.0018H12.3683C12.4587 23.7056 12.5479 23.4099 12.6383 23.1143C12.7006 22.9282 12.8077 22.7614 12.9494 22.6296C13.5034 22.1181 13.9708 21.5149 14.3325 20.8448C14.3777 20.7594 14.4276 20.677 14.494 20.5607C14.5603 20.6746 14.6114 20.7564 14.656 20.8406C15.0145 21.5126 15.4801 22.1176 16.0332 22.6302C16.1758 22.7616 16.2835 22.9285 16.3461 23.1149C16.4373 23.4125 16.5277 23.71 16.6173 24.0073H17.8759C17.7233 23.504 17.5703 23.0012 17.4169 22.4987C17.347 22.2615 17.2154 22.0487 17.0364 21.8832C15.7449 20.7927 15.0955 19.3894 15.088 17.6732C15.0822 16.6155 15.088 15.5577 15.088 14.4993C15.0859 14.3575 15.094 14.2157 15.1121 14.0752C15.1884 13.5596 15.4497 13.1664 15.8559 12.8593C16.1582 12.6303 16.2211 12.2983 16.0473 12.0111C15.8812 11.736 15.5777 11.6549 15.2524 11.796C15.2049 11.8166 15.1538 11.8293 15.0886 11.8505C15.0886 10.4947 15.0816 9.16487 15.0927 7.83566C15.0916 7.63986 15.1329 7.44625 15.2135 7.26901C15.2941 7.09176 15.4121 6.93535 15.5588 6.81119C15.5999 6.916 15.634 6.99294 15.6622 7.07716L16.9948 10.9121C17.0242 11.0077 17.0607 11.1009 17.104 11.1908C17.17 11.3215 17.2803 11.4226 17.4139 11.4749C17.5474 11.5272 17.695 11.527 17.8284 11.4743C17.9633 11.4258 18.0762 11.3277 18.1454 11.1987C18.2146 11.0697 18.2353 10.9189 18.2035 10.7752C18.1769 10.6577 18.1424 10.5423 18.1002 10.4299C17.4384 8.51622 16.7762 6.60258 16.1136 4.68894C15.9598 4.24365 16.0614 3.9165 16.3848 3.80382C16.7206 3.6875 16.9778 3.85773 17.148 4.30969C17.2772 4.65683 17.4034 5.00519 17.5313 5.35354C18.1184 6.96265 18.7072 8.57196 19.2977 10.1815C19.3899 10.4353 19.5003 10.7037 19.7844 10.7231C19.9914 10.7294 20.1945 10.6637 20.3609 10.5365C20.5734 10.3668 20.557 10.0985 20.4625 9.8422C20.0457 8.71413 19.6308 7.58525 19.2179 6.45557C18.8111 5.34567 18.4013 4.23638 18.001 3.12346C17.8378 2.6709 18.0409 2.28195 18.4495 2.22985C18.736 2.1935 18.9672 2.37464 19.1076 2.75632C19.7952 4.62836 20.4816 6.5006 21.1669 8.37304C21.319 8.78683 21.4604 9.20425 21.6307 9.61137C21.6871 9.75916 21.798 9.87783 21.9391 9.94132C22.0802 10.0048 22.2399 10.0079 22.3833 9.95003C22.6768 9.84159 22.8306 9.51565 22.7449 9.18426C22.722 9.09762 22.6862 9.01462 22.6533 8.9298C22.0271 7.2173 21.3998 5.50481 20.7712 3.79231C20.618 3.37186 20.7331 3.0241 21.0566 2.90051C21.3965 2.77086 21.6976 2.93686 21.8514 3.35428C22.3602 4.73599 22.8666 6.11912 23.3707 7.50366C23.4018 7.58908 23.4241 7.71267 23.3877 7.78356C23.083 8.37001 23.1359 8.95586 23.3143 9.56896C23.5603 10.4135 23.8391 11.2562 23.7505 12.1662C23.7317 12.3637 23.7112 12.4534 23.4887 12.4958C21.8831 12.7987 20.6844 13.702 19.9077 15.1863C19.7069 15.568 19.7903 15.9272 20.102 16.1035C20.4137 16.2798 20.7478 16.1641 20.9544 15.7849C21.6894 14.4175 22.8159 13.7141 24.3258 13.6499C24.7039 13.6335 24.9328 13.4075 24.9393 13.0265C24.958 11.9008 25.0179 10.7709 24.6 9.68952C24.5031 9.43871 24.4549 9.1679 24.3939 8.90194C24.3111 8.54631 24.4567 8.22825 24.7502 8.10102C25.0537 7.96955 25.369 8.07315 25.5615 8.38516C25.7283 8.65657 25.8727 8.94374 26.0376 9.21697C26.3504 9.71887 26.5403 10.2916 26.5912 10.8861C26.6605 11.7589 26.7268 12.6321 26.7902 13.5057C26.8354 14.1164 26.6892 14.6798 26.4104 15.2178C25.9325 16.1411 25.4564 17.0656 25.0015 18.0004C24.4614 19.1073 24.2648 20.2874 24.5706 21.4894C24.7884 22.3461 25.1306 23.1688 25.433 24.0018H26.6452C26.6465 23.8714 26.6226 23.7421 26.5748 23.6214C26.3775 23.0961 26.1779 22.5714 25.9719 22.0498C25.4776 20.7963 25.5433 19.5762 26.1574 18.3815C26.6059 17.5103 27.0438 16.6336 27.49 15.7612C27.8146 15.1269 28.0277 14.4581 27.9907 13.7371C27.9373 12.7017 27.8569 11.6676 27.7706 10.6346C27.6708 9.43144 27.0556 8.45362 26.4122 7.50245C26.0353 6.94569 25.4359 6.7294 24.7819 6.82997C24.5013 6.87298 24.3951 6.81301 24.3 6.54462C23.8577 5.29781 23.4034 4.05544 22.9369 2.81751C22.5993 1.92087 21.7475 1.44893 20.8652 1.67067C20.608 1.73488 20.3697 1.87968 20.102 1.99721C19.8601 1.47135 19.4099 1.19084 18.8915 1.00121H18.1283C17.4532 1.24355 16.9619 1.66763 16.7682 2.40675C16.7547 2.45946 16.642 2.50914 16.5709 2.51702C15.1967 2.66727 14.5245 3.75959 14.9859 5.10031C15.0079 5.17745 15.0349 5.25295 15.0669 5.32628C15.1561 5.50258 15.108 5.61042 14.9495 5.71887C14.791 5.82731 14.656 5.97998 14.5039 6.11932C14.3214 5.96181 14.1282 5.81217 13.9574 5.63829C13.9081 5.58861 13.8958 5.46442 13.9145 5.38687C13.9832 5.09485 14.1153 4.81254 14.1447 4.51871C14.245 3.50514 13.6034 2.6915 12.623 2.54549C12.5056 2.52853 12.3912 2.52005 12.2708 2.50672C12.1892 2.30861 12.1205 2.1002 12.0213 1.90876C11.7718 1.42772 11.3427 1.18175 10.8666 1H10.1034C9.5845 1.18963 9.13482 1.47013 8.89178 1.996C8.6235 1.87907 8.38516 1.73428 8.12862 1.66945C7.24805 1.44711 6.39331 1.92087 6.05693 2.8163C5.59199 4.05382 5.13782 5.29599 4.6944 6.5428C4.59989 6.80937 4.49539 6.87602 4.21244 6.82876C3.60602 6.72698 3.0272 6.91116 2.66029 7.41097C1.99458 8.31973 1.3958 9.28422 1.25138 10.4529C1.16567 11.1411 1.12928 11.836 1.07527 12.5279C1.04944 12.849 1.02888 13.1707 1.00834 13.4924C0.959971 14.2604 1.12276 15.0269 1.47797 15.7037C1.92472 16.5955 2.37204 17.4903 2.82818 18.3797Z" fill="#A0A3B1" stroke="#A0A3B1" stroke-width="0.5"/>
</svg>
