<svg width="42" height="42" viewBox="0 0 42 42" fill="none" xmlns="http://www.w3.org/2000/svg">
<rect width="41.5556" height="41.5556" rx="14" fill="#328278"/>
<path d="M29.357 16.7807L22.4985 10.74C21.5187 9.76019 19.9234 9.76019 18.9841 10.6995L12.0446 16.8212C11.3725 17.4933 11 18.3921 11 19.3476V27.437C11 28.7812 12.0932 29.8744 13.4373 29.8744H28.0129C29.3489 29.8744 30.4421 28.7812 30.4421 27.437V19.3476C30.4421 18.3921 30.0696 17.4933 29.357 16.7807ZM28.8226 27.437C28.8226 27.8905 28.4582 28.2549 28.0129 28.2549H22.879V23.0401C22.879 22.5704 22.5066 22.198 22.0369 22.198H19.4052C18.9437 22.198 18.5631 22.5704 18.5631 23.0401V28.2549H13.4373C12.9839 28.2549 12.6195 27.8905 12.6195 27.437V19.3476C12.6195 18.8375 12.83 18.3274 13.1539 17.9954L20.0935 11.8817C20.2635 11.7117 20.4822 11.6226 20.7089 11.6226C20.9518 11.6226 21.1948 11.7198 21.3891 11.9141L28.2477 17.963C28.6202 18.3354 28.8226 18.8294 28.8226 19.3476V27.437Z" fill="white"/>
</svg>
