<svg width="20" height="20" viewBox="0 0 20 20" fill="none" xmlns="http://www.w3.org/2000/svg">
<path d="M18.357 6.78073L11.4985 0.73999C10.5187 -0.239809 8.92345 -0.239808 7.98414 0.699502L1.04458 6.82122C0.372485 7.49331 0 8.39213 0 9.34764V17.437C0 18.7812 1.09316 19.8744 2.43735 19.8744H17.0129C18.3489 19.8744 19.4421 18.7812 19.4421 17.437V9.34764C19.4421 8.39213 19.0696 7.49331 18.357 6.78073ZM17.8226 17.437C17.8226 17.8905 17.4582 18.2549 17.0129 18.2549H11.879V13.0401C11.879 12.5704 11.5066 12.198 11.0369 12.198H8.40521C7.94365 12.198 7.56307 12.5704 7.56307 13.0401V18.2549H2.43735C1.98389 18.2549 1.6195 17.8905 1.6195 17.437V9.34764C1.6195 8.83749 1.83004 8.32735 2.15394 7.99535L9.0935 1.88174C9.26355 1.71169 9.48218 1.62262 9.70891 1.62262C9.95183 1.62262 10.1948 1.71979 10.3891 1.91413L17.2477 7.96296C17.6202 8.33545 17.8226 8.8294 17.8226 9.34764V17.437Z" fill="#A0A3B1"/>
</svg>
