<svg width="40" height="40" viewBox="0 0 40 40" fill="none" xmlns="http://www.w3.org/2000/svg">
<g clip-path="url(#clip0_647_1211)">
<path d="M5.34541 6.65206C5.39722 6.76319 5.43178 6.80119 5.42488 6.82825C4.20553 11.5852 2.99194 16.3434 1.7369 21.0906C1.673 21.3307 1.26136 21.6215 0.994812 21.6388C0.160615 21.6964 -0.0351213 22.1467 0.00517807 22.8694C0.134712 25.2217 1.14391 27.1248 3.02819 28.5016C5.38168 30.2205 7.96834 30.5021 10.6149 29.2928C13.2234 28.1014 14.6448 25.9726 14.9816 23.1314C15.0605 22.4715 15.0996 21.6918 14.1508 21.6981C13.3955 21.705 13.2637 21.2847 13.122 20.7353C11.9706 16.2933 10.8192 11.8521 9.66781 7.41158C9.61024 7.18125 9.62405 6.93306 9.597 6.60541C11.6235 6.60541 13.574 6.63017 15.5233 6.59274C16.2982 6.57835 16.8774 6.6578 17.2303 7.50601C17.4202 7.96265 17.8992 8.4049 18.3575 8.61911C19.0236 8.93007 19.1975 9.32451 19.1946 10.0282C19.1692 17.7012 19.1785 25.3737 19.1785 33.0467V34.1518C17.6396 34.1518 16.2688 34.1564 14.8981 34.1518C13.5671 34.1466 12.616 34.6781 12.1347 35.9812C11.8089 36.8605 11.3897 37.7058 11.0472 38.58C10.6718 39.537 10.9418 39.9867 11.9453 39.9896C17.3351 40.0057 22.7246 40.0057 28.114 39.9896C29.1082 39.9867 29.3898 39.5261 29.0242 38.5753C28.6995 37.7329 28.2999 36.9187 27.9816 36.0745C27.4663 34.7069 26.4847 34.1166 25.0501 34.1466C23.6891 34.1754 22.3276 34.1529 20.8722 34.1529V32.8481C20.8722 25.5009 20.8831 18.1538 20.8595 10.8067C20.8561 9.77021 20.7553 8.79128 22.0461 8.41181C22.2896 8.33983 22.5705 8.0594 22.6488 7.81582C23.0673 6.50464 24.0812 6.56223 25.1537 6.59505C26.6356 6.64054 28.1197 6.60195 29.6028 6.61174C29.8722 6.61174 30.1416 6.67509 30.3903 6.70676C30.4088 6.86627 30.4381 6.9417 30.4214 7.00504C29.2078 11.6912 28.0006 16.3791 26.7467 21.0555C26.6776 21.3135 26.2412 21.6002 25.9407 21.644C25.2654 21.743 24.958 22.0701 25.0075 22.7196C25.0396 23.2605 25.1149 23.7979 25.2326 24.3268C26.103 27.9546 29.6229 30.3622 33.4185 29.9504C36.9344 29.5692 39.8923 26.4165 40 22.9632C40.023 22.2198 39.9056 21.7079 38.9931 21.6307C38.7052 21.6066 38.3086 21.1787 38.2199 20.8626C37.5377 18.4279 36.9171 15.976 36.2798 13.5287C35.6914 11.268 35.1053 9.00665 34.4997 6.67624C34.9119 6.64745 35.1906 6.61865 35.4744 6.61058C36.0852 6.59792 36.7283 6.55301 36.6926 5.74338C36.6569 4.93375 35.9988 4.95045 35.3995 4.96197C35.255 4.96197 35.1117 4.96197 34.9654 4.96197H23.4761C23.0011 4.32855 22.7052 3.56902 22.1618 3.28398C21.0852 2.71908 20.6931 1.99122 20.8284 0.821122C20.8572 0.570632 20.5245 0.157747 20.2591 0.033942C20.0518 -0.0627987 19.5527 0.0863466 19.4289 0.282131C19.2349 0.587901 19.1779 1.03072 19.1906 1.40674C19.213 2.09775 19.1232 2.57626 18.369 2.94019C17.8048 3.21257 17.4634 3.9243 16.9793 4.39534C16.7323 4.63489 16.3915 4.93145 16.0887 4.93663C13.7381 4.97579 11.3869 4.94642 9.03568 4.94584C7.44501 4.94584 5.85147 4.91359 4.2654 5.00343C3.94185 5.02243 3.64652 5.52859 3.33794 5.8096C3.63328 6.07103 3.8906 6.42459 4.23487 6.56855C4.57914 6.71251 4.99998 6.63363 5.34541 6.65206Z" fill="#FFD966"/>
<path d="M5.34527 6.65215C4.99985 6.63372 4.57383 6.70973 4.23704 6.56635C3.90025 6.42297 3.63545 6.06882 3.34011 5.80739C3.64869 5.5258 3.94402 5.01964 4.26757 5.00121C5.85363 4.91023 7.44718 4.94363 9.03785 4.94363C11.389 4.94363 13.7402 4.97358 16.0908 4.93442C16.3937 4.92924 16.7345 4.63269 16.9814 4.39314C17.4656 3.9221 17.807 3.21037 18.3712 2.938C19.1254 2.57407 19.2152 2.09842 19.1927 1.40453C19.1801 1.02563 19.2371 0.585689 19.4311 0.279919C19.5549 0.0841344 20.054 -0.0655868 20.2612 0.0317298C20.5266 0.155535 20.8594 0.56842 20.8306 0.81891C20.6953 1.98901 21.0874 2.71918 22.1639 3.28177C22.7074 3.56681 23.0033 4.32518 23.4783 4.95975H34.963C35.1075 4.95975 35.2509 4.95975 35.3971 4.95975C35.9964 4.94824 36.655 4.93845 36.6901 5.74117C36.7252 6.54389 36.0828 6.59572 35.4719 6.60839C35.1904 6.61414 34.9095 6.64523 34.4973 6.67403C35.1029 9.00559 35.689 11.2669 36.2773 13.5265C36.9146 15.9738 37.5353 18.4257 38.2175 20.8604C38.3061 21.1765 38.7051 21.6043 38.9907 21.6285C39.9032 21.7057 40.0206 22.2176 39.9976 22.961C39.8899 26.4161 36.9319 29.567 33.4161 29.9482C29.6205 30.36 26.1006 27.9507 25.2302 24.3246C25.1125 23.7957 25.0372 23.2583 25.005 22.7174C24.9555 22.0679 25.263 21.7385 25.9383 21.6418C26.2376 21.598 26.674 21.3112 26.7442 21.0533C27.9981 16.378 29.2054 11.6901 30.419 7.00283C30.4357 6.93948 30.4063 6.86405 30.3879 6.70455C30.1392 6.67288 29.8697 6.61127 29.6003 6.60954C28.1173 6.59975 26.6331 6.63833 25.1513 6.59284C24.0787 6.56001 23.0649 6.50243 22.6464 7.81361C22.5681 8.05719 22.2871 8.33763 22.0436 8.40961C20.7529 8.79024 20.8536 9.76973 20.8571 10.8045C20.8807 18.1516 20.8697 25.4987 20.8697 32.8459V34.1507C22.3251 34.1507 23.6867 34.1732 25.0476 34.1444C26.4829 34.1139 27.4656 34.7047 27.9791 36.0723C28.2975 36.9165 28.697 37.7307 29.0217 38.5731C29.3873 39.5238 29.1058 39.9845 28.1115 39.9874C22.7218 40.0028 17.3322 40.0028 11.9429 39.9874C10.9394 39.9845 10.6694 39.5348 11.0448 38.5778C11.3873 37.7036 11.8064 36.8583 12.1323 35.979C12.6153 34.6759 13.5663 34.1444 14.8957 34.1496C16.2664 34.1553 17.6372 34.1496 19.176 34.1496V33.0486C19.176 25.3755 19.1668 17.703 19.1921 10.03C19.1921 9.32634 19.0194 8.93189 18.3551 8.62094C17.8945 8.40672 17.4178 7.96448 17.2278 7.50784C16.8749 6.65963 16.2958 6.58017 15.5209 6.59457C13.5715 6.632 11.621 6.60723 9.59455 6.60723C9.62161 6.93719 9.60607 7.18307 9.66537 7.41341C10.8129 11.8554 11.9643 16.2967 13.1196 20.7371C13.2612 21.2865 13.3931 21.7068 14.1484 21.6999C15.0972 21.6907 15.058 22.4733 14.9791 23.1332C14.6412 25.9727 13.2209 28.1015 10.6124 29.2947C7.96417 30.5039 5.37923 30.2223 3.02575 28.5035C1.14147 27.1266 0.13227 25.2212 0.00273666 22.8712C-0.0375627 22.1485 0.158174 21.6959 0.992371 21.6406C1.25892 21.6233 1.67056 21.3326 1.73446 21.0924C2.9895 16.3452 4.20309 11.5871 5.42243 6.83008C5.43165 6.80128 5.39881 6.76329 5.34527 6.65215ZM7.72928 6.64523L7.23416 6.69878C5.94976 11.6389 4.66596 16.5784 3.36429 21.5859H11.632L7.72928 6.64523ZM36.6441 21.6032C35.328 16.5514 34.0379 11.6021 32.7483 6.65273L32.2676 6.64812C30.9745 11.6118 29.6821 16.5756 28.3723 21.6032H36.6441ZM13.1939 23.3975H1.79029C2.20077 26.2502 4.59803 28.2921 7.45641 28.3111C10.3499 28.3267 12.7678 26.2853 13.1939 23.3975ZM26.7955 23.3889C27.3061 26.5318 29.9665 28.5622 33.0972 28.2754C35.7903 28.0284 38.176 25.7135 38.119 23.3889H26.7955ZM27.0891 38.2996C26.8041 37.627 26.6648 37.046 26.3366 36.6061C26.0782 36.2606 25.5882 35.8736 25.1979 35.8673C21.7314 35.8105 18.2645 35.8105 14.7972 35.8673C14.4316 35.873 13.9601 36.2301 13.7373 36.5583C13.4098 37.0426 13.2624 37.6489 12.9987 38.3008L27.0891 38.2996ZM18.4328 5.72447C18.4121 6.72758 19.0235 7.3944 19.9872 7.41341C20.925 7.43471 21.6567 6.7483 21.6815 5.82063C21.6894 5.60389 21.6542 5.38775 21.5781 5.18471C21.5019 4.98166 21.3861 4.79574 21.2376 4.63774C21.0891 4.47975 20.9107 4.3528 20.7127 4.26425C20.5148 4.17571 20.3012 4.12732 20.0845 4.12191C19.138 4.09312 18.4524 4.75879 18.4328 5.72447Z" fill="#328278"/>
<path d="M7.72949 6.64514L11.6322 21.5858H3.3645C4.66617 16.576 5.94998 11.6388 7.23438 6.69869L7.72949 6.64514Z" fill="#FFD966"/>
<path d="M36.6443 21.6032H28.3726C29.6823 16.5755 30.9748 11.6118 32.2678 6.64807L32.7485 6.65268C34.0381 11.602 35.3282 16.5513 36.6443 21.6032Z" fill="#FFD966"/>
<path d="M13.1941 23.3975C12.7664 26.2853 10.3501 28.3289 7.45664 28.3111C4.59827 28.2938 2.20101 26.2502 1.79053 23.3975H13.1941Z" fill="#8CC8C4"/>
<path d="M26.7957 23.3888H38.1192C38.1768 25.7135 35.7905 28.0283 33.0973 28.2754C29.9666 28.5621 27.3063 26.5317 26.7957 23.3888Z" fill="#8CC8C4"/>
<path d="M27.0892 38.2995H12.9983C13.262 37.6477 13.4093 37.0413 13.7369 36.557C13.9597 36.2276 14.4312 35.8706 14.7968 35.866C18.2633 35.8142 21.7302 35.8142 25.1975 35.866C25.5895 35.8724 26.0777 36.2576 26.3362 36.6048C26.665 37.0459 26.8043 37.6269 27.0892 38.2995Z" fill="#FFD966"/>
<path d="M18.433 5.72443C18.4526 4.75875 19.1382 4.09308 20.0841 4.12187C20.3009 4.12729 20.5144 4.17567 20.7123 4.26421C20.9103 4.35276 21.0887 4.47971 21.2372 4.63771C21.3858 4.7957 21.5015 4.98162 21.5777 5.18467C21.6539 5.38772 21.689 5.60386 21.6811 5.82059C21.6552 6.74827 20.9247 7.43295 19.9868 7.41337C19.0237 7.39149 18.41 6.72754 18.433 5.72443Z" fill="#8CC8C4"/>
</g>
<defs>
<clipPath id="clip0_647_1211">
<rect width="40" height="40" fill="white"/>
</clipPath>
</defs>
</svg>
