<svg width="41" height="40" viewBox="0 0 41 40" fill="none" xmlns="http://www.w3.org/2000/svg">
<g clip-path="url(#clip0_647_1090)">
<path d="M20.3644 0.702576L0.702637 5.19299V34.8079L20.3644 39.2974L40.0261 34.8079V5.19299L20.3644 0.702576Z" fill="#8CC8C4"/>
<path d="M20.3644 0.702576L0.702637 5.19299V10.3435L20.3644 7.04398L40.0261 10.3435V5.19299L20.3644 0.702576Z" fill="#FFD966"/>
<path d="M23.8755 38.5428L30.8978 36.8375V20.386H23.8755V38.5428Z" fill="#FFD966"/>
<path d="M40.1821 4.50774L20.5213 0.017322C20.418 -0.00666919 20.3106 -0.00666919 20.2073 0.017322L0.545584 4.50774C0.390633 4.54326 0.252307 4.63028 0.15321 4.75459C0.0541133 4.87889 0.000101711 5.03313 0 5.1921V34.8078C0.000101711 34.9668 0.0541133 35.1211 0.15321 35.2454C0.252307 35.3697 0.390633 35.4567 0.545584 35.4922L20.2073 39.9826C20.3104 40.0057 20.4173 40.0057 20.5204 39.9826L40.1821 35.4922C40.3371 35.4567 40.4754 35.3697 40.5745 35.2454C40.6736 35.1211 40.7276 34.9668 40.7277 34.8078V5.1921C40.7276 5.03313 40.6736 4.87889 40.5745 4.75459C40.4754 4.63028 40.3371 4.54326 40.1821 4.50774ZM39.3234 9.51337L21.066 6.4498V1.58294L39.3234 5.75242V9.51337ZM1.40428 5.75242L19.6617 1.58294V6.4498L1.40428 9.51337V5.75242ZM1.40428 10.9376L19.6617 7.87403V38.417L1.40428 34.2475V10.9376ZM23.8746 37.5444V21.0885H30.9003V36.1454L23.8746 37.5444ZM32.3011 35.8513V20.386C32.3011 20.1999 32.2272 20.0214 32.0956 19.8898C31.964 19.7582 31.7856 19.6842 31.5994 19.6842H23.1755C23.0832 19.6841 22.9919 19.7022 22.9067 19.7374C22.8214 19.7726 22.744 19.8243 22.6787 19.8895C22.6135 19.9546 22.5617 20.032 22.5264 20.1172C22.4911 20.2024 22.4729 20.2937 22.4729 20.386V38.0961L21.0686 38.417V7.87403L39.326 10.9376V34.2475L32.3011 35.8513Z" fill="#328278"/>
</g>
<defs>
<clipPath id="clip0_647_1090">
<rect width="40.7286" height="40" fill="white"/>
</clipPath>
</defs>
</svg>
