<svg width="40" height="40" viewBox="0 0 40 40" fill="none" xmlns="http://www.w3.org/2000/svg">
<g clip-path="url(#clip0_661_1256)">
<path d="M19.8379 0H20.1644C20.3036 0.106122 20.4566 0.198366 20.5795 0.320407C21.9528 1.68775 23.3219 3.05918 24.6868 4.43469C24.8754 4.62531 25.0607 4.69592 25.3252 4.6951C28.4131 4.68612 31.5007 4.68612 34.5881 4.6951C34.7554 4.69804 34.9193 4.7428 35.0648 4.8253C35.2795 4.94775 35.3142 5.17674 35.3138 5.41388C35.3113 8.55592 35.3097 11.6978 35.3089 14.8396C35.3057 14.906 35.317 14.9724 35.3422 15.0339C35.3674 15.0955 35.4057 15.1508 35.4546 15.1959C36.8619 16.5967 38.2658 18.0008 39.666 19.4082C39.7934 19.5359 39.8901 19.6939 40.0011 19.8371V20.1637C39.895 20.3029 39.8028 20.4555 39.6803 20.5784C38.2754 21.9912 36.867 23.4001 35.455 24.8053C35.4062 24.8504 35.3679 24.9056 35.3427 24.9671C35.3175 25.0286 35.3061 25.0949 35.3093 25.1612C35.3128 28.2829 35.3138 31.4045 35.3122 34.5261C35.3122 35.1016 35.1024 35.3114 34.5268 35.3114C31.4052 35.3114 28.2836 35.3131 25.1619 35.3163C25.0534 35.3163 24.9146 35.3571 24.8407 35.4318C23.4358 36.8249 22.0395 38.2269 20.6366 39.6225C20.4946 39.7641 20.3224 39.8755 20.164 40.0004H19.8375C19.6893 39.8849 19.5268 39.7833 19.3942 39.6514C17.9964 38.2607 16.6021 36.8664 15.2113 35.4686C15.1619 35.4148 15.1013 35.3725 15.0337 35.3447C14.9661 35.3169 14.8933 35.3043 14.8203 35.3078C11.7055 35.3121 8.59065 35.3133 5.47582 35.3114C4.90031 35.3114 4.69011 35.1012 4.69011 34.5265C4.69011 31.3973 4.68834 28.2688 4.6848 25.1412C4.68069 25.0241 4.63495 24.9122 4.55582 24.8257C3.2297 23.4882 1.8942 22.1604 0.566441 20.8257C0.36236 20.6216 0.188488 20.3861 0.000732422 20.1649V19.8384C0.116243 19.6898 0.217458 19.5273 0.348887 19.3947C1.73991 17.9971 3.13447 16.6033 4.53256 15.2131C4.58634 15.1633 4.62859 15.1023 4.65636 15.0345C4.68414 14.9667 4.69678 14.8936 4.69337 14.8204C4.68902 11.7056 4.68793 8.59089 4.69011 5.47633C4.69011 4.90082 4.89991 4.69102 5.47542 4.69102C8.59705 4.69102 11.7185 4.69184 14.8399 4.69347C14.9775 4.69347 15.0819 4.66449 15.1832 4.56286C16.5742 3.16531 17.9682 1.77075 19.3652 0.379185C19.5064 0.236328 19.6787 0.125306 19.8379 0ZM34.0571 5.95347H5.95011V34.0453H34.0558L34.0571 5.95347ZM16.8926 35.3176L19.9795 38.3996L23.0746 35.3176H16.8926ZM23.0795 4.67878L20.0256 1.61102L16.944 4.67878H23.0795ZM4.67624 16.9127L1.58643 19.9959L4.67624 23.0914V16.9127ZM35.3224 23.0935L38.4007 20.0143L35.3224 16.9257V23.0935Z" fill="#328278"/>
<path d="M34.0559 5.95349V34.0453H5.9502V5.95349H34.0559ZM32.1898 20.0143C32.1608 13.2012 26.691 7.77798 19.8816 7.81023C13.1992 7.84247 7.7902 13.3531 7.81061 20.1078C7.83101 26.7927 13.3584 32.218 20.1179 32.1894C26.7465 32.158 32.2184 26.64 32.1898 20.0143Z" fill="#8CC8C4"/>
<path d="M16.8914 35.3175H23.0734L19.9783 38.3995L16.8914 35.3175Z" fill="#8CC8C4"/>
<path d="M23.0796 4.67872H16.9441L20.0257 1.61096L23.0796 4.67872Z" fill="#8CC8C4"/>
<path d="M4.67623 16.9126V23.0914L1.58643 19.9959L4.67623 16.9126Z" fill="#8CC8C4"/>
<path d="M35.3223 23.0934V16.9257L38.4006 20.0142L35.3223 23.0934Z" fill="#8CC8C4"/>
<path d="M32.1898 20.0143C32.2184 26.64 26.7465 32.158 20.1179 32.1882C13.3584 32.2188 7.83224 26.7935 7.8106 20.1065C7.7902 13.3518 13.1983 7.84122 19.8816 7.80897C26.691 7.77795 32.1608 13.2012 32.1898 20.0143ZM30.9371 19.9988C30.9441 13.98 26.0306 9.06775 19.9984 9.06326C13.9861 9.05877 9.07508 13.9612 9.06284 19.9812C9.05059 26.0131 13.9641 30.9347 20.0016 30.9371C26.0245 30.94 30.9302 26.0331 30.9371 19.9988Z" fill="#328278"/>
<path d="M19.9983 9.06324C13.986 9.05875 9.07501 13.9612 9.06277 19.9812C9.05052 26.013 13.964 30.9343 20.0015 30.9371C26.024 30.94 30.9297 26.033 30.9366 19.9983C30.944 13.98 26.0305 9.06773 19.9983 9.06324ZM15.6791 24.4824C15.7607 24.3265 15.8424 24.1694 15.924 24.0155C15.8415 24.1694 15.7616 24.3265 15.6795 24.4824H15.6791Z" fill="#FFD966"/>
<path d="M22.064 24.7028C22.0594 24.7032 22.0547 24.7032 22.0501 24.7028C21.9689 24.6904 21.8872 24.6821 21.8052 24.6779C21.6081 24.6649 21.404 24.651 21.2587 24.5408C20.515 23.9779 19.7754 23.3795 19.0599 22.8004C18.8272 22.6121 18.5938 22.4235 18.3595 22.2347C18.255 22.3465 18.1489 22.4632 18.037 22.5861C17.7231 22.9314 17.3987 23.2881 17.0358 23.6187C16.7093 23.9167 16.2015 24.3126 15.5787 24.3126C15.3957 24.3117 15.2142 24.2791 15.0423 24.2163C14.2019 23.9155 13.9493 23.1551 13.7627 22.4012C13.7252 22.2498 13.8211 22.0849 13.9134 21.9257C13.9513 21.8633 13.9858 21.7988 14.0166 21.7326C14.0217 21.7211 14.0293 21.7109 14.0389 21.7029C14.0486 21.6948 14.0599 21.689 14.0721 21.6861C14.0784 21.6845 14.0848 21.6836 14.0913 21.6836C14.1102 21.6837 14.1286 21.6903 14.1431 21.7024C14.1966 21.744 14.2524 21.7825 14.3101 21.8179C14.455 21.9106 14.6048 22.0069 14.6366 22.1493C14.7591 22.6975 15.0109 23.351 15.5305 23.351C15.8762 23.351 16.3011 23.0771 16.7938 22.5371C17.048 22.2583 17.2836 21.9657 17.4876 21.7098C17.5587 21.6212 17.6264 21.5367 17.6893 21.46L17.3285 20.5881C16.8942 19.5383 16.484 18.5473 16.075 17.5485C16.0371 17.4468 16.0089 17.3417 15.9909 17.2347C15.9836 17.1991 15.9766 17.1636 15.9685 17.1285C15.9603 17.0934 15.9521 17.0595 15.9436 17.024C15.8929 16.82 15.8358 16.5926 15.9468 16.4281C16.0109 16.3326 16.1231 16.2726 16.2811 16.2502C16.2887 16.2495 16.2964 16.2495 16.304 16.2502C16.508 16.2502 16.808 16.6583 16.8676 16.8938C17.417 19.0857 18.5076 20.9628 20.1089 22.4734C20.2979 22.6518 20.5052 22.8228 20.6885 22.9738C20.7096 22.9892 20.733 23.0012 20.7578 23.0093C21.0913 21.584 21.2121 21.3824 22.484 20.4069C22.2856 20.4069 22.0942 20.4093 21.9076 20.4114C21.6656 20.4114 21.437 20.4159 21.2138 20.4159C20.7921 20.4159 20.4676 20.4077 20.1611 20.3906C19.9505 20.3783 19.753 20.2763 19.5587 20.1775C19.477 20.1367 19.3897 20.091 19.306 20.0551C19.2938 20.05 19.283 20.042 19.2745 20.0319C19.2661 20.0217 19.2602 20.0096 19.2574 19.9967C19.2547 19.9837 19.2552 19.9703 19.2588 19.9576C19.2624 19.9449 19.2691 19.9332 19.2783 19.9236C19.3366 19.862 19.3938 19.7914 19.4489 19.7232C19.5758 19.5657 19.7072 19.4032 19.8819 19.3102C20.6983 18.8759 21.5093 18.4714 22.3681 18.0449C22.6383 17.9088 22.9104 17.7727 23.1844 17.6367C22.7587 17.1877 22.386 16.6498 22.8272 15.9489C23.1101 15.5 23.6934 15.2106 24.3138 15.2106C24.4729 15.2105 24.6314 15.2295 24.786 15.2673L24.8799 15.2902C25.1089 15.3444 25.3697 15.4061 25.5329 15.5636C25.8276 15.8461 26.1942 16.1971 26.215 16.5608C26.2342 16.8987 25.8354 17.3363 25.5411 17.5028C24.7909 17.9249 24.0052 18.3114 23.2452 18.6865C22.9329 18.8404 22.6101 18.9996 22.2942 19.1583C22.1599 19.2261 22.026 19.3012 21.8962 19.3742L21.7648 19.4477L21.7676 19.462C22.0162 19.462 22.268 19.4595 22.5121 19.4579C22.7787 19.4579 23.0542 19.4538 23.3248 19.4538C23.8579 19.4538 24.2885 19.462 24.6807 19.48C24.8848 19.4889 25.073 19.6073 25.2558 19.7216C25.3342 19.7706 25.4154 19.8212 25.4938 19.8604C25.5061 19.8666 25.5166 19.8759 25.5244 19.8873C25.5322 19.8987 25.537 19.9119 25.5383 19.9257C25.5396 19.9395 25.5374 19.9534 25.5319 19.9661C25.5264 19.9788 25.5178 19.9899 25.5068 19.9983C25.4399 20.0489 25.3734 20.1049 25.3089 20.1587C25.1632 20.2812 25.0121 20.4069 24.8403 20.4947C24.5599 20.6375 24.2664 20.7665 23.9832 20.8918C23.4729 21.1163 22.9456 21.3489 22.4901 21.6628C21.7146 22.1979 21.5815 22.8714 22.0619 23.8457C22.1411 24.0061 22.1415 24.1967 22.1436 24.3812C22.1436 24.4628 22.1436 24.5416 22.1509 24.6167C22.1519 24.628 22.1506 24.6394 22.1469 24.6502C22.1433 24.661 22.1374 24.6709 22.1298 24.6792C22.1221 24.6876 22.1127 24.6943 22.1023 24.6988C22.0919 24.7034 22.0806 24.7057 22.0693 24.7057L22.064 24.7028ZM23.624 16.5449C23.624 16.613 23.777 16.8747 23.9183 16.9718C24.0045 17.0208 24.1028 17.0444 24.2019 17.04C24.2791 17.0409 24.356 17.029 24.4293 17.0049C24.6468 16.9281 24.8578 16.8089 25.0615 16.6938C25.1354 16.653 25.2113 16.6093 25.2876 16.5681L25.2954 16.44C25.1966 16.4167 25.0978 16.3914 25.0015 16.3665C24.7207 16.2938 24.4301 16.2187 24.1472 16.2106H24.1407C23.968 16.2106 23.7325 16.3853 23.624 16.5449Z" fill="#328278"/>
<path d="M24.3101 15.291C24.4627 15.2908 24.6147 15.3092 24.7628 15.3457C25.0102 15.407 25.3028 15.4588 25.4726 15.6217C25.7518 15.889 26.1106 16.2339 26.1297 16.5645C26.1457 16.847 25.7934 17.2637 25.4971 17.4302C24.4404 18.0249 23.3375 18.5372 22.2534 19.0833C22.0551 19.1829 21.8636 19.2959 21.6689 19.4029C21.6783 19.449 21.6877 19.4951 21.6967 19.5412C22.2383 19.5412 22.7799 19.5331 23.3212 19.5331C23.7722 19.5331 24.2228 19.5388 24.673 19.5592C24.9379 19.571 25.1934 19.8008 25.453 19.931C25.2363 20.0943 25.0379 20.2984 24.7999 20.4208C24.0159 20.82 23.1559 21.1008 22.44 21.5943C21.58 22.1874 21.5195 22.9359 21.9849 23.88C22.0885 24.0898 22.042 24.3731 22.0665 24.6225C21.8106 24.578 21.495 24.6151 21.3093 24.4759C20.3097 23.7196 19.3436 22.9192 18.353 22.1237C17.942 22.5588 17.493 23.0931 16.982 23.5584C16.5738 23.9286 16.1134 24.2315 15.58 24.2315C15.4064 24.2307 15.2343 24.1998 15.0714 24.14C14.271 23.8543 14.0244 23.1131 13.8432 22.3821C13.8024 22.2078 14.0028 21.9739 14.0926 21.7657C14.2534 21.8984 14.5224 22.007 14.5579 22.1674C14.7322 22.9576 15.0526 23.4327 15.5314 23.4327C15.8849 23.4327 16.324 23.1739 16.8551 22.5919C17.2155 22.1968 17.5412 21.769 17.7849 21.4743C17.2114 20.0866 16.6791 18.8033 16.1522 17.5176C16.1 17.3894 16.0808 17.2474 16.0502 17.1094C15.9787 16.7943 15.8196 16.398 16.2951 16.3298C16.2989 16.3294 16.3027 16.3294 16.3065 16.3298C16.4506 16.3298 16.7338 16.6853 16.791 16.9119C17.3408 19.1037 18.413 20.9812 20.0563 22.531C20.2432 22.7074 20.4416 22.8714 20.6399 23.0351C20.6881 23.0759 20.7571 23.0898 20.8191 23.1168C21.1804 21.5612 21.2583 21.4433 22.7293 20.3225C22.1775 20.3225 21.6832 20.3319 21.2151 20.3319C20.8555 20.3319 20.511 20.3261 20.1673 20.3066C19.8861 20.2906 19.615 20.0931 19.3391 19.98C19.5314 19.7759 19.6881 19.5066 19.922 19.3821C21.0298 18.7931 22.1587 18.2433 23.3204 17.6592C22.8163 17.1437 22.4877 16.6421 22.8967 15.9923C23.1718 15.5555 23.7318 15.2919 24.3142 15.2919M24.2061 17.1229C24.2925 17.1232 24.3784 17.1095 24.4604 17.0821C24.7787 16.9698 25.0685 16.7776 25.3706 16.6188L25.3853 16.3739C24.9751 16.2841 24.5665 16.1392 24.1538 16.129H24.1449C23.9408 16.129 23.6746 16.3249 23.555 16.5074C23.502 16.589 23.7114 16.9257 23.8759 17.038C23.9759 17.0961 24.0905 17.1245 24.2061 17.1196M24.3142 15.1253C23.6665 15.1253 23.0559 15.4302 22.7587 15.9008C22.3314 16.5792 22.6175 17.1253 23.0518 17.6074L22.3334 17.9661C21.4738 18.3943 20.6624 18.7992 19.8436 19.2335C19.6542 19.3343 19.5171 19.5037 19.3853 19.6674C19.3285 19.7376 19.275 19.8037 19.2191 19.8633C19.201 19.8825 19.1878 19.9058 19.1806 19.9313C19.1735 19.9567 19.1726 19.9835 19.1781 20.0094C19.1836 20.0352 19.1953 20.0594 19.2122 20.0797C19.2291 20.1001 19.2506 20.116 19.2751 20.1261C19.3567 20.1596 19.4359 20.2008 19.52 20.2445C19.72 20.3474 19.9281 20.4531 20.1546 20.4661C20.4628 20.4837 20.7889 20.4919 21.2118 20.4919C21.4371 20.4919 21.6661 20.4894 21.9081 20.4874L22.2432 20.4845C21.1689 21.3233 21.0061 21.607 20.7044 22.8755C20.5314 22.7327 20.34 22.5735 20.1653 22.4086C19.3751 21.6671 18.697 20.8147 18.1522 19.878C17.6124 18.9362 17.2068 17.9237 16.9469 16.8698C16.8861 16.6282 16.573 16.1641 16.304 16.1641C16.2926 16.1641 16.2811 16.1649 16.2698 16.1665C16.0881 16.1927 15.9567 16.2645 15.8791 16.3796C15.7481 16.5747 15.8098 16.8225 15.864 17.0408C15.873 17.0755 15.8816 17.1102 15.8889 17.1437C15.8963 17.1772 15.904 17.2131 15.911 17.2482C15.93 17.3596 15.9597 17.4689 15.9995 17.5747C16.4077 18.5706 16.8159 19.56 17.2502 20.6074C17.3636 20.8822 17.4786 21.1603 17.595 21.4417L17.4236 21.6543C17.2195 21.9106 16.9848 22.2008 16.7326 22.4776C16.2628 22.9927 15.8469 23.2649 15.5298 23.2649C15.0644 23.2649 14.8302 22.6461 14.7134 22.1274C14.6751 21.9519 14.5093 21.8466 14.3514 21.7445C14.2965 21.711 14.2437 21.6743 14.193 21.6347C14.1636 21.6108 14.1268 21.5977 14.0889 21.5976C14.0761 21.5976 14.0634 21.5991 14.051 21.6021C14.0263 21.608 14.0034 21.6195 13.984 21.6358C13.9646 21.6521 13.9492 21.6727 13.9391 21.6959C13.9097 21.7591 13.8767 21.8206 13.8404 21.88C13.74 22.0535 13.6363 22.2331 13.6812 22.4163C13.8649 23.1576 14.1342 23.9743 15.0126 24.289C15.1933 24.3547 15.384 24.3888 15.5763 24.3898C16.2293 24.3898 16.751 23.9817 17.0865 23.6743C17.4538 23.3412 17.7783 22.9829 18.0934 22.6359C18.1865 22.5339 18.2759 22.4355 18.3636 22.3412L19.0048 22.8592C19.7208 23.4384 20.4608 24.0376 21.2053 24.6012C21.3685 24.7261 21.5865 24.7404 21.7955 24.7547C21.875 24.7585 21.9543 24.7664 22.033 24.7784C22.0577 24.7827 22.083 24.7812 22.1071 24.7742C22.1311 24.7671 22.1532 24.7546 22.1716 24.7376C22.19 24.7207 22.2043 24.6997 22.2133 24.6763C22.2223 24.653 22.2259 24.6278 22.2236 24.6029C22.2171 24.531 22.2167 24.4551 22.2167 24.3743C22.2167 24.1804 22.2167 23.9804 22.1277 23.8029C21.9004 23.3408 21.8167 22.9563 21.8726 22.6274C21.931 22.2833 22.1457 21.9874 22.5289 21.7233C22.9779 21.4135 23.502 21.1829 24.0085 20.9596C24.2942 20.8339 24.5881 20.7041 24.8702 20.5604C25.0506 20.4686 25.2053 20.3392 25.3542 20.2143C25.4212 20.1584 25.484 20.1057 25.5493 20.0563C25.5714 20.0395 25.5888 20.0174 25.5999 19.992C25.611 19.9666 25.6155 19.9387 25.6129 19.9111C25.6103 19.8835 25.6007 19.857 25.585 19.8342C25.5693 19.8113 25.548 19.7928 25.5232 19.7804C25.4485 19.7429 25.3726 19.6955 25.2926 19.6453C25.1004 19.5257 24.902 19.4004 24.6775 19.3914C24.284 19.3739 23.8522 19.3653 23.3183 19.3653C23.0473 19.3653 22.7714 19.3653 22.5048 19.3694C22.3546 19.3694 22.2012 19.3719 22.0473 19.3723C22.1387 19.3217 22.2314 19.271 22.324 19.2245C22.6396 19.0657 22.962 18.907 23.2742 18.7531C24.0351 18.3788 24.8216 17.9914 25.5742 17.5694C25.8808 17.3972 26.3114 16.9355 26.2897 16.5519C26.2673 16.1559 25.8877 15.7927 25.5828 15.5004C25.402 15.3274 25.1314 15.2629 24.8926 15.2061L24.7991 15.1837C24.6382 15.1443 24.473 15.1244 24.3073 15.1245L24.3142 15.1253ZM23.7159 16.5608C23.8261 16.4176 24.024 16.2902 24.1449 16.2902H24.1489C24.4228 16.298 24.6959 16.3686 24.9853 16.4437C25.0604 16.4629 25.1367 16.4845 25.2138 16.5012V16.5159C25.1506 16.5506 25.0877 16.5861 25.0265 16.6208C24.8163 16.7396 24.6183 16.8515 24.4069 16.9257C24.3423 16.9468 24.2748 16.9571 24.2069 16.9563C24.1243 16.9604 24.0421 16.9418 23.9693 16.9025C23.8665 16.8319 23.7457 16.6437 23.7167 16.5608H23.7159Z" fill="#328278"/>
<path d="M19.9197 15.5106C19.9018 15.2445 19.8846 14.9767 19.9197 14.711L19.9087 14.7926C19.9259 14.6596 19.96 14.5292 20.0103 14.4049L19.9793 14.4779C20.0048 14.4188 20.0346 14.3616 20.0687 14.3069C20.0846 14.2816 20.1013 14.2575 20.1189 14.2334C20.1515 14.1881 20.0732 14.2881 20.1075 14.2485C20.1185 14.2355 20.1295 14.2224 20.1414 14.2077C20.1625 14.1842 20.1849 14.1617 20.2083 14.1404L20.2413 14.1118C20.2822 14.0775 20.1801 14.1559 20.225 14.1241C20.2761 14.0876 20.3308 14.0565 20.3883 14.0314L20.3148 14.062C20.3727 14.0379 20.4333 14.0208 20.4952 14.011L20.4136 14.022C20.4599 14.0155 20.5069 14.0155 20.5532 14.022L20.4715 14.011C20.4942 14.0151 20.5165 14.0212 20.5381 14.0294L20.465 13.9987C20.4813 14.0061 20.496 14.0167 20.5119 14.0241C20.4662 13.9873 20.4544 13.9783 20.4773 13.9975L20.4891 14.009C20.532 14.0465 20.4483 13.9449 20.4715 13.9857C20.4785 13.9983 20.4854 14.0106 20.4915 14.0241L20.4605 13.951C20.4717 13.9787 20.4793 14.0078 20.483 14.0375L20.4719 13.9559C20.4764 14.0005 20.4756 14.0454 20.4695 14.0898L20.4805 14.0081C20.4674 14.0914 20.4438 14.1728 20.4103 14.2502L20.4409 14.1771C20.3885 14.2895 20.3292 14.3985 20.2634 14.5036C20.196 14.6175 20.1266 14.7298 20.0528 14.8392C20.016 14.8934 19.9781 14.9473 19.9389 15C19.9365 15.0032 19.9205 15.0253 19.9197 15.0249C19.9189 15.0245 19.9605 14.9714 19.9438 14.9938L19.9144 15.0306C19.8932 15.0571 19.8715 15.0828 19.8495 15.1085C19.7659 15.2057 19.6742 15.2956 19.5752 15.3771L19.5573 15.3914C19.5287 15.4151 19.6128 15.3506 19.583 15.3718C19.5662 15.3836 19.5503 15.3959 19.5336 15.4073C19.5042 15.4277 19.4744 15.4481 19.4442 15.4657C19.3814 15.5039 19.3159 15.5376 19.2483 15.5665L19.3213 15.5355C19.2345 15.5711 19.1434 15.5954 19.0503 15.6077L19.132 15.5971C19.0253 15.6106 18.9174 15.6106 18.8107 15.5971L18.8924 15.6081C18.7828 15.593 18.6757 15.5638 18.5736 15.5212L18.6467 15.5522C18.5956 15.53 18.5463 15.5042 18.4989 15.4751C18.4773 15.4584 18.4546 15.443 18.4311 15.429C18.4446 15.4351 18.4981 15.482 18.4569 15.4477C18.4467 15.4392 18.4364 15.4306 18.4266 15.4216C18.4084 15.4047 18.3909 15.3872 18.374 15.369C18.3638 15.3579 18.3544 15.3465 18.3446 15.3347C18.3148 15.2996 18.3928 15.4012 18.365 15.3612C18.3349 15.3181 18.3091 15.2722 18.2879 15.2241L18.3185 15.2971C18.2949 15.2403 18.2788 15.1806 18.2707 15.1196L18.2813 15.2012C18.2813 15.1853 18.2781 15.1694 18.2769 15.1534L17.6756 15.2351L18.5854 17.5249C18.6092 17.6006 18.6591 17.6654 18.7262 17.7077C18.7964 17.7486 18.8798 17.76 18.9583 17.7394C19.0368 17.7188 19.104 17.6679 19.145 17.5979C19.1809 17.5298 19.2054 17.4371 19.1756 17.362L18.2663 15.0726C18.2432 14.9964 18.1931 14.9312 18.1254 14.8894C18.066 14.8566 17.9976 14.8438 17.9303 14.853C17.7887 14.8722 17.6544 15.0012 17.6646 15.1539C17.6792 15.4156 17.7923 15.662 17.9813 15.8436C18.1573 16.0077 18.3734 16.1226 18.6079 16.1767C18.8546 16.2367 19.1123 16.2347 19.3581 16.171C19.6283 16.0979 19.8724 15.9367 20.0785 15.7522C20.2837 15.5598 20.4634 15.3418 20.6132 15.1036C20.7593 14.8816 20.9062 14.6506 21.0066 14.4036C21.1152 14.1367 21.1344 13.8085 20.925 13.5836C20.6715 13.309 20.2164 13.3951 19.9393 13.5836C19.6603 13.7781 19.4582 14.064 19.3679 14.3918C19.2634 14.7563 19.2826 15.14 19.3079 15.5134C19.3099 15.5943 19.3419 15.6716 19.3977 15.7302C19.4553 15.7872 19.533 15.8192 19.614 15.8196C19.7707 15.8126 19.9319 15.6845 19.9201 15.5134L19.9197 15.5106Z" fill="#328278"/>
</g>
<defs>
<clipPath id="clip0_661_1256">
<rect width="40" height="40" fill="white"/>
</clipPath>
</defs>
</svg>
