<svg width="26" height="26" viewBox="0 0 26 26" fill="none" xmlns="http://www.w3.org/2000/svg">
<path d="M16.2499 19.5V20.3125C16.2499 21.1745 15.9075 22.0011 15.298 22.6106C14.6885 23.2201 13.8618 23.5625 12.9999 23.5625C12.1379 23.5625 11.3113 23.2201 10.7018 22.6106C10.0923 22.0011 9.74988 21.1745 9.74988 20.3125V19.5M21.718 17.8461C20.4139 16.25 19.4933 15.4375 19.4933 11.0373C19.4933 7.00781 17.4356 5.57223 15.7421 4.875C15.5171 4.78258 15.3054 4.57031 15.2368 4.33926C14.9397 3.3282 14.1069 2.4375 12.9999 2.4375C11.8929 2.4375 11.0595 3.32871 10.7655 4.34027C10.697 4.57387 10.4852 4.78258 10.2602 4.875C8.56465 5.57324 6.50903 7.00375 6.50903 11.0373C6.50649 15.4375 5.58582 16.25 4.28176 17.8461C3.74145 18.5072 4.21473 19.5 5.15977 19.5H20.8451C21.785 19.5 22.2553 18.5042 21.718 17.8461Z" stroke="#328278" stroke-width="1.5" stroke-linecap="round" stroke-linejoin="round"/>
</svg>
