<svg width="323" height="315" viewBox="0 0 323 315" fill="none" xmlns="http://www.w3.org/2000/svg">
<path d="M63.7314 241.97C98.4458 282.194 170.442 276.931 224.575 230.213C278.709 183.495 294.447 113.044 259.732 72.819C225.018 32.5942 153.022 37.8573 98.8882 84.5753C44.7545 131.293 29.0169 201.745 63.7314 241.97Z" fill="#FFE7A0"/>
<path d="M256.248 206.325C256.248 206.325 260.394 190.397 257.618 182.603C254.841 174.808 246.148 169.036 246.497 164.144C246.847 159.252 252.427 146.015 247.877 136.163C247.877 136.163 246.148 144.951 244.443 146.907C242.737 148.862 231.03 156.745 233.106 167.156C235.182 177.568 246.562 180.009 249.364 183.067C252.167 186.125 255.95 186.129 255.974 188.166C255.998 190.204 256.736 197.615 255.48 204.928L256.248 206.325Z" fill="#3C8F7C"/>
<path d="M244.443 146.907C242.737 148.861 231.03 156.745 233.106 167.156C235.182 177.568 246.562 180.009 249.364 183.067C252.167 186.125 255.95 186.129 255.974 188.166C255.998 190.204 256.736 197.615 255.48 204.928L255.816 205.538C256.43 202.682 257.282 198.339 257.561 195.037C258.013 189.682 257.146 187.461 255.423 183.118C253.699 178.776 243.022 169.935 240.345 165.286C237.668 160.636 245.506 152.865 247.246 149.113C248.986 145.361 247.877 136.164 247.877 136.164C247.877 136.164 246.153 144.951 244.443 146.907Z" fill="#327F6B"/>
<path d="M95.1798 221.409C100.619 223.953 99.1526 230.271 99.1526 230.271C99.1526 230.271 113.9 218.773 119.413 225.484C124.926 232.196 122.026 245.351 115.563 247.489C109.099 249.628 52.8533 248.129 52.8533 248.129C52.8533 248.129 90.2878 219.119 95.1798 221.409Z" fill="#96D9C9"/>
<path d="M52.8533 248.073C52.8533 248.073 77.4383 243.019 82.7935 238.097C88.1488 233.175 85.7817 231.257 85.7817 231.257C85.7817 231.257 95.2273 223.8 95.0801 218.933C94.9328 214.066 88.7854 216.534 88.7854 216.534C88.7854 216.534 99.2144 203.125 96.7428 200.575C92.1346 195.824 80.0773 209.763 80.0773 209.763C80.0773 209.763 83.6558 203.132 79.8801 202.079C74.1769 200.491 69.9903 216.848 69.9903 216.848C69.9903 216.848 71.0521 210.39 67.128 211.247C60.0875 212.782 52.8533 248.073 52.8533 248.073Z" fill="#50BFA5"/>
<path d="M68.4855 125.322L53.598 248.384L55.7227 250.688L68.4737 199.655L68.4855 125.322Z" fill="#328278"/>
<path d="M70.2956 112.956L55.7227 250.688H87.891L79.9003 110.119L70.2956 112.956Z" fill="#8CC8C3"/>
<path d="M65.6755 249.134H245.265C248.336 249.134 250.995 246.497 251.203 243.244L259.385 116.268C259.562 113.519 257.603 111.29 255.005 111.29H74.5581C71.9619 111.29 69.7136 113.519 69.5366 116.268L61.2953 244.161C61.1183 246.905 63.0792 249.134 65.6755 249.134Z" fill="#EDD7BE"/>
<path d="M79.9253 110.565L79.9003 110.119L69.4642 111.051L55.7227 250.688H57.2572L71.83 112.956L79.9253 110.565Z" fill="#184655"/>
<path d="M70.2694 127.708L62.4901 245.466C62.7277 248.345 65.2491 249.134 66.7076 249.134H90.0241L76.1093 117.09L70.2694 127.708Z" fill="#FEF8F8"/>
<path d="M88.8756 157.109H76.7613C75.0237 157.109 73.7446 155.639 73.9108 153.825L75.0356 141.185C75.1971 139.371 76.7363 137.902 78.4798 137.902H90.5942C92.3329 137.902 93.6109 139.371 93.4446 141.185L92.3211 153.825C92.1548 155.64 90.6144 157.109 88.8756 157.109Z" fill="#8CC8C3"/>
<path d="M114.999 157.109H102.884C101.146 157.109 99.8676 155.639 100.034 153.825L101.159 141.185C101.32 139.371 102.859 137.902 104.603 137.902H116.717C118.456 137.902 119.734 139.371 119.568 141.185L118.443 153.825C118.278 155.64 116.737 157.109 114.999 157.109Z" fill="#8CC8C3"/>
<path d="M141.122 157.109H129.007C127.269 157.109 125.991 155.639 126.157 153.825L127.282 141.185C127.443 139.371 128.982 137.902 130.726 137.902H142.84C144.579 137.902 145.857 139.371 145.691 141.185L144.566 153.825C144.401 155.64 142.86 157.109 141.122 157.109Z" fill="#8CC8C3"/>
<path d="M167.245 157.109H155.13C153.392 157.109 152.114 155.639 152.28 153.825L153.395 141.186C153.555 139.373 155.096 137.903 156.839 137.903H168.954C170.693 137.903 171.97 139.373 171.804 141.186L170.679 153.827C170.523 155.64 168.983 157.109 167.245 157.109Z" fill="#8CC8C3"/>
<path d="M193.368 157.109H181.253C179.515 157.109 178.237 155.639 178.403 153.825L179.524 141.186C179.684 139.373 181.225 137.903 182.968 137.903H195.083C196.821 137.903 198.099 139.373 197.933 141.186L196.808 153.827C196.646 155.64 195.106 157.109 193.368 157.109Z" fill="#8CC8C3"/>
<path d="M219.491 157.109H207.376C205.638 157.109 204.36 155.639 204.526 153.825L205.651 141.185C205.811 139.371 207.351 137.902 209.095 137.902H221.209C222.948 137.902 224.226 139.371 224.06 141.185L222.935 153.825C222.769 155.64 221.229 157.109 219.491 157.109Z" fill="#328278"/>
<path d="M245.614 157.109H233.499C231.761 157.109 230.483 155.639 230.649 153.825L231.773 141.185C231.934 139.371 233.474 137.902 235.217 137.902H247.331C249.069 137.902 250.348 139.371 250.182 141.185L249.057 153.825C248.892 155.64 247.353 157.109 245.614 157.109Z" fill="#328278"/>
<path d="M86.3031 186.026H74.1888C72.45 186.026 71.1721 184.557 71.3383 182.743L72.4619 170.103C72.6234 168.289 74.1638 166.819 75.9062 166.819H88.0205C89.7581 166.819 91.0372 168.289 90.8709 170.103L89.7462 182.743C89.5811 184.558 88.0419 186.026 86.3031 186.026Z" fill="#8CC8C3"/>
<path d="M112.426 186.026H100.306C98.5671 186.026 97.2891 184.557 97.4554 182.743L98.5801 170.103C98.7417 168.289 100.282 166.819 102.024 166.819H114.139C115.876 166.819 117.155 168.289 116.989 170.103L115.864 182.744C115.704 184.558 114.165 186.026 112.426 186.026Z" fill="#8CC8C3"/>
<path d="M138.549 186.026H126.435C124.696 186.026 123.418 184.557 123.584 182.743L124.709 170.103C124.871 168.289 126.411 166.819 128.153 166.819H140.268C142.005 166.819 143.284 168.289 143.118 170.103L141.993 182.744C141.827 184.558 140.287 186.026 138.549 186.026Z" fill="#8CC8C3"/>
<path d="M164.678 186.026H152.564C150.825 186.026 149.547 184.557 149.707 182.743L150.832 170.103C150.994 168.289 152.534 166.819 154.276 166.819H166.391C168.128 166.819 169.407 168.289 169.241 170.103L168.116 182.743C167.95 184.558 166.41 186.026 164.678 186.026Z" fill="#8CC8C3"/>
<path d="M190.795 186.026H178.681C176.942 186.026 175.664 184.557 175.83 182.743L176.955 170.103C177.117 168.289 178.657 166.819 180.399 166.819H192.514C194.253 166.819 195.532 168.289 195.364 170.103L194.239 182.743C194.073 184.558 192.533 186.026 190.795 186.026Z" fill="#8CC8C3"/>
<path d="M216.918 186.026H204.804C203.065 186.026 201.786 184.557 201.953 182.743L203.078 170.103C203.24 168.289 204.78 166.819 206.522 166.819H218.637C220.376 166.819 221.655 168.289 221.493 170.103L220.368 182.743C220.196 184.558 218.656 186.026 216.918 186.026Z" fill="#328278"/>
<path d="M243.04 186.026H230.926C229.187 186.026 227.908 184.557 228.069 182.743L229.194 170.103C229.356 168.289 230.896 166.819 232.638 166.819H244.753C246.491 166.819 247.771 168.289 247.609 170.103L246.484 182.743C246.319 184.558 244.779 186.026 243.04 186.026Z" fill="#328278"/>
<path d="M83.7306 214.944H71.6163C69.8775 214.944 68.5984 213.474 68.7658 211.661L69.8905 199.022C70.0521 197.208 71.5925 195.737 73.3348 195.737H85.4492C87.1879 195.737 88.4671 197.208 88.2996 199.022L87.1749 211.661C87.0038 213.476 85.4682 214.944 83.7306 214.944Z" fill="#8CC8C3"/>
<path d="M109.852 214.944H97.7381C95.9993 214.944 94.7202 213.474 94.8877 211.661L96.0124 199.022C96.1739 197.208 97.7143 195.737 99.4567 195.737H111.571C113.31 195.737 114.589 197.208 114.421 199.022L113.297 211.661C113.133 213.476 111.589 214.944 109.852 214.944Z" fill="#8CC8C3"/>
<path d="M135.975 214.944H123.861C122.122 214.944 120.843 213.474 121.011 211.661L122.135 199.022C122.297 197.208 123.837 195.737 125.58 195.737H137.694C139.433 195.737 140.712 197.208 140.544 199.022L139.42 211.661C139.255 213.476 137.718 214.944 135.975 214.944Z" fill="#8CC8C3"/>
<path d="M162.098 214.944H149.984C148.247 214.944 146.967 213.474 147.134 211.661L148.258 199.022C148.42 197.208 149.96 195.737 151.703 195.737H163.817C165.556 195.737 166.834 197.208 166.667 199.022L165.543 211.661C165.378 213.476 163.837 214.944 162.098 214.944Z" fill="#8CC8C3"/>
<path d="M188.221 214.944H176.107C174.37 214.944 173.09 213.474 173.257 211.661L174.381 199.022C174.543 197.208 176.082 195.737 177.826 195.737H189.94C191.679 195.737 192.957 197.208 192.796 199.022L191.672 211.661C191.501 213.476 189.96 214.944 188.221 214.944Z" fill="#8CC8C3"/>
<path d="M214.345 214.944H202.23C200.493 214.944 199.213 213.474 199.38 211.661L200.504 199.022C200.666 197.208 202.205 195.737 203.949 195.737H216.063C217.802 195.737 219.08 197.208 218.914 199.022L217.79 211.661C217.624 213.476 216.083 214.944 214.345 214.944Z" fill="#328278"/>
<path d="M240.468 214.944H228.353C226.616 214.944 225.336 213.474 225.503 211.661L226.628 199.022C226.789 197.208 228.328 195.737 230.072 195.737H242.186C243.925 195.737 245.203 197.208 245.037 199.022L243.912 211.661C243.747 213.476 242.206 214.944 240.468 214.944Z" fill="#328278"/>
<path d="M81.1569 243.862H69.0426C67.305 243.862 66.0258 242.391 66.1921 240.579L67.3169 227.938C67.4784 226.124 69.0176 224.655 70.7611 224.655H82.8755C84.6142 224.655 85.8922 226.124 85.7259 227.938L84.6023 240.579C84.4361 242.393 82.8957 243.862 81.1569 243.862Z" fill="#8CC8C3"/>
<path d="M107.28 243.862H95.1656C93.428 243.862 92.1489 242.391 92.3151 240.579L93.4399 227.938C93.6014 226.124 95.1406 224.655 96.8841 224.655H108.998C110.737 224.655 112.015 226.124 111.849 227.938L110.724 240.579C110.559 242.393 109.019 243.862 107.28 243.862Z" fill="#8CC8C3"/>
<path d="M133.403 243.862H121.289C119.55 243.862 118.272 242.391 118.438 240.579L119.563 227.938C119.724 226.124 121.264 224.655 123.007 224.655H135.122C136.86 224.655 138.138 226.124 137.972 227.938L136.847 240.579C136.682 242.393 135.142 243.862 133.403 243.862Z" fill="#8CC8C3"/>
<path d="M159.526 243.862H147.412C145.673 243.862 144.395 242.391 144.561 240.579L145.686 227.938C145.846 226.124 147.387 224.655 149.13 224.655H161.244C162.983 224.655 164.261 226.124 164.095 227.938L162.97 240.579C162.805 242.393 161.265 243.862 159.526 243.862Z" fill="#8CC8C3"/>
<path d="M185.649 243.862H173.535C171.796 243.862 170.518 242.391 170.684 240.579L171.809 227.938C171.969 226.124 173.51 224.655 175.253 224.655H187.368C189.106 224.655 190.384 226.124 190.218 227.938L189.093 240.579C188.927 242.393 187.388 243.862 185.649 243.862Z" fill="#8CC8C3"/>
<path d="M258.148 253.025H78.563C75.4917 253.025 72.9441 250.487 72.8728 247.356L70.0687 125.135C70.0081 122.488 72.064 120.343 74.6603 120.343H255.109C257.705 120.343 259.86 122.485 259.919 125.135L262.742 248.238C262.804 250.883 260.748 253.025 258.148 253.025Z" fill="#E0C8A9"/>
<path d="M259.44 253.114H79.8493C76.7791 253.114 74.2303 250.577 74.1591 247.446L71.3562 125.216C71.2956 122.569 73.3503 120.424 75.9465 120.424H256.395C258.992 120.424 261.277 126.656 261.337 129.303L264.03 248.317C264.087 250.969 262.035 253.114 259.44 253.114Z" fill="#FEF8F8"/>
<path d="M247.444 101.919H79.8112C73.6579 101.919 69.0034 106.861 69.4297 112.956L70.5569 129.307H260.473L259.346 112.959C258.925 106.861 253.597 101.919 247.444 101.919Z" fill="#328278"/>
<path d="M248.31 101.919H80.6759C74.5237 101.919 69.8751 106.861 70.2956 112.956L71.4215 129.307H261.337L260.212 112.959C259.791 106.861 254.467 101.919 248.31 101.919Z" fill="#328278"/>
<path d="M94.7736 159.395H82.6593C80.9205 159.395 79.4633 157.94 79.4039 156.146L78.9929 143.64C78.9336 141.845 80.2994 140.391 82.0334 140.391H94.1477C95.8865 140.391 97.3438 141.845 97.4032 143.64L97.8141 156.146C97.8735 157.942 96.5124 159.395 94.7736 159.395Z" fill="#328278"/>
<path d="M120.897 159.395H108.782C107.044 159.395 105.586 157.94 105.527 156.146L105.116 143.64C105.057 141.845 106.422 140.391 108.156 140.391H120.271C122.009 140.391 123.467 141.845 123.525 143.64L123.937 156.146C123.996 157.942 122.634 159.395 120.897 159.395Z" fill="#8CC8C3"/>
<path d="M147.02 159.395H134.905C133.167 159.395 131.709 157.94 131.65 156.146L131.239 143.64C131.18 141.845 132.545 140.391 134.279 140.391H146.394C148.133 140.391 149.59 141.845 149.648 143.64L150.06 156.146C150.12 157.942 148.763 159.395 147.02 159.395Z" fill="#8CC8C3"/>
<path d="M173.143 159.395H161.028C159.29 159.395 157.832 157.94 157.773 156.146L157.362 143.64C157.303 141.845 158.668 140.391 160.402 140.391H172.517C174.256 140.391 175.713 141.845 175.771 143.64L176.183 156.146C176.243 157.942 174.88 159.395 173.143 159.395Z" fill="#8CC8C3"/>
<path d="M199.266 159.395H187.151C185.413 159.395 183.955 157.94 183.896 156.146L183.485 143.64C183.426 141.845 184.791 140.391 186.525 140.391H198.64C200.379 140.391 201.836 141.845 201.894 143.64L202.306 156.146C202.366 157.942 201.003 159.395 199.266 159.395Z" fill="#8CC8C3"/>
<path d="M225.389 159.395H213.274C211.536 159.395 210.078 157.94 210.019 156.146L209.608 143.64C209.549 141.845 210.914 140.391 212.648 140.391H224.763C226.502 140.391 227.959 141.845 228.017 143.64L228.429 156.146C228.489 157.942 227.126 159.395 225.389 159.395Z" fill="#8CC8C3"/>
<path d="M251.511 159.395H239.396C237.658 159.395 236.2 157.94 236.141 156.146L235.73 143.64C235.671 141.845 237.036 140.391 238.77 140.391H250.885C252.623 140.391 254.08 141.845 254.139 143.64L254.551 156.146C254.61 157.942 253.249 159.395 251.511 159.395Z" fill="#328278"/>
<path d="M95.7155 188.009H83.6011C81.8624 188.009 80.4051 186.554 80.3457 184.76L79.9348 172.253C79.8754 170.459 81.2412 169.004 82.9752 169.004H95.0896C96.8283 169.004 98.2856 170.459 98.3438 172.253L98.7559 184.76C98.8153 186.554 97.4554 188.009 95.7155 188.009Z" fill="#328278"/>
<path d="M121.838 188.009H109.724C107.985 188.009 106.528 186.554 106.469 184.76L106.058 172.253C105.998 170.459 107.364 169.004 109.098 169.004H121.213C122.951 169.004 124.409 170.459 124.467 172.253L124.879 184.76C124.938 186.554 123.576 188.009 121.838 188.009Z" fill="#8CC8C3"/>
<path d="M147.96 188.009H135.846C134.107 188.009 132.65 186.554 132.591 184.76L132.18 172.253C132.12 170.459 133.486 169.004 135.22 169.004H147.334C149.073 169.004 150.53 170.459 150.589 172.253L151.001 184.76C151.061 186.554 149.699 188.009 147.96 188.009Z" fill="#8CC8C3"/>
<path d="M174.083 188.009H161.969C160.23 188.009 158.773 186.554 158.714 184.76L158.303 172.253C158.243 170.459 159.609 169.004 161.343 169.004H173.457C175.196 169.004 176.653 170.459 176.712 172.253L177.124 184.76C177.184 186.554 175.822 188.009 174.083 188.009Z" fill="#8CC8C3"/>
<path d="M200.206 188.009H188.092C186.354 188.009 184.897 186.554 184.838 184.76L184.427 172.253C184.367 170.459 185.733 169.004 187.467 169.004H199.582C201.319 169.004 202.776 170.459 202.836 172.253L203.248 184.76C203.306 186.554 201.945 188.009 200.206 188.009Z" fill="#8CC8C3"/>
<path d="M226.329 188.009H214.215C212.477 188.009 211.02 186.554 210.961 184.76L210.549 172.253C210.49 170.459 211.855 169.004 213.59 169.004H225.705C227.442 169.004 228.9 170.459 228.959 172.253L229.371 184.76C229.429 186.554 228.068 188.009 226.329 188.009Z" fill="#8CC8C3"/>
<path d="M252.448 188.009H240.333C238.596 188.009 237.138 186.554 237.079 184.76L236.667 172.253C236.609 170.459 237.973 169.004 239.709 169.004H251.823C253.561 169.004 255.018 170.459 255.077 172.253L255.489 184.76C255.552 186.554 254.191 188.009 252.448 188.009Z" fill="#328278"/>
<path d="M96.6561 216.622H84.5418C82.8042 216.622 81.3469 215.167 81.2875 213.373L80.8766 200.866C80.8172 199.072 82.183 197.617 83.917 197.617H96.0314C97.7701 197.617 99.2262 199.072 99.2856 200.866L99.6978 213.373C99.7559 215.167 98.3949 216.622 96.6561 216.622Z" fill="#328278"/>
<path d="M122.779 216.622H110.665C108.927 216.622 107.47 215.167 107.411 213.373L107 200.866C106.94 199.072 108.306 197.617 110.04 197.617H122.154C123.893 197.617 125.349 199.072 125.409 200.866L125.821 213.373C125.879 215.167 124.518 216.622 122.779 216.622Z" fill="#8CC8C3"/>
<path d="M148.902 216.622H136.788C135.05 216.622 133.593 215.167 133.534 213.373L133.121 200.866C133.063 199.072 134.428 197.617 136.163 197.617H148.277C150.015 197.617 151.472 199.072 151.532 200.866L151.944 213.373C152.002 215.167 150.641 216.622 148.902 216.622Z" fill="#8CC8C3"/>
<path d="M175.025 216.622H162.911C161.173 216.622 159.716 215.167 159.657 213.373L159.244 200.866C159.186 199.072 160.551 197.617 162.286 197.617H174.4C176.138 197.617 177.595 199.072 177.655 200.866L178.067 213.373C178.125 215.167 176.764 216.622 175.025 216.622Z" fill="#8CC8C3"/>
<path d="M201.148 216.622H189.026C187.287 216.622 185.831 215.167 185.771 213.373L185.359 200.866C185.301 199.072 186.666 197.617 188.401 197.617H200.515C202.253 197.617 203.71 199.072 203.769 200.866L204.18 213.373C204.248 215.167 202.887 216.622 201.148 216.622Z" fill="#8CC8C3"/>
<path d="M227.269 216.622H215.155C213.416 216.622 211.96 215.167 211.9 213.373L211.488 200.866C211.43 199.072 212.795 197.617 214.53 197.617H226.644C228.383 197.617 229.84 199.072 229.9 200.866L230.311 213.373C230.371 215.167 229.01 216.622 227.269 216.622Z" fill="#8CC8C3"/>
<path d="M253.398 216.622H241.283C239.545 216.622 238.087 215.167 238.029 213.373L237.617 200.866C237.558 199.072 238.924 197.617 240.659 197.617H252.773C254.512 197.617 255.969 199.072 256.028 200.866L256.439 213.373C256.494 215.167 255.133 216.622 253.398 216.622Z" fill="#328278"/>
<path d="M97.5979 245.235H85.4836C83.746 245.235 82.2887 243.781 82.2294 241.986L81.8172 229.479C81.759 227.685 83.1237 226.23 84.8589 226.23H96.9732C98.7108 226.23 100.168 227.685 100.227 229.479L100.64 241.986C100.698 243.781 99.3367 245.235 97.5979 245.235Z" fill="#328278"/>
<path d="M123.721 245.235H111.607C109.868 245.235 108.412 243.781 108.352 241.986L107.94 229.479C107.882 227.685 109.247 226.23 110.982 226.23H123.096C124.834 226.23 126.291 227.685 126.351 229.479L126.761 241.986C126.821 243.781 125.46 245.235 123.721 245.235Z" fill="#8CC8C3"/>
<path d="M149.844 245.235H137.73C135.991 245.235 134.535 243.781 134.475 241.986L134.063 229.479C134.005 227.685 135.37 226.23 137.105 226.23H149.219C150.957 226.23 152.414 227.685 152.473 229.479L152.884 241.986C152.944 243.781 151.583 245.235 149.844 245.235Z" fill="#8CC8C3"/>
<path d="M175.967 245.235H163.847C162.108 245.235 160.651 243.781 160.592 241.986L160.18 229.479C160.121 227.685 161.487 226.23 163.222 226.23H175.336C177.075 226.23 178.532 227.685 178.592 229.479L179.003 241.986C179.067 243.781 177.706 245.235 175.967 245.235Z" fill="#8CC8C3"/>
<path d="M202.09 245.235H189.976C188.237 245.235 186.78 243.781 186.721 241.986L186.309 229.479C186.25 227.685 187.616 226.23 189.35 226.23H201.464C203.203 226.23 204.66 227.685 204.72 229.479L205.13 241.986C205.19 243.781 203.829 245.235 202.09 245.235Z" fill="#8CC8C3"/>
<path d="M81.2923 121.335C81.6044 121.515 81.9573 121.612 82.3173 121.616C82.8909 121.616 83.2056 121.316 83.176 120.882C83.1486 120.48 82.9004 120.25 82.2983 120.026C81.5714 119.776 81.1106 119.412 81.0654 118.805C81.0191 118.134 81.5405 117.637 82.3909 117.637C82.7285 117.627 83.0635 117.699 83.3672 117.847L83.2484 118.301C82.9886 118.167 82.7008 118.097 82.4087 118.096C81.8149 118.096 81.613 118.453 81.6343 118.742C81.6617 119.144 81.9396 119.337 82.5548 119.575C83.3102 119.857 83.708 120.208 83.752 120.841C83.7971 121.505 83.341 122.08 82.3149 122.08C81.9219 122.084 81.5342 121.989 81.1866 121.805L81.2923 121.335Z" fill="white"/>
<path d="M87.1298 121.17C87.1523 121.489 87.1784 121.765 87.2141 122.012H86.7105L86.644 121.508H86.6309C86.536 121.687 86.3927 121.836 86.2173 121.938C86.042 122.039 85.8417 122.09 85.6392 122.083C85.1487 122.083 84.543 121.815 84.4682 120.728L84.3434 118.921H84.9112L85.0299 120.633C85.0703 121.221 85.2793 121.616 85.7948 121.616C85.9519 121.616 86.1052 121.567 86.233 121.476C86.3608 121.384 86.4568 121.255 86.5074 121.106C86.5361 121.012 86.5469 120.915 86.5395 120.818L86.41 118.921H86.9777L87.1298 121.17Z" fill="white"/>
<path d="M87.9742 119.757C87.9528 119.438 87.9278 119.177 87.891 118.924H88.3934L88.4611 119.435H88.4742C88.5663 119.253 88.7088 119.101 88.8847 118.998C89.0606 118.895 89.2624 118.845 89.4659 118.854C89.8982 118.854 90.5871 119.11 90.6536 120.17L90.7807 122.016H90.2129L90.0942 120.231C90.0597 119.733 89.8448 119.318 89.3091 119.318C89.1416 119.318 88.9789 119.375 88.8478 119.479C88.7166 119.583 88.6246 119.729 88.587 119.893C88.5657 119.978 88.5589 120.067 88.5668 120.155L88.6951 122.014H88.1274L87.9742 119.757Z" fill="white"/>
<path d="M111.343 119.757C111.332 119.722 111.312 119.624 111.282 119.464C111.256 119.331 111.234 119.226 111.216 119.134C111.204 119.239 111.184 119.343 111.156 119.445C111.127 119.554 111.091 119.66 111.047 119.763L110.009 122.197L108.631 119.713C108.574 119.612 108.525 119.513 108.481 119.417C108.437 119.32 108.399 119.226 108.362 119.134C108.368 119.234 108.368 119.334 108.362 119.435C108.355 119.545 108.342 119.654 108.324 119.763L107.984 122.012H107.294L108.057 117.252L109.615 120.134C109.64 120.181 109.677 120.253 109.727 120.363C109.776 120.472 109.838 120.601 109.909 120.756C109.958 120.586 110.016 120.42 110.083 120.257L110.132 120.132L111.262 117.252L112.705 122.012H112.009L111.343 119.757Z" fill="white"/>
<path d="M112.925 120.537C112.908 120.329 112.936 120.12 113.007 119.924C113.076 119.732 113.186 119.557 113.329 119.411C113.472 119.263 113.644 119.147 113.835 119.071C114.031 118.991 114.241 118.951 114.452 118.952C114.898 118.948 115.327 119.115 115.653 119.419C115.816 119.565 115.95 119.739 116.047 119.935C116.142 120.12 116.198 120.322 116.212 120.53C116.228 120.738 116.201 120.947 116.133 121.145C116.066 121.336 115.957 121.509 115.815 121.653C115.667 121.806 115.489 121.928 115.293 122.01C115.096 122.09 114.885 122.131 114.672 122.129C114.456 122.129 114.242 122.089 114.04 122.01C113.835 121.929 113.646 121.811 113.484 121.661C113.322 121.515 113.188 121.34 113.09 121.144C112.995 120.955 112.939 120.748 112.925 120.537ZM115.492 120.544C115.477 120.28 115.364 120.031 115.176 119.847C115.088 119.756 114.984 119.683 114.868 119.634C114.752 119.585 114.627 119.56 114.501 119.561C114.381 119.558 114.261 119.583 114.152 119.632C114.042 119.681 113.945 119.755 113.867 119.847C113.784 119.942 113.722 120.052 113.684 120.172C113.646 120.292 113.633 120.419 113.646 120.544C113.66 120.808 113.774 121.057 113.963 121.241C114.05 121.332 114.155 121.403 114.271 121.452C114.386 121.501 114.511 121.526 114.636 121.526C114.757 121.529 114.876 121.504 114.986 121.455C115.095 121.406 115.193 121.333 115.271 121.241C115.353 121.146 115.415 121.036 115.453 120.916C115.491 120.796 115.504 120.669 115.492 120.544Z" fill="white"/>
<path d="M117.038 122.012L116.835 119.055H117.477L117.511 119.539C117.616 119.351 117.772 119.196 117.962 119.093C118.169 118.993 118.396 118.945 118.626 118.953C118.823 118.948 119.018 118.983 119.201 119.057C119.356 119.122 119.491 119.229 119.589 119.367C119.649 119.453 119.694 119.55 119.722 119.651C119.764 119.838 119.789 120.028 119.796 120.219L119.914 122.012H119.226L119.121 120.494C119.093 120.104 119.028 119.846 118.924 119.718C118.819 119.591 118.646 119.526 118.403 119.526C118.257 119.524 118.113 119.553 117.981 119.613C117.866 119.666 117.77 119.753 117.704 119.861C117.654 119.944 117.625 120.037 117.617 120.133C117.603 120.31 117.603 120.488 117.617 120.665L117.711 122.012H117.038Z" fill="white"/>
<path d="M135.241 118.076L135.512 122.012H134.763L134.491 118.076H133.266L133.222 117.446H136.411L136.455 118.076H135.241Z" fill="white"/>
<path d="M137.056 119.055L137.175 120.721C137.194 121.008 137.269 121.214 137.397 121.339C137.525 121.464 137.724 121.526 137.991 121.526C138.258 121.526 138.449 121.464 138.561 121.339C138.673 121.214 138.718 121.008 138.698 120.721L138.579 119.055H139.262L139.363 120.519C139.401 121.085 139.314 121.495 139.104 121.751C138.893 122.006 138.537 122.134 138.035 122.135C137.524 122.135 137.146 122.008 136.899 121.754C136.653 121.5 136.511 121.089 136.472 120.519L136.371 119.055H137.056Z" fill="white"/>
<path d="M143.17 120.634H140.783C140.804 120.878 140.908 121.106 141.077 121.282C141.158 121.359 141.254 121.42 141.359 121.46C141.464 121.499 141.576 121.518 141.688 121.514C141.878 121.522 142.066 121.474 142.23 121.377C142.388 121.266 142.511 121.112 142.586 120.933L143.18 121.252C143.055 121.524 142.855 121.755 142.603 121.916C142.343 122.068 142.046 122.143 141.745 122.135C141.531 122.143 141.317 122.109 141.115 122.035C140.914 121.96 140.729 121.847 140.572 121.701C140.261 121.395 140.08 120.98 140.067 120.544C140.043 120.339 140.062 120.131 140.124 119.934C140.185 119.737 140.287 119.555 140.423 119.4C140.563 119.251 140.734 119.133 140.923 119.056C141.113 118.978 141.317 118.943 141.522 118.953C142.002 118.953 142.386 119.089 142.674 119.361C142.962 119.633 143.123 120.015 143.156 120.506L143.17 120.634ZM142.43 120.179C142.401 119.988 142.301 119.815 142.151 119.693C141.984 119.575 141.783 119.517 141.579 119.527C141.389 119.516 141.201 119.573 141.049 119.688C140.909 119.816 140.819 119.99 140.796 120.179H142.43Z" fill="white"/>
<path d="M159.444 117.446H160.184L161.215 119.751C161.283 119.903 161.34 120.036 161.386 120.15C161.432 120.264 161.474 120.371 161.505 120.471C161.562 120.233 161.623 119.995 161.685 119.757C161.693 119.729 161.701 119.709 161.703 119.699L162.462 117.26L163.609 119.745C163.664 119.864 163.715 119.984 163.765 120.103C163.815 120.222 163.861 120.341 163.905 120.468C163.919 120.374 163.941 120.27 163.968 120.158C163.995 120.047 164.033 119.913 164.08 119.76L164.785 117.436H165.532L164.084 122.191L162.853 119.586C162.798 119.469 162.748 119.358 162.703 119.25C162.658 119.143 162.618 119.042 162.584 118.947C162.557 119.066 162.53 119.185 162.501 119.291C162.473 119.397 162.443 119.5 162.412 119.598L161.557 122.191L159.444 117.446Z" fill="white"/>
<path d="M168.733 120.634H166.341C166.362 120.877 166.466 121.106 166.634 121.282C166.716 121.359 166.812 121.42 166.917 121.459C167.022 121.499 167.134 121.518 167.246 121.514C167.436 121.522 167.624 121.475 167.787 121.377C167.946 121.266 168.069 121.112 168.144 120.933L168.738 121.252C168.612 121.524 168.411 121.754 168.159 121.916C167.839 122.091 167.473 122.163 167.111 122.125C166.748 122.086 166.406 121.938 166.129 121.701C165.818 121.395 165.637 120.98 165.625 120.544C165.601 120.339 165.62 120.131 165.681 119.934C165.743 119.737 165.845 119.555 165.981 119.4C166.121 119.251 166.292 119.133 166.481 119.056C166.671 118.979 166.875 118.944 167.08 118.953C167.56 118.953 167.944 119.089 168.232 119.361C168.519 119.633 168.68 120.015 168.714 120.506L168.733 120.634ZM167.993 120.179C167.964 119.988 167.864 119.814 167.714 119.693C167.547 119.575 167.346 119.517 167.143 119.526C166.952 119.516 166.764 119.573 166.612 119.688C166.472 119.816 166.382 119.99 166.359 120.179H167.993Z" fill="white"/>
<path d="M171.329 117.177H172.012L172.346 122.012H171.662L171.636 121.629C171.537 121.789 171.399 121.92 171.235 122.01C171.065 122.096 170.876 122.139 170.685 122.135C170.493 122.142 170.302 122.107 170.125 122.033C169.947 121.959 169.788 121.847 169.658 121.705C169.397 121.42 169.249 121.028 169.214 120.531C169.182 120.055 169.28 119.674 169.507 119.387C169.618 119.245 169.761 119.131 169.924 119.056C170.088 118.98 170.267 118.945 170.447 118.953C170.668 118.947 170.887 118.999 171.082 119.104C171.261 119.203 171.404 119.355 171.492 119.539L171.329 117.177ZM171.579 120.525C171.574 120.263 171.481 120.011 171.314 119.811C171.235 119.725 171.139 119.658 171.031 119.614C170.924 119.57 170.808 119.55 170.693 119.555C170.58 119.548 170.467 119.568 170.363 119.614C170.26 119.659 170.169 119.729 170.099 119.818C169.953 120.032 169.891 120.293 169.926 120.55C169.93 120.815 170.023 121.071 170.19 121.277C170.269 121.362 170.366 121.429 170.473 121.473C170.581 121.517 170.696 121.538 170.812 121.533C170.925 121.537 171.036 121.515 171.138 121.466C171.239 121.418 171.328 121.346 171.396 121.257C171.546 121.044 171.613 120.783 171.582 120.525H171.579Z" fill="white"/>
<path d="M187.809 118.076L188.08 122.012H187.331L187.06 118.076H185.834L185.791 117.446H188.984L189.026 118.076H187.809Z" fill="white"/>
<path d="M189.815 122.012L189.482 117.177H190.124L190.287 119.539C190.393 119.351 190.549 119.197 190.738 119.093C190.945 118.993 191.173 118.945 191.402 118.953C191.599 118.948 191.795 118.983 191.978 119.057C192.134 119.122 192.269 119.229 192.366 119.367C192.427 119.453 192.472 119.55 192.499 119.651C192.541 119.838 192.566 120.028 192.573 120.219L192.692 122.012H192.002L191.897 120.494C191.871 120.104 191.806 119.846 191.701 119.718C191.597 119.591 191.422 119.526 191.179 119.526C191.034 119.524 190.89 119.553 190.758 119.613C190.643 119.666 190.546 119.752 190.48 119.861C190.431 119.944 190.402 120.037 190.395 120.133C190.38 120.31 190.38 120.488 190.395 120.665L190.488 122.012H189.815Z" fill="white"/>
<path d="M194.065 119.055L194.184 120.721C194.203 121.008 194.277 121.214 194.406 121.339C194.534 121.463 194.732 121.526 195 121.526C195.268 121.526 195.458 121.463 195.568 121.339C195.68 121.22 195.725 121.008 195.706 120.721L195.587 119.055H196.27L196.371 120.519C196.411 121.085 196.325 121.495 196.114 121.751C195.902 122.006 195.546 122.134 195.045 122.135C194.536 122.135 194.158 122.008 193.91 121.754C193.663 121.5 193.521 121.089 193.482 120.519L193.381 119.055H194.065Z" fill="white"/>
<path d="M212.874 122.012L212.559 117.446H215.133L215.176 118.076H213.353L213.431 119.215H215.254L215.299 119.867H213.476L213.624 122.009L212.874 122.012Z" fill="white"/>
<path d="M216.602 119.526C216.644 119.359 216.735 119.208 216.864 119.093C216.988 118.996 217.144 118.946 217.302 118.953C217.399 118.952 217.495 118.964 217.589 118.987C217.687 119.011 217.781 119.044 217.872 119.086L217.666 119.661C217.606 119.62 217.539 119.588 217.469 119.568C217.394 119.548 217.317 119.539 217.239 119.539C217.142 119.53 217.044 119.551 216.959 119.599C216.874 119.647 216.806 119.72 216.764 119.808C216.677 119.989 216.645 120.29 216.678 120.715L216.767 122.012H216.084L215.88 119.049H216.563L216.602 119.526Z" fill="white"/>
<path d="M218.113 117.776C218.108 117.722 218.115 117.667 218.133 117.616C218.152 117.565 218.181 117.519 218.22 117.481C218.258 117.441 218.304 117.41 218.355 117.39C218.405 117.369 218.46 117.36 218.514 117.362C218.63 117.359 218.742 117.401 218.827 117.481C218.869 117.519 218.903 117.565 218.928 117.617C218.952 117.668 218.966 117.724 218.969 117.781C218.975 117.836 218.969 117.892 218.951 117.944C218.933 117.997 218.905 118.045 218.867 118.085C218.83 118.125 218.784 118.156 218.733 118.177C218.683 118.197 218.628 118.207 218.574 118.204C218.457 118.205 218.345 118.159 218.261 118.077C218.218 118.039 218.182 117.993 218.157 117.942C218.131 117.89 218.116 117.834 218.113 117.776ZM218.495 122.012L218.292 119.055H218.975L219.18 122.012H218.495Z" fill="white"/>
<path d="M238.831 121.098L239.411 120.825C239.471 121.014 239.592 121.178 239.755 121.291C239.932 121.404 240.139 121.459 240.349 121.451C240.443 121.457 240.537 121.443 240.626 121.412C240.715 121.38 240.797 121.331 240.867 121.267C240.929 121.203 240.975 121.125 241.004 121.04C241.032 120.954 241.04 120.864 241.029 120.775C241.01 120.506 240.77 120.267 240.306 120.061C240.241 120.03 240.187 120.006 240.156 119.992C239.631 119.747 239.277 119.524 239.095 119.325C238.911 119.126 238.804 118.868 238.792 118.597C238.772 118.432 238.791 118.264 238.847 118.108C238.902 117.951 238.992 117.809 239.111 117.693C239.244 117.573 239.399 117.481 239.567 117.421C239.735 117.362 239.913 117.337 240.091 117.346C240.392 117.337 240.69 117.405 240.958 117.541C241.189 117.664 241.37 117.862 241.472 118.102L240.907 118.401C240.821 118.274 240.71 118.166 240.58 118.085C240.463 118.018 240.33 117.984 240.194 117.987C240.022 117.974 239.851 118.03 239.719 118.142C239.664 118.195 239.621 118.261 239.595 118.333C239.569 118.406 239.56 118.484 239.57 118.56C239.589 118.835 239.867 119.09 240.401 119.328L240.498 119.371C240.969 119.579 241.296 119.783 241.479 119.981C241.666 120.185 241.774 120.448 241.786 120.725C241.816 121.158 241.702 121.501 241.444 121.755C241.186 122.009 240.823 122.137 240.356 122.139C240.008 122.151 239.665 122.057 239.372 121.87C239.107 121.685 238.915 121.412 238.831 121.098Z" fill="white"/>
<path d="M245.451 122.013H244.767L244.741 121.629C244.642 121.789 244.504 121.92 244.341 122.01C244.17 122.097 243.981 122.14 243.789 122.135C243.598 122.142 243.407 122.107 243.229 122.033C243.052 121.959 242.893 121.847 242.763 121.705C242.502 121.42 242.354 121.028 242.319 120.531C242.287 120.055 242.384 119.674 242.611 119.387C242.722 119.245 242.866 119.132 243.029 119.056C243.193 118.981 243.372 118.945 243.552 118.953C243.773 118.947 243.992 118.999 244.187 119.104C244.366 119.203 244.509 119.355 244.597 119.54L244.564 119.055H245.247L245.451 122.013ZM244.684 120.525C244.68 120.264 244.586 120.012 244.419 119.811C244.34 119.726 244.244 119.659 244.137 119.614C244.029 119.57 243.914 119.55 243.798 119.555C243.685 119.549 243.572 119.569 243.469 119.615C243.366 119.661 243.275 119.73 243.204 119.818C243.059 120.033 242.998 120.293 243.033 120.55C243.036 120.815 243.129 121.072 243.297 121.277C243.376 121.362 243.472 121.429 243.58 121.474C243.687 121.518 243.803 121.538 243.919 121.533C244.031 121.537 244.142 121.514 244.244 121.466C244.345 121.417 244.433 121.345 244.5 121.254C244.65 121.043 244.715 120.783 244.684 120.525Z" fill="white"/>
<path d="M246.556 122.013L246.391 119.648H245.868L245.828 119.053H246.35L246.273 117.933H246.956L247.033 119.053H247.556L247.597 119.648H247.075L247.237 122.013H246.556Z" fill="white"/>
<path d="M237.426 111.758C239.096 111.758 240.45 110.139 240.45 108.141C240.45 106.144 239.096 104.525 237.426 104.525C235.756 104.525 234.402 106.144 234.402 108.141C234.402 110.139 235.756 111.758 237.426 111.758Z" fill="#328278"/>
<path d="M237.426 104.524C237.122 104.524 236.82 104.579 236.535 104.684C237.772 105.138 238.673 106.513 238.673 108.135C238.673 109.757 237.775 111.138 236.535 111.587C236.82 111.692 237.122 111.746 237.426 111.746C239.096 111.746 240.45 110.128 240.45 108.129C240.45 106.131 239.096 104.524 237.426 104.524Z" fill="black"/>
<path d="M224.621 80.4709C215.817 80.4709 208.656 88.3251 208.656 97.9906C208.655 99.3102 208.792 100.626 209.064 101.918H211.514C211.203 100.632 211.046 99.3136 211.046 97.9906C211.046 89.6508 217.136 82.8665 224.621 82.8665C232.107 82.8665 238.195 89.6496 238.195 97.9894C238.195 102.247 236.608 106.101 234.058 108.851C233.951 108.968 233.869 109.105 233.816 109.255C233.763 109.404 233.741 109.563 233.75 109.721C233.759 109.88 233.8 110.034 233.87 110.177C233.939 110.319 234.037 110.446 234.156 110.55L234.175 110.566C234.406 110.765 234.705 110.867 235.009 110.851C235.313 110.834 235.599 110.701 235.807 110.478C238.755 107.297 240.586 102.873 240.586 97.9894C240.586 88.3251 233.425 80.4709 224.621 80.4709Z" fill="#184655"/>
<path d="M234.402 108.247C234.402 108.247 234.548 110.322 236.007 111.334C237.465 112.347 233.988 112.881 233.806 112.702C233.624 112.522 232.015 111.479 231.976 110.435C231.955 109.741 232.076 109.05 232.332 108.404C232.391 108.266 232.844 107.452 232.961 107.452C233.079 107.452 234.402 108.247 234.402 108.247Z" fill="#328278"/>
<path d="M196.405 111.758C198.075 111.758 199.428 110.139 199.428 108.141C199.428 106.144 198.075 104.525 196.405 104.525C194.735 104.525 193.381 106.144 193.381 108.141C193.381 110.139 194.735 111.758 196.405 111.758Z" fill="#328278"/>
<path d="M196.405 104.524C196.101 104.524 195.799 104.579 195.514 104.684C196.75 105.138 197.652 106.513 197.652 108.135C197.652 109.757 196.754 111.138 195.514 111.587C195.799 111.692 196.101 111.746 196.405 111.746C198.074 111.746 199.428 110.128 199.428 108.129C199.428 106.131 198.074 104.524 196.405 104.524Z" fill="black"/>
<path d="M183.599 80.4709C174.796 80.4709 167.634 88.3251 167.634 97.9906C167.634 99.3102 167.771 100.626 168.043 101.918H170.498C170.186 100.632 170.029 99.3136 170.03 97.9906C170.03 89.6508 176.119 82.8665 183.604 82.8665C191.089 82.8665 197.179 89.6496 197.179 97.9906C197.179 102.248 195.591 106.102 193.041 108.852C192.935 108.969 192.852 109.107 192.8 109.256C192.747 109.406 192.724 109.564 192.733 109.722C192.743 109.881 192.783 110.036 192.853 110.178C192.923 110.32 193.02 110.447 193.14 110.551L193.157 110.567C193.389 110.765 193.688 110.866 193.992 110.849C194.295 110.833 194.581 110.7 194.791 110.479C197.738 107.298 199.57 102.874 199.57 97.9906C199.565 88.3251 192.402 80.4709 183.599 80.4709Z" fill="#184655"/>
<path d="M193.381 108.247C193.381 108.247 193.526 110.322 194.984 111.334C196.443 112.347 192.965 112.881 192.783 112.702C192.602 112.522 190.994 111.479 190.954 110.435C190.933 109.741 191.055 109.05 191.311 108.404C191.37 108.266 191.823 107.452 191.94 107.452C192.058 107.452 193.381 108.247 193.381 108.247Z" fill="#328278"/>
<path d="M158.407 108.14C158.407 110.138 157.053 111.757 155.383 111.757C153.713 111.757 152.358 110.138 152.358 108.14C152.358 106.142 153.712 104.524 155.383 104.524C157.054 104.524 158.407 106.143 158.407 108.14Z" fill="#328278"/>
<path d="M155.383 104.524C155.079 104.524 154.778 104.579 154.493 104.684C155.728 105.138 156.63 106.513 156.63 108.135C156.63 109.757 155.731 111.138 154.493 111.587C154.778 111.692 155.079 111.746 155.383 111.746C157.053 111.746 158.407 110.128 158.407 108.129C158.407 106.131 157.053 104.524 155.383 104.524Z" fill="black"/>
<path d="M142.578 80.4709C133.775 80.4709 126.613 88.3251 126.613 97.9906C126.613 99.3102 126.75 100.626 127.02 101.918H129.471C129.16 100.632 129.003 99.3135 129.003 97.9906C129.003 89.6508 135.093 82.8665 142.578 82.8665C150.063 82.8665 156.153 89.6496 156.153 97.9906C156.153 102.248 154.565 106.102 152.015 108.852C151.908 108.969 151.826 109.107 151.774 109.256C151.721 109.406 151.698 109.564 151.707 109.722C151.717 109.881 151.757 110.036 151.827 110.178C151.897 110.32 151.994 110.447 152.114 110.551L152.131 110.567C152.363 110.765 152.662 110.866 152.966 110.849C153.269 110.833 153.555 110.7 153.765 110.479C156.712 107.298 158.543 102.874 158.543 97.9906C158.543 88.3251 151.376 80.4709 142.578 80.4709Z" fill="#184655"/>
<path d="M152.358 108.247C152.358 108.247 152.504 110.322 153.963 111.334C155.421 112.347 151.944 112.881 151.762 112.702C151.58 112.522 149.972 111.479 149.933 110.435C149.911 109.741 150.033 109.049 150.289 108.404C150.348 108.266 150.8 107.452 150.919 107.452C151.038 107.452 152.358 108.247 152.358 108.247Z" fill="#328278"/>
<path d="M114.362 111.758C116.032 111.758 117.386 110.139 117.386 108.141C117.386 106.144 116.032 104.525 114.362 104.525C112.692 104.525 111.338 106.144 111.338 108.141C111.338 110.139 112.692 111.758 114.362 111.758Z" fill="#328278"/>
<path d="M114.361 104.524C114.057 104.524 113.756 104.579 113.471 104.684C114.706 105.138 115.609 106.513 115.609 108.135C115.609 109.757 114.711 111.138 113.471 111.587C113.756 111.692 114.057 111.746 114.361 111.746C116.032 111.746 117.386 110.128 117.386 108.129C117.386 106.131 116.032 104.524 114.361 104.524Z" fill="black"/>
<path d="M101.556 80.4709C92.7534 80.4709 85.5905 88.3251 85.5905 97.9906C85.591 99.3102 85.7279 100.626 85.9991 101.918H88.4492C88.1379 100.632 87.9808 99.3136 87.9813 97.9906C87.9813 89.6508 94.0705 82.8665 101.556 82.8665C109.042 82.8665 115.13 89.6496 115.13 97.9906C115.13 102.248 113.544 106.102 110.993 108.852C110.886 108.969 110.804 109.107 110.751 109.256C110.699 109.406 110.676 109.564 110.685 109.723C110.695 109.881 110.736 110.036 110.805 110.178C110.875 110.32 110.973 110.447 111.092 110.551L111.11 110.567C111.342 110.765 111.64 110.866 111.944 110.849C112.248 110.833 112.534 110.7 112.743 110.479C115.691 107.298 117.521 102.874 117.521 97.9906C117.527 88.3251 110.36 80.4709 101.556 80.4709Z" fill="#184655"/>
<path d="M111.337 108.247C111.337 108.247 111.483 110.322 112.942 111.334C114.4 112.347 110.923 112.881 110.741 112.702C110.559 112.522 108.95 111.479 108.911 110.435C108.89 109.741 109.011 109.05 109.267 108.404C109.326 108.266 109.779 107.452 109.898 107.452C110.016 107.452 111.337 108.247 111.337 108.247Z" fill="#328278"/>
<path d="M264.03 248.322L263.839 239.98L254.741 241.765C254.741 241.765 227.65 244.919 227.532 244.919C227.415 244.919 201.377 252.562 201.377 252.562L198.124 253.114H259.441C262.035 253.114 264.087 250.969 264.03 248.322Z" fill="#FAE2B7"/>
<path d="M197.946 253.114C197.946 253.114 219.579 248.382 236.665 218.696C236.665 218.696 245.045 241.583 263.661 239.98C263.662 239.98 238.713 251.61 197.946 253.114Z" fill="#FCEED5"/>
<path d="M138.707 218.373L145.608 221.122L152.848 202.873L145.947 200.124L138.707 218.373Z" fill="#828282"/>
<path d="M128.632 160.079C121.566 177.889 130.248 198.069 148.022 205.149C165.797 212.23 185.937 203.532 193.003 185.721C200.07 167.91 191.389 147.732 173.612 140.651C155.835 133.57 135.699 142.268 128.632 160.079ZM135.389 162.77C140.971 148.699 156.886 141.825 170.928 147.419C184.97 153.012 191.831 168.958 186.249 183.027C180.667 197.095 164.752 203.971 150.71 198.378C136.668 192.785 129.806 176.842 135.389 162.77Z" fill="#878787"/>
<path d="M121.904 264.647L126.261 266.382C126.822 266.606 127.423 266.717 128.027 266.709C128.632 266.7 129.229 266.572 129.784 266.332C130.34 266.093 130.842 265.745 131.264 265.311C131.685 264.876 132.017 264.363 132.24 263.8L151.468 215.339C151.691 214.776 151.802 214.175 151.793 213.569C151.784 212.963 151.657 212.365 151.417 211.808C151.178 211.252 150.831 210.748 150.398 210.326C149.964 209.904 149.451 209.571 148.889 209.348L144.533 207.613C143.398 207.161 142.131 207.179 141.009 207.663C139.888 208.147 139.004 209.058 138.553 210.195L119.326 258.655C119.102 259.218 118.992 259.82 119 260.426C119.009 261.032 119.137 261.63 119.376 262.186C119.616 262.743 119.962 263.246 120.396 263.669C120.83 264.091 121.342 264.423 121.904 264.647Z" fill="#328278"/>
<path d="M164.385 141.928C147.225 140.003 131.757 152.382 129.837 169.576C127.916 186.769 140.27 202.268 157.43 204.192C174.59 206.117 190.058 193.738 191.978 176.544C193.899 159.351 181.545 143.852 164.385 141.928ZM186.248 183.029C180.666 197.101 164.751 203.973 150.709 198.38C136.667 192.787 129.806 176.841 135.388 162.771C140.97 148.701 156.885 141.826 170.927 147.42C184.969 153.013 191.831 168.957 186.248 183.029Z" fill="#B3B3B3"/>
</svg>
