<svg width="40" height="40" viewBox="0 0 40 40" fill="none" xmlns="http://www.w3.org/2000/svg">
<rect width="40" height="40" rx="20" fill="#F2F2F2"/>
<g clip-path="url(#clip0_509_641)">
<path d="M12.0038 23.5773C12.0038 22.1449 12.0085 20.7125 12 19.2785C12 18.9995 12.1056 18.8247 12.3682 18.7043C13.0555 18.3892 13.7359 18.0603 14.4189 17.7366C16.1744 16.9037 17.9295 16.0697 19.6844 15.2348C19.8999 15.1314 20.0874 15.1282 20.305 15.232C22.7307 16.3886 25.1588 17.5405 27.5894 18.6876C27.871 18.8202 28.0004 18.993 27.9996 19.2996C27.9922 22.1717 27.9922 25.0434 27.9996 27.9149C27.9996 28.1672 27.8973 28.3322 27.6602 28.4422C25.1955 29.6012 22.7324 30.7637 20.2711 31.9298C20.188 31.9738 20.0947 31.9971 19.9997 31.9976C19.9048 31.9981 19.8112 31.9757 19.7277 31.9327C17.2533 30.7617 14.7787 29.5923 12.3037 28.4243C12.0768 28.3172 12.0068 28.1449 12.0068 27.9129C12.0059 26.4692 12.0034 25.0234 12.0038 23.5773ZM20.0216 22.1173C20.1065 22.0869 20.2062 22.0585 20.2991 22.0143C22.3048 21.0634 24.3095 20.1107 26.3133 19.156C26.3837 19.1228 26.438 19.0579 26.5 19.0076C26.4384 18.9504 26.3871 18.8738 26.3137 18.8389C24.3165 17.8867 22.3158 16.941 20.3194 15.9863C20.0865 15.8748 19.8889 15.8825 19.6589 15.9924C17.9111 16.8305 16.1605 17.6632 14.407 18.4905C14.1411 18.6163 13.8734 18.7387 13.6103 18.8697C13.4466 18.9508 13.45 19.0388 13.6103 19.1293C13.6409 19.1463 13.6727 19.1605 13.7045 19.1755C14.7167 19.6557 15.7315 20.1306 16.7407 20.6168C17.4547 20.9611 18.1576 21.3257 18.8716 21.6712C19.1851 21.8225 19.513 21.947 19.8358 22.0804C19.897 22.0988 19.9597 22.1118 20.0233 22.1193L20.0216 22.1173ZM12.6402 21.9283C12.6448 21.9823 12.6448 22.0366 12.6402 22.0905C12.5744 22.4555 12.7551 22.6433 13.0962 22.8019C15.3323 23.8405 17.5582 24.8985 19.7853 25.9546C19.9304 26.0235 20.0479 26.032 20.199 25.9598C21.3482 25.4091 22.5021 24.8681 23.6543 24.3235C24.7875 23.7873 25.9209 23.2516 27.0544 22.7163C27.1995 22.6482 27.3089 22.5581 27.3089 22.3996C27.3166 22.0958 27.3174 21.7913 27.3089 21.4875C27.3055 21.3484 27.2165 21.2961 27.0769 21.3439C27.0179 21.3665 26.9603 21.3925 26.9047 21.4218C24.6631 22.4811 22.4222 23.5412 20.182 24.6021C20.1247 24.6335 20.0597 24.65 19.9936 24.65C19.9276 24.65 19.8626 24.6335 19.8053 24.6021C18.4715 23.967 17.1358 23.3353 15.7981 22.707C14.8481 22.2584 13.8983 21.81 12.9486 21.3618C12.7174 21.2527 12.6389 21.2989 12.6368 21.5427C12.6414 21.6732 12.6427 21.8006 12.6427 21.9304L12.6402 21.9283Z" fill="#328278"/>
<path d="M19.9953 13.723C19.8977 13.7513 19.8018 13.7846 19.7081 13.8228C18.3158 14.4811 16.924 15.1404 15.5329 15.8006C15.4696 15.8307 15.4056 15.8757 15.3407 15.8817C15.2758 15.8878 15.171 15.8817 15.1354 15.8384C15.1137 15.8071 15.0997 15.7716 15.0944 15.7344C15.0891 15.6973 15.0927 15.6595 15.1048 15.6238C15.1876 15.4672 15.2794 15.315 15.3797 15.168L19.7136 8.30054C19.9681 7.89986 20.0267 7.89986 20.2774 8.29689L24.8195 15.4936C24.8339 15.5168 24.859 15.5395 24.8619 15.5634C24.8692 15.6567 24.9086 15.784 24.8619 15.8339C24.8153 15.8838 24.6617 15.8866 24.5841 15.8517C24.0665 15.619 23.5566 15.3708 23.0446 15.1274C22.1342 14.6949 21.2234 14.2623 20.3122 13.8297C20.2088 13.7882 20.103 13.7526 19.9953 13.723Z" fill="#328278"/>
</g>
<defs>
<clipPath id="clip0_509_641">
<rect width="16" height="24" fill="white" transform="translate(12 8)"/>
</clipPath>
</defs>
</svg>
