<svg width="28" height="40" viewBox="0 0 28 40" fill="none" xmlns="http://www.w3.org/2000/svg">
<g clip-path="url(#clip0_647_1196)">
<path d="M4.14927 0.691528C2.29616 0.691528 0.689453 2.24283 0.689453 4.09209V33.5233C0.689453 35.1881 2.20633 36.6336 4.05944 36.6336H25.6235V30.413H26.3165V0.691528H4.14927Z" fill="#8CC8C4"/>
<path d="M6.60742 14.4833L13.587 4.30127L20.5665 14.4825L13.587 24.1275L6.60742 14.4833Z" fill="#FFD966"/>
<path d="M4.84839 33.1775H8.31164V39.305L6.58001 38.0662L4.84839 39.305V33.1775Z" fill="#FFD966"/>
<path d="M13.0256 24.5306C13.0899 24.6191 13.1743 24.6912 13.2718 24.7409C13.3694 24.7906 13.4773 24.8165 13.5869 24.8165C13.6964 24.8165 13.8044 24.7906 13.9019 24.7409C13.9995 24.6912 14.0839 24.6191 14.1481 24.5306L21.1276 14.883C21.2112 14.7677 21.257 14.6294 21.2589 14.4872C21.2607 14.3449 21.2185 14.2055 21.1379 14.0881L14.1592 3.91202C13.9026 3.53551 13.2737 3.53551 13.0162 3.91202L6.03669 14.0932C5.9562 14.2108 5.91399 14.3503 5.91583 14.4927C5.91767 14.6351 5.96346 14.7735 6.04696 14.8889L13.0256 24.5306ZM13.5869 5.5248L19.7203 14.4723L13.5877 22.9468L7.45433 14.4732L13.5869 5.5248Z" fill="#328278"/>
<path d="M27.0131 30.413V0.691552C27.0124 0.508348 26.9392 0.332837 26.8094 0.203292C26.6796 0.073746 26.5037 0.000674791 26.3201 0H4.14952C1.90542 0 0.000976562 1.87317 0.000976562 4.09212V33.1084C0.00176528 33.1548 0.00634627 33.201 0.0146682 33.2467C0.00782385 33.3372 0.000976562 33.4268 0.000976562 33.5233C0.000976562 35.5834 1.86436 37.3251 4.06653 37.3251H4.15208V39.3084C4.15215 39.4345 4.18719 39.5582 4.25334 39.6656C4.31948 39.7731 4.41413 39.8601 4.52681 39.9172C4.6393 39.9776 4.76659 40.005 4.89402 39.9964C5.02146 39.9878 5.14387 39.9435 5.24718 39.8685L6.5767 38.914L7.90622 39.8685C8.02342 39.9527 8.16389 39.9987 8.30832 40C8.4199 39.9986 8.52933 39.9692 8.62658 39.9146C8.7391 39.8574 8.83358 39.7703 8.89957 39.6629C8.96555 39.5554 9.00047 39.4319 9.00045 39.3059V37.3226H26.3167C26.5005 37.3226 26.6768 37.2497 26.8067 37.12C26.9367 36.9903 27.0097 36.8144 27.0097 36.631C27.0097 36.4476 26.9367 36.2717 26.8067 36.142C26.6768 36.0123 26.5005 35.9395 26.3167 35.9395V31.1046C26.4079 31.1048 26.4983 31.0871 26.5827 31.0524C26.6671 31.0178 26.7438 30.9669 26.8084 30.9027C26.8731 30.8385 26.9245 30.7622 26.9596 30.6782C26.9947 30.5942 27.0129 30.504 27.0131 30.413ZM7.61876 37.9603L6.98222 37.5044C6.86533 37.4197 6.72458 37.3741 6.58012 37.3741C6.43567 37.3741 6.29491 37.4197 6.17801 37.5044L5.54149 37.9603V33.8691H7.61876V37.9603ZM24.935 35.942H9.00388V33.1775C9.00343 32.9945 8.93036 32.819 8.80066 32.6896C8.67095 32.5602 8.49517 32.4873 8.31174 32.4868H4.8485C4.66499 32.4873 4.48912 32.5602 4.35928 32.6896C4.22944 32.819 4.15618 32.9944 4.1555 33.1775V35.942H4.06994C2.65744 35.942 1.46566 34.9055 1.39637 33.6368C1.39047 33.5982 1.38819 33.559 1.38952 33.5199C1.39427 33.0258 1.56239 32.5471 1.86777 32.1581C2.13018 31.8282 2.46415 31.562 2.84456 31.3795C3.22496 31.197 3.64189 31.103 4.06396 31.1046H24.9393L24.935 35.942ZM25.6271 29.7215H4.06396C3.08358 29.7229 2.13487 30.068 1.38354 30.6965V4.09212C1.38354 2.64754 2.67883 1.38225 4.14695 1.38225H25.6211L25.6271 29.7215Z" fill="#328278"/>
</g>
<defs>
<clipPath id="clip0_647_1196">
<rect width="27.013" height="40" fill="white"/>
</clipPath>
</defs>
</svg>
