<svg width="23" height="40" viewBox="0 0 23 40" fill="none" xmlns="http://www.w3.org/2000/svg">
<g clip-path="url(#clip0_647_1066)">
<path d="M22.4601 3.28644H0.410889V37.6589H22.4601V3.28644Z" fill="#8CC8C4"/>
<path d="M22.4593 3.28644V37.6613H21.579V5.09807H2.43992V37.6613H0.410889V3.28644H22.4593Z" fill="#FFD966"/>
<path d="M18.5766 15.7587C18.5766 23.109 18.0002 16.3953 18.0002 16.3953C18.0002 10.2192 12.0029 9.11662 12.0029 9.11662C12.0029 9.11662 6.00142 10.2184 6.00142 16.3953V33.4847H4.29272V15.7587C4.29272 8.40349 11.4347 7.09253 11.4347 7.09253C11.4347 7.09253 18.5766 8.40349 18.5766 15.7587Z" fill="#FFD966"/>
<path d="M21.9997 -4.77396e-06C21.823 0.000213446 21.6535 0.0705833 21.5286 0.195648C21.4037 0.320713 21.3335 0.490245 21.3335 0.667004V2.0002H20.0003V0.667004C20.0003 0.490102 19.9301 0.320447 19.805 0.195358C19.6799 0.0702694 19.5102 -4.77396e-06 19.3333 -4.77396e-06C19.1564 -4.77396e-06 18.9868 0.0702694 18.8617 0.195358C18.7366 0.320447 18.6663 0.490102 18.6663 0.667004V2.0002H17.3331V0.667004C17.3363 0.577494 17.3214 0.488268 17.2893 0.404645C17.2572 0.321023 17.2086 0.244719 17.1464 0.180284C17.0842 0.115848 17.0096 0.064602 16.9272 0.0296012C16.8447 -0.00539959 16.7561 -0.0234375 16.6665 -0.0234375C16.577 -0.0234375 16.4883 -0.00539959 16.4059 0.0296012C16.3234 0.064602 16.2489 0.115848 16.1867 0.180284C16.1244 0.244719 16.0759 0.321023 16.0438 0.404645C16.0117 0.488268 15.9968 0.577494 15.9999 0.667004V2.0002H14.6667V0.667004C14.6699 0.577494 14.655 0.488268 14.6229 0.404645C14.5908 0.321023 14.5422 0.244719 14.48 0.180284C14.4178 0.115848 14.3432 0.064602 14.2608 0.0296012C14.1783 -0.00539959 14.0897 -0.0234375 14.0001 -0.0234375C13.9106 -0.0234375 13.8219 -0.00539959 13.7395 0.0296012C13.657 0.064602 13.5825 0.115848 13.5203 0.180284C13.4581 0.244719 13.4095 0.321023 13.3774 0.404645C13.3453 0.488268 13.3304 0.577494 13.3335 0.667004V2.0002H12.0045V0.667004C12.0045 0.490102 11.9342 0.320447 11.8091 0.195358C11.684 0.0702694 11.5143 -4.77396e-06 11.3374 -4.77396e-06C11.1605 -4.77396e-06 10.9909 0.0702694 10.8658 0.195358C10.7407 0.320447 10.6704 0.490102 10.6704 0.667004V2.0002H9.33725V0.667004C9.34039 0.577494 9.32546 0.488268 9.29338 0.404645C9.2613 0.321023 9.21271 0.244719 9.1505 0.180284C9.08829 0.115848 9.01375 0.064602 8.9313 0.0296012C8.84886 -0.00539959 8.7602 -0.0234375 8.67063 -0.0234375C8.58107 -0.0234375 8.49242 -0.00539959 8.40998 0.0296012C8.32754 0.064602 8.25299 0.115848 8.19078 0.180284C8.12857 0.244719 8.07997 0.321023 8.04788 0.404645C8.0158 0.488268 8.00089 0.577494 8.00404 0.667004V2.0002H6.67085V0.667004C6.67399 0.577494 6.65908 0.488268 6.627 0.404645C6.59491 0.321023 6.54633 0.244719 6.48412 0.180284C6.42191 0.115848 6.34734 0.064602 6.2649 0.0296012C6.18246 -0.00539959 6.09382 -0.0234375 6.00425 -0.0234375C5.91468 -0.0234375 5.82604 -0.00539959 5.7436 0.0296012C5.66116 0.064602 5.58659 0.115848 5.52438 0.180284C5.46217 0.244719 5.41358 0.321023 5.3815 0.404645C5.34942 0.488268 5.33451 0.577494 5.33765 0.667004V2.0002H4.00034V0.667004C4.00034 0.490102 3.93006 0.320447 3.80497 0.195358C3.67988 0.0702694 3.51023 -4.77396e-06 3.33332 -4.77396e-06C3.15642 -4.77396e-06 2.98677 0.0702694 2.86168 0.195358C2.73659 0.320447 2.66633 0.490102 2.66633 0.667004V2.0002H1.33311V0.667004C1.33626 0.577494 1.32135 0.488268 1.28927 0.404645C1.25718 0.321023 1.2086 0.244719 1.14639 0.180284C1.08418 0.115848 1.00963 0.064602 0.92719 0.0296012C0.844747 -0.00539959 0.756085 -0.0234375 0.666519 -0.0234375C0.576954 -0.0234375 0.488311 -0.00539959 0.405868 0.0296012C0.323424 0.064602 0.248882 0.115848 0.186672 0.180284C0.124462 0.244719 0.0758537 0.321023 0.0437708 0.404645C0.011688 0.488268 -0.00322301 0.577494 -7.64813e-05 0.667004V39.333C-0.00322301 39.4225 0.011688 39.5117 0.0437708 39.5953C0.0758537 39.679 0.124462 39.7553 0.186672 39.8197C0.248882 39.8841 0.323424 39.9354 0.405868 39.9704C0.488311 40.0054 0.576954 40.0234 0.666519 40.0234C0.756085 40.0234 0.844747 40.0054 0.92719 39.9704C1.00963 39.9354 1.08418 39.8841 1.14639 39.8197C1.2086 39.7553 1.25718 39.679 1.28927 39.5953C1.32135 39.5117 1.33626 39.4225 1.33311 39.333V38.0039H2.66633V39.3371C2.66633 39.514 2.73659 39.6837 2.86168 39.8087C2.98677 39.9338 3.15642 40.0041 3.33332 40.0041C3.51023 40.0041 3.67988 39.9338 3.80497 39.8087C3.93006 39.6837 4.00034 39.514 4.00034 39.3371V38.0039H5.33436V39.3371C5.33121 39.4266 5.34612 39.5158 5.3782 39.5995C5.41029 39.6831 5.45888 39.7594 5.52108 39.8238C5.58329 39.8883 5.65786 39.9395 5.7403 39.9745C5.82274 40.0095 5.91139 40.0275 6.00095 40.0275C6.09052 40.0275 6.17916 40.0095 6.2616 39.9745C6.34405 39.9395 6.41861 39.8883 6.48082 39.8238C6.54303 39.7594 6.59162 39.6831 6.6237 39.5995C6.65578 39.5158 6.67069 39.4266 6.66755 39.3371V38.0039H8.00074V39.3371C7.99759 39.4266 8.01252 39.5158 8.04461 39.5995C8.07669 39.6831 8.12528 39.7594 8.18749 39.8238C8.2497 39.8883 8.32424 39.9395 8.40668 39.9745C8.48913 40.0095 8.57779 40.0275 8.66736 40.0275C8.75692 40.0275 8.84556 40.0095 8.92801 39.9745C9.01045 39.9395 9.08499 39.8883 9.1472 39.8238C9.20941 39.7594 9.25802 39.6831 9.2901 39.5995C9.32219 39.5158 9.3371 39.4266 9.33395 39.3371V38.0039H10.6671V39.3371C10.6671 39.4247 10.6844 39.5114 10.7179 39.5924C10.7514 39.6733 10.8006 39.7468 10.8625 39.8087C10.9244 39.8707 10.998 39.9198 11.0789 39.9533C11.1598 39.9869 11.2466 40.0041 11.3342 40.0041C11.4218 40.0041 11.5085 39.9869 11.5894 39.9533C11.6703 39.9198 11.7439 39.8707 11.8058 39.8087C11.8677 39.7468 11.9169 39.6733 11.9504 39.5924C11.9839 39.5114 12.0012 39.4247 12.0012 39.3371V38.0039H13.3343V39.3371C13.3312 39.4266 13.3461 39.5158 13.3782 39.5995C13.4103 39.6831 13.4589 39.7594 13.5211 39.8238C13.5833 39.8883 13.6579 39.9395 13.7403 39.9745C13.8227 40.0095 13.9114 40.0275 14.001 40.0275C14.0905 40.0275 14.1792 40.0095 14.2616 39.9745C14.3441 39.9395 14.4186 39.8883 14.4808 39.8238C14.543 39.7594 14.5916 39.6831 14.6237 39.5995C14.6558 39.5158 14.6707 39.4266 14.6676 39.3371V38.0039H16.0008V39.3371C15.9976 39.4266 16.0125 39.5158 16.0446 39.5995C16.0767 39.6831 16.1253 39.7594 16.1875 39.8238C16.2497 39.8883 16.3243 39.9395 16.4067 39.9745C16.4891 40.0095 16.5778 40.0275 16.6673 40.0275C16.7569 40.0275 16.8456 40.0095 16.928 39.9745C17.0104 39.9395 17.085 39.8883 17.1472 39.8238C17.2094 39.7594 17.258 39.6831 17.2901 39.5995C17.3222 39.5158 17.3371 39.4266 17.3339 39.3371V38.0039H18.6671V39.3371C18.6671 39.4247 18.6844 39.5114 18.7179 39.5924C18.7514 39.6733 18.8006 39.7468 18.8625 39.8087C18.9244 39.8707 18.998 39.9198 19.0789 39.9533C19.1598 39.9869 19.2466 40.0041 19.3342 40.0041C19.4217 40.0041 19.5085 39.9869 19.5894 39.9533C19.6703 39.9198 19.7439 39.8707 19.8058 39.8087C19.8677 39.7468 19.9169 39.6733 19.9504 39.5924C19.9839 39.5114 20.0012 39.4247 20.0012 39.3371V38.0039H21.3344V39.3371C21.3312 39.4266 21.3461 39.5158 21.3782 39.5995C21.4103 39.6831 21.4589 39.7594 21.5211 39.8238C21.5833 39.8883 21.6579 39.9395 21.7403 39.9745C21.8228 40.0095 21.9114 40.0275 22.001 40.0275C22.0905 40.0275 22.1792 40.0095 22.2616 39.9745C22.3441 39.9395 22.4186 39.8883 22.4808 39.8238C22.543 39.7594 22.5916 39.6831 22.6237 39.5995C22.6558 39.5158 22.6707 39.4266 22.6676 39.3371V0.667004C22.6676 0.579342 22.6503 0.492539 22.6167 0.41156C22.5831 0.330581 22.5339 0.257015 22.4719 0.195066C22.4099 0.133118 22.3363 0.0840029 22.2552 0.050531C22.1742 0.017059 22.0874 -0.000112999 21.9997 -4.77396e-06ZM1.33064 3.3334H21.3311V36.6666H1.33311L1.33064 3.3334Z" fill="#328278"/>
<path d="M3.99954 34.0002H18.6663C18.8431 34 19.0125 33.9296 19.1375 33.8045C19.2624 33.6795 19.3325 33.51 19.3325 33.3332V15.4211C19.3325 7.52568 11.531 6.02449 11.4519 6.01049C11.3735 5.9965 11.2932 5.9965 11.2148 6.01049C11.1324 6.02449 3.33252 7.52568 3.33252 15.4211V33.3332C3.33252 33.5101 3.4028 33.6797 3.52789 33.8048C3.65298 33.9299 3.82264 34.0002 3.99954 34.0002ZM4.66571 15.4211C4.66571 9.06803 10.4012 7.5512 11.3358 7.34698C12.2721 7.54873 18.0002 9.0458 18.0002 15.4211V32.667H4.66571V15.4211Z" fill="#328278"/>
</g>
<defs>
<clipPath id="clip0_647_1066">
<rect width="22.6668" height="40" fill="white"/>
</clipPath>
</defs>
</svg>
