<svg width="40" height="40" viewBox="0 0 40 40" fill="none" xmlns="http://www.w3.org/2000/svg">
<g clip-path="url(#clip0_647_1083)">
<path d="M33.6541 33.6538C41.1951 26.1128 41.1951 13.8864 33.6541 6.34534C26.1131 -1.19568 13.8867 -1.19567 6.34563 6.34535C-1.19539 13.8864 -1.19539 26.1128 6.34563 33.6538C13.8867 41.1948 26.1131 41.1948 33.6541 33.6538Z" fill="#8CC8C4"/>
<path d="M30.8856 30.8854C36.8977 24.8733 36.8977 15.1258 30.8857 9.11377C24.8736 3.10172 15.1261 3.10172 9.11406 9.11378C3.10201 15.1258 3.10201 24.8733 9.11406 30.8854C15.1261 36.8974 24.8736 36.8974 30.8856 30.8854Z" fill="#FFD966"/>
<path d="M20 0C8.9718 0 0 8.97266 0 20C0 31.0273 8.9718 40 20 40C31.0282 40 40 31.0308 40 20C40 8.96925 31.0273 0 20 0ZM20 38.6208C9.73251 38.6208 1.37916 30.2675 1.37916 20C1.37916 9.73252 9.73251 1.37916 20 1.37916C30.2675 1.37916 38.6208 9.73252 38.6208 20C38.6208 30.2675 30.2675 38.6208 20 38.6208Z" fill="#328278"/>
<path d="M20 3.91602C11.1313 3.91602 3.91602 11.1304 3.91602 20C3.91602 28.8696 11.1313 36.084 20 36.084C28.8687 36.084 36.084 28.8687 36.084 20C36.084 11.1313 28.8687 3.91602 20 3.91602ZM20 34.7048C11.8911 34.7048 5.29517 28.108 5.29517 20C5.29517 11.892 11.8911 5.29517 20 5.29517C28.1089 5.29517 34.7048 11.892 34.7048 20C34.7048 28.108 28.108 34.7048 20 34.7048Z" fill="#328278"/>
<path d="M28.2759 12.4133C28.2759 10.086 26.7783 8.19318 24.9383 8.19318C23.0983 8.19318 21.5999 10.086 21.5999 12.4133C21.5999 14.117 22.4049 15.5873 23.5591 16.2526V30.3492C23.5591 30.715 23.7044 31.0658 23.9631 31.3245C24.2217 31.5831 24.5725 31.7284 24.9383 31.7284C25.3041 31.7284 25.6549 31.5831 25.9135 31.3245C26.1722 31.0658 26.3175 30.715 26.3175 30.3492V16.2526C27.4692 15.5873 28.2759 14.1187 28.2759 12.4133Z" fill="#328278"/>
<path d="M17.9282 8.96753C17.7454 8.96753 17.5701 9.04013 17.4409 9.16937C17.3116 9.29861 17.239 9.47392 17.239 9.65669V13.105C17.239 14.4552 16.6001 14.9723 15.9697 15.158V9.65669C15.9635 9.478 15.8881 9.30872 15.7594 9.18453C15.6308 9.06034 15.459 8.99093 15.2802 8.99093C15.1014 8.99093 14.9295 9.06034 14.8009 9.18453C14.6723 9.30872 14.5969 9.478 14.5906 9.65669V15.158C13.9602 14.9723 13.3213 14.4552 13.3213 13.105V9.65669C13.315 9.478 13.2396 9.30872 13.111 9.18453C12.9823 9.06034 12.8105 8.99093 12.6317 8.99093C12.4529 8.99093 12.2811 9.06034 12.1525 9.18453C12.0238 9.30872 11.9484 9.478 11.9421 9.65669V13.105C11.9421 14.7193 12.6858 15.9025 13.9176 16.3906C13.9084 16.4445 13.9027 16.4988 13.9006 16.5534V30.3492C13.9095 30.7092 14.0588 31.0514 14.3165 31.3028C14.5743 31.5543 14.9201 31.695 15.2802 31.695C15.6402 31.695 15.986 31.5543 16.2438 31.3028C16.5015 31.0514 16.6508 30.7092 16.6597 30.3492V16.5491C16.6576 16.4945 16.6519 16.4402 16.6427 16.3864C17.8745 15.8983 18.6182 14.715 18.6182 13.1008V9.65243C18.6168 9.47031 18.5435 9.29611 18.4143 9.16781C18.285 9.03951 18.1103 8.96752 17.9282 8.96753Z" fill="#328278"/>
</g>
<defs>
<clipPath id="clip0_647_1083">
<rect width="40" height="40" fill="white"/>
</clipPath>
</defs>
</svg>
