<svg width="24" height="40" viewBox="0 0 24 40" fill="none" xmlns="http://www.w3.org/2000/svg">
<g clip-path="url(#clip0_647_1058)">
<path d="M21.6054 31.7539C20.9629 33.3446 20.3161 34.8062 20.6191 36.8714C18.9419 39.2363 8.71195 40.6538 4.9028 37.391C4.83266 35.1543 4.14512 32.5289 2.72675 30.8966C1.30839 29.2644 0.430353 26.7645 0.776719 24.6127C1.12308 22.4609 1.73615 19.3142 2.38299 18.6102C3.02982 17.9062 4.84478 17.346 5.42234 17.346C5.38251 13.4883 5.16257 4.6283 5.16257 3.10949C5.16257 1.27289 6.21119 0.699646 7.15417 0.699646C8.09715 0.699646 9.30423 1.69026 9.30423 2.98134C9.30423 3.80915 9.47742 9.11546 9.6073 13.387C9.6073 13.387 10.4221 12.0128 12.0561 12.3566C12.6813 12.4882 13.3151 13.1013 13.8001 14.9197C13.8615 14.2503 14.8963 13.5152 15.7994 13.5585C16.5259 13.594 17.6092 14.078 18.0318 16.7294C18.3357 15.9674 20.6165 15.7518 21.3041 17.3018C21.9916 18.8518 22.034 21.472 22.2505 24.1849C22.467 26.8979 22.2514 30.1606 21.6054 31.7539Z" fill="#8CC8C4"/>
<path d="M6.78361 2.00807C7.71966 1.87126 8.11106 3.14847 8.36131 4.50882C8.51977 5.36694 8.98649 10.4888 9.39174 14.3958C9.56492 16.1043 9.70867 17.5884 9.73118 18.379C9.72685 17.5867 9.68702 16.0411 9.6342 14.2045C9.62554 13.936 9.61601 13.6624 9.61168 13.3853C9.4844 9.11375 9.30775 3.80744 9.30775 2.97963C9.30775 1.68855 8.10153 0.697937 7.15422 0.697937C6.28831 0.697937 5.33581 1.18198 5.186 2.68954C5.15916 3.52081 5.186 5.39205 5.186 5.39205C5.186 5.39205 5.46223 2.20117 6.78361 2.00807Z" fill="#FFD966"/>
<path d="M14.4243 18.8301C14.2711 17.3018 14.0113 16.2497 13.6944 15.5232C13.0068 13.9377 12.0612 13.9152 11.3954 13.878C10.6645 13.8329 10.0393 13.9343 9.63409 14.2079C9.62543 13.9394 9.6159 13.6658 9.61157 13.3887C9.61157 13.3887 10.4264 12.0145 12.0612 12.3583C12.6856 12.4899 13.3194 13.103 13.8043 14.9214C13.8442 15.0582 13.8788 15.1985 13.91 15.3483C14.1169 16.2358 14.2927 17.3771 14.4243 18.8301Z" fill="#FFD966"/>
<path d="M18.2075 19.1072C18.0629 18.5704 17.9131 18.0993 17.7676 17.6897C16.887 15.2227 16.0358 14.9457 15.2565 14.9058C14.7897 14.8842 14.2918 15.0686 13.9091 15.3466C13.8779 15.1968 13.8433 15.0565 13.8035 14.9197C13.8649 14.2503 14.8954 13.5152 15.8029 13.5585C16.5294 13.594 17.6118 14.078 18.0309 16.7294C18.0707 16.9719 18.1019 17.2308 18.1278 17.5088C18.1815 17.9842 18.2032 18.5124 18.2075 19.1072Z" fill="#FFD966"/>
<path d="M21.1007 33.0052C21.7484 31.4101 21.5631 28.182 21.3518 25.4717C21.1405 22.7614 21.0054 20.0502 20.3127 18.5002C20.2747 18.4162 20.2304 18.3352 20.1802 18.2578C19.6035 17.3416 18.8753 17.2516 18.1263 17.507C18.1003 17.2291 18.0691 16.9702 18.0293 16.7277C18.3194 16.009 20.3673 15.7752 21.1734 17.0585C21.2236 17.1355 21.2679 17.2163 21.3059 17.3001C21.9926 18.8501 22.0367 21.4703 22.2524 24.1832C22.468 26.8961 22.2524 30.158 21.6055 31.7522L21.1007 33.0052Z" fill="#FFD966"/>
<path d="M6.28566 38.2595C5.78528 38.0348 5.31891 37.741 4.9002 37.3866C4.83525 35.15 4.14772 32.5245 2.72589 30.8923C1.30406 29.26 0.430354 26.7645 0.776719 24.6127C1.12308 22.4609 1.73615 19.3142 2.37952 18.6102C3.0229 17.9062 4.84478 17.3459 5.42234 17.3459C5.42667 17.8387 5.431 18.2482 5.431 18.5522C4.7833 18.7808 4.10962 19.1167 3.76672 19.4899C3.11901 20.1957 2.50248 23.3441 2.15958 25.4925C1.81668 27.6408 2.68779 30.1381 4.10962 31.7721C5.53145 33.406 6.21465 36.022 6.28566 38.2595Z" fill="#FFD966"/>
<path d="M22.9511 24.1252C22.9104 23.6169 22.8766 23.1121 22.8428 22.6168C22.6948 20.4399 22.5553 18.3842 21.9466 17.0143C21.4193 15.828 20.2442 15.4167 19.3047 15.4409C19.0286 15.4454 18.7545 15.4891 18.4907 15.5708C17.9045 13.4831 16.8031 12.9021 15.835 12.8562C15.1875 12.8399 14.553 13.0401 14.0322 13.4251C13.568 12.3938 12.9688 11.8284 12.2033 11.6664C11.5511 11.5156 10.8668 11.5949 10.2663 11.8907C10.2386 10.9616 10.2083 10.0117 10.1797 9.09206C10.0931 6.23454 10.0065 3.52684 10.0065 2.97612C10.0065 1.29798 8.47385 -0.003479 7.15507 -0.003479C5.91162 -0.003479 4.45948 0.810472 4.45948 3.10601C4.45948 3.84117 4.50884 6.23454 4.56599 9.00633C4.62054 11.6413 4.68375 14.6893 4.71146 16.7415C3.78753 16.9511 2.46788 17.4715 1.86434 18.1313C1.2608 18.7912 0.652057 20.9421 0.0831523 24.4993C-0.2788 26.7645 0.549882 29.4531 2.19598 31.3486C3.58664 32.9506 4.14342 35.5275 4.19971 37.4048C4.20266 37.5023 4.22591 37.598 4.26795 37.686C4.31 37.774 4.36992 37.8522 4.44389 37.9157C6.2346 39.4519 9.19689 39.9939 11.9947 39.9939C12.8951 39.994 13.7947 39.939 14.6885 39.8294C17.1711 39.5237 20.1819 38.6916 21.1889 37.2706C21.2932 37.1237 21.337 36.9423 21.311 36.7641C21.0512 34.9751 21.5708 33.6944 22.1769 32.2111L22.2583 32.0111C23.0151 30.1476 23.1485 26.6173 22.9511 24.1252ZM20.9595 31.4855L20.8798 31.6837C20.2866 33.1402 19.6744 34.6434 19.8866 36.6472C19.212 37.3027 17.3529 38.0906 14.5179 38.4396C10.804 38.8968 7.35336 38.347 5.58863 37.0351C5.44835 34.4131 4.58677 31.9626 3.25499 30.4299C1.89118 28.8591 1.1768 26.5645 1.46775 24.7209C2.09294 20.8174 2.66098 19.3375 2.8991 19.0778C3.23162 18.7141 4.08194 18.3677 4.72705 18.1833C4.72705 18.5418 4.72705 18.8154 4.72098 18.9626C4.70626 19.3575 4.61621 19.9428 4.52096 20.5611C4.26118 22.2462 3.93993 24.3443 4.54867 25.7479C4.58528 25.8323 4.63817 25.9087 4.70431 25.9727C4.77045 26.0367 4.84855 26.0871 4.93414 26.1209C5.01973 26.1547 5.11115 26.1713 5.20317 26.1698C5.29518 26.1683 5.386 26.1486 5.47043 26.112C5.55486 26.0754 5.63126 26.0225 5.69525 25.9564C5.75925 25.8902 5.80958 25.8122 5.84339 25.7266C5.87721 25.641 5.89383 25.5495 5.89231 25.4575C5.89079 25.3655 5.87117 25.2747 5.83455 25.1903C5.38774 24.1572 5.68734 22.202 5.90729 20.7741C6.0094 20.1926 6.08108 19.6061 6.12203 19.0172C6.15754 18.0967 6.05709 13.2511 5.96877 8.97777C5.91162 6.21291 5.86226 3.82645 5.86226 3.10601C5.86226 1.98811 6.30994 1.39843 7.15593 1.39843C7.72571 1.39843 8.60547 2.07644 8.60547 2.97612C8.60547 3.54849 8.68514 6.13756 8.77866 9.13535C8.89902 13.0025 9.03843 17.3858 9.03843 18.605C9.04482 18.7866 9.12146 18.9587 9.25222 19.0849C9.38298 19.2112 9.55763 19.2817 9.73939 19.2817C9.92114 19.2817 10.0958 19.2112 10.2266 19.0849C10.3573 18.9587 10.434 18.7866 10.4403 18.605C10.4403 17.843 10.3893 15.8912 10.3217 13.6026C10.5066 13.3667 10.755 13.1883 11.0376 13.0885C11.3203 12.9887 11.6255 12.9714 11.9176 13.0389C12.3298 13.1255 13.3351 13.9169 13.7724 19.3756C13.7863 19.5512 13.8659 19.7151 13.9952 19.8347C14.1246 19.9542 14.2942 20.0207 14.4703 20.0208H14.5266C14.7119 20.0058 14.8836 19.9178 15.0041 19.7762C15.1246 19.6346 15.1839 19.451 15.1691 19.2657C15.0262 17.4724 14.8175 16.035 14.5326 14.9075C14.6547 14.6686 15.2202 14.2451 15.7718 14.259C16.8498 14.3092 17.4837 16.0774 17.5114 19.1124C17.5134 19.2969 17.5882 19.473 17.7193 19.6027C17.8505 19.7324 18.0275 19.8052 18.2119 19.8052H18.218C18.4035 19.8029 18.5807 19.7271 18.7105 19.5945C18.8403 19.4619 18.9123 19.2833 18.9107 19.0977C18.9069 18.3819 18.8589 17.667 18.767 16.9572C19.0428 16.8436 19.3451 16.8106 19.6389 16.8619C19.9212 16.9052 20.4321 17.0559 20.6659 17.5823C21.1742 18.7253 21.3058 20.6615 21.4452 22.7111C21.479 23.2116 21.5136 23.7217 21.5543 24.2352C21.7717 26.9966 21.5154 30.1138 20.9569 31.4855H20.9595Z" fill="#328278"/>
</g>
<defs>
<clipPath id="clip0_647_1058">
<rect width="23.0333" height="40" fill="white"/>
</clipPath>
</defs>
</svg>
