<svg width="37" height="36" viewBox="0 0 37 36" fill="none" xmlns="http://www.w3.org/2000/svg">
<g clip-path="url(#clip0_263_1325)">
<path d="M31.1111 12.6219V5.97656C31.1111 5.39409 30.6389 4.92188 30.0564 4.92188H23.4111L18.7771 0.307336C18.3655 -0.102445 17.7002 -0.102445 17.2887 0.307336L12.6548 4.92188H6.00952C5.42705 4.92188 4.95483 5.39409 4.95483 5.97656V12.6219L0.340295 17.2558C-0.0694863 17.6674 -0.0694863 18.3327 0.340295 18.7443L4.95483 23.3781V30.0234C4.95483 30.6059 5.42705 31.0781 6.00952 31.0781H12.6548L17.2887 35.6927C17.4945 35.8976 17.7637 36 18.033 36C18.3022 36 18.5714 35.8976 18.7771 35.6927L23.4111 31.0781H30.0564C30.6389 31.0781 31.1111 30.6059 31.1111 30.0234V23.3781L35.7256 18.7443C36.1354 18.3327 36.1354 17.6674 35.7256 17.2558L31.1111 12.6219ZM29.309 22.1983C29.1122 22.396 29.0017 22.6635 29.0017 22.9425V28.9688H22.9755C22.6966 28.9688 22.429 29.0793 22.2313 29.2761L18.033 33.4569L13.8347 29.2761C13.637 29.0793 13.3694 28.9688 13.0905 28.9688H7.06421V22.9425C7.06421 22.6636 6.95368 22.396 6.75687 22.1984L2.57609 18L6.75687 13.8017C6.95368 13.604 7.06421 13.3365 7.06421 13.0575V7.03125H13.0904C13.3693 7.03125 13.637 6.92072 13.8346 6.72391L18.033 2.54313L22.2313 6.72391C22.429 6.92072 22.6966 7.03125 22.9755 7.03125H29.0017V13.0575C29.0017 13.3364 29.1122 13.604 29.309 13.8016L33.4898 18L29.309 22.1983Z" fill="#328278"/>
<path d="M27.4783 14.1158V9.31641C27.4783 8.89573 27.1372 8.55469 26.7166 8.55469H21.9172L18.5704 5.22196C18.2732 4.92601 17.7927 4.92601 17.4954 5.22196L14.1488 8.55469H9.34937C8.92869 8.55469 8.58765 8.89573 8.58765 9.31641V14.1158L5.25492 17.4625C4.95897 17.7598 4.95897 18.2403 5.25492 18.5375L8.58765 21.8842V26.6836C8.58765 27.1043 8.92869 27.4453 9.34937 27.4453H14.1488L17.4954 30.778C17.6441 30.926 17.8385 31 18.033 31C18.2274 31 18.4218 30.926 18.5704 30.778L21.9172 27.4453H26.7166C27.1372 27.4453 27.4783 27.1043 27.4783 26.6836V21.8842L30.811 18.5375C31.1069 18.2403 31.1069 17.7598 30.811 17.4625L27.4783 14.1158Z" fill="white"/>
</g>
<path d="M20.6357 19.654C20.6357 19.0287 20.4677 18.5293 20.1317 18.156C19.8051 17.7733 19.3384 17.582 18.7317 17.582C18.1251 17.582 17.6211 17.7547 17.2197 18.1C16.8277 18.436 16.6317 18.926 16.6317 19.57C16.6317 20.214 16.8137 20.7273 17.1777 21.11C17.5511 21.4833 18.0504 21.67 18.6757 21.67C19.3011 21.67 19.7817 21.488 20.1177 21.124C20.4631 20.76 20.6357 20.27 20.6357 19.654ZM18.6757 13.872C17.9384 13.872 17.3877 14.1567 17.0237 14.726C16.6597 15.286 16.4684 16.2193 16.4497 17.526C16.6924 17.1153 17.0471 16.798 17.5137 16.574C17.9804 16.35 18.4844 16.238 19.0257 16.238C19.9591 16.238 20.7151 16.5367 21.2937 17.134C21.8724 17.7313 22.1617 18.5433 22.1617 19.57C22.1617 20.5873 21.8677 21.4133 21.2797 22.048C20.6917 22.6827 19.8704 23 18.8157 23C17.3691 23 16.3751 22.5147 15.8337 21.544C15.5537 21.0587 15.3577 20.508 15.2457 19.892C15.1337 19.2667 15.0777 18.5247 15.0777 17.666C15.0777 14.25 16.2817 12.542 18.6897 12.542C19.6231 12.542 20.3557 12.794 20.8877 13.298C21.4291 13.802 21.7464 14.4227 21.8397 15.16H20.3697C20.1644 14.3013 19.5997 13.872 18.6757 13.872Z" fill="#328278"/>
<defs>
<clipPath id="clip0_263_1325">
<rect width="36" height="36" fill="white" transform="translate(0.032959)"/>
</clipPath>
</defs>
</svg>
