<svg width="303" height="20" viewBox="0 0 303 20" fill="none" xmlns="http://www.w3.org/2000/svg">
<rect x="3" y="8" width="300" height="4" rx="2" fill="#DEDEDE"/>
<rect x="16" y="8" width="48" height="4" rx="2" fill="#328278"/>
<path d="M17.2656 7.01215V3.32031C17.2656 2.99672 17.0033 2.73438 16.6797 2.73438H12.9879L10.4134 0.170742C10.1848 -0.0569141 9.81516 -0.0569141 9.58652 0.170742L7.01215 2.73438H3.32031C2.99672 2.73438 2.73438 2.99672 2.73438 3.32031V7.01215L0.170742 9.58656C-0.0569141 9.8152 -0.0569141 10.1848 0.170742 10.4135L2.73438 12.9879V16.6797C2.73438 17.0033 2.99672 17.2656 3.32031 17.2656H7.01215L9.58652 19.8293C9.70086 19.9431 9.85043 20 10 20C10.1496 20 10.2991 19.9431 10.4134 19.8293L12.9879 17.2656H16.6797C17.0033 17.2656 17.2656 17.0033 17.2656 16.6797V12.9879L19.8293 10.4135C20.0569 10.1848 20.0569 9.8152 19.8293 9.58656L17.2656 7.01215Z" fill="#328278"/>
<path d="M66.2656 7.01215V3.32031C66.2656 2.99672 66.0033 2.73438 65.6797 2.73438H61.9879L59.4134 0.170742C59.1848 -0.0569141 58.8152 -0.0569141 58.5865 0.170742L56.0121 2.73438H52.3203C51.9967 2.73438 51.7344 2.99672 51.7344 3.32031V7.01215L49.1707 9.58656C48.9431 9.8152 48.9431 10.1848 49.1707 10.4135L51.7344 12.9879V16.6797C51.7344 17.0033 51.9967 17.2656 52.3203 17.2656H56.0121L58.5865 19.8293C58.7009 19.9431 58.8504 20 59 20C59.1496 20 59.2991 19.9431 59.4134 19.8293L61.9879 17.2656H65.6797C66.0033 17.2656 66.2656 17.0033 66.2656 16.6797V12.9879L68.8293 10.4135C69.0569 10.1848 69.0569 9.8152 68.8293 9.58656L66.2656 7.01215Z" fill="#328278"/>
</svg>
