<svg width="30" height="30" viewBox="0 0 30 30" fill="none" xmlns="http://www.w3.org/2000/svg">
<path d="M21.25 17.5L23.75 15M23.75 15L26.25 12.5M23.75 15L21.25 12.5M23.75 15L26.25 17.5" stroke="#032E12" stroke-width="1.5" stroke-linecap="round" stroke-linejoin="round"/>
<path d="M3.75 17.5V12.5C3.75 12.1685 3.8817 11.8506 4.11612 11.6161C4.35054 11.3817 4.66848 11.25 5 11.25H8.37125C8.61817 11.2501 8.85957 11.177 9.065 11.04L14.3062 7.54503C14.4947 7.41931 14.7137 7.34716 14.94 7.33628C15.1662 7.3254 15.3912 7.37621 15.5908 7.48327C15.7904 7.59034 15.9572 7.74963 16.0733 7.94412C16.1894 8.13862 16.2505 8.36101 16.25 8.58753V21.4125C16.25 21.6388 16.1886 21.8609 16.0723 22.055C15.9561 22.2492 15.7892 22.4081 15.5897 22.5149C15.3902 22.6216 15.1654 22.6722 14.9394 22.6612C14.7133 22.6503 14.4945 22.5781 14.3062 22.4525L9.065 18.9588C8.85943 18.8222 8.61804 18.7496 8.37125 18.75H5C4.66848 18.75 4.35054 18.6183 4.11612 18.3839C3.8817 18.1495 3.75 17.8315 3.75 17.5Z" stroke="#032E12" stroke-width="1.5"/>
</svg>
