<svg width="30" height="30" viewBox="0 0 30 30" fill="none" xmlns="http://www.w3.org/2000/svg">
<path d="M2.5 17.5V12.5C2.5 12.1685 2.6317 11.8506 2.86612 11.6161C3.10054 11.3817 3.41848 11.25 3.75 11.25H7.12125C7.36817 11.2501 7.60957 11.177 7.815 11.04L13.0562 7.54503C13.2447 7.41931 13.4637 7.34716 13.69 7.33628C13.9162 7.3254 14.1412 7.37621 14.3408 7.48327C14.5404 7.59034 14.7072 7.74963 14.8233 7.94412C14.9394 8.13862 15.0005 8.36101 15 8.58753V21.4125C15 21.6388 14.9386 21.8609 14.8223 22.055C14.7061 22.2492 14.5392 22.4081 14.3397 22.5149C14.1402 22.6216 13.9154 22.6722 13.6894 22.6612C13.4633 22.6503 13.2445 22.5781 13.0562 22.4525L7.815 18.9588C7.60943 18.8222 7.36804 18.7496 7.12125 18.75H3.75C3.41848 18.75 3.10054 18.6183 2.86612 18.3839C2.6317 18.1495 2.5 17.8315 2.5 17.5Z" stroke="#032E12" stroke-width="1.5"/>
<path d="M20.625 9.375C20.625 9.375 22.5 11.25 22.5 14.375C22.5 17.5 20.625 19.375 20.625 19.375M24.375 5.625C24.375 5.625 27.5 8.75 27.5 14.375C27.5 20 24.375 23.125 24.375 23.125" stroke="#032E12" stroke-width="1.5" stroke-linecap="round" stroke-linejoin="round"/>
</svg>
