<svg width="21" height="20" viewBox="0 0 21 20" fill="none" xmlns="http://www.w3.org/2000/svg">
<path d="M20.6738 7.52757C20.5841 7.25104 20.415 7.00701 20.1876 6.82589C19.9602 6.64476 19.6845 6.53453 19.3949 6.50893L13.8952 6.03479L11.7394 0.908257C11.6271 0.639258 11.4378 0.409482 11.1953 0.247861C10.9527 0.08624 10.6677 0 10.3763 0C10.0848 0 9.79982 0.08624 9.55726 0.247861C9.3147 0.409482 9.12538 0.639258 9.01313 0.908257L6.8638 6.03479L1.35759 6.5117C1.06685 6.53614 0.78979 6.64586 0.56116 6.82713C0.33253 7.00839 0.162507 7.25312 0.0724107 7.53063C-0.0176855 7.80814 -0.0238437 8.10607 0.0547085 8.38706C0.133261 8.66806 0.293027 8.91961 0.513971 9.11016L4.69132 12.7606L3.43932 18.1816C3.37312 18.4653 3.39201 18.7622 3.49363 19.0352C3.59525 19.3082 3.7751 19.5452 4.01068 19.7166C4.24626 19.8879 4.52713 19.986 4.81816 19.9986C5.1092 20.0112 5.39749 19.9377 5.64699 19.7874L10.3698 16.9166L15.1027 19.7874C15.3523 19.9377 15.6405 20.0112 15.9316 19.9986C16.2226 19.986 16.5035 19.8879 16.7391 19.7166C16.9746 19.5452 17.1545 19.3082 17.2561 19.0352C17.3577 18.7622 17.3766 18.4653 17.3104 18.1816L16.0593 12.755L20.2358 9.11016C20.4567 8.91895 20.6161 8.66668 20.6941 8.38509C20.772 8.1035 20.765 7.80516 20.6738 7.52757ZM19.2644 7.99058L15.0879 11.6355C14.8847 11.8123 14.7335 12.0412 14.6506 12.2975C14.5677 12.5538 14.5562 12.8279 14.6175 13.0903L15.8723 18.5205L11.143 15.6498C10.9123 15.5093 10.6473 15.435 10.3772 15.435C10.107 15.435 9.84209 15.5093 9.61135 15.6498L4.88857 18.5205L6.13501 13.094C6.19627 12.8316 6.18484 12.5575 6.10195 12.3012C6.01906 12.0449 5.86785 11.816 5.66459 11.6392L1.48631 7.99614C1.48597 7.99337 1.48597 7.99057 1.48631 7.98781L6.99067 7.51182C7.25941 7.48814 7.51658 7.39153 7.73444 7.23241C7.9523 7.0733 8.12259 6.85772 8.22693 6.60894L10.3763 1.48888L12.5247 6.60894C12.629 6.85772 12.7993 7.0733 13.0172 7.23241C13.235 7.39153 13.4922 7.48814 13.7609 7.51182L19.2662 7.98781V7.99429L19.2644 7.99058Z" fill="#328278"/>
</svg>
