<svg width="51" height="40" viewBox="0 0 51 40" fill="none" xmlns="http://www.w3.org/2000/svg">
<g clip-path="url(#clip0_661_1291)">
<path d="M10.0245 0H12.0293C12.1608 0.0886075 12.2996 0.165827 12.4443 0.230817C14.2187 0.86531 15.1682 2.16017 15.5178 3.96843C15.7513 5.17841 15.3466 6.25385 14.7832 7.43796L19.9247 7.14503C24.093 2.72325 28.4096 1.30728 32.8632 3.27493C38.674 5.83775 40.5418 10.5204 39.3786 16.6459H40.6165C43.4856 16.6459 46.3558 16.6314 49.229 16.6624C49.6628 16.6624 50.0955 16.886 50.5282 17.0061V40H-0.000244141V34.6125L2.02632 34.2771C2.85644 30.2011 3.7021 26.067 4.54571 21.933C3.53607 20.8979 3.08161 19.7024 3.42922 18.3372C4.07879 15.7899 4.79683 13.2654 5.4879 10.7232C5.7359 9.81239 6.30248 9.13443 7.06308 8.60137C7.2924 8.44093 7.52169 8.27843 7.75827 8.11075C5.72655 5.97335 6.16549 3.45297 7.12428 1.99663C7.82573 0.933624 8.87067 0.398499 10.0245 0ZM33.0023 20.9538C33.0023 19.8411 32.9971 18.8506 33.0023 17.861C33.0106 16.6521 33.1153 16.5455 34.32 16.5393C35.4812 16.532 36.6413 16.5393 37.7443 16.5393C39.6857 12.5698 37.7931 7.63772 33.1382 4.86686C29.8582 2.91163 24.6948 3.6724 21.971 6.94216C22.1785 7.05291 22.386 7.14917 22.579 7.26613C23.4455 7.764 24.0618 8.8974 23.874 9.78755C23.6665 10.776 22.9682 11.3039 22.0063 11.4964C21.6472 11.5689 21.2799 11.5999 20.9199 11.6714C20.4706 11.7531 20.0233 11.8484 19.6176 11.9291C18.526 17.3539 23.1643 22.199 26.9092 22.4609C27.2329 20.9673 27.2329 20.9631 28.8962 20.9569C30.2161 20.9486 31.5423 20.9538 33.0023 20.9538ZM1.24494 38.7289H49.3089V35.6848H1.24494V38.7289ZM11.5042 34.2937H49.2052V31.292H11.5042V34.2937ZM21.9845 29.934C22.2958 28.4653 21.8226 27.0151 22.3331 25.5215H27.1426C27.1644 25.1541 27.1872 24.9243 27.1883 24.6935C27.1883 24.4968 27.1624 24.3002 27.1437 24.0424C24.3254 23.4597 21.9751 22.1193 20.2371 19.7987C18.499 17.4781 17.9117 14.8563 18.112 11.9394L12.6518 12.7157L10.6585 17.15C10.9968 17.2535 11.2448 17.3476 11.499 17.416C13.3969 17.9335 15.2989 18.4303 17.1947 18.9541C19.1952 19.5078 19.9559 20.7603 19.5491 22.7838C19.1341 24.8394 18.719 26.894 18.3122 28.9507C18.252 29.2612 18.2417 29.5717 18.2023 29.9288L21.9845 29.934ZM49.2747 26.8019H23.348V29.8802H49.2768L49.2747 26.8019ZM28.505 25.3849H49.2124V22.405H28.505V25.3849ZM49.228 21.0376V17.9118H34.3792V21.0376H49.228ZM10.8941 7.57148C11.2609 7.55491 11.6284 7.55698 11.995 7.57769C12.7141 7.65221 13.1945 7.29615 13.6148 6.78069C14.6078 5.56449 14.5923 3.71173 13.5681 2.43343C12.6124 1.2431 10.8173 0.880838 9.38431 1.59089C7.98037 2.28645 7.25294 3.97154 7.66281 5.58313C8.04882 7.10467 8.92357 7.65325 10.8941 7.57148ZM7.39408 34.3279H10.2663V30.0096H13.0347C13.3388 27.9125 13.6262 25.9356 13.9271 23.8696H10.2455C9.29298 27.3619 8.35079 30.818 7.39408 34.3279Z" fill="#328278"/>
<path d="M33.0024 20.9538C31.5424 20.9538 30.2163 20.9486 28.8902 20.9538C27.2299 20.96 27.2299 20.9641 26.903 22.4577C23.1581 22.1959 18.5198 17.3507 19.6114 11.926C20.0172 11.8452 20.4644 11.75 20.9137 11.6682C21.2748 11.602 21.6401 11.5647 22.0001 11.4933C22.9651 11.3008 23.6604 10.7688 23.8679 9.78443C24.0557 8.89428 23.4393 7.76089 22.5729 7.26302C22.3768 7.1502 22.1734 7.0498 21.9649 6.93905C24.6887 3.66928 29.851 2.90851 33.1321 4.86375C37.787 7.63875 39.6797 12.5667 37.7382 16.5361C36.6393 16.5361 35.4792 16.5361 34.314 16.5361C33.1093 16.5424 33.0044 16.649 32.9961 17.8579C32.9972 18.8505 33.0024 19.8411 33.0024 20.9538Z" fill="#FFD966"/>
<path d="M1.24512 38.7289V35.6848H49.3091V38.7289H1.24512Z" fill="#8CC8C4"/>
<path d="M11.5044 34.2937V31.292H49.2054V34.2937H11.5044Z" fill="#8CC8C4"/>
<path d="M49.2769 26.8019V29.8802H23.3481V26.8019H49.2769Z" fill="#8CC8C4"/>
<path d="M28.5054 25.3849V22.405H49.2127V25.3849H28.5054Z" fill="#8CC8C4"/>
<path d="M49.2282 21.0376H34.3794V17.9117H49.2282V21.0376Z" fill="#8CC8C4"/>
<path d="M10.8942 7.98548C8.92268 8.06725 8.04896 7.10464 7.66296 5.58517C7.25309 3.97461 7.98051 2.28849 9.38445 1.59293C10.8174 0.882878 12.6126 1.24515 13.5682 2.43547C14.5924 3.71171 14.6059 5.56447 13.6149 6.78274C13.1947 7.30027 12.7142 7.96478 11.9951 7.89026C11.632 7.85092 11.2615 7.98548 10.8942 7.98548Z" fill="#FFD966"/>
<path d="M21.5457 7.54562L11.3705 8.41714L10.0796 8.52687L9.82127 8.54963C9.66145 8.55563 9.50244 8.57537 9.34602 8.60863C8.9964 8.71083 8.69768 8.93973 8.5086 9.25037C8.39446 9.41909 8.28762 9.59505 8.18282 9.76791C7.75168 10.5031 7.37403 11.2683 7.0528 12.0575C6.48804 13.4418 6.12195 14.8987 5.96535 16.3851C5.79507 17.8594 5.88038 19.352 6.21751 20.7975L6.35862 21.1319C6.44359 21.2908 6.56789 21.4255 6.71972 21.5231C6.95906 21.7186 7.25922 21.8247 7.56854 21.8233C9.62256 21.7251 11.6813 21.8117 13.7197 22.082L13.3472 22.0324C13.6419 22.0717 13.9362 22.1148 14.2302 22.1617C14.4805 22.1938 14.7263 22.2542 14.9628 22.3418L14.6277 22.2011C14.7162 22.2392 14.7998 22.2878 14.8767 22.346L14.5934 22.1276C14.8175 22.3118 15.0489 22.4857 15.2783 22.6627L14.995 22.4443C15.2564 22.6296 15.4937 22.8466 15.7016 23.0902L15.4826 22.8076C15.5345 22.875 15.5781 22.9483 15.6124 23.026L15.4712 22.6917C15.4856 22.7303 15.4964 22.7702 15.5034 22.8107L15.4536 22.4391C15.532 23.3196 15.5059 24.2063 15.3758 25.0806L15.4256 24.709C15.3415 25.3363 15.2181 25.9573 15.1215 26.5825C14.9813 27.4163 14.8895 28.2575 14.8466 29.1018C14.8466 29.4724 14.9942 29.8279 15.2569 30.0899C15.5196 30.352 15.8759 30.4992 16.2474 30.4992C16.6095 30.4826 16.9862 30.3646 17.2384 30.0903C17.4919 29.8221 17.6378 29.4703 17.6482 29.1018C17.6711 28.576 17.7188 28.0512 17.7883 27.5296L17.7375 27.9012C17.8734 26.9013 18.0758 25.9128 18.1992 24.9119C18.2585 24.4383 18.2904 23.9618 18.2947 23.4846C18.2947 23.2175 18.2885 22.9494 18.2719 22.6824C18.247 22.258 18.1982 21.8647 17.9699 21.4941C17.613 20.9166 17.0651 20.5367 16.538 20.131L16.8213 20.3493C16.5857 20.1672 16.3678 19.9446 16.0949 19.8132C15.7858 19.6601 15.4557 19.5533 15.1154 19.4965C14.4316 19.3826 13.7446 19.2894 13.0566 19.2118C11.8921 19.0792 10.7214 19.007 9.5494 18.9955C8.88599 18.9893 8.22363 19.002 7.56231 19.0338L8.91125 20.0595C8.83446 19.7331 8.77324 19.404 8.72758 19.0721L8.77739 19.4437C8.63521 18.3369 8.64043 17.2162 8.79294 16.1108L8.74314 16.4824C8.91863 15.2041 9.26191 13.9544 9.76417 12.7654L9.622 13.0987C9.98136 12.2506 10.4154 11.4359 10.9191 10.6643L9.71021 11.3557L18.9547 10.5649L21.5373 10.3434C21.9151 10.3113 22.2523 10.2088 22.5283 9.92937C22.7907 9.6672 22.9381 9.31187 22.9381 8.9414C22.9381 8.57094 22.7907 8.21561 22.5283 7.95344C22.2679 7.71537 21.9057 7.51354 21.5373 7.53941L21.5457 7.54562Z" fill="#8CC8C4"/>
<path d="M6.35883 20.4498C6.28308 21.3875 6.1866 22.3243 6.06208 23.2568L6.11188 22.8853C5.75983 25.4909 5.14694 28.0548 4.28247 30.5385C4.01787 31.3014 3.73358 32.058 3.43578 32.8084C3.31022 33.1189 3.4119 33.6044 3.57689 33.8849C3.76366 34.1978 4.06319 34.4277 4.41425 34.5276C4.77224 34.6084 5.17489 34.5908 5.49345 34.3869L5.77672 34.1685C5.94915 33.9965 6.07328 33.7823 6.13676 33.5474C6.78476 31.94 7.34282 30.2979 7.8084 28.6288C8.24137 27.0347 8.56996 25.4142 8.79209 23.7775C8.94566 22.6734 9.06848 21.5628 9.16049 20.4456C9.18851 20.1061 8.98407 19.6911 8.7506 19.4571C8.4862 19.1974 8.13073 19.0507 7.75966 19.0483C7.39752 19.0648 7.02189 19.1828 6.76974 19.4571L6.54974 19.7407C6.42427 19.9545 6.35837 20.1979 6.35883 20.4456V20.4498Z" fill="#8CC8C4"/>
</g>
<defs>
<clipPath id="clip0_661_1291">
<rect width="50.5263" height="40" fill="white"/>
</clipPath>
</defs>
</svg>
