<svg width="238" height="328" viewBox="0 0 238 328" fill="none" xmlns="http://www.w3.org/2000/svg">
<path d="M21.6963 252.478V25.6796C21.6963 11.548 31.7794 0.0151367 44.2539 0.0151367H194.367C206.788 0.0151367 216.924 11.4871 216.924 25.6796V252.478C216.924 266.61 206.841 278.142 194.367 278.142H44.2539C31.7794 278.082 21.6963 266.61 21.6963 252.478Z" fill="#FFE7A0"/>
<path d="M21.5972 252.463V25.6644C21.5972 11.5328 31.6802 0 44.1548 0H194.268C206.689 0 216.825 11.472 216.825 25.6644V252.463C216.825 266.594 206.742 278.127 194.268 278.127H44.1548C31.6802 278.066 21.5972 266.594 21.5972 252.463Z" fill="#FFE7A0"/>
<path d="M158.753 326.679L152.921 305.805C152.921 305.805 144.13 303.373 136.591 285.144C129.051 266.91 116.098 227.396 124.105 222.799C131.842 218.355 136.142 229.268 137.823 234.009C139.507 238.746 145.659 253.817 145.659 253.817C145.659 253.817 137.834 216.114 136.515 208.337C135.051 199.719 137.545 195.415 141.514 194.635C146.218 193.737 149.031 198.908 150.328 203.269C151.628 207.629 161.684 243.837 161.684 243.837C161.684 243.837 155.031 202.371 154.016 192.227C152.997 182.083 158.186 179.64 160.509 179.396C162.833 179.157 167.049 180.134 169.03 186.451C170.813 192.082 178.706 236.634 178.706 236.634C178.706 236.634 176.147 199.258 176.543 191.519C176.934 183.783 182.976 181.257 187.413 183.958C192.298 186.926 193.549 199.426 194.72 206.465C195.891 213.504 201.644 243.304 202.245 246.432C202.845 249.56 204.944 253.559 208.564 251.047C212.187 248.54 220.479 238.495 229.867 237.091C239.262 235.656 238.208 243.396 237.573 244.864C235.779 249.042 220.27 278.066 218.468 282.606C216.666 287.145 214.495 291.703 215.715 297.567C216.936 303.426 218.552 309.739 218.552 309.739L158.753 326.679Z" fill="#328278"/>
<path d="M158.753 326.679L218.551 309.739C218.551 309.739 204.723 302.608 185.379 308.925C164.562 315.735 158.753 326.679 158.753 326.679Z" fill="#2C5B57"/>
<path opacity="0.2" d="M158.753 326.679L218.551 309.739C218.551 309.739 204.723 302.608 185.379 308.925C164.562 315.735 158.753 326.679 158.753 326.679Z" fill="#070707"/>
<path d="M236.988 238.993C234.277 242.003 228.038 249.807 233.095 253.882C235.327 249.571 237.068 246.139 237.596 244.906C237.958 244.02 238.467 241.052 236.988 238.993Z" fill="#2C5B57"/>
<path opacity="0.2" d="M137.823 234.009L139.351 257.025L145.659 253.817C145.659 253.817 139.507 238.746 137.823 234.009Z" fill="black"/>
<path opacity="0.2" d="M155.498 246.284L161.684 243.837C161.684 243.837 154.799 219.101 151.7 208.048C152.118 213.603 155.498 246.284 155.498 246.284Z" fill="black"/>
<path opacity="0.2" d="M171.592 239.769L178.706 236.634C178.706 236.634 173.703 208.447 170.76 194.057C170.691 203.843 171.592 239.769 171.592 239.769Z" fill="black"/>
<path d="M139.229 257.653C149.727 249.685 162.567 241.843 181.067 236.269" stroke="black" stroke-width="4" stroke-linecap="round"/>
<path d="M79.6586 327.135L85.4149 306.238C85.4149 306.238 94.1939 303.776 101.669 285.516C109.14 267.256 121.953 227.696 113.927 223.13C106.174 218.713 101.916 229.644 100.251 234.389C98.5853 239.134 92.4868 254.228 92.4868 254.228C92.4868 254.228 100.175 216.494 101.463 208.713C102.897 200.087 100.387 195.795 96.4143 195.027C91.7074 194.148 88.9128 199.33 87.6315 203.695C86.3502 208.059 76.4269 244.301 76.4269 244.301C76.4269 244.301 82.9284 202.812 83.9055 192.668C84.8864 182.52 79.6852 180.096 77.3622 179.86C75.0391 179.628 70.8264 180.621 68.8722 186.945C67.108 192.584 59.3746 237.163 59.3746 237.163C59.3746 237.163 61.8003 199.779 61.3783 192.04C60.9563 184.305 54.9034 181.805 50.4778 184.521C45.6036 187.504 44.3983 200.008 43.2539 207.051C42.1095 214.097 36.4634 243.917 35.8741 247.048C35.2848 250.176 33.2012 254.183 29.5703 251.687C25.9393 249.19 17.6128 239.176 8.21793 237.806C-1.18456 236.406 -0.0971794 244.141 0.537764 245.61C2.34754 249.78 17.9626 278.747 19.78 283.279C21.5974 287.811 23.7874 292.365 22.5897 298.229C21.3921 304.096 19.799 310.412 19.799 310.412L79.6586 327.135Z" fill="#328278"/>
<path d="M79.6587 327.135L19.7991 310.412C19.7991 310.412 33.5967 303.229 52.9682 309.476C73.8073 316.215 79.6587 327.135 79.6587 327.135Z" fill="#2C5B57"/>
<path opacity="0.2" d="M79.6587 327.135L19.7991 310.412C19.7991 310.412 33.5967 303.229 52.9682 309.476C73.8073 316.215 79.6587 327.135 79.6587 327.135Z" fill="#070707"/>
<path d="M1.10443 239.735C3.8229 242.737 10.0925 250.515 5.05096 254.609C2.80395 250.305 1.05119 246.881 0.518905 245.648C0.153908 244.762 -0.366971 241.801 1.10443 239.735Z" fill="#2C5B57"/>
<path opacity="0.2" d="M100.251 234.389L98.8061 257.413L92.4871 254.228C92.4871 254.228 98.5856 239.134 100.251 234.389Z" fill="black"/>
<path opacity="0.2" d="M82.6203 246.729L76.4268 244.301C76.4268 244.301 83.2172 219.546 86.2779 208.477C85.8825 214.037 82.6203 246.729 82.6203 246.729Z" fill="black"/>
<path opacity="0.2" d="M66.5036 240.272L59.3748 237.163C59.3748 237.163 64.2756 208.957 67.169 194.555C67.2754 204.345 66.5036 240.272 66.5036 240.272Z" fill="black"/>
<path d="M98.9276 258.037C88.4035 250.107 75.5335 242.315 57.0137 236.805" stroke="black" stroke-width="4" stroke-linecap="round"/>
<path d="M119.31 124.46C140.7 124.46 158.045 107.11 158.045 85.6953C158.045 64.2924 140.7 46.9342 119.31 46.9342C97.9159 46.9342 80.5747 64.2924 80.5747 85.6953C80.5747 107.11 97.9159 124.46 119.31 124.46Z" fill="white"/>
<path d="M138.507 89.0703C132.279 95.3028 122.165 95.3028 115.881 89.0703C109.6 82.8377 109.657 72.7204 115.881 66.4308C116.227 66.0883 116.227 65.5138 115.881 65.1142C115.652 64.8859 115.367 64.7718 115.082 64.8289C103.429 66.9444 95.6574 78.15 97.7713 89.8122C99.8853 101.478 111.082 109.252 122.739 107.136C131.594 105.534 138.507 98.6169 140.046 89.7552C140.103 89.2415 139.818 88.7849 139.305 88.7278C139.077 88.7278 138.735 88.842 138.507 89.0703Z" fill="#8CC8C3"/>
<path d="M167.334 64.4674L180.637 43.0531" stroke="#2C5B57" stroke-width="4" stroke-linecap="round" stroke-linejoin="round"/>
<path d="M167.988 98.3125L201.929 80.6803" stroke="#2C5B57" stroke-width="4" stroke-linecap="round" stroke-linejoin="round"/>
<path d="M180.269 119.529L200.169 121.116" stroke="#2C5B57" stroke-width="4" stroke-linecap="round" stroke-linejoin="round"/>
<path d="M72.2902 62.7171L58.04 41.923" stroke="#2C5B57" stroke-width="4" stroke-linecap="round" stroke-linejoin="round"/>
<path d="M73.1568 96.5583L38.4592 80.4672" stroke="#2C5B57" stroke-width="4" stroke-linecap="round" stroke-linejoin="round"/>
<path d="M61.8421 118.304L42.0295 120.781" stroke="#2C5B57" stroke-width="4" stroke-linecap="round" stroke-linejoin="round"/>
</svg>
