<svg width="36" height="36" viewBox="0 0 36 36" fill="none" xmlns="http://www.w3.org/2000/svg">
<g clip-path="url(#clip0_107_384)">
<path d="M31.0781 12.6219V5.97656C31.0781 5.39409 30.6059 4.92188 30.0234 4.92188H23.3781L18.7442 0.307336C18.3326 -0.102445 17.6673 -0.102445 17.2557 0.307336L12.6219 4.92188H5.97656C5.39409 4.92188 4.92188 5.39409 4.92188 5.97656V12.6219L0.307336 17.2558C-0.102445 17.6674 -0.102445 18.3327 0.307336 18.7443L4.92188 23.3781V30.0234C4.92188 30.6059 5.39409 31.0781 5.97656 31.0781H12.6219L17.2557 35.6927C17.4615 35.8976 17.7308 36 18 36C18.2692 36 18.5385 35.8976 18.7442 35.6927L23.3781 31.0781H30.0234C30.6059 31.0781 31.0781 30.6059 31.0781 30.0234V23.3781L35.6927 18.7443C36.1024 18.3327 36.1024 17.6674 35.6927 17.2558L31.0781 12.6219ZM29.2761 22.1983C29.0793 22.396 28.9688 22.6635 28.9688 22.9425V28.9688H22.9425C22.6636 28.9688 22.396 29.0793 22.1984 29.2761L18 33.4569L13.8017 29.2761C13.604 29.0793 13.3365 28.9688 13.0575 28.9688H7.03125V22.9425C7.03125 22.6636 6.92072 22.396 6.72391 22.1984L2.54313 18L6.72391 13.8017C6.92072 13.604 7.03125 13.3365 7.03125 13.0575V7.03125H13.0575C13.3364 7.03125 13.604 6.92072 13.8016 6.72391L18 2.54313L22.1984 6.72391C22.3961 6.92072 22.6636 7.03125 22.9425 7.03125H28.9688V13.0575C28.9688 13.3364 29.0793 13.604 29.2761 13.8016L33.4569 18L29.2761 22.1983Z" fill="#258D68"/>
<path d="M27.4453 14.1158V9.31641C27.4453 8.89573 27.1043 8.55469 26.6836 8.55469H21.8842L18.5375 5.22196C18.2402 4.92601 17.7597 4.92601 17.4625 5.22196L14.1158 8.55469H9.31641C8.89573 8.55469 8.55469 8.89573 8.55469 9.31641V14.1158L5.22196 17.4625C4.92601 17.7598 4.92601 18.2403 5.22196 18.5375L8.55469 21.8842V26.6836C8.55469 27.1043 8.89573 27.4453 9.31641 27.4453H14.1158L17.4625 30.778C17.6111 30.926 17.8056 31 18 31C18.1944 31 18.3889 30.926 18.5375 30.778L21.8842 27.4453H26.6836C27.1043 27.4453 27.4453 27.1043 27.4453 26.6836V21.8842L30.778 18.5375C31.074 18.2403 31.074 17.7598 30.778 17.4625L27.4453 14.1158Z" fill="white"/>
</g>
<path d="M15.1558 15.314C15.2118 14.446 15.5431 13.7693 16.1498 13.284C16.7658 12.7987 17.5544 12.556 18.5158 12.556C19.4864 12.556 20.2471 12.808 20.7978 13.312C21.3578 13.8067 21.6378 14.4413 21.6378 15.216C21.6378 15.7947 21.4838 16.2893 21.1758 16.7C20.8678 17.1107 20.4991 17.386 20.0698 17.526V17.582C20.6204 17.75 21.0498 18.058 21.3578 18.506C21.6658 18.9447 21.8198 19.5467 21.8198 20.312C21.8198 21.0773 21.5304 21.726 20.9518 22.258C20.3824 22.79 19.5844 23.056 18.5578 23.056C17.5404 23.056 16.7051 22.7993 16.0518 22.286C15.4078 21.7633 15.0624 21.0167 15.0158 20.046H16.5558C16.5931 20.5407 16.7844 20.9467 17.1298 21.264C17.4751 21.572 17.9371 21.726 18.5158 21.726C19.0944 21.726 19.5378 21.572 19.8458 21.264C20.1538 20.9467 20.3078 20.5407 20.3078 20.046C20.3078 19.3927 20.0978 18.9307 19.6778 18.66C19.2671 18.38 18.6324 18.24 17.7738 18.24H17.4098V16.924H17.7878C19.3371 16.9053 20.1118 16.3967 20.1118 15.398C20.1118 14.95 19.9671 14.5953 19.6778 14.334C19.3884 14.0633 18.9778 13.928 18.4458 13.928C17.9231 13.928 17.5171 14.0633 17.2278 14.334C16.9384 14.5953 16.7658 14.922 16.7098 15.314H15.1558Z" fill="#258D68"/>
<defs>
<clipPath id="clip0_107_384">
<rect width="36" height="36" fill="white"/>
</clipPath>
</defs>
</svg>
