<svg width="26" height="26" viewBox="0 0 26 26" fill="none" xmlns="http://www.w3.org/2000/svg">
<path d="M23.3594 13C23.3594 11.2766 22.9295 9.58045 22.1086 8.06514C21.2877 6.54983 20.1017 5.26326 18.6581 4.32198C17.2145 3.3807 15.5588 2.81445 13.8411 2.67452C12.1234 2.5346 10.3979 2.82542 8.821 3.52064C7.24406 4.21586 5.86548 5.29351 4.81014 6.65598C3.7548 8.01845 3.05604 9.62268 2.77716 11.3234C2.49828 13.024 2.6481 14.7674 3.21304 16.3956C3.77797 18.0237 4.74018 19.4852 6.0125 20.6477L6.13438 20.7492C8.02654 22.4297 10.4693 23.3579 13 23.3579C15.5307 23.3579 17.9735 22.4297 19.8656 20.7492L19.9875 20.6477C21.0509 19.6778 21.9 18.4967 22.4807 17.1798C23.0613 15.8629 23.3606 14.4392 23.3594 13ZM3.85938 13C3.85734 11.5078 4.22067 10.0377 4.91764 8.71826C5.61461 7.39878 6.62402 6.27001 7.85773 5.43052C9.09143 4.59103 10.5119 4.06635 11.9951 3.90229C13.4783 3.73824 14.9791 3.93981 16.3664 4.4894C17.7538 5.03898 18.9855 5.91987 19.954 7.05513C20.9225 8.1904 21.5983 9.54551 21.9224 11.0021C22.2465 12.4587 22.2091 13.9725 21.8134 15.4114C21.4177 16.8502 20.6757 18.1702 19.6523 19.2563C18.6925 17.7715 17.2619 16.652 15.5898 16.0774C16.4245 15.5214 17.0581 14.7117 17.397 13.7678C17.7359 12.8239 17.7621 11.796 17.4717 10.8361C17.1813 9.87624 16.5897 9.03527 15.7844 8.43756C14.9791 7.83986 14.0029 7.51715 13 7.51715C11.9971 7.51715 11.0209 7.83986 10.2156 8.43756C9.4103 9.03527 8.81871 9.87624 8.5283 10.8361C8.23789 11.796 8.26407 12.8239 8.60296 13.7678C8.94186 14.7117 9.57548 15.5214 10.4102 16.0774C8.73812 16.652 7.30748 17.7715 6.34766 19.2563C4.74799 17.5662 3.85741 15.3271 3.85938 13ZM9.54688 12.1875C9.54688 11.5046 9.7494 10.8369 10.1288 10.2691C10.5083 9.7012 11.0476 9.2586 11.6785 8.99724C12.3095 8.73588 13.0038 8.6675 13.6737 8.80074C14.3435 8.93398 14.9588 9.26286 15.4417 9.74579C15.9247 10.2287 16.2535 10.844 16.3868 11.5138C16.52 12.1837 16.4516 12.878 16.1903 13.509C15.9289 14.1399 15.4863 14.6792 14.9185 15.0587C14.3506 15.4381 13.683 15.6406 13 15.6406C12.085 15.638 11.2082 15.2733 10.5612 14.6263C9.91423 13.9793 9.54956 13.1025 9.54688 12.1875ZM7.25156 20.1094C7.84897 19.119 8.69211 18.2998 9.69926 17.7311C10.7064 17.1624 11.8434 16.8636 13 16.8636C14.1566 16.8636 15.2936 17.1624 16.3007 17.7311C17.3079 18.2998 18.151 19.119 18.7484 20.1094C17.1208 21.4235 15.092 22.1403 13 22.1403C10.908 22.1403 8.87923 21.4235 7.25156 20.1094Z" fill="#328278"/>
</svg>
