<svg width="43" height="40" viewBox="0 0 43 40" fill="none" xmlns="http://www.w3.org/2000/svg">
<g clip-path="url(#clip0_647_1072)">
<path d="M11.6454 18.9584C7.06497 19.7385 9.23243 11.8225 10.9061 8.98395C12.96 5.49844 16.4027 3.03442 19.3634 2.25166C22.8446 1.33221 28.91 2.61616 32.4149 2.25166C32.4149 2.25166 35.919 6.09893 35.438 8.08362C34.9571 10.0683 33.1753 12.997 33.1753 12.997C32.5614 13.083 31.9617 13.2494 31.3917 13.4919C28.5518 16.016 24.8792 16.4817 23.3081 16.6019C23.3081 16.6019 16.8735 15.3262 15.9034 15.9385C14.9332 16.5509 11.6454 18.9584 11.6454 18.9584Z" fill="#8CC8C4"/>
<path d="M20.6688 9.28467C18.7963 13.4317 22.4826 21.3632 20.0046 25.4511H10.906C13.3794 21.3632 9.69677 13.4317 11.5702 9.28467H20.6688Z" fill="#FFD966"/>
<path d="M23.3042 16.6011C21.7322 16.7214 17.6721 19.261 16.8256 17.0366C15.6192 13.8628 20.2381 13.3334 21.7808 11.1482L23.3042 16.6011Z" fill="#8CC8C4"/>
<path d="M41.8405 15.7035C40.4582 15.86 39.0682 15.9388 37.6769 15.9395C36.8992 15.934 36.1461 15.8985 35.4444 15.8274H35.438C34.4899 15.7271 33.6333 15.554 32.9563 15.2961C33.9842 11.2083 32.4167 2.2544 32.4167 2.2544C32.4167 2.2544 34.707 1.90631 37.327 1.43975C38.5564 1.22743 39.8499 0.98413 41.0133 0.737183C41.2826 1.31367 41.5071 1.90983 41.6848 2.52047C43.3768 8.22031 41.8405 15.7035 41.8405 15.7035Z" fill="#8CC8C4"/>
<path d="M35.2903 4.58899C35.2903 4.58899 40.8867 3.89191 41.9842 3.69964C41.866 3.04263 41.1533 1.17276 41.0122 0.737183C38.3949 1.20192 32.4221 2.25713 32.4184 2.25804C28.9089 2.62254 22.8471 1.33769 19.3678 2.25804C16.4052 3.03898 12.9607 5.50206 10.9068 8.98666C9.89912 10.6989 8.70822 14.261 8.93541 16.6466C9.10122 14.4077 10.0695 11.6967 10.9068 10.2743C12.9607 6.78875 17.0648 5.37814 20.0274 4.59264C23.5085 3.6814 28.1861 4.59266 32.4184 3.54017C32.4184 3.54017 33.2218 15.3863 33.3629 15.4374C35.6 11.8042 35.2903 4.58899 35.2903 4.58899Z" fill="#FFD966"/>
<path d="M29.6656 39.2619H0.741943L3.33722 27.4586H27.0703L29.6656 39.2619Z" fill="#8CC8C4"/>
<path d="M14.0921 27.4586C4.45026 28.9339 2.22509 36.3113 1.48397 39.2619H0.741943L3.33813 27.4586H14.0921Z" fill="#FFD966"/>
<path d="M41.756 14.9672C39.1754 15.257 35.8647 15.3463 33.8191 14.7977C33.9218 14.1694 33.9866 13.5356 34.0133 12.8996V12.8932C34.1965 9.28378 33.5488 4.65556 33.2676 2.86952C34.791 2.62896 38.3711 2.04941 41.1661 1.46348C41.3541 1.41894 41.5173 1.30317 41.6208 1.14081C41.7243 0.978444 41.7601 0.782293 41.7205 0.594104C41.6809 0.405914 41.569 0.240546 41.4086 0.133164C41.2483 0.0257831 41.0521 -0.0151256 40.8619 0.0191475C37.27 0.768191 32.3515 1.51815 32.3029 1.52635C30.9032 1.66486 29.0508 1.53273 27.0895 1.3924C24.2496 1.18919 21.3181 0.978687 19.1763 1.54457C15.7648 2.44306 12.2681 5.21689 10.2655 8.61219C9.12868 10.5422 7.09773 16.1755 8.82089 18.6514C9.18091 19.168 9.8359 19.7248 10.9764 19.7449C11.1358 21.6585 11.1175 23.6742 10.271 25.0665C10.2027 25.1784 10.1656 25.3064 10.1634 25.4373C10.1613 25.5682 10.1943 25.6973 10.2589 25.8114C10.3235 25.9254 10.4176 26.0203 10.5313 26.0862C10.645 26.1521 10.7743 26.1867 10.9059 26.1864H20.0081C20.1362 26.1864 20.262 26.1534 20.3734 26.0906C20.4848 26.0279 20.578 25.9375 20.6439 25.8283C21.887 23.7726 21.7432 21.0443 21.3768 17.9506L21.6516 17.8531C22.3148 17.6125 23.001 17.3638 23.3683 17.3364C25.7383 17.1542 29.1104 16.4535 31.7881 14.1252C32.0345 14.0295 32.2581 13.9585 32.4559 13.902C32.4111 14.3103 32.3401 14.7154 32.2434 15.1148C32.1994 15.289 32.2208 15.4731 32.3036 15.6327C32.3865 15.7923 32.525 15.9162 32.6932 15.9814C34.0737 16.5163 36.0131 16.6703 37.7912 16.6703C39.1729 16.6648 40.5533 16.5857 41.9264 16.4334C42.122 16.4115 42.3009 16.3133 42.4236 16.1602C42.5464 16.0072 42.603 15.8119 42.581 15.6174C42.559 15.4228 42.4602 15.2449 42.3064 15.1228C42.1525 15.0007 41.9562 14.9444 41.7606 14.9663L41.756 14.9672ZM10.0384 17.8094C9.3632 16.8389 9.63803 14.5216 10.2784 12.3939C10.272 13.8154 10.4616 15.359 10.6613 16.9501C10.7163 17.3847 10.7648 17.8194 10.8161 18.2532C10.6614 18.2417 10.5112 18.1959 10.3766 18.1191C10.242 18.0423 10.1264 17.9365 10.0384 17.8094ZM19.5657 24.7111H12.0675C12.684 22.967 12.5961 20.8976 12.3872 18.8837C12.3158 18.1839 12.226 17.4759 12.1371 16.7697C11.8266 14.3148 11.5078 11.7833 12.0812 10.021H19.6426C19.4769 10.7274 19.3897 11.4498 19.3824 12.1751C19.2322 12.2663 19.0829 12.3574 18.9326 12.4485C17.2461 13.4509 15.1474 14.7002 16.1395 17.2991C16.5325 18.337 17.3432 18.6769 18.285 18.6769C18.8461 18.6621 19.4028 18.5748 19.9413 18.4172C20.2262 20.9194 20.3297 23.121 19.5629 24.7111H19.5657ZM31.1084 12.8067C31.0304 12.8385 30.9585 12.8835 30.8958 12.9397C28.514 15.062 25.424 15.7026 23.2529 15.8657C22.6831 15.9085 21.9704 16.1673 21.1459 16.4671C19.3495 17.1177 17.8379 17.5889 17.5292 16.7769C17.0281 15.4611 17.7646 14.8633 19.6967 13.7133C20.7044 13.1156 21.7423 12.4968 22.3936 11.5746C22.4529 11.4955 22.4956 11.4054 22.5192 11.3096C22.5428 11.2138 22.5469 11.1142 22.5312 11.0168C22.5155 10.9194 22.4803 10.8261 22.4277 10.7425C22.3752 10.6588 22.3063 10.5865 22.2251 10.5298C22.144 10.4731 22.0522 10.4331 21.9553 10.4123C21.8584 10.3914 21.7582 10.3901 21.6608 10.4085C21.5633 10.4268 21.4705 10.4643 21.3879 10.5189C21.3053 10.5735 21.2346 10.644 21.1798 10.7263C21.1144 10.8082 21.0444 10.8864 20.97 10.9605C21.0369 10.4867 21.1662 10.0237 21.3548 9.58357C21.4052 9.47122 21.4266 9.34809 21.417 9.22541C21.4074 9.10273 21.367 8.98441 21.2996 8.88123C21.2322 8.77804 21.1399 8.69327 21.0311 8.63466C20.9224 8.57605 20.8006 8.54546 20.6769 8.54567H12.0822C13.94 5.84748 16.7826 3.69968 19.5602 2.96795C21.4638 2.46585 24.2716 2.66722 26.9869 2.86131C28.7366 2.98707 30.3892 3.0946 31.7963 3.02808C32.0492 4.64189 32.6593 8.95572 32.5622 12.3574C32.0644 12.4633 31.5772 12.6136 31.1065 12.8067H31.1084Z" fill="#328278"/>
<path d="M27.7951 27.3009C27.7589 27.1365 27.6674 26.9893 27.5356 26.8837C27.4038 26.7781 27.2397 26.7205 27.0704 26.7205H3.33828C3.16902 26.7204 3.00482 26.7779 2.87299 26.8835C2.74116 26.9891 2.64965 27.1364 2.61366 27.3009L0.0174703 39.1043C-0.0186518 39.2931 0.0207427 39.4886 0.127273 39.649C0.233804 39.8095 0.399059 39.9222 0.587883 39.9633C0.776707 40.0044 0.974199 39.9705 1.13833 39.869C1.30246 39.7674 1.42028 39.6062 1.46672 39.4196L3.93465 28.1967H26.4704L28.9383 39.4196C28.9569 39.5165 28.9947 39.6087 29.0497 39.6908C29.1046 39.7729 29.1756 39.8432 29.2583 39.8975C29.3411 39.9519 29.4339 39.9892 29.5314 40.0072C29.6288 40.0253 29.729 40.0238 29.8258 40.0027C29.9227 39.9816 30.0143 39.9415 30.0953 39.8846C30.1763 39.8277 30.245 39.7552 30.2974 39.6715C30.3498 39.5877 30.3847 39.4944 30.4002 39.3969C30.4157 39.2995 30.4114 39.2 30.3876 39.1043L27.7951 27.3009Z" fill="#328278"/>
<path d="M20.766 31.2967H8.8999V32.6226H20.766V31.2967Z" fill="#328278"/>
</g>
<defs>
<clipPath id="clip0_647_1072">
<rect width="42.5806" height="40" fill="white"/>
</clipPath>
</defs>
</svg>
