<svg width="20" height="20" viewBox="0 0 20 20" fill="none" xmlns="http://www.w3.org/2000/svg">
<path d="M17.2656 7.01215V3.32031C17.2656 2.99672 17.0033 2.73438 16.6797 2.73438H12.9879L10.4134 0.170742C10.1848 -0.0569141 9.81516 -0.0569141 9.58652 0.170742L7.01215 2.73438H3.32031C2.99672 2.73438 2.73438 2.99672 2.73438 3.32031V7.01215L0.170742 9.58656C-0.0569141 9.8152 -0.0569141 10.1848 0.170742 10.4135L2.73438 12.9879V16.6797C2.73438 17.0033 2.99672 17.2656 3.32031 17.2656H7.01215L9.58652 19.8293C9.70086 19.9431 9.85043 20 10 20C10.1496 20 10.2991 19.9431 10.4134 19.8293L12.9879 17.2656H16.6797C17.0033 17.2656 17.2656 17.0033 17.2656 16.6797V12.9879L19.8293 10.4135C20.0569 10.1848 20.0569 9.8152 19.8293 9.58656L17.2656 7.01215Z" fill="#328278"/>
<path d="M8.43854 14.5714L5 11.1462L6.567 9.58522L8.43854 11.455L13.9092 6L15.4762 7.56095L8.43854 14.5714Z" fill="white"/>
</svg>
