<svg width="374" height="836" viewBox="0 0 374 836" fill="none" xmlns="http://www.w3.org/2000/svg">
<g clip-path="url(#clip0_386_1451)">
<rect width="374" height="836" fill="#F2F2F2"/>
<path opacity="0.2" d="M374.976 185.224V189.926C371.592 191.369 368.542 193.367 365.106 195.417L374.976 201.21V203.56L364.871 197.862V209.428L354.832 215.361L364.871 221.248L364.871 232.837L374.967 227.068V229.419L365.027 235.357L374.967 240.703V245.405L367.851 257.314H354.339C356.731 261.512 358.893 265.307 361.088 269.143L354.282 281.109H367.912L374.962 292.891V297.592C371.564 299.003 368.537 301.043 365.153 303.107L374.962 308.876V311.227L364.735 305.501V317.165C363.668 317.795 362.789 318.298 361.915 318.83C359.678 320.207 357.445 321.599 355.208 322.981H350.508V311.547C349.723 311.895 349.286 312.017 348.896 312.262C345.512 314.213 342.123 316.159 338.758 318.148C336.079 319.732 333.428 321.368 330.768 322.981H325.128C324.806 322.656 324.457 322.359 324.085 322.093C318 318.548 311.907 315.013 305.807 311.49C305.378 311.278 304.937 311.091 304.486 310.931L297.426 322.981H295.076C297.248 319.154 299.424 315.322 301.859 311.02H288.153L281.211 299.102L274.255 311.048H260.564L267.356 322.981H265.006L257.904 310.94C257.634 311.019 257.37 311.118 257.115 311.237C250.77 314.888 244.429 318.551 238.094 322.224C237.789 322.45 237.512 322.71 237.266 323H231.626C231.489 322.825 231.331 322.667 231.156 322.53C225.134 319.029 219.103 315.543 213.061 312.073C212.676 311.928 212.275 311.824 211.868 311.763V322.981H207.168L197.5 316.902V305.576L187.442 311.255L177.351 305.501V317.104C176.242 317.767 175.433 318.237 174.639 318.726C172.317 320.14 170 321.55 167.688 322.958H162.988V311.411C160.638 312.769 158.659 313.865 156.727 315.003C152.228 317.651 147.735 320.315 143.248 322.995H137.608C135.182 321.486 132.785 319.925 130.323 318.477C125.975 315.915 121.59 313.423 117.078 310.823L109.896 322.981H107.546L114.399 311.001H100.642L93.7191 299.121L86.6691 311.147H73.1237L79.8165 322.981H77.4665C75.1164 318.966 72.7665 314.946 70.3319 310.799C64.7812 314.006 59.3714 317.099 54.0181 320.231C52.5564 321.086 51.1605 322.064 49.7365 322.981H44.0965C40.4916 320.823 36.896 318.642 33.2864 316.507C30.4664 314.852 27.6465 313.254 24.3565 311.368V322.981H19.6565C18.7775 322.365 17.9268 321.688 17.0103 321.138C14.7496 319.775 12.456 318.463 10.0215 317.052L10.0215 305.552C6.87715 307.348 4.13704 308.984 1.31704 310.475C0.673141 310.818 -0.229259 310.682 -1.03296 310.762L-1.03296 308.411C-0.562959 308.481 -0.0271361 308.759 0.283064 308.585C3.38506 306.869 6.44005 305.082 9.89925 303.093C6.55755 301.166 3.68585 299.473 0.767149 297.861C0.268949 297.588 -0.426659 297.677 -1.03296 297.597L-1.03296 291.955L0.15145 292.684C2.44505 288.768 4.68226 284.936 6.98056 281.015H20.5777L13.8284 269.176L20.6012 257.168H6.91476L0.15145 245.626L-1.02355 246.345L-1.02355 240.703C0.12325 240.322 1.32646 240.087 2.39806 239.528C4.81386 238.239 7.14506 236.796 9.82876 235.226C6.53876 233.312 3.65765 231.61 0.73895 230.002C0.26895 229.748 -0.43135 229.918 -1.02355 229.889L-1.02355 227.539C-0.22455 227.647 0.67315 227.539 1.32645 227.901C3.27695 228.888 5.13346 230.054 7.03696 231.131C7.95346 231.648 8.89344 232.113 10.1859 232.795L10.1859 221.196L20.1452 215.343L10.0215 209.386V197.872C6.93825 199.644 4.27335 201.252 1.52855 202.705C0.804747 203.086 -0.172859 202.982 -1.03296 203.1L-1.03296 200.749C-0.562959 200.81 -0.0271602 201.069 0.28774 200.895C3.38034 199.183 6.43536 197.397 9.85696 195.427C6.56696 193.499 3.68115 191.792 0.771854 190.18C0.278354 189.902 -0.426659 190.01 -1.03296 189.935L-1.03296 184.293L0.156155 185.06L6.96645 173.343H20.5965L13.8284 161.481C16.0938 157.513 18.2558 153.742 20.6528 149.548H6.93355L0.15145 137.921L-1.00476 138.692L-1.00476 133.051C3.14064 132.477 5.94655 129.402 9.96505 127.639C6.55755 125.669 3.68584 123.967 0.762444 122.364C0.292444 122.105 -0.41256 122.27 -1.00476 122.237L-1.00476 119.886C-0.20576 119.994 0.69194 119.886 1.34524 120.239C3.29104 121.231 5.14285 122.411 7.05105 123.488C7.96285 124.005 8.93104 124.461 10.2141 125.133L10.2141 113.53L20.1641 107.685L10.0215 101.719L10.0215 90.2143C7.02755 91.9445 4.38145 93.4678 1.76355 94.977C0.898747 95.4471 0.0527502 96.1806 -1.02355 95.4471L-1.02355 93.0963C-0.55355 93.1622 -0.0130464 93.4302 0.301854 93.2515C3.39915 91.5401 6.45885 89.7535 9.90395 87.7695C6.57635 85.8418 3.70466 84.1445 0.781263 82.5319C0.287763 82.2592 -0.41725 82.3579 -1.02355 82.2827L-1.02355 76.6407L0.156155 77.393L6.99465 65.7001H20.5635L13.8331 53.8192L20.6434 41.8207H6.88185L0.15145 30.2124L-1.00944 31.0117L-1.00944 25.3698C0.071564 25.036 1.23245 24.8526 2.21005 24.326C4.68695 23.0002 7.08394 21.5051 9.86164 19.8924C6.50114 17.9554 3.63884 16.2581 0.724836 14.6596C0.254836 14.4057 -0.426636 14.5796 -1.00944 14.5561L-1.00944 12.2053C0.0856639 11.5095 0.912856 12.2523 1.77296 12.7413C4.44726 14.2552 7.11215 15.7879 10.1671 17.5369L10.1671 5.92867L20.1406 -0.0188626L24.3706 -0.0188626V11.627L44.1106 -0.0188626L49.7506 -0.0188626C50.9068 0.7522 52.0253 1.57968 53.2191 2.27552C58.8591 5.56664 64.4991 8.80134 70.3553 12.1489L77.4806 -0.0329525L79.8306 -0.0329525L73.0813 11.942L86.7771 11.942C89.1272 15.976 91.355 19.7655 93.7473 23.8465L100.661 11.9185L114.385 11.9185L107.546 -0.0329525L109.896 -0.0329525C112.275 3.98692 114.658 8.00209 117.125 12.1677L138.096 -0.0329525L143.266 -0.0329525L163.006 11.5471V-0.0329525L167.706 -0.0329525L177.445 6.07913V17.4335L187.508 11.7493L197.683 17.4993V5.87696L207.656 -0.0376587L211.886 -0.0376587C211.886 3.6484 211.886 7.32974 211.929 11.5565L231.626 -0.0376587L237.266 -0.0376587C237.58 0.295634 237.924 0.597926 238.296 0.865041C244.453 4.44139 250.614 8.00209 256.781 11.5471C257.148 11.7191 257.528 11.8606 257.918 11.9702C260.32 7.89393 262.661 3.93049 264.996 -0.0376587L267.346 -0.0376587L260.531 11.9185L274.218 11.9185C276.568 15.9196 278.782 19.7232 281.193 23.8512L288.243 11.7869L301.793 11.7869L295.076 -0.00945023L297.426 -0.00945023L304.575 12.1771C308.974 9.63823 313.233 7.2216 317.448 4.73916C320.048 3.20643 322.59 1.57969 325.156 -0.00945023L330.796 -0.00945023L350.536 11.5988V-0.00945023L354.766 -0.00945023L364.871 5.92867V17.5134L374.976 11.7446V14.0954L365.036 20.0429L374.976 25.3792V30.0808L367.926 41.9288H354.353L361.097 53.8098L354.32 65.8083H367.95L375 77.5623V82.2639L364.994 87.6472L375 93.5477V95.8985L364.871 90.2002V101.719L354.804 107.681L364.98 113.624V125.138C367.72 123.549 370.06 122.152 372.448 120.831C373.269 120.448 374.116 120.121 374.981 119.853V121.734L365.022 127.667L374.981 133.018V137.719L367.931 149.52H354.301L361.111 161.505L354.268 173.503H368.006C370.413 177.565 372.692 181.397 374.976 185.224ZM56.8099 63.4528L46.7473 68.8079L36.7316 63.1378V74.7648L26.6783 80.6277L36.8115 86.6034L36.8115 98.1177L46.8741 92.3582L57.0215 98.1647L57.0215 86.4953L67.0795 80.6324L57.0638 74.7789C57.0638 73.312 57.0967 71.9862 57.0638 70.665C56.9886 68.2531 56.871 65.8412 56.7723 63.434L56.8428 63.4058L56.8099 63.4528ZM86.7302 203.415H73.0578L79.8588 215.314C77.5934 219.287 75.4501 223.049 73.0484 227.271H86.7631L93.7144 239.199L100.731 227.2H114.361C111.922 222.926 109.727 219.085 107.579 215.314L114.394 203.33H100.67C98.2968 199.277 96.0784 195.497 93.7002 191.449C91.2703 195.615 89.0708 199.39 86.7302 203.415ZM260.541 203.377C263.004 207.698 265.161 211.492 267.351 215.329C265.133 219.212 262.971 222.992 260.56 227.219H274.19L281.211 239.185L288.219 227.195H301.849C299.433 222.964 297.262 219.203 295.058 215.343C297.276 211.445 299.447 207.618 301.891 203.307H288.13C285.78 199.268 283.571 195.502 281.197 191.435C278.805 195.554 276.577 199.39 274.255 203.377H260.541ZM288.214 119.505L301.844 119.505L295.072 107.662C297.285 103.769 299.457 99.9466 301.854 95.7198L288.191 95.7198C285.874 91.7517 283.637 87.9293 281.211 83.7684L274.199 95.8186H260.607L267.365 107.638C265.147 111.536 262.975 115.358 260.564 119.604H274.255L281.211 131.527L288.214 119.505ZM93.7096 83.7308C91.2609 87.9622 89.066 91.7235 86.7442 95.734H73.0296L79.8634 107.62C77.6027 111.616 75.4454 115.438 73.0578 119.665H86.8006C89.0942 123.61 91.3127 127.418 93.7144 131.537L100.731 119.543H114.361L107.598 107.638L114.361 95.7104H100.642L93.7096 83.7308ZM201.34 161.505C203.558 157.593 205.725 153.761 208.126 149.53H194.44L187.479 137.63C185.026 141.824 182.779 145.646 180.486 149.567H166.818C169.215 153.771 171.41 157.607 173.61 161.462C171.368 165.43 169.196 169.267 166.818 173.461H180.528C182.808 177.358 185.035 181.167 187.489 185.351C189.952 181.12 192.189 177.307 194.459 173.404H208.122L201.34 161.505ZM173.61 53.8004L166.813 65.7706L180.509 65.7706L187.484 77.7033C189.98 73.406 192.212 69.5742 194.487 65.6625H208.07L201.311 53.8239C203.567 49.8369 205.72 46.0239 208.112 41.8019L194.374 41.8019L187.428 29.968L180.458 41.91H166.79C169.192 46.085 171.382 49.9216 173.581 53.8004H173.61ZM180.528 281.104L187.456 293.074L194.468 281.015H208.065C205.682 276.826 203.52 273.022 201.321 269.176L208.117 257.225H194.431L187.451 245.301C185.002 249.495 182.751 253.318 180.486 257.229H166.79C169.182 261.428 171.377 265.264 173.596 269.153L166.813 281.123L180.528 281.104ZM36.7833 151.899L46.9023 146.145L57.0215 151.923L57.0215 140.296L67.0701 134.376L56.9791 128.518V116.933L46.8741 122.646L36.661 116.896V128.561L26.6735 134.423L36.7833 140.315L36.7833 151.899ZM26.7159 295.97L36.8349 301.913V313.418L46.9023 307.724L57.0215 313.46V301.838L67.0748 295.975L56.9885 290.042V278.499L46.8648 284.235L36.7174 278.452V290.084L26.7159 295.97ZM46.8835 253.802L57.0215 259.575V247.981L67.0748 242.062L57.2048 236.26C56.8476 232.311 57.3881 228.592 56.8523 224.652L46.9117 230.294L36.7081 224.539V236.185L26.7394 242.048L36.882 248.028V259.51L46.8835 253.802ZM57.0215 205.803L57.0215 194.176L67.0748 188.29L56.9416 182.375V170.833L46.8319 176.536L36.7174 170.743V182.384L26.7112 188.332L36.8115 194.204L36.8115 205.766L46.893 200.048L57.0215 205.803ZM177.384 197.853V209.386L167.34 215.352L177.435 221.295V232.781L187.503 227.073L197.707 232.913V221.159L207.647 215.319L197.509 209.386V197.895L187.498 203.617L177.384 197.853ZM197.664 113.553L207.642 107.657L197.481 101.719V90.2566L187.512 95.9549L177.341 90.1438V101.808L167.335 107.676L177.435 113.614L177.435 125.157L187.54 119.435L197.674 125.227L197.664 113.553ZM46.907 14.9793L36.7598 9.26209V20.8186L26.6923 26.7286L36.8115 32.6667V44.2279L46.893 38.4731L56.9933 44.242V32.6291L67.0841 26.7427L56.9227 20.7716V9.28562L46.907 14.9793ZM224.172 278.41V290.117L214.166 295.961L224.276 301.857V313.432L234.385 307.72L244.439 313.404V301.899L254.548 295.956L244.42 290.009V278.523L234.362 284.202L224.172 278.41ZM234.385 230.327L224.205 224.53V236.185L214.194 242.034L224.346 248.028V259.533L234.362 253.788L244.551 259.604V247.939L254.595 242.052L244.321 236.063V224.647L234.385 230.327ZM234.409 92.3723L244.481 98.1459V86.5376L254.572 80.623L244.378 74.652V63.2177L234.367 68.8596L224.177 63.133V74.7601L214.189 80.6465L224.341 86.5611V98.0801L234.409 92.3723ZM224.262 140.329V151.918L234.367 146.159L244.551 151.932V140.272L254.534 134.362L244.457 128.467V116.877L234.39 122.651L224.153 116.844V128.542L214.222 134.386L224.262 140.329ZM244.472 9.248L234.395 14.9746L224.224 9.23859V20.8516L214.208 26.7238L224.341 32.7043V44.1762L234.385 38.492L244.495 44.1997V32.6432L254.562 26.7286L244.481 20.7998L244.472 9.248ZM224.262 194.204V205.813L234.371 200.053L244.5 205.794V194.218L254.548 188.276L244.368 182.333V170.889L234.357 176.531L224.21 170.753V182.399L214.18 188.304L224.262 194.204ZM120.471 134.466L130.633 140.47V151.895L140.639 146.196L150.735 151.97V140.385L160.826 134.447L150.674 128.518V116.995L140.639 122.688L130.586 117.004V128.476L120.471 134.466ZM271.121 251.7V263.29L261.001 269.181L271.196 275.114V286.624L281.221 280.925L291.298 286.652V275.109L301.421 269.19L291.227 263.158V251.743L281.263 257.422L271.121 251.7ZM113.938 53.8474C110.423 51.7834 107.213 49.9075 103.782 47.8999V36.3668L93.752 42.1028L83.6329 36.3668V47.9234L73.5795 53.8615L83.647 59.7902V71.3232L93.7426 65.6108L103.833 71.3279V59.7714L113.938 53.8474ZM130.727 86.6081V97.9202L140.681 92.3159L150.73 98.0612V86.4859C154.114 84.4971 157.31 82.6165 160.821 80.5384L150.692 74.6379V63.0954L140.616 68.8079L130.487 63.0202V74.6755L120.443 80.5619L130.727 86.6081ZM103.876 286.675V275.062L113.929 269.162L103.73 263.205V251.771L93.7238 257.413L83.5859 251.644V263.313L73.5184 269.176L83.6705 275.091V286.671L93.7191 280.916L103.876 286.675ZM120.471 295.895L130.656 301.909V313.291L140.62 307.649L150.739 313.385V301.824L160.779 295.895L150.641 289.919V278.448L140.616 284.141L130.539 278.372V289.948L120.471 295.895ZM348.304 26.7662L338.128 20.8186V9.35143L328.155 15.0404L318.017 9.33734V20.8703L307.964 26.7897L318.172 32.8124V44.1762L328.127 38.5343L338.26 44.2561V32.6855L348.304 26.7662ZM301.421 53.8333L291.222 47.8763V36.4138C287.641 38.4402 284.403 40.2645 281.193 42.0558L271.106 36.3198V47.9328L261.011 53.8239L271.21 59.7808V71.2621L281.211 65.6014L291.363 71.3232V59.7291L301.421 53.8333ZM150.603 20.8092V9.37496L140.63 15.0169L130.501 9.34204V20.8751L120.471 26.8038L130.619 32.7795V44.2326L140.667 38.5437L150.721 44.2749V32.7043L160.83 26.8038L150.603 20.8092ZM83.661 155.581L73.556 161.523L83.7221 167.471L83.7221 178.943L93.7566 173.273L103.838 178.995L103.838 167.429L113.92 161.486L103.744 155.557V144.099L93.7144 149.741L83.661 144.034V155.581ZM348.295 295.895L338.218 289.957V278.405L328.122 284.141L318.008 278.363V289.967L307.954 295.895L318.158 301.918V313.291L328.15 307.649L338.26 313.427V301.8C341.545 299.863 344.746 297.983 348.295 295.895ZM160.807 188.229L150.707 182.328V170.8L140.62 176.475L130.478 170.739V182.323L120.471 188.257L130.666 194.223V205.624L140.649 199.983L150.768 205.714V194.134L160.807 188.229ZM338.208 194.162L348.276 188.229L338.152 182.234V170.833L328.089 176.475L318.027 170.753V182.309L307.954 188.229L318.158 194.242V205.653L328.127 199.964C331.417 201.844 334.66 203.678 338.208 205.695V194.162ZM291.265 144.081L281.211 149.755L271.102 143.986V155.59L261.086 161.519L271.168 167.438V178.962L281.23 173.273L291.359 178.966V167.405L301.421 161.514L291.265 155.543V144.081ZM318.092 98.033L328.136 92.3159C331.52 94.2435 334.716 96.0772 338.284 98.1083V86.4765L348.285 80.5619L338.19 74.6332V63.0954L328.127 68.8408L318.069 63.1001V74.6379L307.936 80.5948L318.092 86.5V98.033ZM150.702 236.208V224.661L140.653 230.364L130.534 224.722V236.232L120.42 242.156L130.652 248.118V259.566L140.649 253.924L150.772 259.651V248.056L160.816 242.151L150.702 236.208ZM328.094 253.877L338.293 259.636V248.009L348.285 242.104L338.161 236.185L338.161 224.68L328.127 230.369L318.022 224.704L318.022 236.185L307.969 242.118L318.149 248.127V259.538L328.094 253.877ZM338.241 140.394L348.271 134.461L338.119 128.471V117.018L328.141 122.712L318.027 117.009V128.518L307.973 134.461L318.144 140.451V151.866L328.094 146.224L338.241 151.909V140.394ZM1.09145 187.82L22.0346 199.921L22.0346 175.727H8.03336L1.09145 187.82ZM1.09145 80.1529L22.0581 92.2783L22.0581 68.0415H8.08035C5.83375 71.9109 3.54015 75.8603 1.09145 80.1387V80.1529ZM1.09145 295.51L22.124 307.607L22.124 283.384H8.07094L1.09145 295.51ZM22.0581 39.6156V15.3977L1.09145 27.4949L8.11325 39.6015L22.0581 39.6156ZM8.04744 147.221H22.0346L22.0346 123.05L1.09145 135.157C3.52605 139.407 5.81964 143.371 8.04744 147.221ZM21.9688 254.991C22.5845 251.23 22.3589 232.461 21.6727 230.924L1.09145 242.833L8.10384 254.991H21.9688ZM92.6098 296.662L71.6291 284.564L71.6291 308.726H85.6445C87.9381 304.739 90.1987 300.827 92.6098 296.652V296.662ZM71.7184 14.2176C71.098 18.1387 71.3235 36.663 72.0332 38.1958L92.5957 26.3054L85.6163 14.2176L71.7184 14.2176ZM92.6052 241.643C90.1471 237.388 87.8816 233.477 85.6867 229.683H71.662V253.75L92.6052 241.643ZM71.5915 121.936V146.126L92.6145 133.963L85.6256 121.936H71.5915ZM92.6098 81.3235L71.662 69.2404V93.4161H85.6256C87.9051 89.462 90.1941 85.4986 92.6052 81.3188L92.6098 81.3235ZM303.391 176.818L282.307 189.009L289.248 200.96H303.391V176.818ZM303.339 229.617H289.239C286.922 233.632 284.671 237.539 282.302 241.658L303.316 253.783L303.339 229.617ZM304.575 119.863C311.625 115.796 318.464 111.828 325.683 107.638L304.533 95.4471C302.084 99.7021 299.786 103.684 297.483 107.671L304.575 119.863ZM280.098 296.643L259.164 284.56V308.688H273.16L280.098 296.643ZM259.121 93.355H273.189L280.116 81.3188L259.121 69.1981V93.355ZM303.334 14.2693L289.272 14.2693C286.96 18.2657 284.699 22.1633 282.307 26.3007L303.334 38.4496V14.2693ZM289.234 308.637H303.301V284.531L282.325 296.652C284.727 300.837 286.988 304.744 289.239 308.641L289.234 308.637ZM280.102 188.981L259.121 176.888V201.026H273.137L280.102 188.981ZM304.542 227.534L325.65 215.31L304.552 203.114C302.145 207.27 299.809 211.299 297.502 215.3L304.542 227.534ZM117.045 227.534L138.162 215.31L117.04 203.119L109.99 215.343L117.045 227.534ZM282.278 81.3141C284.788 85.6255 287.096 89.589 289.281 93.3503H303.316V69.1887L282.278 81.3141ZM92.6052 188.981L71.5915 176.874V201.026H85.6256L92.6052 188.981ZM138.195 107.643L117.045 95.4189L109.995 107.643C112.397 111.776 114.695 115.749 117.045 119.83L138.195 107.643ZM280.102 133.972L273.17 121.997H259.178V146.065L280.102 133.972ZM330.482 269.157L351.599 281.348C354.038 277.117 356.36 273.121 358.649 269.124L351.599 256.928L330.482 269.157ZM273.142 14.2975L259.074 14.2975V38.4449L280.088 26.3054C277.672 22.0975 275.445 18.2422 273.156 14.2928L273.142 14.2975ZM210.796 173.682L231.913 161.458L210.796 149.285L203.746 161.472L210.796 173.682ZM282.297 133.981L303.245 146.041V121.87H289.286L282.297 133.981ZM280.088 241.648C277.663 237.464 275.388 233.505 273.137 229.636H259.065L259.065 253.778L280.088 241.648ZM115.771 38.4026V14.2693L101.761 14.2693L94.8235 26.3148L115.771 38.4026ZM164.097 149.271L142.999 161.495L164.116 173.677L171.166 161.476C168.792 157.405 166.531 153.437 164.097 149.271ZM351.599 149.271L330.491 161.495L351.603 173.691L358.653 161.495C356.299 157.41 354.01 153.437 351.599 149.276V149.271ZM16.2631 269.162L23.3131 281.348L44.4348 269.153L23.2848 256.966C20.8314 261.207 18.5802 265.128 16.2631 269.157V269.162ZM94.8188 133.991L115.771 146.055V121.936H101.789L94.8188 133.991ZM44.4442 53.8192L23.2942 41.6232C20.8502 45.8547 18.5613 49.8416 16.2442 53.8474L23.3413 65.9869L44.4442 53.8192ZM70.3553 203.114L49.2383 215.338L70.3883 227.525C72.8558 223.241 75.1494 219.264 77.4382 215.3L70.3553 203.114ZM101.761 93.3408H115.771V69.2075L94.8095 81.333L101.761 93.3408ZM257.871 119.853L264.921 107.629L257.871 95.4519L236.778 107.676L257.871 119.853ZM49.243 107.657L70.393 119.848C72.8323 115.617 75.1259 111.625 77.443 107.624C75.0648 103.52 72.743 99.5422 70.393 95.4471L49.243 107.657ZM101.78 229.603L94.8235 241.667L115.795 253.759V229.603L101.78 229.603ZM164.092 256.957L142.999 269.181L164.149 281.405C166.607 277.126 168.886 273.154 171.199 269.181C168.783 265.034 166.531 261.132 164.092 256.947V256.957ZM330.472 53.8192L351.585 66.0433C354.033 61.8119 356.327 57.839 358.635 53.8192L351.585 41.6232L330.472 53.8192ZM94.8095 188.99L101.756 200.993L115.8 200.993V176.879L94.8095 188.99ZM142.98 53.8192L164.13 66.0057L171.152 53.8192L164.102 41.595L142.98 53.8192ZM231.941 53.8192L210.791 41.6373L203.741 53.8333L210.791 66.0293L231.941 53.8192ZM44.4442 161.486L23.2942 149.304L16.2442 161.528L23.2942 173.691L44.4442 161.486ZM115.743 308.731L115.743 284.588L94.8235 296.666L101.803 308.731H115.743ZM257.848 227.52L264.898 215.319C262.548 211.271 260.198 207.256 257.805 203.128L236.735 215.352L257.848 227.52ZM165.446 15.4306V39.5733H179.386C181.736 35.5347 183.992 31.5806 186.347 27.4855L165.446 15.4306ZM165.272 68.0368C165.244 76.1612 165.197 83.9752 165.305 92.3065L186.356 80.1481L179.362 68.0368L165.272 68.0368ZM231.937 269.167L210.787 256.942L203.737 269.134L210.787 281.358L231.937 269.167ZM209.574 68.0556H195.568L188.551 80.1576L209.574 92.2783V68.0556ZM179.409 283.441H165.277C165.234 291.48 165.215 299.304 165.277 307.654L186.351 295.472L179.409 283.441ZM195.554 283.441L188.56 295.486C195.573 299.525 202.345 303.54 209.527 307.56V283.441H195.554ZM195.554 175.689L188.574 187.848C195.624 191.919 202.439 195.84 209.442 199.893V175.689H195.554ZM195.554 147.292H209.527V123.069L188.556 135.18C190.971 139.332 193.213 143.215 195.559 147.268L195.554 147.292ZM186.342 242.838L165.469 230.806V254.958H179.344C181.656 250.939 183.95 246.97 186.347 242.814L186.342 242.838ZM186.342 187.829L179.367 175.741H165.46V199.884L186.342 187.829ZM179.348 147.301L186.342 135.157L165.455 123.116V147.301H179.348ZM209.485 254.911V230.755L188.574 242.842L195.554 254.911H209.485ZM352.886 92.2501L373.853 80.1246L366.86 68.0744H352.886V92.2501ZM352.886 283.342V307.583L373.825 295.477L366.831 283.342H352.886ZM188.57 27.4949L195.648 39.7191C200.348 39.7191 204.888 39.799 209.508 39.6533V15.3977L188.57 27.4949ZM373.867 242.828L352.886 230.745L352.886 254.883H366.869C369.101 251.047 371.4 247.083 373.867 242.824V242.828ZM352.896 175.741V199.912L373.834 187.82C371.39 183.588 369.101 179.625 366.86 175.741H352.896ZM352.863 39.611H366.85L373.816 27.4808L352.863 15.3883V39.611ZM352.863 147.301H366.827L373.816 135.162L352.863 123.05V147.301ZM118.192 280.667L138.176 269.096L118.192 257.568V280.667ZM236.717 269.124L256.645 280.592V257.61L236.717 269.124ZM236.717 53.791L256.602 65.2347V42.2768L236.717 53.791ZM118.211 172.977L138.2 161.429L118.211 149.906V172.977ZM325.697 161.429L305.755 149.943V172.93L325.697 161.429ZM118.262 42.272L118.262 65.3099L138.176 53.7628L118.262 42.272ZM305.717 42.2391V65.3099L325.678 53.7628L305.717 42.2391ZM69.2085 172.967V149.929L49.2383 161.467L69.2085 172.967ZM69.2556 42.2203L49.2288 53.791L69.2414 65.324L69.2556 42.2203ZM256.612 172.925V149.953L236.735 161.429L256.612 172.925ZM305.745 257.61V280.648L325.678 269.096L305.745 257.61ZM69.1804 280.648V257.61C62.4452 261.503 56.0204 265.213 49.243 269.12L69.1804 280.648ZM44.4442 107.629L24.6149 96.1994L24.6149 119.082L44.4442 107.629ZM24.5914 203.833L24.5914 226.725L44.4207 215.282L24.5914 203.833ZM330.472 215.282L350.32 226.749V203.805L330.472 215.282ZM211.999 119.115L231.937 107.587L211.999 96.096L211.999 119.115ZM330.472 107.591L350.377 119.115V96.1571L330.472 107.591ZM162.842 226.753V203.805L142.994 215.282L162.842 226.753ZM162.842 96.1383L142.984 107.61L162.842 119.082L162.842 96.1383ZM212.013 226.782L231.913 215.267L212.013 203.777V226.782ZM128.137 195.196L118.225 189.512V201.266L128.137 206.983V195.196ZM305.684 189.465V201.29L315.658 206.993V195.239L305.684 189.465ZM212.013 135.712V147.508L221.991 153.22V141.438L212.013 135.712ZM315.615 314.65V302.896L305.717 297.188V308.984L315.615 314.65ZM128.17 87.5626L118.197 81.8454V93.5994L128.17 99.3354V87.5626ZM34.5084 260.929V249.105L24.5069 243.397L24.5069 255.151L34.5084 260.929ZM212.018 28.0356V39.8272L221.991 45.5255V33.7715L212.018 28.0356ZM222.053 249.157L211.995 243.35V255.151L222.053 260.882V249.157ZM118.183 308.937L128.165 314.664V302.868L118.183 297.188V308.937ZM24.4927 135.679V147.484L34.4614 153.197L34.4614 141.41L24.4927 135.679ZM305.698 81.8078V93.6417L315.634 99.2837V87.5297L305.698 81.8078ZM34.5084 45.5491V33.7951L24.5163 28.045V39.8319L34.5084 45.5491ZM59.2774 260.798L69.1192 255.156V243.425L59.2774 249.114V260.798ZM246.807 45.4644L256.677 39.7426V28.0591L246.807 33.7527V45.4644ZM24.5069 201.28L34.4897 207.035L34.4897 195.319L24.5069 189.606V201.28ZM162.856 135.825L153.085 141.466V153.155C156.572 151.133 159.726 149.299 162.856 147.489V135.825ZM118.262 147.447L128.132 153.112V141.443L118.262 135.768V147.447ZM244.509 262.119L234.367 256.251L224.153 262.171L234.31 268.024L244.509 262.119ZM59.2587 153.159L69.1663 147.442V135.745L59.2587 141.448L59.2587 153.159ZM246.789 153.159L256.687 147.386V135.721L246.789 141.429V153.159ZM246.939 87.5579V99.2413L256.668 93.637V81.9724L246.939 87.5579ZM246.84 207.007L256.659 201.294V189.639L246.84 195.281V207.007ZM256.739 243.336L246.831 249.105V260.77L256.739 255.052V243.336ZM162.837 255.17V243.496L152.878 249.279C152.878 253.148 152.798 256.801 152.916 260.939L162.837 255.17ZM222.029 195.347L211.99 189.597V201.261L222.024 207.035L222.029 195.347ZM130.417 208.333L140.55 214.177L150.763 208.271L140.625 202.427L130.417 208.333ZM69.1756 28.0497L59.3056 33.7433V45.455L69.1756 39.752V28.0497ZM350.377 28.1437L340.591 33.7857V45.455L350.377 39.8131V28.1437ZM130.417 100.652L140.573 106.529L150.758 100.619L140.634 94.7654L130.417 100.652ZM140.606 310.099L130.426 316.018L140.564 321.857L150.758 315.943L140.606 310.099ZM315.672 141.457L305.651 135.712V147.386C308.885 149.266 312.123 151.119 315.667 153.155L315.672 141.457ZM34.4614 87.6613L24.4927 81.916V93.6041L34.4614 99.3683V87.6613ZM162.818 93.6276V81.9254L153.108 87.6143V99.3025L162.818 93.6276ZM212.009 93.6276L221.991 99.3683V87.6801L212.051 81.9347L212.009 93.6276ZM340.54 249.166V260.817L350.344 255.175V243.491L340.54 249.166ZM246.84 302.948V314.645L256.64 309.003V297.306L246.84 302.948ZM221.963 302.99L211.999 297.249V308.947L221.963 314.683V302.99ZM59.2727 314.702L69.1145 309.031V297.306L59.2727 302.948V314.702ZM162.865 28.1484L153.08 33.7904V45.4785L162.865 39.8366V28.1484ZM34.4614 314.702V302.999L24.5021 297.287L24.5021 308.952L34.4614 314.702ZM305.698 28.0685V39.7708L315.648 45.488V33.8139L305.698 28.0685ZM244.519 46.8091L234.362 40.9603L224.182 46.8514L234.32 52.719L244.519 46.8091ZM350.442 189.55L340.572 195.281C340.102 199.766 340.267 205.206 340.967 206.762L350.428 201.247L350.442 189.55ZM162.912 201.304V189.592L153.108 195.267V206.974L162.912 201.304ZM350.41 81.9065L340.591 87.6143V99.279L350.377 93.637L350.41 81.9065ZM69.2038 189.611L59.3714 195.281L59.3714 206.969L69.1991 201.275L69.2038 189.611ZM340.601 302.872V314.626L350.372 308.984V297.277L340.601 302.872ZM328.061 106.534L338.227 100.595L328.113 94.7607C324.691 96.7542 321.481 98.616 317.928 100.68L328.061 106.534ZM315.653 249.1L305.651 243.416V255.048L315.634 260.821L315.653 249.1ZM128.156 33.7668L118.197 28.0638V39.7332L128.156 45.4644V33.7668ZM57.0215 262.128L46.893 256.247L36.6987 262.166L46.8413 268.019L57.0215 262.128ZM328.103 202.418L317.937 208.356L328.089 214.181L338.255 208.262L328.103 202.418ZM234.362 148.575L224.168 154.513L234.334 160.348L244.49 154.438L234.362 148.575ZM340.544 153.173L350.301 147.508V135.843L340.53 141.509L340.544 153.173ZM128.147 260.793V249.11L118.187 243.397V255.071L128.147 260.793ZM69.2414 81.9207L59.3103 87.6425V99.3119L69.2414 93.59V81.9207ZM152.901 303.042C152.873 306.967 152.807 310.644 152.934 314.711L162.851 308.975V297.263L152.901 303.042ZM338.269 315.933L328.117 310.108L317.909 316.004L328.047 321.848L338.269 315.933ZM224.247 100.685L234.385 106.534L244.5 100.657L234.348 94.8312L224.247 100.685ZM36.7174 154.495L46.8131 160.357L57.0215 154.443L46.8695 148.594L36.7174 154.495ZM36.6892 46.8279L46.8459 52.7049L57.0027 46.7715L46.8601 40.9274L36.6892 46.8279ZM318.031 154.518L328.136 160.376L338.227 154.48L328.099 148.66L318.031 154.518ZM130.501 262.185L140.625 268.048L150.716 262.194L140.634 256.345L130.501 262.185ZM46.8883 310.141L36.8115 316.018L46.9023 321.862L56.9885 316.009L46.8883 310.141ZM244.476 315.99L234.362 310.165L224.285 316.009L234.352 321.862L244.476 315.99ZM140.639 40.9885L130.497 46.8326L140.62 52.6908L150.739 46.8373L140.639 40.9885ZM162.917 13.9308L153.019 8.28889V19.7937L162.917 25.4638V13.9308ZM57.0215 100.675L46.8977 94.8266L36.7927 100.68L46.8835 106.51L57.0215 100.675ZM338.269 46.8279L328.141 40.9885L318.031 46.842L328.146 52.6814L338.269 46.8279ZM140.616 160.376C143.962 158.425 147.196 156.559 150.721 154.499C147.149 152.431 143.934 150.569 140.616 148.655L130.511 154.504L140.616 160.376ZM24.4974 67.8299L24.4974 79.3583L34.4614 73.6176V62.1081L24.4974 67.8299ZM224.247 208.342L234.381 214.191L244.495 208.333L234.381 202.498L224.247 208.342ZM24.5445 283.14V294.668L34.4145 288.97V277.451L24.5445 283.14ZM315.681 8.27006L305.755 14.0013V25.5014L315.681 19.7843V8.27006ZM318.031 262.157L328.117 268.015L338.241 262.152L328.108 256.312L318.031 262.157ZM222.024 62.0517L212.042 67.8064V79.316L222.024 73.5612V62.0517ZM81.2828 262.175V250.685L71.6338 256.242V267.756L81.2828 262.175ZM34.4003 19.7655V8.22776L24.5303 13.9778L24.5303 25.4544L34.4003 19.7655ZM128.085 235.165V223.665L118.07 229.447C118.07 231.469 118.013 233.27 118.07 235.061C118.126 236.853 117.731 238.728 118.455 240.731L128.085 235.165ZM211.995 240.783L221.926 235.052V223.552L211.995 229.311V240.783ZM212.112 121.583V133.06L221.93 127.395L221.93 115.876L212.112 121.583ZM24.5398 229.25V240.764L34.4098 235.033V223.547L24.5398 229.25ZM162.88 240.774V229.227L153.038 223.608V235.094L162.88 240.774ZM315.63 223.632C312.09 225.667 308.88 227.51 305.76 229.311L305.76 240.886L315.63 235.188L315.63 223.632ZM350.41 229.227L340.511 223.585L340.511 235.028L350.41 240.75L350.41 229.227ZM315.63 181.27V169.756L305.76 175.431V186.931L315.63 181.27ZM256.72 186.945V175.454L246.85 169.742V181.275L256.72 186.945ZM128.123 127.507L128.123 115.984L118.3 121.649V133.163L128.123 127.507ZM69.2414 187.025V175.534L59.2869 169.812V181.303L69.2414 187.025ZM24.5914 175.436V186.978L34.4614 181.275V169.784L24.5914 175.436ZM128.179 8.25127L118.286 13.9872V25.5108L128.179 19.7749V8.25127ZM246.775 288.937L256.771 294.677V283.201L246.789 277.451L246.775 288.937ZM59.3009 62.0799V73.6317L69.2414 79.316V67.8206L59.3009 62.0799ZM221.921 288.965V277.423L212.051 283.159V294.649L221.921 288.965ZM221.921 181.298V169.789L212.051 175.468V186.992L221.921 181.298ZM46.907 214.181L56.9745 208.3L46.8506 202.498L36.8115 208.375L46.907 214.181ZM305.741 133.163L315.611 127.498V116.003L305.741 121.644V133.163ZM350.433 121.612L340.563 115.993V127.465L350.433 133.145V121.612ZM153.033 115.894L153.033 127.423L162.903 133.102V121.612L153.033 115.894ZM315.691 62.1034C312.095 64.1533 308.876 65.9963 305.736 67.7924V79.3019L315.691 73.5565V62.1034ZM69.2649 294.673L69.2649 283.201L59.3245 277.465V288.989L69.2649 294.673ZM22.0488 202.39L12.3385 196.865V208.271L22.0488 213.913V202.39ZM118.244 67.7782V79.2831L128.114 73.5941V62.1034L118.244 67.7782ZM81.3252 154.485V142.985L71.5915 148.627V160.094L81.3252 154.485ZM315.691 277.394L305.755 283.112V294.612L315.691 288.876V277.394ZM81.3581 46.8044V35.2949L71.6244 40.9368V52.3993L81.3581 46.8044ZM256.715 79.316V67.7876L246.793 62.1457V73.6129L256.715 79.316ZM350.377 25.4309V13.9214L340.507 8.27948V19.7561L350.377 25.4309ZM34.4614 127.385V115.862L24.5585 121.612L24.5585 133.079L34.4614 127.385ZM22.0816 321.561V310.094L12.3338 304.49L12.3338 315.943L22.0816 321.561ZM118.121 175.534C118.018 179.441 118.046 183.024 118.079 187.044L128.151 181.242V169.742L118.121 175.534ZM128.17 277.376L118.244 283.201L118.244 294.64L128.184 288.904L128.17 277.376ZM152.873 277.376C152.822 281.461 152.826 285.067 152.873 288.81L162.856 294.546V283.159L152.873 277.376ZM221.926 19.7279V8.21835L211.995 13.9637V25.4309L221.926 19.7279ZM350.428 175.534C347.105 173.654 343.994 171.693 340.488 169.892V181.176L350.428 186.907V175.534ZM153.028 62.1128V73.5095L162.955 79.2219V67.8676L153.028 62.1128ZM350.428 283.163L340.497 277.47V288.843L350.428 294.56V283.163ZM22.1521 94.7936L12.3433 89.2034L12.3433 100.614L22.1521 106.256L22.1521 94.7936ZM256.739 14.0389L246.84 8.32648V19.7608L256.739 25.4027V14.0389ZM81.4285 60.928L71.5585 55.2532L71.5585 66.7063L81.4285 72.3059V60.928ZM162.884 186.893V175.459L152.977 169.779V181.176L162.884 186.893ZM256.612 240.703L256.612 229.264L246.793 223.702V235.047L256.612 240.703ZM69.2414 14.0342L59.3245 8.33589V19.7608L69.2556 25.4027L69.2414 14.0342ZM59.2727 223.622V235.024L69.1991 240.774V229.335L59.2727 223.622ZM256.706 133.107V121.682L246.798 115.979L246.798 127.376L256.706 133.107ZM81.3627 179.987L81.3627 168.538L71.5915 162.948L71.5915 174.364L81.3627 179.987ZM12.3715 126.106L22.0628 120.525V109.101L12.3715 114.724L12.3715 126.106ZM81.3863 287.691V276.228L71.5585 270.586V281.993L81.3863 287.691ZM350.381 67.7782L340.511 62.1363V73.5095L350.381 79.2031V67.7782ZM69.1898 133.074V121.654L59.2869 116.012V127.376L69.1898 133.074ZM12.4513 7.02416L12.4513 18.4208L22.0488 12.8588V1.47624L12.4513 7.02416ZM12.4184 222.357L12.4184 233.745L22.0252 228.22L22.0252 216.814L12.4184 222.357ZM56.8523 60.6694L46.8648 54.9052L36.8773 60.6553L46.893 66.4195L56.8523 60.6694ZM328.089 108.729L318.144 114.503L328.127 120.262L338.081 114.503L328.089 108.729ZM338.081 6.82667L328.103 1.07662L318.149 6.84079L328.141 12.605L338.081 6.82667ZM234.39 281.79L244.331 276.026L234.343 270.257L224.417 276.036L234.39 281.79ZM244.373 60.6929L234.324 54.9287L224.407 60.707L234.371 66.443C237.61 64.5764 240.791 62.7428 244.373 60.6741V60.6929ZM140.644 12.6285L150.551 6.80317L140.559 1.07191L130.647 6.83608L140.644 12.6285ZM328.132 227.962L338.081 222.174L328.075 216.438L318.158 222.188L328.132 227.962ZM140.649 120.295L150.58 114.517L140.62 108.753L130.647 114.512L140.649 120.295ZM46.893 281.758L56.8194 276.012L46.8695 270.243L36.9195 276.022L46.893 281.758ZM140.611 216.405L130.675 222.207L140.63 227.962L150.551 222.179L140.611 216.405ZM46.8835 174.124L56.8241 168.336L46.8459 162.6L36.929 168.341L46.8835 174.124ZM271.304 249.255L281.254 254.991L291.124 249.26L281.211 243.501L271.304 249.255ZM224.398 168.327L234.376 174.124L244.307 168.36L234.39 162.605L224.398 168.327ZM83.8114 249.237L93.7473 254.991L103.617 249.213L93.6814 243.501L83.8114 249.237ZM281.235 39.658L291.161 33.9126L281.15 28.1578L271.341 33.9267L281.235 39.658ZM177.539 195.384L187.508 201.167L197.378 195.413L187.446 189.686L177.539 195.384ZM56.7488 6.81728L46.8084 1.07662L36.9384 6.79846L46.9165 12.5297L56.7488 6.81728ZM328.141 281.711L337.969 275.975L328.009 270.234L318.229 275.989L328.141 281.711ZM197.392 303.065L187.446 297.343L177.576 303.075L187.512 308.82L197.392 303.065ZM140.522 270.239L130.652 275.956L140.611 281.72L150.42 275.97L140.522 270.239ZM281.211 135.815L271.341 141.598L281.211 147.311L291.081 141.593L281.211 135.815ZM93.7378 135.815L83.8679 141.579L93.7473 147.325L103.617 141.607L93.7378 135.815ZM234.305 108.739L224.435 114.475L234.428 120.192L244.265 114.484L234.305 108.739ZM46.8695 120.215L56.7395 114.493L46.7895 108.743L36.9195 114.446L46.8695 120.215ZM93.752 39.658L103.622 33.8985L93.6814 28.1532L83.8631 33.9314L93.752 39.658ZM234.381 12.5485L244.251 6.82667L234.31 1.10483L224.44 6.81258L234.381 12.5485ZM224.435 222.122L234.371 227.877L244.241 222.165L234.305 216.405L224.435 222.122ZM187.475 133.309L197.345 127.573L187.475 121.856L177.605 127.611L187.475 133.309ZM130.666 60.6083L140.653 66.363L150.495 60.6459L140.545 54.924L130.666 60.6083ZM328.113 66.3772L337.983 60.6553L327.995 54.9005L318.205 60.6271L328.113 66.3772ZM177.562 87.7177L187.498 93.4913L197.368 87.7224L187.451 82.0147L177.562 87.7177ZM268.813 250.694L259.089 256.275V267.766L268.813 262.152V250.694ZM281.211 175.689L271.37 181.449L281.211 187.133L291.081 181.407L281.211 175.689ZM56.7348 222.146L46.7942 216.438L36.9242 222.146L46.8883 227.91L56.7348 222.146ZM187.479 25.619L197.349 19.9018L187.479 14.2035L177.609 19.9394L187.479 25.619ZM268.827 154.485V142.976L259.15 148.618V160.08L268.827 154.485ZM130.699 168.275L140.653 174.044L150.462 168.313L140.555 162.586L130.699 168.275ZM328.028 162.572L318.158 168.284L328.103 174.039L337.973 168.331L328.028 162.572ZM281.211 68.0321L271.341 73.7681L281.211 79.4852L291.081 73.7304L281.211 68.0321ZM103.598 73.7446L93.7284 68.0321L83.8114 73.7587L93.7096 79.4617L103.598 73.7446ZM259.084 40.9603V52.4369L268.761 46.8373V35.3372L259.084 40.9603ZM362.512 100.671V89.194L352.886 94.7936V106.261L362.512 100.671ZM268.869 60.8951L259.074 55.2532V66.6687L268.869 72.3435V60.8951ZM187.493 229.527L177.581 235.273L187.479 240.938L197.349 235.249L187.493 229.527ZM165.474 202.333V213.848L175.029 208.314V196.87L165.474 202.333ZM352.821 12.8588L362.597 18.5008V7.04295L352.821 1.40103V12.8588ZM362.606 196.79L352.91 202.432V213.899L362.606 208.286V196.79ZM93.7426 187.133L103.566 181.402L93.7331 175.699L83.8631 181.449L93.7426 187.133ZM259.121 174.373L268.808 179.973V168.515L259.121 162.92V174.373ZM362.554 304.532L352.962 310.024V321.547L362.554 315.971V304.532ZM281.244 283.375L271.374 289.12L281.244 294.819L291.114 289.068L281.244 283.375ZM103.603 289.078L93.7331 283.37L83.8631 289.087L93.7331 294.804L103.603 289.078ZM293.723 250.727V262.185L303.344 267.733V256.275L293.723 250.727ZM115.823 52.3993V40.9227L106.221 35.4265V46.8373L115.823 52.3993ZM115.87 148.622L106.221 143.06V154.513L115.87 160.094V148.622ZM165.403 94.7372V106.228L174.94 100.704V89.2364L165.403 94.7372ZM259.121 270.634V282.054L268.785 287.616V276.181L259.121 270.634ZM165.375 321.58L174.991 316.023V304.57L165.394 310.066L165.375 321.58ZM209.555 213.88V202.418L199.901 196.875V208.3L209.555 213.88ZM293.685 46.8514L303.377 52.4322V40.9838L293.685 35.3748V46.8514ZM209.555 310.085L199.845 304.546V315.971L209.555 321.552V310.085ZM293.685 154.532L303.32 160.085V148.603L293.713 143.093L293.685 154.532ZM352.905 228.23L362.554 233.806L362.554 222.367L352.905 216.777V228.23ZM199.826 233.801L209.447 228.272V216.833L199.826 222.423V233.801ZM115.875 256.312L106.202 250.718V262.189L115.875 267.742V256.312ZM165.366 120.558L175.081 126.092L175.081 114.686L165.366 109.115L165.366 120.558ZM209.466 120.591L209.466 109.176L199.953 114.667L199.953 126.087L209.466 120.591ZM165.413 1.50445V12.9105L175.034 18.4208V7.00533L165.413 1.50445ZM209.499 94.7419L199.869 89.1658V100.642L209.499 106.186V94.7419ZM175.053 222.381L165.394 216.739V228.234L175.053 233.749V222.381ZM115.8 174.396L115.8 162.962L106.23 168.482L106.23 179.888L115.8 174.396ZM199.93 7.01945V18.4349L209.532 12.9058V1.53266L199.93 7.01945ZM293.704 287.602L303.25 282.091V270.69L293.704 276.196V287.602ZM303.301 66.7016V55.319L293.728 60.8152V72.226L303.301 66.7016ZM293.638 168.538C293.525 172.332 293.549 175.915 293.591 179.968L303.301 174.354V162.953L293.638 168.538ZM352.905 120.582L362.554 126.135V114.705L352.905 109.143V120.582ZM106.183 287.587L115.743 282.058V270.685L106.183 276.186V287.587ZM106.221 72.2542L115.804 66.6828L115.804 55.3284L106.221 60.8152V72.2542Z" fill="url(#paint0_linear_386_1451)"/>
<path d="M358.772 183.99V109.642H327.136C328.851 87.691 309.119 65.0298 290.801 57.2861C272.483 49.5425 252.45 49.5725 233.289 45.2525C214.127 40.9325 194.064 30.3169 186.5 10C178.939 30.3169 158.873 40.9325 139.711 45.2525C120.55 49.5725 100.484 49.5395 82.1902 57.2861C63.8964 65.0328 44.1611 87.691 45.8637 109.642H14.2279V183.99H0V360.025C22.9544 362.57 43.3293 383.555 47.6505 409.107L49.3532 433H323.65L325.352 409.107C329.674 383.555 350.049 362.57 373 360.025V183.99H358.772Z" fill="url(#paint1_linear_386_1451)"/>
<path d="M161.575 450.29C161.071 450.29 160.657 450.422 160.333 450.686C160.021 450.938 159.865 451.292 159.865 451.748C159.865 452.204 159.979 452.564 160.207 452.828C160.447 453.08 160.759 453.278 161.143 453.422C161.527 453.554 161.947 453.674 162.403 453.782C162.859 453.89 163.315 454.022 163.771 454.178C164.227 454.334 164.647 454.526 165.031 454.754C165.415 454.982 165.721 455.318 165.949 455.762C166.189 456.194 166.309 456.722 166.309 457.346C166.309 458.378 165.895 459.266 165.067 460.01C164.251 460.754 163.159 461.126 161.791 461.126C160.435 461.126 159.337 460.808 158.497 460.172C157.657 459.524 157.237 458.618 157.237 457.454H159.937C160.033 458.558 160.663 459.11 161.827 459.11C162.403 459.11 162.859 458.96 163.195 458.66C163.531 458.36 163.699 457.964 163.699 457.472C163.699 456.968 163.477 456.572 163.033 456.284C162.589 455.996 162.049 455.78 161.413 455.636C160.789 455.492 160.159 455.318 159.523 455.114C158.887 454.91 158.347 454.556 157.903 454.052C157.459 453.536 157.237 452.858 157.237 452.018C157.237 450.878 157.651 449.966 158.479 449.282C159.307 448.598 160.369 448.256 161.665 448.256C162.973 448.256 164.023 448.556 164.815 449.156C165.607 449.744 166.039 450.644 166.111 451.856H163.339C163.291 451.376 163.111 450.998 162.799 450.722C162.487 450.434 162.079 450.29 161.575 450.29ZM171.548 448.49C171.548 448.922 171.398 449.288 171.098 449.588C170.798 449.888 170.432 450.038 170 450.038C169.58 450.038 169.22 449.888 168.92 449.588C168.62 449.288 168.47 448.922 168.47 448.49C168.47 448.058 168.62 447.692 168.92 447.392C169.22 447.092 169.58 446.942 170 446.942C170.432 446.942 170.798 447.092 171.098 447.392C171.398 447.692 171.548 448.058 171.548 448.49ZM168.74 461V451.028H171.278V461H168.74ZM174.608 459.704C173.72 458.732 173.276 457.496 173.276 455.996C173.276 454.496 173.72 453.272 174.608 452.324C175.496 451.364 176.624 450.884 177.992 450.884C179.36 450.884 180.404 451.448 181.124 452.576V451.028H183.644V461.072C183.644 462.5 183.224 463.664 182.384 464.564C181.544 465.476 180.362 465.932 178.838 465.932C177.326 465.932 176.12 465.614 175.22 464.978C174.332 464.354 173.828 463.46 173.708 462.296H176.192C176.348 462.74 176.648 463.088 177.092 463.34C177.536 463.604 178.094 463.736 178.766 463.736C179.438 463.736 179.996 463.514 180.44 463.07C180.896 462.626 181.124 461.96 181.124 461.072V459.326C180.368 460.538 179.318 461.144 177.974 461.144C176.63 461.144 175.508 460.664 174.608 459.704ZM180.332 458.174C180.86 457.646 181.124 456.926 181.124 456.014C181.124 455.102 180.86 454.388 180.332 453.872C179.804 453.344 179.186 453.08 178.478 453.08C177.77 453.08 177.152 453.338 176.624 453.854C176.108 454.37 175.85 455.084 175.85 455.996C175.85 456.908 176.114 457.628 176.642 458.156C177.17 458.684 177.782 458.948 178.478 458.948C179.186 458.948 179.804 458.69 180.332 458.174ZM188.873 451.028V452.522C189.509 451.43 190.541 450.884 191.969 450.884C193.109 450.884 194.039 451.262 194.759 452.018C195.479 452.762 195.839 453.8 195.839 455.132V461H193.319V455.492C193.319 454.712 193.121 454.118 192.725 453.71C192.329 453.29 191.789 453.08 191.105 453.08C190.421 453.08 189.875 453.29 189.467 453.71C189.071 454.118 188.873 454.712 188.873 455.492V461H186.335V451.028H188.873ZM203.843 461V448.436H206.381V461H203.843ZM211.619 451.028V452.522C212.255 451.43 213.287 450.884 214.715 450.884C215.855 450.884 216.785 451.262 217.505 452.018C218.225 452.762 218.585 453.8 218.585 455.132V461H216.065V455.492C216.065 454.712 215.867 454.118 215.471 453.71C215.075 453.29 214.535 453.08 213.851 453.08C213.167 453.08 212.621 453.29 212.213 453.71C211.817 454.118 211.619 454.712 211.619 455.492V461H209.081V451.028H211.619Z" fill="white"/>
</g>
<defs>
<linearGradient id="paint0_linear_386_1451" x1="186.984" y1="-0.0376587" x2="186.984" y2="323" gradientUnits="userSpaceOnUse">
<stop stop-color="#D5D5D5"/>
<stop offset="1" stop-color="white" stop-opacity="0"/>
</linearGradient>
<linearGradient id="paint1_linear_386_1451" x1="186" y1="166.5" x2="186" y2="381" gradientUnits="userSpaceOnUse">
<stop stop-color="white"/>
<stop offset="1" stop-color="#F2F2F2"/>
</linearGradient>
<clipPath id="clip0_386_1451">
<rect width="374" height="836" fill="white"/>
</clipPath>
</defs>
</svg>
