<svg width="308" height="219" viewBox="0 0 308 219" fill="none" xmlns="http://www.w3.org/2000/svg">
<path d="M0 202.001C10.6154 170.527 64.1489 148.468 111.478 166.749C111.478 166.749 137.645 132 200.527 132C276.493 132 307.398 202.001 307.398 202.001C307.398 202.001 307.398 218.5 155 218.5C2.60165 218.5 0 202.001 0 202.001Z" fill="#FFE7A0"/>
<path d="M111.478 166.749C119.289 169.72 125.295 175.26 125.295 175.26" stroke="#868686" stroke-width="1.4037" stroke-linecap="round" stroke-linejoin="round"/>
<path d="M236.841 156.375C243.983 154.159 250.324 150.583 255.131 146C240.444 137.792 222.289 132 200.527 132C197.121 132 193.85 132.101 190.715 132.302C188.045 137.238 187.709 142.425 190.379 147.159C196.656 158.388 217.481 162.57 236.841 156.375Z" fill="white"/>
<path opacity="0.3" d="M268.014 201.95C266.345 200.087 264.543 198.325 262.606 196.613C241.913 178.483 211.075 172.843 193.785 184.124C187.043 188.505 183.37 194.799 182.569 201.95H268.014Z" fill="#868686"/>
<path d="M67.7799 201.95C66.9791 195.403 69.3816 189.41 75.2573 185.634C86.8714 178.08 107.632 181.857 121.583 194.043C124.386 196.462 126.724 199.129 128.66 202L67.7799 201.95Z" fill="white"/>
<path opacity="0.3" d="M67.7799 201.95C67.2468 197.418 68.1803 193.187 70.7852 189.713C82.8673 199.332 105.898 198.879 121.583 194.043C124.386 196.461 126.723 199.129 128.66 202L67.7799 201.95Z" fill="#D7D7D7"/>
<path d="M108.633 201.95C107.164 190.519 111.438 180.043 121.716 173.346C142.076 160.101 178.39 166.698 202.757 188.051C207.629 192.282 211.768 196.964 215.104 201.95H108.633Z" fill="white"/>
<path opacity="0.3" d="M115.775 178.332C109.834 184.727 107.499 193.037 108.633 201.95H147.684C136.003 196.16 124.989 188.152 115.775 178.332Z" fill="#D7D7D7"/>
<path d="M108.633 201.901C107.9 196.763 108.5 191.576 110.435 186.642" stroke="#D7D7D7" stroke-width="1.4037" stroke-linecap="round" stroke-linejoin="round"/>
<path d="M285.903 203.408C289.5 203.408 291.539 202.833 292.184 201.643C292.693 200.692 292.318 199.267 291.03 197.295C289.84 195.53 286.784 193.154 283.559 190.677C279.281 187.381 274.424 183.612 272.691 180.317C271.947 178.892 271.199 177.092 270.417 175.155C270.146 174.478 269.873 173.765 269.567 173.085C267.36 167.821 264.746 162.662 260.468 162.662C254.085 162.662 245.322 172.439 245.255 172.541L245.831 203.341L285.903 203.408Z" fill="#AE805A"/>
<path d="M144.982 175.053C149.158 162.118 165.936 150.268 179.282 142.593C192.557 134.953 205.12 129.858 207.226 129.009C207.398 128.942 207.499 128.77 207.464 128.567C207.261 127.686 206.65 124.97 205.836 121.13C205.836 121.099 205.801 121.029 205.766 120.997C203.222 117.091 200.842 112.336 198.263 106.904C195.884 101.91 194.698 98.0748 192.898 93.1864C192.831 92.9828 192.897 92.7758 193.101 92.7091L199.179 89.9579C199.347 89.8912 199.418 89.7228 199.383 89.5508C197.379 78.7529 195.986 69.3481 196.631 67.1408C200.334 54.5075 214.595 52.7775 217.006 52.5739C217.21 52.5739 217.346 52.402 217.346 52.1985V49.549C217.346 49.3454 217.515 49.177 217.718 49.177H242.813C243.016 49.177 243.188 49.3454 243.188 49.5841C243.188 50.0929 243.188 50.6719 243.188 51.1457C243.188 51.2825 243.188 51.4194 243.153 51.5212C243.153 51.6896 243.29 51.8581 243.459 51.8932C244.954 52.1985 246.245 52.402 246.957 52.402C248.961 52.402 251.372 52.6055 254.018 53.2863C255.752 53.7285 257.654 54.304 259.317 55.2199C264.377 58.0062 267.262 62.7262 267.974 69.2464C268.823 77.1562 268.248 81.9779 262.644 98.0081C262.644 98.0081 262.644 98.0081 262.644 98.0397C262.135 103.847 262.577 109.655 263.9 115.291C264.581 118.246 265.532 121.201 266.718 124.019C274.087 141.572 273.238 153.865 263.798 163.747L263.732 163.817C263.528 164.02 263.324 164.189 263.121 164.392C260.538 166.972 249.944 172.067 245.599 172.916C245.427 172.948 245.462 173.187 245.462 173.359L245.768 203.001C245.768 203.205 245.599 203.377 245.396 203.377H169.024C160.163 203.377 152.043 199.064 147.291 191.796C143.93 186.497 143.112 180.861 144.982 175.053Z" fill="#8CC8C3"/>
<path d="M189.802 81.5042C187.36 75.1876 177.987 54.9147 176.562 52.3003C175.372 50.1281 174.183 49.6859 173.404 49.6859C172.825 49.6859 172.484 49.9245 172.484 49.9245C172.484 49.8895 172.046 47.7523 170.449 47.2084C170.175 47.1066 169.905 47.0715 169.666 47.0715C168.242 47.0715 167.733 48.5665 167.733 48.5665C167.291 48.5665 166.883 48.77 166.543 49.1771C162.606 53.8619 168.003 84.9327 168.073 85.238L179.243 84.6976L189.802 81.5042Z" fill="#AE805A"/>
<path d="M192.929 127.279C198.6 127.279 202.979 124.257 207.12 117.498C207.12 117.498 201.586 106.09 196.8 96.106C192.315 86.7995 189.974 81.9111 189.802 81.504L169.6 86.0871C170.245 91.2843 171.024 95.0181 172.249 100.078C174.014 107.276 174.895 113.628 177.615 117.905C180.977 123.169 185.051 126.226 189.771 126.973C189.771 126.973 189.771 126.973 189.802 126.973C190.925 127.177 191.943 127.279 192.929 127.279Z" fill="#8CC8C3"/>
<path d="M167.733 48.5664C167.154 51.451 167.698 62.4876 169.091 68.2603" stroke="#151413" stroke-width="1.4037" stroke-linecap="round" stroke-linejoin="round"/>
<path d="M172.488 49.9246C170.723 53.0478 171.47 58.7538 173.27 68.2603" stroke="#151413" stroke-width="1.4037" stroke-linecap="round" stroke-linejoin="round"/>
<path d="M189.774 81.504C189.774 81.504 189.806 81.504 189.806 81.5391C190.044 82.0795 192.389 86.9714 196.803 96.106L197.21 96.9552V96.9868C196.53 99.2292 193.95 100.654 190.588 100.654C187.907 100.654 185.086 99.738 182.643 97.9729C182.608 97.9378 182.573 97.9729 182.573 98.008C182.745 99.1274 184.51 111.589 177.685 117.87L177.583 117.94C174.867 113.659 172.625 107.82 170.859 100.654C169.638 95.5971 168.652 90.435 168.042 85.2729C168.042 85.2379 168.042 85.2379 168.073 85.2379L189.774 81.504Z" fill="#328278"/>
<path opacity="0.2" d="M192.929 127.279C198.6 127.279 202.979 124.257 207.12 117.498V117.463C206.885 116.989 201.485 105.851 196.8 96.0709C192.315 86.7679 189.974 81.876 189.802 81.4689C189.058 79.5002 186.476 75.7313 183.556 72.2326C180.296 68.3268 177.58 66.0212 176.288 66.0212C175.916 66.0212 175.678 66.1897 175.541 66.5617C175.541 66.6318 173.979 72.3694 184.71 91.6913C188.037 97.6676 191.841 106.528 192.522 113.424C193.403 122.253 190.213 126.429 189.802 126.903C189.771 126.938 189.802 126.973 189.837 126.973C191.297 127.208 191.739 127.279 192.929 127.279Z" fill="black"/>
<path d="M243.185 49.2436C243.318 39.9055 243.49 27.174 243.455 24.4578C243.42 19.4993 243.318 7.91879 235.577 3.60593C232.489 1.87588 228.278 0.959961 223.726 0.959961C218.227 0.959961 212.893 2.34963 209.159 4.76047C206.24 6.62739 204.643 8.93647 203.727 11.7228C202.706 14.8144 202.537 18.4465 202.334 22.4857C202.299 23.2682 202.197 24.8649 202.197 25.0684C202.197 25.0684 202.197 25.1 202.165 25.1C201.892 25.2018 198.804 26.223 198.733 27.546C198.667 29.1076 201.246 31.3149 201.246 31.3149C200.025 39.5335 202.604 42.6217 204.302 44.6605L204.404 44.7974C206.169 46.5625 209.261 47.5802 212.76 47.5802C214.49 47.5802 216.087 47.31 217.343 46.8328V49.212L243.185 49.2436Z" fill="#AE805A"/>
<path d="M230.488 17.4289C234.629 17.4289 237.721 17.0885 241.83 16.4779C240.844 9.88753 238.977 6.73272 234.868 4.42364C231.776 2.69008 228.313 1.70398 223.765 1.70398C218.262 1.70398 213.237 2.41986 209.163 4.72894C206.548 6.22037 204.682 8.83476 203.762 11.7229C203.832 11.758 210.012 15.6286 222.066 16.9516C224.849 17.2569 227.671 17.4289 230.488 17.4289Z" fill="#8CC8C3"/>
<path d="M210.588 80.8584C202.881 69.6884 193.915 57.7325 191.845 57.7325C191.438 57.7325 191.097 57.8693 190.827 58.143C190.044 58.9572 190.111 60.7223 190.146 61.3329C190.146 61.4031 190.146 61.4347 190.146 61.4698C188.041 58.7537 185.767 56.1042 183.356 53.6582C181.826 52.1317 180.64 51.8264 179.892 51.8264C179.211 51.8264 178.738 52.0966 178.499 52.3703C178.397 52.5037 178.229 52.6757 178.26 52.7774C178.26 52.7774 176.871 52.2335 175.885 53.3214C175.376 53.8969 174.969 54.5777 175.172 56.0375C175.137 56.0375 173.168 56.9183 176.19 66.5617C178.738 74.6435 183.082 81.0268 186.546 86.1889C188.177 88.5682 189.571 90.6386 190.451 92.3687L210.588 80.8584Z" fill="#AE805A"/>
<path d="M205.05 34.712C206.478 34.6453 207.801 33.9294 208.65 32.7749" stroke="#151413" stroke-width="1.4037" stroke-linecap="round" stroke-linejoin="round"/>
<path d="M207.633 24.2192C207.033 24.2192 206.548 23.7314 206.548 23.1313C206.548 22.5313 207.033 22.047 207.633 22.047C208.233 22.047 208.721 22.5313 208.721 23.1313C208.721 23.7314 208.233 24.2192 207.633 24.2192Z" fill="#231F20"/>
<path d="M207.531 128.907L208.893 134.308" stroke="black" stroke-width="1.4037" stroke-linecap="round" stroke-linejoin="round"/>
<path opacity="0.2" d="M225.291 102.219C225.158 101.91 224.34 100.317 222.744 98.1765C222 97.1589 221.182 96.0043 220.266 94.576V94.5445L234.054 87.175C234.085 87.175 234.121 87.2102 234.085 87.2102L225.326 102.219C225.361 102.251 225.326 102.251 225.291 102.219Z" fill="black"/>
<path opacity="0.2" d="M262.644 98.0397C262.408 100.654 262.338 103.339 262.475 105.918C262.714 109.076 263.152 112.235 263.9 115.291V115.326C263.289 116.411 262.51 117.432 261.591 118.551C260.675 119.639 259.587 120.688 258.401 121.71C256.057 123.745 253.239 125.647 250.249 127.177C247.192 128.739 244.003 129.925 241.013 130.605C239.451 130.946 235.987 131.592 235.651 131.592C247.024 126.257 257.145 115.052 262.644 98.0397Z" fill="black"/>
<path d="M190.146 61.4698L195.171 68.1936" stroke="#151413" stroke-width="1.4037" stroke-linecap="round" stroke-linejoin="round"/>
<path d="M178.359 52.7424C180.773 57.9712 187.188 68.7691 186.749 68.2603" stroke="#151413" stroke-width="1.4037" stroke-linecap="round" stroke-linejoin="round"/>
<path d="M182.335 70.9763C179.955 67.2425 176.899 62.1471 175.204 56.0375" stroke="#151413" stroke-width="1.4037" stroke-linecap="round" stroke-linejoin="round"/>
<path d="M168.073 164.291C161.96 167.754 145.863 178.043 152.348 197.295" stroke="black" stroke-width="1.4037" stroke-linecap="round" stroke-linejoin="round"/>
<path d="M290.654 197.295C289.602 198.758 287.668 199.334 286.342 199.537" stroke="#151413" stroke-width="1.4037" stroke-linecap="round" stroke-linejoin="round"/>
<path d="M287.77 194.003C286.921 194.919 284.882 195.498 284.882 195.498" stroke="#151413" stroke-width="1.4037" stroke-linecap="round" stroke-linejoin="round"/>
<path d="M224.779 71.9975C233.913 71.9975 239.381 66.7336 242.367 62.319C245.596 57.5289 246.68 52.7072 246.715 52.6406C249.161 52.6406 251.604 52.8792 254.014 53.3213C254.253 52.5037 254.425 51.7562 254.527 51.0438C255.408 45.5765 253.067 42.5901 250.382 39.158C247.768 35.7997 244.813 32.0273 244.167 25.1351C244.136 24.6263 244.066 24.0823 244.034 23.5068C243.388 16.3761 242.606 7.47662 235.612 3.60593C232.52 1.87588 228.309 0.959961 223.761 0.959961C218.259 0.959961 212.893 2.34963 209.159 4.76047C209.261 4.79557 217.989 9.37863 217.308 25.8159C216.869 36.849 219.245 40.281 222.028 44.2535L222.165 44.457C219.21 46.1871 216.494 47.2398 211.198 47.5486C210.279 48.2926 209.566 49.4155 209.022 50.7385C207.836 53.8302 207.801 58.0728 209.159 61.8418C211.503 68.2953 217.174 71.9975 224.779 71.9975Z" fill="#328278"/>
<path opacity="0.2" d="M214.525 49.6191C212.419 49.6191 210.654 49.9911 209.124 50.6719C209.093 50.6719 209.057 50.6718 209.093 50.6367C209.531 49.4822 210.247 48.3628 211.198 47.5135C211.198 47.5135 211.198 47.5135 211.23 47.5135C216.458 47.2082 219.21 46.1554 222.164 44.4219H222.2C222.266 44.5236 222.607 45.0676 223.217 45.7484C223.898 46.5274 225.084 47.7171 226.783 49.1102V49.1418C226.411 49.9595 225.628 50.3665 224.305 50.4683C223.116 50.535 221.656 50.3314 219.992 50.0928C218.329 49.8577 216.458 49.6507 214.525 49.6191C214.592 49.6191 214.56 49.6191 214.525 49.6191Z" fill="black"/>
<path opacity="0.2" d="M254.014 53.2863C254.253 52.5037 254.425 51.7563 254.527 51.0123H254.253C251.74 51.0123 250.993 49.3138 250.316 47.7838C249.838 46.731 249.126 45.78 247.936 45.78C247.905 45.78 247.905 45.78 247.905 45.8151C247.564 48.6681 246.852 52.1984 246.715 52.6055C246.715 52.6406 246.715 52.6406 246.75 52.6406C249.193 52.6406 251.604 52.8792 254.014 53.2863Z" fill="black"/>
<path d="M211.202 47.5486C218.125 47.31 222.168 44.4219 222.168 44.4219" stroke="black" stroke-width="1.4037" stroke-linecap="round" stroke-linejoin="round"/>
<path d="M246.715 52.6406C247.122 50.7035 247.564 48.1593 247.905 45.78" stroke="black" stroke-width="1.4037" stroke-linecap="round" stroke-linejoin="round"/>
<path d="M210.552 80.8584H210.584C213.574 85.0344 216.799 89.621 220.161 94.4427C221.112 95.8323 221.961 97.0886 222.708 98.1414V98.1765C221.554 100.486 218.125 100.928 215.476 100.928C213.132 100.928 210.991 100.552 210.584 100.45C210.552 100.45 210.552 100.486 210.552 100.486C211.23 101.64 220.67 118.551 213.3 129.044C213.3 129.044 213.269 129.079 213.269 129.044C212.791 128.875 204.948 125.647 196.902 107.785C194.15 102.388 192.283 97.6677 190.416 92.3371V92.302L210.552 80.8584Z" fill="#328278"/>
<path d="M178.257 52.6406C174.863 51.9598 175.204 56.0376 175.204 56.0376C175.204 56.0376 173.165 56.8166 176.222 66.5618C179.955 78.4476 187.732 86.9715 190.448 92.4038L193.336 100.114" stroke="#151413" stroke-width="1.4037" stroke-linecap="round" stroke-linejoin="round"/>
<path d="M225.39 102.149L234.082 87.175" stroke="black" stroke-width="1.4037" stroke-linecap="round" stroke-linejoin="round"/>
<path d="M222.673 98.2433C225.561 102.489 226.818 104.595 226.818 104.595" stroke="black" stroke-width="1.4037" stroke-linecap="round" stroke-linejoin="round"/>
<path d="M213.335 129.11C216.529 131.286 220.196 132.711 224 133.286C238.77 135.529 255.713 118.074 261.657 101.503L262.675 98.1097" stroke="black" stroke-width="1.4037" stroke-linecap="round" stroke-linejoin="round"/>
<path d="M205.461 178.282C205.461 178.282 233.952 175.566 245.498 172.846C245.498 172.846 258.229 169.997 263.732 163.782" stroke="black" stroke-width="1.4037" stroke-linecap="round" stroke-linejoin="round"/>
<path opacity="0.2" d="M216.971 179.503C222.47 179.503 228.516 179.3 233.98 178.928L234.559 178.893C241.35 178.415 256.766 176.991 269.536 173.085C269.567 173.085 269.567 173.05 269.567 173.05C268.006 169.316 266.174 165.582 263.763 163.782C261.826 165.817 257.955 167.856 254.253 169.453C250.449 171.081 246.985 172.678 245.494 172.846C244.915 172.881 236.903 174.92 205.457 178.282C205.187 178.384 205.085 178.517 205.085 178.619C205.222 179.131 209.77 179.503 216.971 179.503Z" fill="black"/>
</svg>
