<svg width="177" height="233" viewBox="0 0 177 233" fill="none" xmlns="http://www.w3.org/2000/svg">
<path d="M85.7993 216.761C133.194 216.761 171.599 168.248 171.599 108.38C171.599 48.5129 133.194 0 85.7993 0C38.4042 0 0 48.5129 0 108.38C0 168.248 38.4042 216.761 85.7993 216.761Z" fill="#FFE7A0"/>
<path d="M116.014 232.919L111.546 216.918C111.546 216.918 104.812 215.054 99.0366 201.08C93.2612 187.104 83.3383 156.814 89.472 153.291C95.3989 149.884 98.693 158.249 99.9803 161.883C101.271 165.514 105.983 177.067 105.983 177.067C105.983 177.067 99.989 148.166 98.9784 142.204C97.8571 135.598 99.7677 132.299 102.808 131.702C106.411 131.013 108.566 134.977 109.56 138.319C110.556 141.662 118.259 169.417 118.259 169.417C118.259 169.417 113.162 137.631 112.385 129.855C111.604 122.079 115.58 120.207 117.359 120.02C119.139 119.837 122.369 120.586 123.886 125.428C125.252 129.744 131.298 163.896 131.298 163.896C131.298 163.896 129.338 135.245 129.641 129.313C129.941 123.383 134.569 121.447 137.968 123.517C141.711 125.792 142.669 135.374 143.566 140.769C144.463 146.165 148.87 169.009 149.33 171.406C149.79 173.804 151.398 176.869 154.17 174.944C156.946 173.022 163.298 165.322 170.489 164.246C177.686 163.146 176.879 169.079 176.393 170.204C175.018 173.407 163.138 195.655 161.757 199.135C160.377 202.614 158.714 206.109 159.649 210.603C160.584 215.095 161.821 219.934 161.821 219.934L116.014 232.919Z" fill="#328278"/>
<path d="M116.014 232.919L161.821 219.934C161.821 219.934 151.229 214.468 136.41 219.31C120.464 224.53 116.014 232.919 116.014 232.919Z" fill="#2C5B55"/>
<path opacity="0.2" d="M116.014 232.919L161.821 219.934C161.821 219.934 151.229 214.468 136.41 219.31C120.464 224.53 116.014 232.919 116.014 232.919Z" fill="#070707"/>
<path d="M175.944 165.704C173.868 168.011 169.088 173.993 172.962 177.117C174.671 173.812 176.005 171.182 176.41 170.237C176.687 169.557 177.077 167.282 175.944 165.704Z" fill="#2C5B55"/>
<path opacity="0.2" d="M99.9803 161.883L101.151 179.526L105.983 177.067C105.983 177.067 101.271 165.514 99.9803 161.883Z" fill="black"/>
<path opacity="0.2" d="M113.52 171.292L118.259 169.417C118.259 169.417 112.985 150.456 110.611 141.983C110.931 146.241 113.52 171.292 113.52 171.292Z" fill="black"/>
<path opacity="0.2" d="M125.849 166.299L131.298 163.896C131.298 163.896 127.466 142.289 125.211 131.258C125.159 138.76 125.849 166.299 125.849 166.299Z" fill="black"/>
<path d="M101.058 180.007C109.099 173.9 118.935 167.889 133.107 163.616" stroke="black" stroke-width="4" stroke-linecap="round"/>
<path d="M70.3747 229.22C70.3747 229.22 76.8143 174.431 76.8055 165.089C76.7939 155.426 72.9669 153.466 70.098 155.475C67.2292 157.485 65.0215 162.335 63.0119 168.688C61.0023 175.043 58.1655 179.553 55.3317 176.213C52.4949 172.873 46.8767 160.979 48.2018 158.488C49.5241 155.998 59.8286 153.947 62.9624 151.973C66.9263 149.476 68.2864 143.637 58.0869 143.491C49.6901 143.383 41.0313 144.94 41.0313 144.94C41.0313 144.94 40.1575 127.158 36.2868 124.658C32.7015 122.348 30.2783 127.239 30.2783 127.239C30.2783 127.239 25.9737 125.906 25.0154 130.634C23.6873 137.267 21.4622 224.487 21.4622 224.487L70.3747 229.22Z" fill="#328278"/>
<path d="M28.1085 127.137C26.8591 127.262 25.5047 128.193 25.0184 130.64C24.8844 131.346 24.7155 132.912 24.5669 135.187C25.4203 134.887 26.1863 134.318 26.6697 133.551C27.4299 132.402 27.9017 129.062 28.1085 127.137Z" fill="#2C5B55"/>
<path d="M28.8017 133.688C29.8211 133.635 31.3909 133.049 32.5821 131.497C33.6627 130.115 34.3791 124.034 34.0762 124.031C31.7113 123.975 30.2696 127.219 30.2696 127.219C29.9463 128.213 28.8017 133.688 28.9823 133.72L28.8017 133.688Z" fill="#2C5B55"/>
<path d="M58.7888 146.687C59.6218 147.014 63.0206 147.629 65.8778 148.111C66.2477 145.812 64.3604 143.569 58.0869 143.491C57.717 143.488 57.4519 143.453 56.9801 143.485C56.9044 144.765 57.3704 146.098 58.7888 146.687Z" fill="#2C5B55"/>
<path d="M73.1241 154.915C72.6523 157.794 72.4251 163.272 73.7911 165.462C74.4493 166.509 75.5182 167.247 76.7385 167.48C76.791 166.497 76.823 165.684 76.8259 165.083C76.791 158.649 75.1308 155.344 73.1241 154.915Z" fill="#2C5B55"/>
<path d="M21.8379 224.522L69.9961 229.174C70.0398 228.643 62.1906 220.669 46.4631 219.097C31.4055 217.621 21.6486 224.192 21.6107 224.495L21.8379 224.522Z" fill="#2C5B55"/>
<path d="M30.156 127.297C28.4347 132.002 26.6814 157.61 26.6814 157.61" stroke="black" stroke-width="4" stroke-linecap="round"/>
<path d="M30.3948 157.812C31.2569 155.461 33.8753 150.074 35.6024 148.152C38.1508 145.296 40.8973 144.975 41.1886 144.902" stroke="black" stroke-width="4" stroke-linecap="round"/>
<path opacity="0.2" d="M32.7074 152.226C36.2373 145.807 41.0313 144.94 40.7284 144.914C41.0313 144.94 40.6934 138.229 39.5488 132.472C39.5488 132.472 39.4323 137.042 35.7043 142.805C32.7219 147.358 32.4045 150.75 32.7074 152.226Z" fill="black"/>
<path d="M113.052 71.4466L88.3565 47.1479L80.1258 39.0599H80.0879L70.8873 48.4312L58.8121 60.7162L54.2686 66.6662V66.7041L88.0856 103.407H88.1235L115.885 75.2966V75.2587L113.052 71.4466Z" fill="#8CC8C3"/>
<path d="M58.8121 60.7542L53.2987 66.3542C51.592 68.1042 51.592 70.9421 53.3366 72.6542L85.9129 104.729C86.1838 105 86.6497 105 86.9206 104.729L95.0348 96.4483L58.8121 60.7542Z" fill="#BBBBBB"/>
<path d="M86.4954 105.35L85.9508 104.845C84.3576 103.253 84.3198 100.686 85.9129 99.0908L113.052 71.4467L116.427 74.7921L119.145 77.4754C119.261 77.5921 119.261 77.8254 119.145 77.9421L92.2418 105.35C90.6865 106.907 88.1643 106.945 86.4954 105.35Z" fill="#FAFAFA"/>
<path d="M122.587 51.9224L132.778 35.5074" stroke="#2C5B55" stroke-width="4" stroke-linecap="round" stroke-linejoin="round"/>
<path d="M123.088 77.8662L149.088 64.3503" stroke="#2C5B55" stroke-width="4" stroke-linecap="round" stroke-linejoin="round"/>
<path d="M132.495 94.1295L147.739 95.3458" stroke="#2C5B55" stroke-width="4" stroke-linecap="round" stroke-linejoin="round"/>
<path d="M49.7804 50.5808L38.8644 34.6412" stroke="#2C5B55" stroke-width="4" stroke-linecap="round" stroke-linejoin="round"/>
<path d="M50.4445 76.5216L23.865 64.187" stroke="#2C5B55" stroke-width="4" stroke-linecap="round" stroke-linejoin="round"/>
<path d="M41.7769 93.1904L26.5999 95.0892" stroke="#2C5B55" stroke-width="4" stroke-linecap="round" stroke-linejoin="round"/>
</svg>
